M48
;Layer_Color=9474304
;FILE_FORMAT=2:4
INCH,TZ
;TYPE=PLATED
T01F00S00C0.0280
T02F00S00C0.0354
T03F00S00C0.0551
T04F00S00C0.0591
T05F00S00C0.0650
;TYPE=NON_PLATED
T06F00S00C0.0551
T07F00S00C0.1260
%
T01
X433Y472
X1280
X2126
X2146Y1378
X1299
X453
X433Y2244
X1280
X2126
X1220Y3386
X1142Y7323
X394Y6969
X12362Y5000
T02
X5374Y2835
X6358
X8917
X9902
T03
X2677Y6244
Y8386
Y10528
T04
X4465Y9055
X12621
T05
X13780Y13039
Y14598
X2343
Y13039
T06
X15118Y15189
X3681
T07
X2441Y3976
X13307
X7874Y12677
M30
