G04*
G04 #@! TF.GenerationSoftware,Altium Limited,Altium Designer,23.10.1 (27)*
G04*
G04 Layer_Color=65535*
%FSLAX25Y25*%
%MOIN*%
G70*
G04*
G04 #@! TF.SameCoordinates,C07C27E9-E0E0-4E4E-9050-A674B6DD9AC8*
G04*
G04*
G04 #@! TF.FilePolarity,Positive*
G04*
G01*
G75*
%ADD10C,0.00984*%
%ADD11C,0.00787*%
%ADD12C,0.01575*%
%ADD13C,0.01000*%
D10*
X23917Y160335D02*
X23179Y160761D01*
Y159908D01*
X23917Y160335D01*
X138287D02*
X137549Y160761D01*
Y159908D01*
X138287Y160335D01*
X75886Y28346D02*
X75148Y28773D01*
Y27920D01*
X75886Y28346D01*
X111319D02*
X110581Y28773D01*
Y27920D01*
X111319Y28346D01*
D11*
X2559Y118898D02*
Y157480D01*
X40748D01*
Y118898D02*
Y147658D01*
Y156122D02*
Y157480D01*
X2559Y118898D02*
X40748D01*
X14764Y85039D02*
Y100787D01*
X1772Y85039D02*
Y100787D01*
X16673Y115748D02*
X37539D01*
X16673Y51968D02*
X37539D01*
X16673D02*
Y115748D01*
X37539Y51968D02*
Y115748D01*
X35571Y51968D02*
Y115748D01*
X116929Y118898D02*
X155118D01*
Y156122D02*
Y157480D01*
Y118898D02*
Y147658D01*
X116929Y157480D02*
X155118D01*
X116929Y118898D02*
Y157480D01*
X94390Y72913D02*
Y108189D01*
X50756Y90551D02*
X67520D01*
X103347D02*
X120110D01*
X103347Y72638D02*
Y108465D01*
X67520D02*
X103347D01*
X67520Y72638D02*
Y108465D01*
Y72638D02*
X103347D01*
X78161Y43819D02*
X82677D01*
Y69567D01*
X78161D02*
X82677D01*
X73425Y1969D02*
Y34252D01*
X43898D02*
X73425D01*
X43898Y1969D02*
Y34252D01*
Y1969D02*
X73425D01*
X108858D02*
Y34252D01*
X79331D02*
X108858D01*
X79331Y1969D02*
Y34252D01*
Y1969D02*
X108858D01*
D12*
X129035Y55118D02*
Y58268D01*
X13484Y40157D02*
Y43307D01*
D13*
X77772Y39057D02*
X83019D01*
X80396Y41681D02*
Y36433D01*
X49213Y156692D02*
X47901D01*
X48557D01*
Y153412D01*
X47901Y152757D01*
X47245D01*
X46589Y153412D01*
X50524Y152757D02*
X51836D01*
X51180D01*
Y156692D01*
X50524Y156036D01*
X119949Y61418D02*
Y65354D01*
X117981Y63386D01*
X120605D01*
X121917Y64698D02*
X122573Y65354D01*
X123885D01*
X124541Y64698D01*
Y62074D01*
X123885Y61418D01*
X122573D01*
X121917Y62074D01*
Y64698D01*
X125853D02*
X126509Y65354D01*
X127821D01*
X128477Y64698D01*
Y62074D01*
X127821Y61418D01*
X126509D01*
X125853Y62074D01*
Y64698D01*
X129789Y65354D02*
Y62730D01*
X131100Y61418D01*
X132412Y62730D01*
Y65354D01*
X37826Y45669D02*
X33827D01*
X32828Y44670D01*
Y42670D01*
X33827Y41671D01*
X37826D01*
X38826Y42670D01*
Y44670D01*
X36826Y43670D02*
X38826Y45669D01*
Y44670D02*
X37826Y45669D01*
X38826Y47669D02*
Y49668D01*
Y48668D01*
X32828D01*
X33827Y47669D01*
X27610Y4017D02*
X26954Y3362D01*
Y2050D01*
X27610Y1394D01*
X30234D01*
X30890Y2050D01*
Y3362D01*
X30234Y4017D01*
X30890Y5329D02*
X28266D01*
X26954Y6641D01*
X28266Y7953D01*
X30890D01*
X28922D01*
Y5329D01*
X30890Y9265D02*
X26954D01*
Y11233D01*
X27610Y11889D01*
X28922D01*
X29578Y11233D01*
Y9265D01*
X27610Y19760D02*
X26954Y19105D01*
Y17793D01*
X27610Y17137D01*
X30234D01*
X30890Y17793D01*
Y19105D01*
X30234Y19760D01*
X28922D01*
Y18449D01*
X30890Y21072D02*
X26954D01*
X30890Y23696D01*
X26954D01*
Y25008D02*
X30890D01*
Y26976D01*
X30234Y27632D01*
X27610D01*
X26954Y26976D01*
Y25008D01*
X125248Y8742D02*
X124592Y8086D01*
Y6774D01*
X125248Y6118D01*
X127872D01*
X128527Y6774D01*
Y8086D01*
X127872Y8742D01*
X128527Y10054D02*
X125904D01*
X124592Y11366D01*
X125904Y12678D01*
X128527D01*
X126560D01*
Y10054D01*
X128527Y13990D02*
X124592D01*
Y15958D01*
X125248Y16613D01*
X126560D01*
X127216Y15958D01*
Y13990D01*
X126560Y17925D02*
Y20549D01*
X125248Y19237D02*
X127872D01*
X51394Y37220D02*
X56641D01*
X97457Y36827D02*
X102704D01*
X61236Y39057D02*
X66484D01*
X63860Y41681D02*
Y36433D01*
X148244Y114254D02*
X153492D01*
X150868Y116878D02*
Y111630D01*
X37614Y160973D02*
X40238D01*
X38926Y162285D02*
Y159661D01*
X110631Y128084D02*
Y126772D01*
Y127428D01*
X113910D01*
X114566Y126772D01*
Y126116D01*
X113910Y125460D01*
X111286Y129396D02*
X110631Y130052D01*
Y131364D01*
X111286Y132020D01*
X111943D01*
X112598Y131364D01*
Y130708D01*
Y131364D01*
X113254Y132020D01*
X113910D01*
X114566Y131364D01*
Y130052D01*
X113910Y129396D01*
X107482Y60630D02*
Y63779D01*
X109056D01*
X109581Y63254D01*
Y62205D01*
X109056Y61680D01*
X107482D01*
X108531D02*
X109581Y60630D01*
X110630D02*
X111680D01*
X111155D01*
Y63779D01*
X110630Y63254D01*
X113254D02*
X113779Y63779D01*
X114828D01*
X115353Y63254D01*
Y61155D01*
X114828Y60630D01*
X113779D01*
X113254Y61155D01*
Y63254D01*
X6169Y48687D02*
X5644Y49212D01*
X4595D01*
X4070Y48687D01*
Y46588D01*
X4595Y46064D01*
X5644D01*
X6169Y46588D01*
Y47638D01*
X5120D01*
X7219Y46064D02*
Y48163D01*
X8268Y49212D01*
X9318Y48163D01*
Y46064D01*
Y47638D01*
X7219D01*
X10367Y49212D02*
X12466D01*
X11417D01*
Y46064D01*
X15615Y49212D02*
X13516D01*
Y46064D01*
X15615D01*
X13516Y47638D02*
X14565D01*
X91458Y117172D02*
Y111174D01*
X94457D01*
X95457Y112174D01*
Y116173D01*
X94457Y117172D01*
X91458D01*
X101455Y111174D02*
X97456D01*
X101455Y115173D01*
Y116173D01*
X100455Y117172D01*
X98456D01*
X97456Y116173D01*
X43851Y49151D02*
X49849D01*
Y52150D01*
X48850Y53150D01*
X44851D01*
X43851Y52150D01*
Y49151D01*
X49849Y55149D02*
Y57148D01*
Y56149D01*
X43851D01*
X44851Y55149D01*
X37730Y8270D02*
X37074Y7614D01*
Y6302D01*
X37730Y5646D01*
X38386D01*
X39042Y6302D01*
Y7614D01*
X39698Y8270D01*
X40354D01*
X41010Y7614D01*
Y6302D01*
X40354Y5646D01*
X37074Y9582D02*
Y10894D01*
Y10238D01*
X41010D01*
Y9582D01*
Y10894D01*
X37730Y15486D02*
X37074Y14830D01*
Y13518D01*
X37730Y12862D01*
X40354D01*
X41010Y13518D01*
Y14830D01*
X40354Y15486D01*
X39042D01*
Y14174D01*
X41666Y16798D02*
Y19421D01*
X37074Y20733D02*
Y22045D01*
Y21389D01*
X41010D01*
Y20733D01*
Y22045D01*
Y24013D02*
X37074D01*
X41010Y26637D01*
X37074D01*
X114960Y4596D02*
X111024D01*
X112992Y2628D01*
Y5252D01*
X111680Y6564D02*
X111024Y7220D01*
Y8532D01*
X111680Y9188D01*
X114304D01*
X114960Y8532D01*
Y7220D01*
X114304Y6564D01*
X111680D01*
Y10500D02*
X111024Y11156D01*
Y12468D01*
X111680Y13124D01*
X114304D01*
X114960Y12468D01*
Y11156D01*
X114304Y10500D01*
X111680D01*
X111024Y14435D02*
X113648D01*
X114960Y15747D01*
X113648Y17059D01*
X111024D01*
Y18371D02*
X114960D01*
Y20339D01*
X114304Y20995D01*
X111680D01*
X111024Y20339D01*
Y18371D01*
X111680Y24931D02*
X111024Y24275D01*
Y22963D01*
X111680Y22307D01*
X114304D01*
X114960Y22963D01*
Y24275D01*
X114304Y24931D01*
M02*
