G04*
G04 #@! TF.GenerationSoftware,Altium Limited,Altium Designer,23.10.1 (27)*
G04*
G04 Layer_Physical_Order=2*
G04 Layer_Color=16711680*
%FSLAX25Y25*%
%MOIN*%
G70*
G04*
G04 #@! TF.SameCoordinates,C07C27E9-E0E0-4E4E-9050-A674B6DD9AC8*
G04*
G04*
G04 #@! TF.FilePolarity,Positive*
G04*
G01*
G75*
%ADD13C,0.01000*%
%ADD26C,0.11811*%
%ADD27C,0.07874*%
%ADD28R,0.09843X0.09843*%
%ADD29C,0.09843*%
%ADD30C,0.05512*%
%ADD34C,0.09055*%
%ADD35R,0.09055X0.09055*%
%ADD36R,0.05512X0.05512*%
%ADD38C,0.03937*%
%ADD39R,0.08268X0.08268*%
%ADD40C,0.08268*%
%ADD41C,0.06000*%
%ADD42C,0.05000*%
G36*
X157480Y0D02*
X0D01*
Y163386D01*
X157480D01*
Y0D01*
D02*
G37*
%LPC*%
G36*
X151648Y155433D02*
X150715D01*
X149813Y155192D01*
X149005Y154725D01*
X148346Y154065D01*
X147879Y153257D01*
X147638Y152356D01*
Y151423D01*
X147879Y150522D01*
X148346Y149714D01*
X149005Y149054D01*
X149813Y148588D01*
X150715Y148346D01*
X151648D01*
X152549Y148588D01*
X153357Y149054D01*
X154016Y149714D01*
X154483Y150522D01*
X154724Y151423D01*
Y152356D01*
X154483Y153257D01*
X154016Y154065D01*
X153357Y154725D01*
X152549Y155192D01*
X151648Y155433D01*
D02*
G37*
G36*
X37277D02*
X36345D01*
X35443Y155192D01*
X34635Y154725D01*
X33976Y154065D01*
X33509Y153257D01*
X33268Y152356D01*
Y151423D01*
X33509Y150522D01*
X33976Y149714D01*
X34635Y149054D01*
X35443Y148588D01*
X36345Y148346D01*
X37277D01*
X38179Y148588D01*
X38987Y149054D01*
X39646Y149714D01*
X40113Y150522D01*
X40354Y151423D01*
Y152356D01*
X40113Y153257D01*
X39646Y154065D01*
X38987Y154725D01*
X38179Y155192D01*
X37277Y155433D01*
D02*
G37*
G36*
X144685Y152874D02*
X130905D01*
Y139094D01*
X144685D01*
Y152874D01*
D02*
G37*
G36*
X30315D02*
X16535D01*
Y139094D01*
X30315D01*
Y152874D01*
D02*
G37*
G36*
X138547Y136102D02*
X137044D01*
X135592Y135713D01*
X134290Y134962D01*
X133227Y133899D01*
X132476Y132597D01*
X132087Y131145D01*
Y129642D01*
X132476Y128190D01*
X133227Y126889D01*
X134290Y125826D01*
X135592Y125074D01*
X137044Y124685D01*
X138547D01*
X139999Y125074D01*
X141300Y125826D01*
X142363Y126889D01*
X143115Y128190D01*
X143504Y129642D01*
Y131145D01*
X143115Y132597D01*
X142363Y133899D01*
X141300Y134962D01*
X139999Y135713D01*
X138547Y136102D01*
D02*
G37*
G36*
X79438Y133858D02*
X78042D01*
X76673Y133586D01*
X75383Y133052D01*
X74223Y132276D01*
X73236Y131289D01*
X72460Y130128D01*
X71926Y128839D01*
X71653Y127470D01*
Y126074D01*
X71926Y124705D01*
X72460Y123415D01*
X73236Y122254D01*
X74223Y121267D01*
X75383Y120492D01*
X76673Y119957D01*
X78042Y119685D01*
X79438D01*
X80807Y119957D01*
X82097Y120492D01*
X83258Y121267D01*
X84245Y122254D01*
X85020Y123415D01*
X85554Y124705D01*
X85827Y126074D01*
Y127470D01*
X85554Y128839D01*
X85020Y130128D01*
X84245Y131289D01*
X83258Y132276D01*
X82097Y133052D01*
X80807Y133586D01*
X79438Y133858D01*
D02*
G37*
G36*
X131528Y95866D02*
X120898D01*
Y85236D01*
X131528D01*
Y95866D01*
D02*
G37*
G36*
X45293Y97047D02*
X44014D01*
X42759Y96798D01*
X41576Y96308D01*
X40512Y95597D01*
X39608Y94692D01*
X38897Y93628D01*
X38407Y92446D01*
X38157Y91191D01*
Y89911D01*
X38407Y88656D01*
X38897Y87474D01*
X39608Y86410D01*
X40512Y85505D01*
X41576Y84794D01*
X42759Y84305D01*
X44014Y84055D01*
X45293D01*
X46548Y84305D01*
X47731Y84794D01*
X48794Y85505D01*
X49699Y86410D01*
X50410Y87474D01*
X50900Y88656D01*
X51150Y89911D01*
Y91191D01*
X50900Y92446D01*
X50410Y93628D01*
X49699Y94692D01*
X48794Y95597D01*
X47731Y96308D01*
X46548Y96798D01*
X45293Y97047D01*
D02*
G37*
G36*
X27373Y89961D02*
X26171D01*
X24992Y89726D01*
X23881Y89266D01*
X22882Y88598D01*
X22032Y87748D01*
X21364Y86749D01*
X20904Y85638D01*
X20669Y84459D01*
Y83257D01*
X20904Y82078D01*
X21364Y80968D01*
X22032Y79968D01*
X22882Y79118D01*
X23881Y78450D01*
X24992Y77990D01*
X26171Y77756D01*
X27373D01*
X28552Y77990D01*
X29662Y78450D01*
X30662Y79118D01*
X31512Y79968D01*
X32179Y80968D01*
X32640Y82078D01*
X32874Y83257D01*
Y84459D01*
X32640Y85638D01*
X32179Y86749D01*
X31512Y87748D01*
X30662Y88598D01*
X29662Y89266D01*
X28552Y89726D01*
X27373Y89961D01*
D02*
G37*
G36*
X31693Y110197D02*
X21850D01*
Y102211D01*
X10489Y90849D01*
X10205Y90424D01*
X10105Y89921D01*
Y76266D01*
X9399Y75859D01*
X8787Y75247D01*
X8354Y74497D01*
X8130Y73661D01*
Y72796D01*
X8354Y71960D01*
X8787Y71210D01*
X9399Y70598D01*
X10148Y70165D01*
X10984Y69941D01*
X11850D01*
X12686Y70165D01*
X13436Y70598D01*
X14048Y71210D01*
X14481Y71960D01*
X14705Y72796D01*
Y73661D01*
X14481Y74497D01*
X14048Y75247D01*
X13436Y75859D01*
X12730Y76266D01*
Y89378D01*
X23707Y100354D01*
X31693D01*
Y110197D01*
D02*
G37*
G36*
X124122Y53490D02*
Y50500D01*
X127111D01*
X126883Y51351D01*
X126423Y52149D01*
X125771Y52801D01*
X124973Y53262D01*
X124122Y53490D01*
D02*
G37*
G36*
X123122D02*
X122271Y53262D01*
X121473Y52801D01*
X120821Y52149D01*
X120361Y51351D01*
X120133Y50500D01*
X123122D01*
Y53490D01*
D02*
G37*
G36*
X127111Y49500D02*
X124122D01*
Y46510D01*
X124973Y46738D01*
X125771Y47199D01*
X126423Y47851D01*
X126883Y48649D01*
X127111Y49500D01*
D02*
G37*
G36*
X123122D02*
X120133D01*
X120361Y48649D01*
X120821Y47851D01*
X121473Y47199D01*
X122271Y46738D01*
X123122Y46510D01*
Y49500D01*
D02*
G37*
G36*
X12705Y37348D02*
Y34358D01*
X15694D01*
X15466Y35209D01*
X15005Y36007D01*
X14354Y36659D01*
X13556Y37120D01*
X12705Y37348D01*
D02*
G37*
G36*
X11705D02*
X10854Y37120D01*
X10056Y36659D01*
X9404Y36007D01*
X8943Y35209D01*
X8715Y34358D01*
X11705D01*
Y37348D01*
D02*
G37*
G36*
X133769Y46850D02*
X132373D01*
X131004Y46578D01*
X129714Y46044D01*
X128553Y45268D01*
X127566Y44281D01*
X126791Y43121D01*
X126257Y41831D01*
X125984Y40462D01*
Y39066D01*
X126257Y37697D01*
X126791Y36407D01*
X127566Y35246D01*
X128553Y34259D01*
X129714Y33484D01*
X131004Y32950D01*
X132373Y32677D01*
X133769D01*
X135138Y32950D01*
X136428Y33484D01*
X137588Y34259D01*
X138575Y35246D01*
X139351Y36407D01*
X139885Y37697D01*
X140157Y39066D01*
Y40462D01*
X139885Y41831D01*
X139351Y43121D01*
X138575Y44281D01*
X137588Y45268D01*
X136428Y46044D01*
X135138Y46578D01*
X133769Y46850D01*
D02*
G37*
G36*
X4370Y72972D02*
X3504D01*
X2668Y72748D01*
X1918Y72316D01*
X1306Y71703D01*
X874Y70954D01*
X650Y70118D01*
Y69252D01*
X874Y68416D01*
X1157Y67925D01*
Y59055D01*
X1252Y58336D01*
X1530Y57665D01*
X1971Y57090D01*
X11814Y47247D01*
X12390Y46805D01*
X13060Y46528D01*
X13780Y46433D01*
X20735D01*
X20887Y45933D01*
X19892Y45268D01*
X18905Y44281D01*
X18129Y43121D01*
X17595Y41831D01*
X17323Y40462D01*
Y39066D01*
X17595Y37697D01*
X18129Y36407D01*
X18905Y35246D01*
X19892Y34259D01*
X21053Y33484D01*
X22342Y32950D01*
X23711Y32677D01*
X25107D01*
X26476Y32950D01*
X27766Y33484D01*
X28927Y34259D01*
X29914Y35246D01*
X30689Y36407D01*
X31224Y37697D01*
X31496Y39066D01*
Y40462D01*
X31224Y41831D01*
X30689Y43121D01*
X29914Y44281D01*
X28927Y45268D01*
X27932Y45933D01*
X28084Y46433D01*
X41565D01*
X56099Y31899D01*
X55792Y31499D01*
X55190Y31846D01*
X54240Y32101D01*
Y28846D01*
X57495D01*
X57240Y29796D01*
X56892Y30399D01*
X57292Y30706D01*
X60039Y27959D01*
Y24803D01*
X67126D01*
Y31890D01*
X63970D01*
X44682Y51178D01*
X44106Y51620D01*
X43436Y51898D01*
X42717Y51992D01*
X14931D01*
X6717Y60207D01*
Y67925D01*
X7000Y68416D01*
X7224Y69252D01*
Y70118D01*
X7000Y70954D01*
X6568Y71703D01*
X5956Y72316D01*
X5206Y72748D01*
X4370Y72972D01*
D02*
G37*
G36*
X15694Y33358D02*
X12705D01*
Y30369D01*
X13556Y30597D01*
X14354Y31058D01*
X15005Y31709D01*
X15466Y32507D01*
X15694Y33358D01*
D02*
G37*
G36*
X11705D02*
X8715D01*
X8943Y32507D01*
X9404Y31709D01*
X10056Y31058D01*
X10854Y30597D01*
X11705Y30369D01*
Y33358D01*
D02*
G37*
G36*
X72992Y69166D02*
X26772D01*
X25460Y69037D01*
X24198Y68654D01*
X23035Y68033D01*
X22016Y67196D01*
X21180Y66177D01*
X20558Y65015D01*
X20176Y63753D01*
X20046Y62441D01*
X20176Y61129D01*
X20558Y59867D01*
X21180Y58705D01*
X22016Y57685D01*
X23035Y56849D01*
X24198Y56228D01*
X25460Y55845D01*
X26772Y55716D01*
X70206D01*
X94260Y31662D01*
X95279Y30825D01*
X96442Y30204D01*
X97704Y29821D01*
X99016Y29692D01*
X100328Y29821D01*
X101589Y30204D01*
X102752Y30825D01*
X103771Y31662D01*
X104608Y32681D01*
X105229Y33844D01*
X105612Y35105D01*
X105741Y36417D01*
X105612Y37729D01*
X105229Y38991D01*
X104608Y40154D01*
X103771Y41173D01*
X77748Y67196D01*
X76728Y68033D01*
X75566Y68654D01*
X74304Y69037D01*
X72992Y69166D01*
D02*
G37*
G36*
X53240Y32101D02*
X52290Y31846D01*
X51434Y31352D01*
X50735Y30653D01*
X50240Y29796D01*
X49986Y28846D01*
X53240D01*
Y32101D01*
D02*
G37*
G36*
X57495Y27847D02*
X54240D01*
Y24592D01*
X55190Y24847D01*
X56046Y25341D01*
X56746Y26040D01*
X57240Y26897D01*
X57495Y27847D01*
D02*
G37*
G36*
X53240D02*
X49986D01*
X50240Y26897D01*
X50735Y26040D01*
X51434Y25341D01*
X52290Y24847D01*
X53240Y24592D01*
Y27847D01*
D02*
G37*
G36*
X89795Y33071D02*
X88551D01*
X87350Y32749D01*
X86272Y32127D01*
X85393Y31247D01*
X84771Y30170D01*
X84449Y28968D01*
Y27724D01*
X84771Y26523D01*
X85393Y25446D01*
X86272Y24566D01*
X87350Y23944D01*
X88551Y23622D01*
X89795D01*
X90997Y23944D01*
X92074Y24566D01*
X92954Y25446D01*
X93576Y26523D01*
X93898Y27724D01*
Y28968D01*
X93576Y30170D01*
X92954Y31247D01*
X92074Y32127D01*
X90997Y32749D01*
X89795Y33071D01*
D02*
G37*
%LPD*%
D13*
X11417Y73228D02*
Y89921D01*
X26772Y105276D01*
D26*
X72992Y62441D02*
X99016Y36417D01*
X26772Y62441D02*
X72992D01*
D27*
X99016Y28346D02*
Y36417D01*
D28*
X23425Y145984D02*
D03*
X137795D02*
D03*
D29*
X23425Y130394D02*
D03*
X137795D02*
D03*
D30*
X36811Y151890D02*
D03*
X151181D02*
D03*
X53740Y28346D02*
D03*
X89173D02*
D03*
D34*
X44653Y90551D02*
D03*
D35*
X126213D02*
D03*
D36*
X63583Y28346D02*
D03*
X99016D02*
D03*
D38*
X42717Y49213D02*
X63583Y28346D01*
X3937Y59055D02*
X13780Y49213D01*
X42717D01*
X3937Y59055D02*
Y69685D01*
D39*
X26772Y105276D02*
D03*
D40*
Y83858D02*
D03*
Y62441D02*
D03*
D41*
X78740Y126772D02*
D03*
X133071Y39764D02*
D03*
X24409D02*
D03*
D42*
X11417Y73228D02*
D03*
X3937Y69685D02*
D03*
X12205Y33858D02*
D03*
X21457Y13780D02*
D03*
X12795Y22441D02*
D03*
X4528Y13780D02*
D03*
X21260Y22441D02*
D03*
X12795Y4724D02*
D03*
X4331D02*
D03*
X12992Y13780D02*
D03*
X21260Y4724D02*
D03*
X4331Y22441D02*
D03*
X123622Y50000D02*
D03*
M02*
