G04*
G04 #@! TF.GenerationSoftware,Altium Limited,Altium Designer,23.10.1 (27)*
G04*
G04 Layer_Color=16711935*
%FSLAX25Y25*%
%MOIN*%
G70*
G04*
G04 #@! TF.SameCoordinates,C07C27E9-E0E0-4E4E-9050-A674B6DD9AC8*
G04*
G04*
G04 #@! TF.FilePolarity,Negative*
G04*
G01*
G75*
%ADD26C,0.11811*%
%ADD27C,0.07874*%
%ADD28R,0.09843X0.09843*%
%ADD29C,0.09843*%
%ADD30C,0.05512*%
%ADD31R,0.09068X0.09068*%
%ADD32C,0.09068*%
%ADD33C,0.06800*%
%ADD34C,0.09055*%
%ADD35R,0.09055X0.09055*%
%ADD36R,0.05512X0.05512*%
%ADD37C,0.05800*%
D26*
X72992Y62441D02*
X99016Y36417D01*
X26772Y62441D02*
X72992D01*
D27*
X99016Y28346D02*
Y36417D01*
D28*
X23425Y145984D02*
D03*
X137795D02*
D03*
D29*
X23425Y130394D02*
D03*
X137795D02*
D03*
D30*
X36811Y151890D02*
D03*
X151181D02*
D03*
X53740Y28346D02*
D03*
X89173D02*
D03*
D31*
X26772Y105276D02*
D03*
D32*
Y83858D02*
D03*
Y62441D02*
D03*
D33*
X78740Y126772D02*
D03*
X133071Y39764D02*
D03*
X24409D02*
D03*
D34*
X44653Y90551D02*
D03*
D35*
X126213D02*
D03*
D36*
X63583Y28346D02*
D03*
X99016D02*
D03*
D37*
X11417Y73228D02*
D03*
X3937Y69685D02*
D03*
X12205Y33858D02*
D03*
X21457Y13780D02*
D03*
X12795Y22441D02*
D03*
X4528Y13780D02*
D03*
X21260Y22441D02*
D03*
X12795Y4724D02*
D03*
X4331D02*
D03*
X12992Y13780D02*
D03*
X21260Y4724D02*
D03*
X4331Y22441D02*
D03*
X123622Y50000D02*
D03*
M02*
