G04 #@! TF.GenerationSoftware,KiCad,Pcbnew,7.0.1*
G04 #@! TF.CreationDate,2023-06-08T18:27:25+10:00*
G04 #@! TF.ProjectId,ZVS,5a56532e-6b69-4636-9164-5f7063625858,rev?*
G04 #@! TF.SameCoordinates,Original*
G04 #@! TF.FileFunction,Soldermask,Top*
G04 #@! TF.FilePolarity,Negative*
%FSLAX46Y46*%
G04 Gerber Fmt 4.6, Leading zero omitted, Abs format (unit mm)*
G04 Created by KiCad (PCBNEW 7.0.1) date 2023-06-08 18:27:25*
%MOMM*%
%LPD*%
G01*
G04 APERTURE LIST*
%ADD10C,2.400000*%
%ADD11O,2.400000X2.400000*%
%ADD12R,1.600000X1.600000*%
%ADD13O,1.600000X1.600000*%
%ADD14C,3.840000*%
%ADD15C,1.400000*%
%ADD16O,1.400000X1.400000*%
%ADD17C,3.600000*%
%ADD18R,2.600000X2.600000*%
%ADD19O,2.600000X2.600000*%
%ADD20R,2.000000X1.905000*%
%ADD21O,2.000000X1.905000*%
%ADD22R,3.000000X3.000000*%
%ADD23C,3.000000*%
%ADD24C,5.000000*%
%ADD25R,1.905000X2.000000*%
%ADD26O,1.905000X2.000000*%
G04 APERTURE END LIST*
D10*
X122450000Y-66990000D03*
D11*
X142770000Y-66990000D03*
D12*
X122010000Y-110820000D03*
D13*
X122010000Y-118440000D03*
D14*
X130080000Y-77940000D03*
X155480000Y-77940000D03*
D15*
X123110000Y-78870000D03*
D16*
X123110000Y-71250000D03*
D12*
X123000000Y-88640000D03*
D13*
X123000000Y-81020000D03*
D10*
X134620000Y-88120000D03*
X134620000Y-110620000D03*
X147010000Y-88340000D03*
X147010000Y-110840000D03*
D15*
X122480000Y-120620000D03*
D16*
X122480000Y-128240000D03*
D15*
X123650000Y-91320000D03*
D16*
X123650000Y-98940000D03*
D17*
X132530000Y-142890000D03*
X122370000Y-142890000D03*
D18*
X158980000Y-67160000D03*
D19*
X146280000Y-67160000D03*
D18*
X123680000Y-161200000D03*
D19*
X136380000Y-161200000D03*
D20*
X124875000Y-102890000D03*
D21*
X124875000Y-105430000D03*
X124875000Y-107970000D03*
D22*
X158140000Y-160690000D03*
D23*
X153060000Y-160690000D03*
X147980000Y-160690000D03*
X142900000Y-160690000D03*
D17*
X149150000Y-142500000D03*
X159310000Y-142500000D03*
D24*
X157240000Y-92210000D03*
X157240000Y-106210000D03*
D10*
X140430000Y-152640000D03*
D11*
X140430000Y-132320000D03*
D14*
X155460000Y-121370000D03*
X130060000Y-121370000D03*
D25*
X140290000Y-82465000D03*
D26*
X142830000Y-82465000D03*
X145370000Y-82465000D03*
D25*
X145280000Y-116985000D03*
D26*
X142740000Y-116985000D03*
X140200000Y-116985000D03*
M02*
