G04 #@! TF.GenerationSoftware,KiCad,Pcbnew,7.0.1*
G04 #@! TF.CreationDate,2023-06-08T18:27:25+10:00*
G04 #@! TF.ProjectId,ZVS,5a56532e-6b69-4636-9164-5f7063625858,rev?*
G04 #@! TF.SameCoordinates,Original*
G04 #@! TF.FileFunction,Copper,L1,Top*
G04 #@! TF.FilePolarity,Positive*
%FSLAX46Y46*%
G04 Gerber Fmt 4.6, Leading zero omitted, Abs format (unit mm)*
G04 Created by KiCad (PCBNEW 7.0.1) date 2023-06-08 18:27:25*
%MOMM*%
%LPD*%
G01*
G04 APERTURE LIST*
G04 #@! TA.AperFunction,ComponentPad*
%ADD10C,2.400000*%
G04 #@! TD*
G04 #@! TA.AperFunction,ComponentPad*
%ADD11O,2.400000X2.400000*%
G04 #@! TD*
G04 #@! TA.AperFunction,ComponentPad*
%ADD12R,1.600000X1.600000*%
G04 #@! TD*
G04 #@! TA.AperFunction,ComponentPad*
%ADD13O,1.600000X1.600000*%
G04 #@! TD*
G04 #@! TA.AperFunction,ComponentPad*
%ADD14C,3.840000*%
G04 #@! TD*
G04 #@! TA.AperFunction,ComponentPad*
%ADD15C,1.400000*%
G04 #@! TD*
G04 #@! TA.AperFunction,ComponentPad*
%ADD16O,1.400000X1.400000*%
G04 #@! TD*
G04 #@! TA.AperFunction,ComponentPad*
%ADD17C,3.600000*%
G04 #@! TD*
G04 #@! TA.AperFunction,ComponentPad*
%ADD18R,2.600000X2.600000*%
G04 #@! TD*
G04 #@! TA.AperFunction,ComponentPad*
%ADD19O,2.600000X2.600000*%
G04 #@! TD*
G04 #@! TA.AperFunction,ComponentPad*
%ADD20R,2.000000X1.905000*%
G04 #@! TD*
G04 #@! TA.AperFunction,ComponentPad*
%ADD21O,2.000000X1.905000*%
G04 #@! TD*
G04 #@! TA.AperFunction,ComponentPad*
%ADD22R,3.000000X3.000000*%
G04 #@! TD*
G04 #@! TA.AperFunction,ComponentPad*
%ADD23C,3.000000*%
G04 #@! TD*
G04 #@! TA.AperFunction,ComponentPad*
%ADD24C,5.000000*%
G04 #@! TD*
G04 #@! TA.AperFunction,ComponentPad*
%ADD25R,1.905000X2.000000*%
G04 #@! TD*
G04 #@! TA.AperFunction,ComponentPad*
%ADD26O,1.905000X2.000000*%
G04 #@! TD*
G04 #@! TA.AperFunction,ViaPad*
%ADD27C,0.800000*%
G04 #@! TD*
G04 #@! TA.AperFunction,Conductor*
%ADD28C,2.000000*%
G04 #@! TD*
G04 #@! TA.AperFunction,Conductor*
%ADD29C,1.000000*%
G04 #@! TD*
G04 #@! TA.AperFunction,Conductor*
%ADD30C,0.500000*%
G04 #@! TD*
G04 APERTURE END LIST*
D10*
X122450000Y-66990000D03*
D11*
X142770000Y-66990000D03*
D12*
X122010000Y-110820000D03*
D13*
X122010000Y-118440000D03*
D14*
X130080000Y-77940000D03*
X155480000Y-77940000D03*
D15*
X123110000Y-78870000D03*
D16*
X123110000Y-71250000D03*
D12*
X123000000Y-88640000D03*
D13*
X123000000Y-81020000D03*
D10*
X134620000Y-88120000D03*
X134620000Y-110620000D03*
X147010000Y-88340000D03*
X147010000Y-110840000D03*
D15*
X122480000Y-120620000D03*
D16*
X122480000Y-128240000D03*
D15*
X123650000Y-91320000D03*
D16*
X123650000Y-98940000D03*
D17*
X132530000Y-142890000D03*
X122370000Y-142890000D03*
D18*
X158980000Y-67160000D03*
D19*
X146280000Y-67160000D03*
D18*
X123680000Y-161200000D03*
D19*
X136380000Y-161200000D03*
D20*
X124875000Y-102890000D03*
D21*
X124875000Y-105430000D03*
X124875000Y-107970000D03*
D22*
X158140000Y-160690000D03*
D23*
X153060000Y-160690000D03*
X147980000Y-160690000D03*
X142900000Y-160690000D03*
D17*
X149150000Y-142500000D03*
X159310000Y-142500000D03*
D24*
X157240000Y-92210000D03*
X157240000Y-106210000D03*
D10*
X140430000Y-152640000D03*
D11*
X140430000Y-132320000D03*
D14*
X155460000Y-121370000D03*
X130060000Y-121370000D03*
D25*
X140290000Y-82465000D03*
D26*
X142830000Y-82465000D03*
X145370000Y-82465000D03*
D25*
X145280000Y-116985000D03*
D26*
X142740000Y-116985000D03*
X140200000Y-116985000D03*
D27*
X120560481Y-137899191D03*
D28*
X123680000Y-161200000D02*
X123680000Y-144200000D01*
X122370000Y-142890000D02*
X126410000Y-138850000D01*
X126410000Y-110460000D02*
X134620000Y-102250000D01*
X123680000Y-144200000D02*
X122370000Y-142890000D01*
X126410000Y-138850000D02*
X126410000Y-110460000D01*
X134620000Y-102250000D02*
X134620000Y-88120000D01*
X142740000Y-125930000D02*
X142740000Y-116985000D01*
D29*
X160439511Y-68619511D02*
X158980000Y-67160000D01*
D28*
X159310000Y-142500000D02*
X142740000Y-125930000D01*
D29*
X157240000Y-106210000D02*
X160439511Y-103010489D01*
X160439511Y-103010489D02*
X160439511Y-68619511D01*
D28*
X147980000Y-160690000D02*
X147980000Y-143670000D01*
X149150000Y-142500000D02*
X132920000Y-142500000D01*
X132920000Y-142500000D02*
X132530000Y-142890000D01*
X147980000Y-143670000D02*
X149150000Y-142500000D01*
D30*
X120560481Y-137899191D02*
X120560481Y-107204519D01*
X120560481Y-107204519D02*
X124875000Y-102890000D01*
D28*
X129530489Y-154350489D02*
X129530489Y-141579511D01*
D29*
X123509511Y-112319511D02*
X123509511Y-119590489D01*
D28*
X138790000Y-132320000D02*
X140430000Y-132320000D01*
D29*
X123509511Y-119590489D02*
X122480000Y-120620000D01*
X122010000Y-110820000D02*
X123509511Y-112319511D01*
D28*
X129530489Y-141579511D02*
X138790000Y-132320000D01*
X136380000Y-161200000D02*
X129530489Y-154350489D01*
D29*
X146110000Y-66990000D02*
X146280000Y-67160000D01*
D28*
X123110000Y-78870000D02*
X126598344Y-78870000D01*
X123000000Y-88640000D02*
X124018344Y-88640000D01*
X124018344Y-88640000D02*
X130193344Y-82465000D01*
X140290000Y-82465000D02*
X140290000Y-69470000D01*
X126598344Y-78870000D02*
X130193344Y-82465000D01*
X140290000Y-69470000D02*
X142770000Y-66990000D01*
X130193344Y-82465000D02*
X140290000Y-82465000D01*
D29*
X142770000Y-66990000D02*
X146110000Y-66990000D01*
G04 #@! TA.AperFunction,Conductor*
G36*
X161817000Y-63496881D02*
G01*
X161863119Y-63543000D01*
X161880000Y-63606000D01*
X161880000Y-165004000D01*
X161863119Y-165067000D01*
X161817000Y-165113119D01*
X161754000Y-165130000D01*
X120096000Y-165130000D01*
X120033000Y-165113119D01*
X119986881Y-165067000D01*
X119970000Y-165004000D01*
X119970000Y-143739868D01*
X119989438Y-143672633D01*
X120041756Y-143626142D01*
X120110810Y-143614741D01*
X120175294Y-143641948D01*
X120215313Y-143699367D01*
X120240052Y-143772247D01*
X120373435Y-144042720D01*
X120540972Y-144293458D01*
X120739810Y-144520189D01*
X120966541Y-144719027D01*
X121128894Y-144827507D01*
X121217282Y-144886566D01*
X121474218Y-145013272D01*
X121487752Y-145019947D01*
X121678121Y-145084568D01*
X121773309Y-145116880D01*
X122069080Y-145175713D01*
X122077179Y-145177324D01*
X122076625Y-145180106D01*
X122121190Y-145194689D01*
X122163965Y-145240353D01*
X122179500Y-145300962D01*
X122179500Y-159361818D01*
X122166173Y-159418217D01*
X122129010Y-159462686D01*
X122022452Y-159542455D01*
X121936204Y-159657668D01*
X121885909Y-159792517D01*
X121879500Y-159852127D01*
X121879500Y-162547874D01*
X121885908Y-162607481D01*
X121936204Y-162742331D01*
X122022453Y-162857546D01*
X122053434Y-162880738D01*
X122137669Y-162943796D01*
X122272517Y-162994091D01*
X122332127Y-163000500D01*
X125027872Y-163000499D01*
X125027874Y-163000499D01*
X125057677Y-162997294D01*
X125087483Y-162994091D01*
X125222331Y-162943796D01*
X125337546Y-162857546D01*
X125423796Y-162742331D01*
X125474091Y-162607483D01*
X125480500Y-162547873D01*
X125480499Y-159852128D01*
X125474091Y-159792517D01*
X125423796Y-159657669D01*
X125337546Y-159542454D01*
X125230990Y-159462686D01*
X125193827Y-159418217D01*
X125180500Y-159361818D01*
X125180500Y-154288269D01*
X128026131Y-154288269D01*
X128029881Y-154378913D01*
X128029989Y-154384120D01*
X128029989Y-154412556D01*
X128032337Y-154440900D01*
X128032659Y-154446095D01*
X128036407Y-154536724D01*
X128041202Y-154559594D01*
X128043452Y-154575040D01*
X128045380Y-154598308D01*
X128067654Y-154686269D01*
X128068827Y-154691340D01*
X128087439Y-154780103D01*
X128095927Y-154801856D01*
X128100689Y-154816720D01*
X128106425Y-154839369D01*
X128142869Y-154922455D01*
X128144861Y-154927265D01*
X128177832Y-155011762D01*
X128189791Y-155031832D01*
X128196938Y-155045717D01*
X128206316Y-155067097D01*
X128255927Y-155143033D01*
X128258684Y-155147450D01*
X128305122Y-155225382D01*
X128320214Y-155243201D01*
X128329547Y-155255717D01*
X128342325Y-155275274D01*
X128403762Y-155342013D01*
X128407206Y-155345912D01*
X128425587Y-155367615D01*
X128445717Y-155387745D01*
X128449276Y-155391454D01*
X128510745Y-155458227D01*
X128529181Y-155472576D01*
X128540885Y-155482913D01*
X134588922Y-161530950D01*
X134622668Y-161592007D01*
X134654665Y-161732194D01*
X134727482Y-161917726D01*
X134753257Y-161983398D01*
X134888185Y-162217102D01*
X135056439Y-162428085D01*
X135147012Y-162512124D01*
X135254258Y-162611635D01*
X135347486Y-162675196D01*
X135477226Y-162763651D01*
X135603271Y-162824351D01*
X135720358Y-162880738D01*
X135777868Y-162898477D01*
X135978228Y-162960280D01*
X136245071Y-163000500D01*
X136514927Y-163000500D01*
X136514929Y-163000500D01*
X136781772Y-162960280D01*
X137039641Y-162880738D01*
X137282775Y-162763651D01*
X137505741Y-162611635D01*
X137703561Y-162428085D01*
X137871815Y-162217102D01*
X138006743Y-161983398D01*
X138105334Y-161732195D01*
X138165383Y-161469103D01*
X138185549Y-161200000D01*
X138165383Y-160930897D01*
X138110400Y-160690000D01*
X140894389Y-160690000D01*
X140914803Y-160975424D01*
X140914804Y-160975428D01*
X140975631Y-161255046D01*
X141075633Y-161523161D01*
X141093903Y-161556619D01*
X141212775Y-161774317D01*
X141384262Y-162003397D01*
X141586602Y-162205737D01*
X141586605Y-162205739D01*
X141815685Y-162377226D01*
X142066839Y-162514367D01*
X142334954Y-162614369D01*
X142614572Y-162675196D01*
X142900000Y-162695610D01*
X143185428Y-162675196D01*
X143465046Y-162614369D01*
X143733161Y-162514367D01*
X143984315Y-162377226D01*
X144213395Y-162205739D01*
X144415739Y-162003395D01*
X144587226Y-161774315D01*
X144724367Y-161523161D01*
X144824369Y-161255046D01*
X144885196Y-160975428D01*
X144905610Y-160690000D01*
X144885196Y-160404572D01*
X144824369Y-160124954D01*
X144724367Y-159856839D01*
X144587226Y-159605685D01*
X144480178Y-159462686D01*
X144415737Y-159376602D01*
X144213397Y-159174262D01*
X143984317Y-159002775D01*
X143941961Y-158979646D01*
X143733161Y-158865633D01*
X143465046Y-158765631D01*
X143289946Y-158727540D01*
X143185424Y-158704803D01*
X142900000Y-158684389D01*
X142614575Y-158704803D01*
X142454828Y-158739554D01*
X142334954Y-158765631D01*
X142066839Y-158865633D01*
X142066837Y-158865633D01*
X142066837Y-158865634D01*
X141815682Y-159002775D01*
X141586602Y-159174262D01*
X141384262Y-159376602D01*
X141212775Y-159605682D01*
X141075634Y-159856837D01*
X140975631Y-160124954D01*
X140914803Y-160404575D01*
X140894389Y-160690000D01*
X138110400Y-160690000D01*
X138105334Y-160667805D01*
X138006743Y-160416602D01*
X137871815Y-160182898D01*
X137703561Y-159971915D01*
X137505741Y-159788365D01*
X137282775Y-159636349D01*
X137282774Y-159636348D01*
X137039641Y-159519261D01*
X136781771Y-159439719D01*
X136775637Y-159438795D01*
X136737636Y-159426682D01*
X136705325Y-159403298D01*
X131316815Y-154014787D01*
X139414421Y-154014787D01*
X139573608Y-154123320D01*
X139804247Y-154234390D01*
X140048865Y-154309844D01*
X140302006Y-154348000D01*
X140557994Y-154348000D01*
X140811134Y-154309844D01*
X141055752Y-154234390D01*
X141286392Y-154123320D01*
X141445578Y-154014787D01*
X140430001Y-152999210D01*
X140429999Y-152999210D01*
X139414421Y-154014786D01*
X139414421Y-154014787D01*
X131316815Y-154014787D01*
X131067894Y-153765866D01*
X131040580Y-153724989D01*
X131030989Y-153676771D01*
X131030989Y-152640000D01*
X138717211Y-152640000D01*
X138736341Y-152895279D01*
X138793305Y-153144854D01*
X138886830Y-153383151D01*
X139014827Y-153604848D01*
X139055250Y-153655537D01*
X139055252Y-153655537D01*
X140070790Y-152640001D01*
X140789210Y-152640001D01*
X141804747Y-153655538D01*
X141804748Y-153655537D01*
X141845172Y-153604850D01*
X141973169Y-153383152D01*
X142066694Y-153144854D01*
X142123658Y-152895279D01*
X142142788Y-152639999D01*
X142123658Y-152384720D01*
X142066694Y-152135145D01*
X141973169Y-151896847D01*
X141845172Y-151675150D01*
X141804748Y-151624461D01*
X141804747Y-151624460D01*
X140789210Y-152639999D01*
X140789210Y-152640001D01*
X140070790Y-152640001D01*
X140070790Y-152639999D01*
X139055252Y-151624461D01*
X139055250Y-151624461D01*
X139014827Y-151675151D01*
X138886830Y-151896848D01*
X138793305Y-152135145D01*
X138736341Y-152384720D01*
X138717211Y-152640000D01*
X131030989Y-152640000D01*
X131030989Y-151265212D01*
X139414421Y-151265212D01*
X140429999Y-152280790D01*
X140430001Y-152280790D01*
X141445578Y-151265211D01*
X141286392Y-151156679D01*
X141055752Y-151045609D01*
X140811134Y-150970155D01*
X140557994Y-150932000D01*
X140302006Y-150932000D01*
X140048865Y-150970155D01*
X139804247Y-151045609D01*
X139573606Y-151156681D01*
X139414421Y-151265210D01*
X139414421Y-151265212D01*
X131030989Y-151265212D01*
X131030989Y-144890910D01*
X131048915Y-144826133D01*
X131097593Y-144779788D01*
X131163171Y-144765062D01*
X131226991Y-144786145D01*
X131288894Y-144827507D01*
X131377282Y-144886566D01*
X131634218Y-145013272D01*
X131647752Y-145019947D01*
X131838121Y-145084568D01*
X131933309Y-145116880D01*
X132229080Y-145175713D01*
X132530000Y-145195436D01*
X132830920Y-145175713D01*
X133126691Y-145116880D01*
X133322505Y-145050409D01*
X133412247Y-145019947D01*
X133412248Y-145019946D01*
X133412252Y-145019945D01*
X133682718Y-144886566D01*
X133933461Y-144719025D01*
X134160189Y-144520189D01*
X134359025Y-144293461D01*
X134443945Y-144166369D01*
X134517359Y-144056498D01*
X134562728Y-144015378D01*
X134622124Y-144000500D01*
X146353500Y-144000500D01*
X146416500Y-144017381D01*
X146462619Y-144063500D01*
X146479500Y-144126500D01*
X146479500Y-159314311D01*
X146473052Y-159354102D01*
X146454368Y-159389820D01*
X146292775Y-159605682D01*
X146155634Y-159856837D01*
X146055631Y-160124954D01*
X145994803Y-160404575D01*
X145974389Y-160690000D01*
X145994803Y-160975424D01*
X145994804Y-160975428D01*
X146055631Y-161255046D01*
X146155633Y-161523161D01*
X146173903Y-161556619D01*
X146292775Y-161774317D01*
X146464262Y-162003397D01*
X146666602Y-162205737D01*
X146666605Y-162205739D01*
X146895685Y-162377226D01*
X147146839Y-162514367D01*
X147414954Y-162614369D01*
X147694572Y-162675196D01*
X147980000Y-162695610D01*
X148265428Y-162675196D01*
X148545046Y-162614369D01*
X148813161Y-162514367D01*
X149064315Y-162377226D01*
X149293395Y-162205739D01*
X149495739Y-162003395D01*
X149667226Y-161774315D01*
X149804367Y-161523161D01*
X149904369Y-161255046D01*
X149965196Y-160975428D01*
X149985610Y-160690000D01*
X151054389Y-160690000D01*
X151074803Y-160975424D01*
X151074804Y-160975428D01*
X151135631Y-161255046D01*
X151235633Y-161523161D01*
X151253903Y-161556619D01*
X151372775Y-161774317D01*
X151544262Y-162003397D01*
X151746602Y-162205737D01*
X151746605Y-162205739D01*
X151975685Y-162377226D01*
X152226839Y-162514367D01*
X152494954Y-162614369D01*
X152774572Y-162675196D01*
X153060000Y-162695610D01*
X153345428Y-162675196D01*
X153625046Y-162614369D01*
X153893161Y-162514367D01*
X154144315Y-162377226D01*
X154373395Y-162205739D01*
X154575739Y-162003395D01*
X154747226Y-161774315D01*
X154884367Y-161523161D01*
X154984369Y-161255046D01*
X155045196Y-160975428D01*
X155047444Y-160944000D01*
X156132000Y-160944000D01*
X156132000Y-162238589D01*
X156138505Y-162299093D01*
X156189554Y-162435962D01*
X156277095Y-162552904D01*
X156394037Y-162640445D01*
X156530906Y-162691494D01*
X156591411Y-162698000D01*
X157886000Y-162698000D01*
X157886000Y-160944000D01*
X158394000Y-160944000D01*
X158394000Y-162698000D01*
X159688589Y-162698000D01*
X159749093Y-162691494D01*
X159885962Y-162640445D01*
X160002904Y-162552904D01*
X160090445Y-162435962D01*
X160141494Y-162299093D01*
X160148000Y-162238589D01*
X160148000Y-160944000D01*
X158394000Y-160944000D01*
X157886000Y-160944000D01*
X156132000Y-160944000D01*
X155047444Y-160944000D01*
X155065610Y-160690000D01*
X155047444Y-160436000D01*
X156132000Y-160436000D01*
X157886000Y-160436000D01*
X157886000Y-158682000D01*
X158394000Y-158682000D01*
X158394000Y-160436000D01*
X160148000Y-160436000D01*
X160148000Y-159141411D01*
X160141494Y-159080906D01*
X160090445Y-158944037D01*
X160002904Y-158827095D01*
X159885962Y-158739554D01*
X159749093Y-158688505D01*
X159688589Y-158682000D01*
X158394000Y-158682000D01*
X157886000Y-158682000D01*
X156591411Y-158682000D01*
X156530906Y-158688505D01*
X156394037Y-158739554D01*
X156277095Y-158827095D01*
X156189554Y-158944037D01*
X156138505Y-159080906D01*
X156132000Y-159141411D01*
X156132000Y-160436000D01*
X155047444Y-160436000D01*
X155045196Y-160404572D01*
X154984369Y-160124954D01*
X154884367Y-159856839D01*
X154747226Y-159605685D01*
X154640178Y-159462686D01*
X154575737Y-159376602D01*
X154373397Y-159174262D01*
X154144317Y-159002775D01*
X154101961Y-158979646D01*
X153893161Y-158865633D01*
X153625046Y-158765631D01*
X153449946Y-158727540D01*
X153345424Y-158704803D01*
X153060000Y-158684389D01*
X152774575Y-158704803D01*
X152614828Y-158739554D01*
X152494954Y-158765631D01*
X152226839Y-158865633D01*
X152226837Y-158865633D01*
X152226837Y-158865634D01*
X151975682Y-159002775D01*
X151746602Y-159174262D01*
X151544262Y-159376602D01*
X151372775Y-159605682D01*
X151235634Y-159856837D01*
X151135631Y-160124954D01*
X151074803Y-160404575D01*
X151054389Y-160690000D01*
X149985610Y-160690000D01*
X149965196Y-160404572D01*
X149904369Y-160124954D01*
X149804367Y-159856839D01*
X149667226Y-159605685D01*
X149602530Y-159519261D01*
X149505632Y-159389820D01*
X149486948Y-159354102D01*
X149480500Y-159314311D01*
X149480500Y-144883235D01*
X149493494Y-144827507D01*
X149529796Y-144783273D01*
X149581918Y-144759656D01*
X149665551Y-144743019D01*
X149746691Y-144726880D01*
X149769831Y-144719025D01*
X150032247Y-144629947D01*
X150032248Y-144629946D01*
X150032252Y-144629945D01*
X150302718Y-144496566D01*
X150553461Y-144329025D01*
X150780189Y-144130189D01*
X150979025Y-143903461D01*
X151146566Y-143652718D01*
X151279945Y-143382252D01*
X151299344Y-143325106D01*
X151310409Y-143292505D01*
X151376880Y-143096691D01*
X151435713Y-142800920D01*
X151455436Y-142500000D01*
X151435713Y-142199080D01*
X151376880Y-141903309D01*
X151344568Y-141808121D01*
X151279947Y-141617752D01*
X151244504Y-141545880D01*
X151146566Y-141347282D01*
X151014678Y-141149897D01*
X150979027Y-141096541D01*
X150780189Y-140869810D01*
X150553458Y-140670972D01*
X150302720Y-140503435D01*
X150032247Y-140370052D01*
X149746692Y-140273120D01*
X149450919Y-140214286D01*
X149169722Y-140195856D01*
X149150000Y-140194564D01*
X149149999Y-140194564D01*
X148849080Y-140214286D01*
X148553307Y-140273120D01*
X148267752Y-140370052D01*
X147997279Y-140503435D01*
X147746541Y-140670972D01*
X147519810Y-140869810D01*
X147443718Y-140956578D01*
X147400987Y-140988269D01*
X147348986Y-140999500D01*
X133879678Y-140999500D01*
X133843102Y-140994074D01*
X133809677Y-140978265D01*
X133742038Y-140933070D01*
X133682720Y-140893435D01*
X133412247Y-140760052D01*
X133126694Y-140663120D01*
X132892648Y-140616565D01*
X132832613Y-140586346D01*
X132796655Y-140529562D01*
X132795006Y-140462370D01*
X132828133Y-140403893D01*
X139374622Y-133857405D01*
X139415500Y-133830091D01*
X139463718Y-133820500D01*
X139597811Y-133820500D01*
X139652480Y-133832978D01*
X139806995Y-133907389D01*
X139876901Y-133928951D01*
X140050542Y-133982513D01*
X140302565Y-134020500D01*
X140557433Y-134020500D01*
X140557435Y-134020500D01*
X140809458Y-133982513D01*
X141053004Y-133907389D01*
X141282634Y-133796805D01*
X141493217Y-133653232D01*
X141680050Y-133479877D01*
X141838959Y-133280612D01*
X141966393Y-133059888D01*
X142059508Y-132822637D01*
X142116222Y-132574157D01*
X142135268Y-132320000D01*
X142116222Y-132065843D01*
X142059508Y-131817363D01*
X141966393Y-131580112D01*
X141838959Y-131359388D01*
X141680050Y-131160123D01*
X141493217Y-130986768D01*
X141493214Y-130986766D01*
X141493212Y-130986764D01*
X141282634Y-130843195D01*
X141053004Y-130732610D01*
X140809461Y-130657488D01*
X140809458Y-130657487D01*
X140557435Y-130619500D01*
X140302565Y-130619500D01*
X140050542Y-130657487D01*
X140050539Y-130657487D01*
X140050538Y-130657488D01*
X139806995Y-130732610D01*
X139652480Y-130807022D01*
X139597811Y-130819500D01*
X138890984Y-130819500D01*
X138875397Y-130818532D01*
X138852219Y-130815642D01*
X138761576Y-130819392D01*
X138756369Y-130819500D01*
X138727933Y-130819500D01*
X138699589Y-130821848D01*
X138694394Y-130822170D01*
X138603764Y-130825918D01*
X138580895Y-130830713D01*
X138565449Y-130832963D01*
X138542182Y-130834891D01*
X138454230Y-130857163D01*
X138449159Y-130858336D01*
X138360384Y-130876951D01*
X138338627Y-130885440D01*
X138323765Y-130890201D01*
X138301117Y-130895937D01*
X138218047Y-130932373D01*
X138213240Y-130934365D01*
X138128722Y-130967345D01*
X138108655Y-130979302D01*
X138094784Y-130986442D01*
X138073397Y-130995824D01*
X137997457Y-131045436D01*
X137993044Y-131048190D01*
X137915104Y-131094634D01*
X137897281Y-131109729D01*
X137884768Y-131119060D01*
X137865213Y-131131836D01*
X137798467Y-131193279D01*
X137794567Y-131196723D01*
X137772879Y-131215092D01*
X137752775Y-131235196D01*
X137749020Y-131238799D01*
X137682259Y-131300258D01*
X137667909Y-131318694D01*
X137657576Y-131330394D01*
X128540883Y-140447087D01*
X128529183Y-140457420D01*
X128510747Y-140471770D01*
X128449288Y-140538531D01*
X128445685Y-140542286D01*
X128425581Y-140562390D01*
X128407212Y-140584078D01*
X128403768Y-140587978D01*
X128342325Y-140654724D01*
X128329549Y-140674279D01*
X128320218Y-140686792D01*
X128305123Y-140704615D01*
X128258679Y-140782555D01*
X128255925Y-140786968D01*
X128206313Y-140862908D01*
X128196931Y-140884295D01*
X128189791Y-140898166D01*
X128177834Y-140918233D01*
X128144854Y-141002751D01*
X128142862Y-141007558D01*
X128106426Y-141090628D01*
X128100690Y-141113276D01*
X128095929Y-141128138D01*
X128087440Y-141149895D01*
X128068825Y-141238670D01*
X128067652Y-141243741D01*
X128045380Y-141331693D01*
X128043452Y-141354960D01*
X128041202Y-141370406D01*
X128036407Y-141393275D01*
X128032659Y-141483905D01*
X128032337Y-141489100D01*
X128029989Y-141517444D01*
X128029989Y-141545880D01*
X128029881Y-141551087D01*
X128026131Y-141641730D01*
X128029021Y-141664908D01*
X128029989Y-141680495D01*
X128029989Y-154249505D01*
X128029021Y-154265092D01*
X128026131Y-154288269D01*
X125180500Y-154288269D01*
X125180500Y-144300984D01*
X125181468Y-144285397D01*
X125184357Y-144262219D01*
X125180608Y-144171576D01*
X125180500Y-144166369D01*
X125180500Y-144137931D01*
X125179552Y-144126500D01*
X125178150Y-144109582D01*
X125177829Y-144104405D01*
X125174230Y-144017381D01*
X125174081Y-144013763D01*
X125169286Y-143990898D01*
X125167036Y-143975451D01*
X125165108Y-143952178D01*
X125161754Y-143938934D01*
X125142825Y-143864189D01*
X125141674Y-143859211D01*
X125123050Y-143770386D01*
X125114559Y-143748627D01*
X125109794Y-143733752D01*
X125104063Y-143711119D01*
X125078446Y-143652718D01*
X125067629Y-143628060D01*
X125065640Y-143623257D01*
X125032655Y-143538725D01*
X125020697Y-143518656D01*
X125013552Y-143504775D01*
X125004173Y-143483393D01*
X124954543Y-143407428D01*
X124951804Y-143403040D01*
X124905365Y-143325104D01*
X124890275Y-143307288D01*
X124880940Y-143294769D01*
X124868166Y-143275217D01*
X124806725Y-143208475D01*
X124803276Y-143204569D01*
X124784903Y-143182875D01*
X124784902Y-143182874D01*
X124764769Y-143162741D01*
X124761212Y-143159034D01*
X124701233Y-143093879D01*
X124675120Y-143050480D01*
X124668206Y-143000303D01*
X124675436Y-142890000D01*
X124667887Y-142774836D01*
X124675693Y-142722216D01*
X124704520Y-142677506D01*
X127399611Y-139982415D01*
X127411306Y-139972087D01*
X127429744Y-139957738D01*
X127491201Y-139890976D01*
X127494759Y-139887267D01*
X127514902Y-139867126D01*
X127533318Y-139845380D01*
X127536681Y-139841571D01*
X127598164Y-139774785D01*
X127610944Y-139755222D01*
X127620271Y-139742715D01*
X127635366Y-139724894D01*
X127681820Y-139646932D01*
X127684556Y-139642550D01*
X127734173Y-139566607D01*
X127743557Y-139545212D01*
X127750697Y-139531342D01*
X127762656Y-139511273D01*
X127795654Y-139426704D01*
X127797612Y-139421977D01*
X127834063Y-139338881D01*
X127839795Y-139316241D01*
X127844559Y-139301372D01*
X127853050Y-139279614D01*
X127871686Y-139190731D01*
X127872820Y-139185831D01*
X127895108Y-139097821D01*
X127897036Y-139074547D01*
X127899288Y-139059092D01*
X127904081Y-139036237D01*
X127907829Y-138945581D01*
X127908152Y-138940390D01*
X127910500Y-138912069D01*
X127910500Y-138883631D01*
X127910608Y-138878424D01*
X127914357Y-138787780D01*
X127911468Y-138764603D01*
X127910500Y-138749016D01*
X127910500Y-122918996D01*
X127925331Y-122859687D01*
X127966334Y-122814341D01*
X128023854Y-122793632D01*
X128084352Y-122802436D01*
X128133585Y-122838681D01*
X128292042Y-123030223D01*
X128514065Y-123238715D01*
X128760463Y-123417735D01*
X128760468Y-123417737D01*
X128760467Y-123417737D01*
X129027363Y-123564464D01*
X129310545Y-123676584D01*
X129465423Y-123716350D01*
X129605546Y-123752328D01*
X129907712Y-123790500D01*
X129907715Y-123790500D01*
X130212285Y-123790500D01*
X130212288Y-123790500D01*
X130514453Y-123752328D01*
X130514453Y-123752327D01*
X130809455Y-123676584D01*
X131092637Y-123564464D01*
X131359533Y-123417737D01*
X131605935Y-123238715D01*
X131827957Y-123030223D01*
X132022098Y-122795547D01*
X132185294Y-122538390D01*
X132314974Y-122262807D01*
X132409091Y-121973144D01*
X132466162Y-121673969D01*
X132485286Y-121370000D01*
X132466162Y-121066031D01*
X132409091Y-120766856D01*
X132314974Y-120477193D01*
X132185294Y-120201610D01*
X132022098Y-119944453D01*
X131909019Y-119807764D01*
X131827957Y-119709776D01*
X131605934Y-119501284D01*
X131359536Y-119322264D01*
X131092636Y-119175535D01*
X130918016Y-119106398D01*
X130809455Y-119063416D01*
X130809452Y-119063415D01*
X130809449Y-119063414D01*
X130514453Y-118987671D01*
X130212288Y-118949500D01*
X130212285Y-118949500D01*
X129907715Y-118949500D01*
X129907712Y-118949500D01*
X129605546Y-118987671D01*
X129310550Y-119063414D01*
X129027363Y-119175535D01*
X128760463Y-119322264D01*
X128514065Y-119501284D01*
X128292042Y-119709776D01*
X128133585Y-119901319D01*
X128084352Y-119937564D01*
X128023854Y-119946368D01*
X127966334Y-119925659D01*
X127925331Y-119880313D01*
X127910500Y-119821004D01*
X127910500Y-117092600D01*
X138747000Y-117092600D01*
X138761905Y-117272476D01*
X138761905Y-117272479D01*
X138761906Y-117272480D01*
X138779470Y-117341841D01*
X138821017Y-117505905D01*
X138917745Y-117726422D01*
X139049449Y-117928010D01*
X139212537Y-118105171D01*
X139330620Y-118197078D01*
X139402562Y-118253073D01*
X139407389Y-118255685D01*
X139614336Y-118367679D01*
X139842087Y-118445866D01*
X140079601Y-118485500D01*
X140320396Y-118485500D01*
X140320399Y-118485500D01*
X140557913Y-118445866D01*
X140785664Y-118367679D01*
X140997439Y-118253072D01*
X140997442Y-118253070D01*
X141036109Y-118222975D01*
X141100502Y-118197078D01*
X141168839Y-118209209D01*
X141220385Y-118255685D01*
X141239500Y-118322406D01*
X141239500Y-125829016D01*
X141238532Y-125844603D01*
X141235642Y-125867780D01*
X141239392Y-125958424D01*
X141239500Y-125963631D01*
X141239500Y-125992067D01*
X141241848Y-126020411D01*
X141242170Y-126025606D01*
X141245918Y-126116235D01*
X141250713Y-126139105D01*
X141252963Y-126154551D01*
X141254891Y-126177819D01*
X141277165Y-126265780D01*
X141278338Y-126270851D01*
X141296950Y-126359614D01*
X141305438Y-126381367D01*
X141310200Y-126396231D01*
X141315936Y-126418880D01*
X141352380Y-126501966D01*
X141354372Y-126506776D01*
X141387343Y-126591273D01*
X141399302Y-126611343D01*
X141406449Y-126625228D01*
X141415827Y-126646608D01*
X141465438Y-126722544D01*
X141468195Y-126726961D01*
X141514633Y-126804893D01*
X141529725Y-126822712D01*
X141539058Y-126835228D01*
X141551836Y-126854785D01*
X141613273Y-126921524D01*
X141616717Y-126925423D01*
X141635098Y-126947126D01*
X141655228Y-126967256D01*
X141658787Y-126970965D01*
X141720256Y-127037738D01*
X141738692Y-127052087D01*
X141750396Y-127062424D01*
X156975476Y-142287504D01*
X157004305Y-142332215D01*
X157012111Y-142384839D01*
X157004564Y-142499999D01*
X157024286Y-142800919D01*
X157083120Y-143096692D01*
X157180052Y-143382247D01*
X157313435Y-143652720D01*
X157480972Y-143903458D01*
X157679810Y-144130189D01*
X157906541Y-144329027D01*
X158157279Y-144496564D01*
X158157282Y-144496566D01*
X158414218Y-144623272D01*
X158427752Y-144629947D01*
X158618122Y-144694568D01*
X158713309Y-144726880D01*
X159009080Y-144785713D01*
X159310000Y-144805436D01*
X159610920Y-144785713D01*
X159906691Y-144726880D01*
X160102505Y-144660409D01*
X160192247Y-144629947D01*
X160192248Y-144629946D01*
X160192252Y-144629945D01*
X160462718Y-144496566D01*
X160713461Y-144329025D01*
X160940189Y-144130189D01*
X161139025Y-143903461D01*
X161306566Y-143652718D01*
X161439945Y-143382252D01*
X161459344Y-143325106D01*
X161470409Y-143292505D01*
X161536880Y-143096691D01*
X161595713Y-142800920D01*
X161615436Y-142500000D01*
X161595713Y-142199080D01*
X161536880Y-141903309D01*
X161504568Y-141808121D01*
X161439947Y-141617752D01*
X161404504Y-141545880D01*
X161306566Y-141347282D01*
X161174678Y-141149897D01*
X161139027Y-141096541D01*
X160940189Y-140869810D01*
X160713458Y-140670972D01*
X160462720Y-140503435D01*
X160192247Y-140370052D01*
X159906692Y-140273120D01*
X159610919Y-140214286D01*
X159329722Y-140195856D01*
X159310000Y-140194564D01*
X159309999Y-140194564D01*
X159194839Y-140202111D01*
X159142215Y-140194305D01*
X159097504Y-140165476D01*
X144277405Y-125345377D01*
X144250091Y-125304500D01*
X144240500Y-125256282D01*
X144240500Y-121370000D01*
X153034713Y-121370000D01*
X153053837Y-121673967D01*
X153110908Y-121973143D01*
X153205025Y-122262806D01*
X153205026Y-122262807D01*
X153334706Y-122538390D01*
X153497902Y-122795547D01*
X153513450Y-122814341D01*
X153692042Y-123030223D01*
X153914065Y-123238715D01*
X154160463Y-123417735D01*
X154160468Y-123417737D01*
X154160467Y-123417737D01*
X154427363Y-123564464D01*
X154710545Y-123676584D01*
X154865423Y-123716350D01*
X155005546Y-123752328D01*
X155307712Y-123790500D01*
X155307715Y-123790500D01*
X155612285Y-123790500D01*
X155612288Y-123790500D01*
X155914453Y-123752328D01*
X155914453Y-123752327D01*
X156209455Y-123676584D01*
X156492637Y-123564464D01*
X156759533Y-123417737D01*
X157005935Y-123238715D01*
X157227957Y-123030223D01*
X157422098Y-122795547D01*
X157585294Y-122538390D01*
X157714974Y-122262807D01*
X157809091Y-121973144D01*
X157866162Y-121673969D01*
X157885286Y-121370000D01*
X157866162Y-121066031D01*
X157809091Y-120766856D01*
X157714974Y-120477193D01*
X157585294Y-120201610D01*
X157422098Y-119944453D01*
X157309019Y-119807764D01*
X157227957Y-119709776D01*
X157005934Y-119501284D01*
X156759536Y-119322264D01*
X156492636Y-119175535D01*
X156318016Y-119106398D01*
X156209455Y-119063416D01*
X156209452Y-119063415D01*
X156209449Y-119063414D01*
X155914453Y-118987671D01*
X155612288Y-118949500D01*
X155612285Y-118949500D01*
X155307715Y-118949500D01*
X155307712Y-118949500D01*
X155005546Y-118987671D01*
X154710550Y-119063414D01*
X154427363Y-119175535D01*
X154160463Y-119322264D01*
X153914065Y-119501284D01*
X153692042Y-119709776D01*
X153497900Y-119944455D01*
X153334706Y-120201609D01*
X153205026Y-120477192D01*
X153110908Y-120766856D01*
X153053837Y-121066032D01*
X153034713Y-121370000D01*
X144240500Y-121370000D01*
X144240500Y-118611500D01*
X144257381Y-118548500D01*
X144303500Y-118502381D01*
X144366500Y-118485500D01*
X146280374Y-118485499D01*
X146310177Y-118482295D01*
X146339983Y-118479091D01*
X146474831Y-118428796D01*
X146590046Y-118342546D01*
X146676296Y-118227331D01*
X146726591Y-118092483D01*
X146733000Y-118032873D01*
X146732999Y-115937128D01*
X146726591Y-115877517D01*
X146676296Y-115742669D01*
X146654612Y-115713702D01*
X146590046Y-115627453D01*
X146474831Y-115541204D01*
X146339983Y-115490909D01*
X146280372Y-115484500D01*
X144279625Y-115484500D01*
X144220018Y-115490908D01*
X144085168Y-115541204D01*
X143969953Y-115627453D01*
X143883703Y-115742669D01*
X143876894Y-115760925D01*
X143844262Y-115809513D01*
X143793199Y-115838115D01*
X143734722Y-115840560D01*
X143681448Y-115816322D01*
X143563510Y-115724527D01*
X143563509Y-115724526D01*
X143344810Y-115606172D01*
X143344809Y-115606171D01*
X143344806Y-115606170D01*
X143155565Y-115541204D01*
X143109614Y-115525429D01*
X142864335Y-115484500D01*
X142615665Y-115484500D01*
X142370386Y-115525429D01*
X142370383Y-115525429D01*
X142370383Y-115525430D01*
X142135193Y-115606170D01*
X141916489Y-115724527D01*
X141720255Y-115877262D01*
X141550711Y-116061437D01*
X141503813Y-116093479D01*
X141447607Y-116101669D01*
X141393515Y-116084341D01*
X141352529Y-116045018D01*
X141350549Y-116041987D01*
X141187466Y-115864832D01*
X141187465Y-115864831D01*
X141187463Y-115864829D01*
X141030510Y-115742668D01*
X140997437Y-115716926D01*
X140785663Y-115602320D01*
X140607636Y-115541204D01*
X140557913Y-115524134D01*
X140320399Y-115484500D01*
X140079601Y-115484500D01*
X139842087Y-115524134D01*
X139842084Y-115524134D01*
X139842084Y-115524135D01*
X139614336Y-115602320D01*
X139402562Y-115716926D01*
X139212533Y-115864832D01*
X139049450Y-116041988D01*
X138917745Y-116243577D01*
X138821016Y-116464096D01*
X138761906Y-116697519D01*
X138761905Y-116697524D01*
X138747000Y-116877400D01*
X138747000Y-117092600D01*
X127910500Y-117092600D01*
X127910500Y-111133718D01*
X127920091Y-111085500D01*
X127947405Y-111044623D01*
X128372028Y-110620000D01*
X132914732Y-110620000D01*
X132933778Y-110874157D01*
X132990492Y-111122637D01*
X133083607Y-111359888D01*
X133211041Y-111580612D01*
X133369950Y-111779877D01*
X133556783Y-111953232D01*
X133767366Y-112096805D01*
X133836483Y-112130090D01*
X133996995Y-112207389D01*
X134066901Y-112228951D01*
X134240542Y-112282513D01*
X134492565Y-112320500D01*
X134747433Y-112320500D01*
X134747435Y-112320500D01*
X134999458Y-112282513D01*
X135243004Y-112207389D01*
X135472634Y-112096805D01*
X135683217Y-111953232D01*
X135870050Y-111779877D01*
X136028959Y-111580612D01*
X136156393Y-111359888D01*
X136249508Y-111122637D01*
X136306222Y-110874157D01*
X136308782Y-110839999D01*
X145304732Y-110839999D01*
X145323778Y-111094158D01*
X145380491Y-111342636D01*
X145380492Y-111342637D01*
X145473607Y-111579888D01*
X145601041Y-111800612D01*
X145759950Y-111999877D01*
X145946783Y-112173232D01*
X145946785Y-112173233D01*
X145946787Y-112173235D01*
X145961843Y-112183500D01*
X146157366Y-112316805D01*
X146276410Y-112374134D01*
X146386995Y-112427389D01*
X146456901Y-112448951D01*
X146630542Y-112502513D01*
X146882565Y-112540500D01*
X147137433Y-112540500D01*
X147137435Y-112540500D01*
X147389458Y-112502513D01*
X147633004Y-112427389D01*
X147862634Y-112316805D01*
X148073217Y-112173232D01*
X148260050Y-111999877D01*
X148418959Y-111800612D01*
X148546393Y-111579888D01*
X148639508Y-111342637D01*
X148696222Y-111094157D01*
X148715268Y-110840000D01*
X148696222Y-110585843D01*
X148639508Y-110337363D01*
X148546393Y-110100112D01*
X148418959Y-109879388D01*
X148260050Y-109680123D01*
X148073217Y-109506768D01*
X148073214Y-109506766D01*
X148073212Y-109506764D01*
X147862634Y-109363195D01*
X147633004Y-109252610D01*
X147389461Y-109177488D01*
X147389458Y-109177487D01*
X147137435Y-109139500D01*
X146882565Y-109139500D01*
X146630542Y-109177487D01*
X146630539Y-109177487D01*
X146630538Y-109177488D01*
X146386995Y-109252610D01*
X146157365Y-109363195D01*
X145946787Y-109506764D01*
X145946781Y-109506768D01*
X145946783Y-109506768D01*
X145759950Y-109680123D01*
X145601041Y-109879388D01*
X145601039Y-109879391D01*
X145473607Y-110100111D01*
X145380492Y-110337362D01*
X145323778Y-110585841D01*
X145304732Y-110839999D01*
X136308782Y-110839999D01*
X136325268Y-110620000D01*
X136306222Y-110365843D01*
X136249508Y-110117363D01*
X136156393Y-109880112D01*
X136028959Y-109659388D01*
X135870050Y-109460123D01*
X135683217Y-109286768D01*
X135683214Y-109286766D01*
X135683212Y-109286764D01*
X135472634Y-109143195D01*
X135243004Y-109032610D01*
X134999461Y-108957488D01*
X134999458Y-108957487D01*
X134747435Y-108919500D01*
X134492565Y-108919500D01*
X134240542Y-108957487D01*
X134240539Y-108957487D01*
X134240538Y-108957488D01*
X133996995Y-109032610D01*
X133767365Y-109143195D01*
X133556787Y-109286764D01*
X133556781Y-109286768D01*
X133556783Y-109286768D01*
X133369950Y-109460123D01*
X133211041Y-109659388D01*
X133211039Y-109659391D01*
X133083607Y-109880111D01*
X132990492Y-110117362D01*
X132933778Y-110365841D01*
X132922059Y-110522221D01*
X132914732Y-110620000D01*
X128372028Y-110620000D01*
X129220089Y-109771939D01*
X132782026Y-106210000D01*
X154234414Y-106210000D01*
X154247196Y-106429441D01*
X154254738Y-106558927D01*
X154300675Y-106819449D01*
X154315431Y-106903136D01*
X154415675Y-107237975D01*
X154554110Y-107558903D01*
X154554111Y-107558904D01*
X154728870Y-107861596D01*
X154937588Y-108141953D01*
X155113034Y-108327915D01*
X155177447Y-108396188D01*
X155445187Y-108620848D01*
X155737200Y-108812909D01*
X155737203Y-108812910D01*
X155737207Y-108812913D01*
X156049549Y-108969777D01*
X156377989Y-109089319D01*
X156718086Y-109169923D01*
X157065241Y-109210500D01*
X157414759Y-109210500D01*
X157761914Y-109169923D01*
X158102011Y-109089319D01*
X158430451Y-108969777D01*
X158742793Y-108812913D01*
X159034811Y-108620849D01*
X159302558Y-108396183D01*
X159542412Y-108141953D01*
X159751130Y-107861596D01*
X159925889Y-107558904D01*
X160064326Y-107237971D01*
X160164569Y-106903136D01*
X160225262Y-106558927D01*
X160245585Y-106210000D01*
X160225262Y-105861073D01*
X160164569Y-105516864D01*
X160064326Y-105182029D01*
X159983247Y-104994068D01*
X159972949Y-104945387D01*
X159982302Y-104896512D01*
X160009846Y-104855072D01*
X161136884Y-103728034D01*
X161139090Y-103725883D01*
X161202564Y-103665548D01*
X161236218Y-103617193D01*
X161241981Y-103609551D01*
X161279207Y-103563898D01*
X161279209Y-103563896D01*
X161293240Y-103537032D01*
X161301497Y-103523405D01*
X161318806Y-103498538D01*
X161342044Y-103444385D01*
X161346144Y-103435753D01*
X161373420Y-103383538D01*
X161381752Y-103354418D01*
X161387100Y-103339394D01*
X161399051Y-103311547D01*
X161410911Y-103253830D01*
X161413186Y-103244563D01*
X161429398Y-103187907D01*
X161431699Y-103157681D01*
X161433911Y-103141907D01*
X161440011Y-103112230D01*
X161440011Y-103053321D01*
X161440375Y-103043754D01*
X161444848Y-102985012D01*
X161441021Y-102954964D01*
X161440011Y-102939045D01*
X161440011Y-68633799D01*
X161440051Y-68630608D01*
X161440634Y-68607592D01*
X161442267Y-68543148D01*
X161431873Y-68485158D01*
X161430545Y-68475687D01*
X161424585Y-68417073D01*
X161415511Y-68388154D01*
X161411713Y-68372683D01*
X161406369Y-68342858D01*
X161384514Y-68288146D01*
X161381306Y-68279135D01*
X161363670Y-68222923D01*
X161348963Y-68196426D01*
X161342126Y-68182031D01*
X161330888Y-68153894D01*
X161298466Y-68104699D01*
X161293508Y-68096515D01*
X161264920Y-68045009D01*
X161245182Y-68022018D01*
X161235580Y-68009281D01*
X161218915Y-67983994D01*
X161218913Y-67983992D01*
X161177245Y-67942324D01*
X161170749Y-67935314D01*
X161132378Y-67890616D01*
X161108418Y-67872070D01*
X161096448Y-67861527D01*
X160817404Y-67582483D01*
X160790090Y-67541606D01*
X160780499Y-67493388D01*
X160780499Y-65812125D01*
X160774091Y-65752518D01*
X160772542Y-65748364D01*
X160723796Y-65617669D01*
X160645587Y-65513195D01*
X160637546Y-65502453D01*
X160522331Y-65416204D01*
X160485886Y-65402611D01*
X160387483Y-65365909D01*
X160327872Y-65359500D01*
X157632125Y-65359500D01*
X157572518Y-65365908D01*
X157437668Y-65416204D01*
X157322453Y-65502453D01*
X157236204Y-65617668D01*
X157185909Y-65752517D01*
X157179500Y-65812127D01*
X157179500Y-68507874D01*
X157185908Y-68567481D01*
X157236204Y-68702331D01*
X157322453Y-68817546D01*
X157353434Y-68840738D01*
X157437669Y-68903796D01*
X157572517Y-68954091D01*
X157632127Y-68960500D01*
X159313011Y-68960499D01*
X159376011Y-68977380D01*
X159422130Y-69023499D01*
X159439011Y-69086499D01*
X159439011Y-89868107D01*
X159419278Y-89935807D01*
X159366261Y-89982302D01*
X159296565Y-89993029D01*
X159232020Y-89964629D01*
X159231475Y-89964172D01*
X159113722Y-89865365D01*
X159034807Y-89799147D01*
X158742799Y-89607090D01*
X158734936Y-89603141D01*
X158430451Y-89450223D01*
X158430447Y-89450221D01*
X158430444Y-89450220D01*
X158102017Y-89330683D01*
X158102015Y-89330682D01*
X158102011Y-89330681D01*
X157761914Y-89250077D01*
X157761910Y-89250076D01*
X157414759Y-89209500D01*
X157065241Y-89209500D01*
X156718089Y-89250076D01*
X156562069Y-89287053D01*
X156377989Y-89330681D01*
X156377986Y-89330681D01*
X156377982Y-89330683D01*
X156049555Y-89450220D01*
X155737200Y-89607090D01*
X155445187Y-89799151D01*
X155177447Y-90023811D01*
X154937588Y-90278046D01*
X154728867Y-90558408D01*
X154554110Y-90861096D01*
X154415675Y-91182024D01*
X154315431Y-91516863D01*
X154254738Y-91861074D01*
X154234414Y-92209999D01*
X154254738Y-92558925D01*
X154315431Y-92903136D01*
X154415675Y-93237975D01*
X154554110Y-93558903D01*
X154554111Y-93558904D01*
X154728870Y-93861596D01*
X154937588Y-94141953D01*
X155177447Y-94396188D01*
X155445187Y-94620848D01*
X155737200Y-94812909D01*
X155737203Y-94812910D01*
X155737207Y-94812913D01*
X156049549Y-94969777D01*
X156377989Y-95089319D01*
X156718086Y-95169923D01*
X157065241Y-95210500D01*
X157414759Y-95210500D01*
X157761914Y-95169923D01*
X158102011Y-95089319D01*
X158430451Y-94969777D01*
X158742793Y-94812913D01*
X158779896Y-94788509D01*
X159034807Y-94620852D01*
X159116990Y-94551893D01*
X159232020Y-94455370D01*
X159296565Y-94426971D01*
X159366261Y-94437698D01*
X159419278Y-94484193D01*
X159439011Y-94551893D01*
X159439011Y-102543878D01*
X159429420Y-102592096D01*
X159402106Y-102632974D01*
X158597571Y-103437507D01*
X158553859Y-103465954D01*
X158502371Y-103474263D01*
X158451930Y-103461010D01*
X158450332Y-103460207D01*
X158430451Y-103450223D01*
X158247232Y-103383537D01*
X158102017Y-103330683D01*
X158102015Y-103330682D01*
X158102011Y-103330681D01*
X157761914Y-103250077D01*
X157761910Y-103250076D01*
X157414759Y-103209500D01*
X157065241Y-103209500D01*
X156718089Y-103250076D01*
X156646154Y-103267125D01*
X156377989Y-103330681D01*
X156377986Y-103330681D01*
X156377982Y-103330683D01*
X156049555Y-103450220D01*
X155737200Y-103607090D01*
X155445187Y-103799151D01*
X155177447Y-104023811D01*
X154937588Y-104278046D01*
X154728867Y-104558408D01*
X154554110Y-104861096D01*
X154415675Y-105182024D01*
X154315431Y-105516863D01*
X154254738Y-105861074D01*
X154234414Y-106210000D01*
X132782026Y-106210000D01*
X135609606Y-103382419D01*
X135621307Y-103372087D01*
X135639744Y-103357738D01*
X135701212Y-103290964D01*
X135704770Y-103287255D01*
X135724901Y-103267126D01*
X135743301Y-103245399D01*
X135746689Y-103241562D01*
X135808164Y-103174785D01*
X135820944Y-103155222D01*
X135830266Y-103142720D01*
X135845366Y-103124894D01*
X135891813Y-103046943D01*
X135894529Y-103042591D01*
X135944173Y-102966607D01*
X135953556Y-102945216D01*
X135960695Y-102931344D01*
X135972655Y-102911274D01*
X136005647Y-102826720D01*
X136007605Y-102821993D01*
X136044063Y-102738881D01*
X136049797Y-102716232D01*
X136054562Y-102701362D01*
X136063049Y-102679614D01*
X136081677Y-102590771D01*
X136082818Y-102585837D01*
X136105108Y-102497821D01*
X136107036Y-102474543D01*
X136109289Y-102459080D01*
X136114080Y-102436237D01*
X136117828Y-102345608D01*
X136118147Y-102340455D01*
X136120500Y-102312067D01*
X136120500Y-102283622D01*
X136120608Y-102278414D01*
X136124357Y-102187780D01*
X136121468Y-102164603D01*
X136120500Y-102149016D01*
X136120500Y-88955818D01*
X136137381Y-88892818D01*
X136156393Y-88859888D01*
X136249508Y-88622637D01*
X136306222Y-88374157D01*
X136308782Y-88340000D01*
X145304732Y-88340000D01*
X145323778Y-88594157D01*
X145380492Y-88842637D01*
X145473607Y-89079888D01*
X145601041Y-89300612D01*
X145759950Y-89499877D01*
X145946783Y-89673232D01*
X145946785Y-89673233D01*
X145946787Y-89673235D01*
X146017135Y-89721197D01*
X146157366Y-89816805D01*
X146258202Y-89865365D01*
X146386995Y-89927389D01*
X146446479Y-89945737D01*
X146630542Y-90002513D01*
X146882565Y-90040500D01*
X147137433Y-90040500D01*
X147137435Y-90040500D01*
X147389458Y-90002513D01*
X147633004Y-89927389D01*
X147862634Y-89816805D01*
X148073217Y-89673232D01*
X148260050Y-89499877D01*
X148418959Y-89300612D01*
X148546393Y-89079888D01*
X148639508Y-88842637D01*
X148696222Y-88594157D01*
X148715268Y-88340000D01*
X148696222Y-88085843D01*
X148639508Y-87837363D01*
X148546393Y-87600112D01*
X148418959Y-87379388D01*
X148260050Y-87180123D01*
X148073217Y-87006768D01*
X148073214Y-87006766D01*
X148073212Y-87006764D01*
X147862634Y-86863195D01*
X147633004Y-86752610D01*
X147389461Y-86677488D01*
X147389458Y-86677487D01*
X147137435Y-86639500D01*
X146882565Y-86639500D01*
X146630542Y-86677487D01*
X146630539Y-86677487D01*
X146630538Y-86677488D01*
X146386995Y-86752610D01*
X146157365Y-86863195D01*
X145946787Y-87006764D01*
X145946781Y-87006768D01*
X145946783Y-87006768D01*
X145759950Y-87180123D01*
X145627740Y-87345909D01*
X145601039Y-87379391D01*
X145473607Y-87600111D01*
X145380492Y-87837362D01*
X145368375Y-87890452D01*
X145323778Y-88085843D01*
X145304732Y-88340000D01*
X136308782Y-88340000D01*
X136325268Y-88120000D01*
X136306222Y-87865843D01*
X136249508Y-87617363D01*
X136156393Y-87380112D01*
X136028959Y-87159388D01*
X135870050Y-86960123D01*
X135683217Y-86786768D01*
X135683214Y-86786766D01*
X135683212Y-86786764D01*
X135472634Y-86643195D01*
X135243004Y-86532610D01*
X134999461Y-86457488D01*
X134999458Y-86457487D01*
X134747435Y-86419500D01*
X134492565Y-86419500D01*
X134240542Y-86457487D01*
X134240539Y-86457487D01*
X134240538Y-86457488D01*
X133996995Y-86532610D01*
X133767365Y-86643195D01*
X133556787Y-86786764D01*
X133556781Y-86786768D01*
X133556783Y-86786768D01*
X133369950Y-86960123D01*
X133214626Y-87154893D01*
X133211039Y-87159391D01*
X133083607Y-87380111D01*
X132990492Y-87617362D01*
X132933778Y-87865841D01*
X132914732Y-88120000D01*
X132933778Y-88374158D01*
X132990492Y-88622637D01*
X133083607Y-88859888D01*
X133102619Y-88892818D01*
X133119500Y-88955818D01*
X133119500Y-101576283D01*
X133109909Y-101624501D01*
X133082595Y-101665378D01*
X126590595Y-108157376D01*
X126540436Y-108188114D01*
X126481789Y-108192730D01*
X126427439Y-108170217D01*
X126389233Y-108125484D01*
X126375500Y-108068281D01*
X126375500Y-107849604D01*
X126375500Y-107849601D01*
X126335866Y-107612087D01*
X126257679Y-107384336D01*
X126143073Y-107172562D01*
X125995170Y-106982536D01*
X125818008Y-106819447D01*
X125796632Y-106805481D01*
X125754734Y-106759966D01*
X125739549Y-106699996D01*
X125754737Y-106640027D01*
X125796635Y-106594515D01*
X125818010Y-106580551D01*
X125995171Y-106417463D01*
X126143072Y-106227439D01*
X126257679Y-106015664D01*
X126335866Y-105787913D01*
X126375500Y-105550399D01*
X126375500Y-105309601D01*
X126335866Y-105072087D01*
X126257679Y-104844336D01*
X126143072Y-104632561D01*
X126033839Y-104492217D01*
X126009602Y-104438946D01*
X126012048Y-104380468D01*
X126040651Y-104329404D01*
X126089239Y-104296773D01*
X126117331Y-104286296D01*
X126232546Y-104200046D01*
X126318796Y-104084831D01*
X126369091Y-103949983D01*
X126375500Y-103890373D01*
X126375499Y-101889628D01*
X126369091Y-101830017D01*
X126318796Y-101695169D01*
X126296494Y-101665378D01*
X126232546Y-101579953D01*
X126117331Y-101493704D01*
X126117330Y-101493703D01*
X125982483Y-101443409D01*
X125922872Y-101437000D01*
X123827125Y-101437000D01*
X123767518Y-101443408D01*
X123632668Y-101493704D01*
X123517453Y-101579953D01*
X123431204Y-101695168D01*
X123380909Y-101830017D01*
X123374500Y-101889628D01*
X123374500Y-103276941D01*
X123364909Y-103325159D01*
X123337595Y-103366036D01*
X120185095Y-106518536D01*
X120134936Y-106549274D01*
X120076289Y-106553890D01*
X120021939Y-106531377D01*
X119983733Y-106486644D01*
X119970000Y-106429441D01*
X119970000Y-98940000D01*
X122444357Y-98940000D01*
X122464885Y-99161536D01*
X122464885Y-99161539D01*
X122464886Y-99161540D01*
X122525770Y-99375527D01*
X122624942Y-99574689D01*
X122759019Y-99752236D01*
X122923438Y-99902124D01*
X122923440Y-99902125D01*
X122923441Y-99902126D01*
X123112594Y-100019245D01*
X123112598Y-100019246D01*
X123112599Y-100019247D01*
X123320060Y-100099618D01*
X123538757Y-100140500D01*
X123761241Y-100140500D01*
X123761243Y-100140500D01*
X123979940Y-100099618D01*
X124187401Y-100019247D01*
X124187402Y-100019245D01*
X124187405Y-100019245D01*
X124281981Y-99960685D01*
X124376562Y-99902124D01*
X124540981Y-99752236D01*
X124675058Y-99574689D01*
X124774229Y-99375528D01*
X124835115Y-99161536D01*
X124855643Y-98940000D01*
X124835115Y-98718464D01*
X124774229Y-98504472D01*
X124675058Y-98305311D01*
X124540981Y-98127764D01*
X124376562Y-97977876D01*
X124376559Y-97977874D01*
X124376558Y-97977873D01*
X124187405Y-97860754D01*
X123979940Y-97780382D01*
X123979939Y-97780381D01*
X123761243Y-97739500D01*
X123538757Y-97739500D01*
X123392959Y-97766754D01*
X123320059Y-97780382D01*
X123112594Y-97860754D01*
X122923441Y-97977873D01*
X122759018Y-98127765D01*
X122624942Y-98305310D01*
X122525770Y-98504472D01*
X122464886Y-98718459D01*
X122464885Y-98718464D01*
X122444357Y-98940000D01*
X119970000Y-98940000D01*
X119970000Y-92335297D01*
X122993912Y-92335297D01*
X123043691Y-92370153D01*
X123235261Y-92459484D01*
X123439431Y-92514191D01*
X123650000Y-92532613D01*
X123860568Y-92514191D01*
X124064740Y-92459483D01*
X124256304Y-92370156D01*
X124306087Y-92335297D01*
X124306087Y-92335296D01*
X123650001Y-91679210D01*
X123650000Y-91679210D01*
X122993912Y-92335296D01*
X122993912Y-92335297D01*
X119970000Y-92335297D01*
X119970000Y-91320000D01*
X122437386Y-91320000D01*
X122455808Y-91530568D01*
X122510515Y-91734738D01*
X122599846Y-91926308D01*
X122634701Y-91976086D01*
X122634702Y-91976086D01*
X123290789Y-91320001D01*
X124009210Y-91320001D01*
X124665296Y-91976087D01*
X124665297Y-91976087D01*
X124700156Y-91926304D01*
X124789483Y-91734740D01*
X124844191Y-91530568D01*
X124862613Y-91320000D01*
X124844191Y-91109431D01*
X124789484Y-90905261D01*
X124700153Y-90713691D01*
X124665297Y-90663912D01*
X124665296Y-90663912D01*
X124009210Y-91320000D01*
X124009210Y-91320001D01*
X123290789Y-91320001D01*
X123290790Y-91320000D01*
X123290790Y-91319999D01*
X122634703Y-90663912D01*
X122634702Y-90663912D01*
X122599845Y-90713693D01*
X122510515Y-90905262D01*
X122455808Y-91109431D01*
X122437386Y-91320000D01*
X119970000Y-91320000D01*
X119970000Y-88764335D01*
X121499500Y-88764335D01*
X121540429Y-89009614D01*
X121540430Y-89009616D01*
X121621171Y-89244809D01*
X121684314Y-89361487D01*
X121699500Y-89421454D01*
X121699500Y-89487873D01*
X121705908Y-89547481D01*
X121756204Y-89682331D01*
X121842453Y-89797546D01*
X121883354Y-89828164D01*
X121957669Y-89883796D01*
X122092517Y-89934091D01*
X122152127Y-89940500D01*
X122209646Y-89940499D01*
X122245597Y-89945737D01*
X122278560Y-89961015D01*
X122283393Y-89964173D01*
X122511119Y-90064063D01*
X122752179Y-90125108D01*
X122881626Y-90135834D01*
X122943172Y-90157969D01*
X122985331Y-90207977D01*
X122996739Y-90272383D01*
X122993911Y-90304702D01*
X123649999Y-90960790D01*
X123650000Y-90960790D01*
X124306086Y-90304702D01*
X124304964Y-90291873D01*
X124294845Y-90280509D01*
X124279774Y-90224460D01*
X124291425Y-90167602D01*
X124327327Y-90121999D01*
X124379857Y-90097328D01*
X124447958Y-90083049D01*
X124469712Y-90074559D01*
X124484576Y-90069797D01*
X124507225Y-90064063D01*
X124590306Y-90027619D01*
X124595098Y-90025635D01*
X124679618Y-89992656D01*
X124699678Y-89980701D01*
X124713564Y-89973553D01*
X124734951Y-89964173D01*
X124810902Y-89914551D01*
X124815251Y-89911835D01*
X124893238Y-89865366D01*
X124911059Y-89850271D01*
X124923566Y-89840944D01*
X124943129Y-89828164D01*
X125009915Y-89766681D01*
X125013724Y-89763318D01*
X125035470Y-89744902D01*
X125055611Y-89724759D01*
X125059325Y-89721197D01*
X125126082Y-89659744D01*
X125140431Y-89641306D01*
X125150759Y-89629611D01*
X130777966Y-84002405D01*
X130818844Y-83975091D01*
X130867062Y-83965500D01*
X140434779Y-83965500D01*
X140434785Y-83965499D01*
X141290375Y-83965499D01*
X141326138Y-83961654D01*
X141349983Y-83959091D01*
X141484831Y-83908796D01*
X141600046Y-83822546D01*
X141686296Y-83707331D01*
X141696773Y-83679239D01*
X141729402Y-83630653D01*
X141780465Y-83602048D01*
X141838944Y-83599601D01*
X141892219Y-83623840D01*
X142032561Y-83733073D01*
X142197894Y-83822546D01*
X142244336Y-83847679D01*
X142472087Y-83925866D01*
X142709601Y-83965500D01*
X142950396Y-83965500D01*
X142950399Y-83965500D01*
X143187913Y-83925866D01*
X143415664Y-83847679D01*
X143627439Y-83733072D01*
X143817463Y-83585171D01*
X143980551Y-83408010D01*
X143994515Y-83386635D01*
X144040030Y-83344736D01*
X144100000Y-83329549D01*
X144159970Y-83344736D01*
X144205484Y-83386635D01*
X144219448Y-83408009D01*
X144382536Y-83585170D01*
X144572562Y-83733073D01*
X144737894Y-83822546D01*
X144784336Y-83847679D01*
X145012087Y-83925866D01*
X145249601Y-83965500D01*
X145490396Y-83965500D01*
X145490399Y-83965500D01*
X145727913Y-83925866D01*
X145955664Y-83847679D01*
X146167439Y-83733072D01*
X146357463Y-83585171D01*
X146520551Y-83408010D01*
X146652255Y-83206422D01*
X146748983Y-82985905D01*
X146808095Y-82752476D01*
X146823000Y-82572600D01*
X146823000Y-82357400D01*
X146808095Y-82177524D01*
X146748983Y-81944095D01*
X146652255Y-81723578D01*
X146520551Y-81521990D01*
X146357463Y-81344829D01*
X146231376Y-81246692D01*
X146167437Y-81196926D01*
X145955663Y-81082320D01*
X145774129Y-81020000D01*
X145727913Y-81004134D01*
X145490399Y-80964500D01*
X145249601Y-80964500D01*
X145012087Y-81004134D01*
X145012084Y-81004134D01*
X145012084Y-81004135D01*
X144784336Y-81082320D01*
X144572562Y-81196926D01*
X144382533Y-81344832D01*
X144219450Y-81521988D01*
X144205482Y-81543368D01*
X144159969Y-81585265D01*
X144100000Y-81600451D01*
X144040031Y-81585265D01*
X143994518Y-81543368D01*
X143993897Y-81542418D01*
X143980551Y-81521990D01*
X143817463Y-81344829D01*
X143691376Y-81246692D01*
X143627437Y-81196926D01*
X143415663Y-81082320D01*
X143234129Y-81020000D01*
X143187913Y-81004134D01*
X142950399Y-80964500D01*
X142709601Y-80964500D01*
X142472087Y-81004134D01*
X142472084Y-81004134D01*
X142472084Y-81004135D01*
X142244336Y-81082320D01*
X142032557Y-81196929D01*
X141993891Y-81227025D01*
X141929498Y-81252922D01*
X141861161Y-81240791D01*
X141809615Y-81194315D01*
X141790500Y-81127594D01*
X141790500Y-77939999D01*
X153054713Y-77939999D01*
X153073837Y-78243967D01*
X153130908Y-78543143D01*
X153225026Y-78832807D01*
X153354706Y-79108390D01*
X153517900Y-79365544D01*
X153712042Y-79600223D01*
X153934065Y-79808715D01*
X154180463Y-79987735D01*
X154317126Y-80062866D01*
X154447363Y-80134464D01*
X154730545Y-80246584D01*
X154885423Y-80286350D01*
X155025546Y-80322328D01*
X155327712Y-80360500D01*
X155327715Y-80360500D01*
X155632285Y-80360500D01*
X155632288Y-80360500D01*
X155934453Y-80322328D01*
X155934461Y-80322326D01*
X156229455Y-80246584D01*
X156512637Y-80134464D01*
X156779533Y-79987737D01*
X157025935Y-79808715D01*
X157247957Y-79600223D01*
X157442098Y-79365547D01*
X157605294Y-79108390D01*
X157734974Y-78832807D01*
X157829091Y-78543144D01*
X157886162Y-78243969D01*
X157905286Y-77940000D01*
X157886162Y-77636031D01*
X157829091Y-77336856D01*
X157734974Y-77047193D01*
X157605294Y-76771610D01*
X157442098Y-76514453D01*
X157356343Y-76410793D01*
X157247957Y-76279776D01*
X157025934Y-76071284D01*
X156779536Y-75892264D01*
X156512636Y-75745535D01*
X156338016Y-75676398D01*
X156229455Y-75633416D01*
X156229452Y-75633415D01*
X156229449Y-75633414D01*
X155934453Y-75557671D01*
X155632288Y-75519500D01*
X155632285Y-75519500D01*
X155327715Y-75519500D01*
X155327712Y-75519500D01*
X155025546Y-75557671D01*
X154730550Y-75633414D01*
X154447363Y-75745535D01*
X154180463Y-75892264D01*
X153934065Y-76071284D01*
X153712042Y-76279776D01*
X153517900Y-76514455D01*
X153354706Y-76771609D01*
X153225026Y-77047192D01*
X153130908Y-77336856D01*
X153073837Y-77636032D01*
X153054713Y-77939999D01*
X141790500Y-77939999D01*
X141790500Y-70143718D01*
X141800091Y-70095500D01*
X141827402Y-70054625D01*
X143243130Y-68638896D01*
X143295078Y-68607594D01*
X143393004Y-68577389D01*
X143622634Y-68466805D01*
X143833217Y-68323232D01*
X144020050Y-68149877D01*
X144062605Y-68096515D01*
X144109318Y-68037940D01*
X144153159Y-68002978D01*
X144207828Y-67990500D01*
X144607705Y-67990500D01*
X144670705Y-68007381D01*
X144716823Y-68053499D01*
X144788185Y-68177102D01*
X144956439Y-68388085D01*
X145041278Y-68466804D01*
X145154258Y-68571635D01*
X145283638Y-68659844D01*
X145377226Y-68723651D01*
X145498262Y-68781939D01*
X145620358Y-68840738D01*
X145677868Y-68858477D01*
X145878228Y-68920280D01*
X146145071Y-68960500D01*
X146414927Y-68960500D01*
X146414929Y-68960500D01*
X146681772Y-68920280D01*
X146939641Y-68840738D01*
X147182775Y-68723651D01*
X147405741Y-68571635D01*
X147603561Y-68388085D01*
X147771815Y-68177102D01*
X147906743Y-67943398D01*
X148005334Y-67692195D01*
X148065383Y-67429103D01*
X148085549Y-67160000D01*
X148065383Y-66890897D01*
X148005334Y-66627805D01*
X147906743Y-66376602D01*
X147771815Y-66142898D01*
X147603561Y-65931915D01*
X147405741Y-65748365D01*
X147271387Y-65656764D01*
X147182775Y-65596349D01*
X146939641Y-65479261D01*
X146735212Y-65416204D01*
X146681772Y-65399720D01*
X146414929Y-65359500D01*
X146145071Y-65359500D01*
X145878228Y-65399720D01*
X145878224Y-65399721D01*
X145878225Y-65399721D01*
X145620358Y-65479261D01*
X145377225Y-65596349D01*
X145154258Y-65748364D01*
X144956443Y-65931910D01*
X144956439Y-65931914D01*
X144956439Y-65931915D01*
X144948346Y-65942062D01*
X144904509Y-65977022D01*
X144849839Y-65989500D01*
X144207828Y-65989500D01*
X144153159Y-65977022D01*
X144109318Y-65942060D01*
X144020053Y-65830127D01*
X144020050Y-65830123D01*
X143833217Y-65656768D01*
X143833214Y-65656766D01*
X143833212Y-65656764D01*
X143622634Y-65513195D01*
X143393004Y-65402610D01*
X143149461Y-65327488D01*
X143149458Y-65327487D01*
X142897435Y-65289500D01*
X142642565Y-65289500D01*
X142390542Y-65327487D01*
X142390539Y-65327487D01*
X142390538Y-65327488D01*
X142146995Y-65402610D01*
X141917365Y-65513195D01*
X141706787Y-65656764D01*
X141706781Y-65656768D01*
X141706783Y-65656768D01*
X141519950Y-65830123D01*
X141404845Y-65974460D01*
X141361039Y-66029391D01*
X141233608Y-66250109D01*
X141143559Y-66479546D01*
X141115364Y-66522607D01*
X139300394Y-68337576D01*
X139288694Y-68347909D01*
X139270258Y-68362259D01*
X139208799Y-68429020D01*
X139205196Y-68432775D01*
X139185092Y-68452879D01*
X139166723Y-68474567D01*
X139163279Y-68478467D01*
X139101836Y-68545213D01*
X139089060Y-68564768D01*
X139079729Y-68577281D01*
X139064634Y-68595104D01*
X139018190Y-68673044D01*
X139015436Y-68677457D01*
X138965824Y-68753397D01*
X138956442Y-68774784D01*
X138949302Y-68788655D01*
X138937345Y-68808722D01*
X138904365Y-68893240D01*
X138902373Y-68898047D01*
X138865937Y-68981117D01*
X138860201Y-69003765D01*
X138855440Y-69018627D01*
X138846951Y-69040384D01*
X138828336Y-69129159D01*
X138827163Y-69134230D01*
X138804891Y-69222182D01*
X138802963Y-69245449D01*
X138800713Y-69260895D01*
X138795918Y-69283764D01*
X138792170Y-69374394D01*
X138791848Y-69379589D01*
X138789500Y-69407933D01*
X138789500Y-69436369D01*
X138789392Y-69441576D01*
X138785642Y-69532219D01*
X138788532Y-69555397D01*
X138789500Y-69570984D01*
X138789500Y-80838500D01*
X138772619Y-80901500D01*
X138726500Y-80947619D01*
X138663500Y-80964500D01*
X130867062Y-80964500D01*
X130818844Y-80954909D01*
X130777967Y-80927595D01*
X130395140Y-80544768D01*
X130361489Y-80484124D01*
X130365028Y-80414859D01*
X130404685Y-80357960D01*
X130468441Y-80330667D01*
X130534453Y-80322328D01*
X130829455Y-80246584D01*
X131112637Y-80134464D01*
X131379533Y-79987737D01*
X131625935Y-79808715D01*
X131847957Y-79600223D01*
X132042098Y-79365547D01*
X132205294Y-79108390D01*
X132334974Y-78832807D01*
X132429091Y-78543144D01*
X132486162Y-78243969D01*
X132505286Y-77940000D01*
X132486162Y-77636031D01*
X132429091Y-77336856D01*
X132334974Y-77047193D01*
X132205294Y-76771610D01*
X132042098Y-76514453D01*
X131956343Y-76410793D01*
X131847957Y-76279776D01*
X131625934Y-76071284D01*
X131379536Y-75892264D01*
X131112636Y-75745535D01*
X130938016Y-75676398D01*
X130829455Y-75633416D01*
X130829452Y-75633415D01*
X130829449Y-75633414D01*
X130534453Y-75557671D01*
X130232288Y-75519500D01*
X130232285Y-75519500D01*
X129927715Y-75519500D01*
X129927712Y-75519500D01*
X129625546Y-75557671D01*
X129330550Y-75633414D01*
X129047363Y-75745535D01*
X128780463Y-75892264D01*
X128534065Y-76071284D01*
X128312042Y-76279776D01*
X128117900Y-76514455D01*
X127954706Y-76771609D01*
X127825026Y-77047192D01*
X127730908Y-77336855D01*
X127684977Y-77577633D01*
X127656783Y-77636129D01*
X127603204Y-77672818D01*
X127538470Y-77677953D01*
X127479776Y-77650171D01*
X127473237Y-77644633D01*
X127395305Y-77598195D01*
X127390888Y-77595438D01*
X127314952Y-77545827D01*
X127293572Y-77536449D01*
X127279687Y-77529302D01*
X127259617Y-77517343D01*
X127175120Y-77484372D01*
X127170310Y-77482380D01*
X127087224Y-77445936D01*
X127064575Y-77440200D01*
X127049711Y-77435438D01*
X127027958Y-77426950D01*
X126939195Y-77408338D01*
X126934124Y-77407165D01*
X126846163Y-77384891D01*
X126822895Y-77382963D01*
X126807449Y-77380713D01*
X126784579Y-77375918D01*
X126693950Y-77372170D01*
X126688755Y-77371848D01*
X126660411Y-77369500D01*
X126631975Y-77369500D01*
X126626768Y-77369392D01*
X126536124Y-77365642D01*
X126516245Y-77368120D01*
X126512944Y-77368532D01*
X126497360Y-77369500D01*
X123047933Y-77369500D01*
X122862179Y-77384892D01*
X122862175Y-77384892D01*
X122862174Y-77384893D01*
X122621123Y-77445935D01*
X122393389Y-77545828D01*
X122185217Y-77681833D01*
X122002262Y-77850255D01*
X121849527Y-78046489D01*
X121731170Y-78265193D01*
X121650430Y-78500383D01*
X121650429Y-78500386D01*
X121609500Y-78745665D01*
X121609500Y-78994335D01*
X121650429Y-79239614D01*
X121650430Y-79239616D01*
X121731170Y-79474806D01*
X121731171Y-79474809D01*
X121731172Y-79474810D01*
X121849526Y-79693509D01*
X122002262Y-79889744D01*
X122002264Y-79889746D01*
X122002265Y-79889747D01*
X122056023Y-79939235D01*
X122091448Y-79995983D01*
X122092831Y-80062866D01*
X122059782Y-80121031D01*
X121999950Y-80180863D01*
X121869433Y-80367261D01*
X121773260Y-80573504D01*
X121714365Y-80793307D01*
X121694532Y-81020000D01*
X121714365Y-81246692D01*
X121773260Y-81466495D01*
X121869431Y-81672733D01*
X121869432Y-81672734D01*
X121999953Y-81859139D01*
X122160861Y-82020047D01*
X122347266Y-82150568D01*
X122553504Y-82246739D01*
X122773308Y-82305635D01*
X123000000Y-82325468D01*
X123226692Y-82305635D01*
X123446496Y-82246739D01*
X123652734Y-82150568D01*
X123839139Y-82020047D01*
X124000047Y-81859139D01*
X124130568Y-81672734D01*
X124226739Y-81466496D01*
X124285635Y-81246692D01*
X124305468Y-81020000D01*
X124285635Y-80793308D01*
X124226739Y-80573504D01*
X124215663Y-80549751D01*
X124204127Y-80488260D01*
X124223589Y-80428801D01*
X124269252Y-80386033D01*
X124329857Y-80370500D01*
X125924626Y-80370500D01*
X125972844Y-80380091D01*
X126013721Y-80407405D01*
X127982221Y-82375905D01*
X128014833Y-82432389D01*
X128014833Y-82497611D01*
X127982221Y-82554095D01*
X123433721Y-87102595D01*
X123392844Y-87129909D01*
X123344626Y-87139500D01*
X122937933Y-87139500D01*
X122752179Y-87154892D01*
X122752175Y-87154892D01*
X122752174Y-87154893D01*
X122511123Y-87215935D01*
X122283389Y-87315828D01*
X122278553Y-87318988D01*
X122245594Y-87334263D01*
X122209647Y-87339500D01*
X122152125Y-87339500D01*
X122092518Y-87345908D01*
X121957668Y-87396204D01*
X121842453Y-87482453D01*
X121756204Y-87597668D01*
X121705909Y-87732517D01*
X121699500Y-87792128D01*
X121699500Y-87858544D01*
X121684314Y-87918513D01*
X121621171Y-88035190D01*
X121540430Y-88270383D01*
X121540429Y-88270386D01*
X121499500Y-88515665D01*
X121499500Y-88764335D01*
X119970000Y-88764335D01*
X119970000Y-71250000D01*
X121904357Y-71250000D01*
X121924885Y-71471536D01*
X121924885Y-71471539D01*
X121924886Y-71471540D01*
X121985770Y-71685527D01*
X122084941Y-71884688D01*
X122084942Y-71884689D01*
X122219019Y-72062236D01*
X122383438Y-72212124D01*
X122383440Y-72212125D01*
X122383441Y-72212126D01*
X122572594Y-72329245D01*
X122572598Y-72329246D01*
X122572599Y-72329247D01*
X122780060Y-72409618D01*
X122998757Y-72450500D01*
X123221241Y-72450500D01*
X123221243Y-72450500D01*
X123439940Y-72409618D01*
X123647401Y-72329247D01*
X123647402Y-72329245D01*
X123647405Y-72329245D01*
X123741981Y-72270685D01*
X123836562Y-72212124D01*
X124000981Y-72062236D01*
X124135058Y-71884689D01*
X124234229Y-71685528D01*
X124295115Y-71471536D01*
X124315643Y-71250000D01*
X124295115Y-71028464D01*
X124234229Y-70814472D01*
X124135058Y-70615311D01*
X124000981Y-70437764D01*
X123836562Y-70287876D01*
X123836559Y-70287874D01*
X123836558Y-70287873D01*
X123647405Y-70170754D01*
X123439940Y-70090382D01*
X123221243Y-70049500D01*
X122998757Y-70049500D01*
X122852958Y-70076754D01*
X122780059Y-70090382D01*
X122572594Y-70170754D01*
X122383441Y-70287873D01*
X122219018Y-70437765D01*
X122084942Y-70615310D01*
X121985770Y-70814472D01*
X121924886Y-71028459D01*
X121924885Y-71028464D01*
X121904357Y-71250000D01*
X119970000Y-71250000D01*
X119970000Y-68364787D01*
X121434421Y-68364787D01*
X121593608Y-68473320D01*
X121824247Y-68584390D01*
X122068865Y-68659844D01*
X122322006Y-68698000D01*
X122577994Y-68698000D01*
X122831134Y-68659844D01*
X123075752Y-68584390D01*
X123306392Y-68473320D01*
X123465578Y-68364787D01*
X122450001Y-67349210D01*
X122449999Y-67349210D01*
X121434421Y-68364786D01*
X121434421Y-68364787D01*
X119970000Y-68364787D01*
X119970000Y-66989999D01*
X120737211Y-66989999D01*
X120756341Y-67245279D01*
X120813305Y-67494854D01*
X120906830Y-67733151D01*
X121034827Y-67954848D01*
X121075250Y-68005537D01*
X121075252Y-68005537D01*
X122090790Y-66990001D01*
X122809210Y-66990001D01*
X123824747Y-68005538D01*
X123824748Y-68005537D01*
X123865172Y-67954850D01*
X123993169Y-67733152D01*
X124086694Y-67494854D01*
X124143658Y-67245279D01*
X124162788Y-66989999D01*
X124143658Y-66734720D01*
X124086694Y-66485145D01*
X123993169Y-66246847D01*
X123865172Y-66025150D01*
X123824748Y-65974461D01*
X123824747Y-65974460D01*
X122809210Y-66989999D01*
X122809210Y-66990001D01*
X122090790Y-66990001D01*
X122090790Y-66989999D01*
X121075252Y-65974461D01*
X121075250Y-65974461D01*
X121034827Y-66025151D01*
X120906830Y-66246848D01*
X120813305Y-66485145D01*
X120756341Y-66734720D01*
X120737211Y-66989999D01*
X119970000Y-66989999D01*
X119970000Y-65615212D01*
X121434421Y-65615212D01*
X122449999Y-66630790D01*
X122450001Y-66630790D01*
X123465578Y-65615211D01*
X123306392Y-65506679D01*
X123075752Y-65395609D01*
X122831134Y-65320155D01*
X122577994Y-65282000D01*
X122322006Y-65282000D01*
X122068865Y-65320155D01*
X121824247Y-65395609D01*
X121593606Y-65506681D01*
X121434421Y-65615210D01*
X121434421Y-65615212D01*
X119970000Y-65615212D01*
X119970000Y-63606000D01*
X119986881Y-63543000D01*
X120033000Y-63496881D01*
X120096000Y-63480000D01*
X161754000Y-63480000D01*
X161817000Y-63496881D01*
G37*
G04 #@! TD.AperFunction*
M02*
