G04 #@! TF.GenerationSoftware,KiCad,Pcbnew,7.0.1*
G04 #@! TF.CreationDate,2023-06-08T18:27:25+10:00*
G04 #@! TF.ProjectId,ZVS,5a56532e-6b69-4636-9164-5f7063625858,rev?*
G04 #@! TF.SameCoordinates,Original*
G04 #@! TF.FileFunction,Legend,Top*
G04 #@! TF.FilePolarity,Positive*
%FSLAX46Y46*%
G04 Gerber Fmt 4.6, Leading zero omitted, Abs format (unit mm)*
G04 Created by KiCad (PCBNEW 7.0.1) date 2023-06-08 18:27:25*
%MOMM*%
%LPD*%
G01*
G04 APERTURE LIST*
%ADD10C,0.150000*%
%ADD11C,0.300000*%
%ADD12C,0.125000*%
%ADD13C,0.254000*%
%ADD14C,0.120000*%
%ADD15C,0.200000*%
%ADD16C,2.400000*%
%ADD17O,2.400000X2.400000*%
%ADD18R,1.600000X1.600000*%
%ADD19O,1.600000X1.600000*%
%ADD20C,3.840000*%
%ADD21C,1.400000*%
%ADD22O,1.400000X1.400000*%
%ADD23C,3.600000*%
%ADD24R,2.600000X2.600000*%
%ADD25O,2.600000X2.600000*%
%ADD26R,2.000000X1.905000*%
%ADD27O,2.000000X1.905000*%
%ADD28R,3.000000X3.000000*%
%ADD29C,3.000000*%
%ADD30C,5.000000*%
%ADD31R,1.905000X2.000000*%
%ADD32O,1.905000X2.000000*%
G04 APERTURE END LIST*
D10*
X129350952Y-170482619D02*
X129922380Y-170482619D01*
X129636666Y-171482619D02*
X129636666Y-170482619D01*
X130255714Y-171482619D02*
X130255714Y-170482619D01*
X130684285Y-171482619D02*
X130684285Y-170958809D01*
X130684285Y-170958809D02*
X130636666Y-170863571D01*
X130636666Y-170863571D02*
X130541428Y-170815952D01*
X130541428Y-170815952D02*
X130398571Y-170815952D01*
X130398571Y-170815952D02*
X130303333Y-170863571D01*
X130303333Y-170863571D02*
X130255714Y-170911190D01*
X131541428Y-171435000D02*
X131446190Y-171482619D01*
X131446190Y-171482619D02*
X131255714Y-171482619D01*
X131255714Y-171482619D02*
X131160476Y-171435000D01*
X131160476Y-171435000D02*
X131112857Y-171339761D01*
X131112857Y-171339761D02*
X131112857Y-170958809D01*
X131112857Y-170958809D02*
X131160476Y-170863571D01*
X131160476Y-170863571D02*
X131255714Y-170815952D01*
X131255714Y-170815952D02*
X131446190Y-170815952D01*
X131446190Y-170815952D02*
X131541428Y-170863571D01*
X131541428Y-170863571D02*
X131589047Y-170958809D01*
X131589047Y-170958809D02*
X131589047Y-171054047D01*
X131589047Y-171054047D02*
X131112857Y-171149285D01*
X133112857Y-170958809D02*
X133255714Y-171006428D01*
X133255714Y-171006428D02*
X133303333Y-171054047D01*
X133303333Y-171054047D02*
X133350952Y-171149285D01*
X133350952Y-171149285D02*
X133350952Y-171292142D01*
X133350952Y-171292142D02*
X133303333Y-171387380D01*
X133303333Y-171387380D02*
X133255714Y-171435000D01*
X133255714Y-171435000D02*
X133160476Y-171482619D01*
X133160476Y-171482619D02*
X132779524Y-171482619D01*
X132779524Y-171482619D02*
X132779524Y-170482619D01*
X132779524Y-170482619D02*
X133112857Y-170482619D01*
X133112857Y-170482619D02*
X133208095Y-170530238D01*
X133208095Y-170530238D02*
X133255714Y-170577857D01*
X133255714Y-170577857D02*
X133303333Y-170673095D01*
X133303333Y-170673095D02*
X133303333Y-170768333D01*
X133303333Y-170768333D02*
X133255714Y-170863571D01*
X133255714Y-170863571D02*
X133208095Y-170911190D01*
X133208095Y-170911190D02*
X133112857Y-170958809D01*
X133112857Y-170958809D02*
X132779524Y-170958809D01*
X133779524Y-171482619D02*
X133779524Y-170815952D01*
X133779524Y-170482619D02*
X133731905Y-170530238D01*
X133731905Y-170530238D02*
X133779524Y-170577857D01*
X133779524Y-170577857D02*
X133827143Y-170530238D01*
X133827143Y-170530238D02*
X133779524Y-170482619D01*
X133779524Y-170482619D02*
X133779524Y-170577857D01*
X134684285Y-170815952D02*
X134684285Y-171625476D01*
X134684285Y-171625476D02*
X134636666Y-171720714D01*
X134636666Y-171720714D02*
X134589047Y-171768333D01*
X134589047Y-171768333D02*
X134493809Y-171815952D01*
X134493809Y-171815952D02*
X134350952Y-171815952D01*
X134350952Y-171815952D02*
X134255714Y-171768333D01*
X134684285Y-171435000D02*
X134589047Y-171482619D01*
X134589047Y-171482619D02*
X134398571Y-171482619D01*
X134398571Y-171482619D02*
X134303333Y-171435000D01*
X134303333Y-171435000D02*
X134255714Y-171387380D01*
X134255714Y-171387380D02*
X134208095Y-171292142D01*
X134208095Y-171292142D02*
X134208095Y-171006428D01*
X134208095Y-171006428D02*
X134255714Y-170911190D01*
X134255714Y-170911190D02*
X134303333Y-170863571D01*
X134303333Y-170863571D02*
X134398571Y-170815952D01*
X134398571Y-170815952D02*
X134589047Y-170815952D01*
X134589047Y-170815952D02*
X134684285Y-170863571D01*
X136112857Y-170482619D02*
X136303333Y-170482619D01*
X136303333Y-170482619D02*
X136398571Y-170530238D01*
X136398571Y-170530238D02*
X136493809Y-170625476D01*
X136493809Y-170625476D02*
X136541428Y-170815952D01*
X136541428Y-170815952D02*
X136541428Y-171149285D01*
X136541428Y-171149285D02*
X136493809Y-171339761D01*
X136493809Y-171339761D02*
X136398571Y-171435000D01*
X136398571Y-171435000D02*
X136303333Y-171482619D01*
X136303333Y-171482619D02*
X136112857Y-171482619D01*
X136112857Y-171482619D02*
X136017619Y-171435000D01*
X136017619Y-171435000D02*
X135922381Y-171339761D01*
X135922381Y-171339761D02*
X135874762Y-171149285D01*
X135874762Y-171149285D02*
X135874762Y-170815952D01*
X135874762Y-170815952D02*
X135922381Y-170625476D01*
X135922381Y-170625476D02*
X136017619Y-170530238D01*
X136017619Y-170530238D02*
X136112857Y-170482619D01*
X136970000Y-171482619D02*
X136970000Y-170482619D01*
X136970000Y-170482619D02*
X137541428Y-171482619D01*
X137541428Y-171482619D02*
X137541428Y-170482619D01*
X138017619Y-170958809D02*
X138350952Y-170958809D01*
X138493809Y-171482619D02*
X138017619Y-171482619D01*
X138017619Y-171482619D02*
X138017619Y-170482619D01*
X138017619Y-170482619D02*
X138493809Y-170482619D01*
D11*
X140433714Y-165783857D02*
X142433714Y-165783857D01*
X142433714Y-165783857D02*
X140433714Y-168783857D01*
X140433714Y-168783857D02*
X142433714Y-168783857D01*
X143148000Y-165783857D02*
X144148000Y-168783857D01*
X144148000Y-168783857D02*
X145148000Y-165783857D01*
X146005143Y-168641000D02*
X146433715Y-168783857D01*
X146433715Y-168783857D02*
X147148000Y-168783857D01*
X147148000Y-168783857D02*
X147433715Y-168641000D01*
X147433715Y-168641000D02*
X147576572Y-168498142D01*
X147576572Y-168498142D02*
X147719429Y-168212428D01*
X147719429Y-168212428D02*
X147719429Y-167926714D01*
X147719429Y-167926714D02*
X147576572Y-167641000D01*
X147576572Y-167641000D02*
X147433715Y-167498142D01*
X147433715Y-167498142D02*
X147148000Y-167355285D01*
X147148000Y-167355285D02*
X146576572Y-167212428D01*
X146576572Y-167212428D02*
X146290857Y-167069571D01*
X146290857Y-167069571D02*
X146148000Y-166926714D01*
X146148000Y-166926714D02*
X146005143Y-166641000D01*
X146005143Y-166641000D02*
X146005143Y-166355285D01*
X146005143Y-166355285D02*
X146148000Y-166069571D01*
X146148000Y-166069571D02*
X146290857Y-165926714D01*
X146290857Y-165926714D02*
X146576572Y-165783857D01*
X146576572Y-165783857D02*
X147290857Y-165783857D01*
X147290857Y-165783857D02*
X147719429Y-165926714D01*
D12*
X141683807Y-170350095D02*
X142179045Y-170350095D01*
X142179045Y-170350095D02*
X141912379Y-170654857D01*
X141912379Y-170654857D02*
X142026664Y-170654857D01*
X142026664Y-170654857D02*
X142102855Y-170692952D01*
X142102855Y-170692952D02*
X142140950Y-170731047D01*
X142140950Y-170731047D02*
X142179045Y-170807238D01*
X142179045Y-170807238D02*
X142179045Y-170997714D01*
X142179045Y-170997714D02*
X142140950Y-171073904D01*
X142140950Y-171073904D02*
X142102855Y-171112000D01*
X142102855Y-171112000D02*
X142026664Y-171150095D01*
X142026664Y-171150095D02*
X141798093Y-171150095D01*
X141798093Y-171150095D02*
X141721902Y-171112000D01*
X141721902Y-171112000D02*
X141683807Y-171073904D01*
X142674284Y-170350095D02*
X142750474Y-170350095D01*
X142750474Y-170350095D02*
X142826665Y-170388190D01*
X142826665Y-170388190D02*
X142864760Y-170426285D01*
X142864760Y-170426285D02*
X142902855Y-170502476D01*
X142902855Y-170502476D02*
X142940950Y-170654857D01*
X142940950Y-170654857D02*
X142940950Y-170845333D01*
X142940950Y-170845333D02*
X142902855Y-170997714D01*
X142902855Y-170997714D02*
X142864760Y-171073904D01*
X142864760Y-171073904D02*
X142826665Y-171112000D01*
X142826665Y-171112000D02*
X142750474Y-171150095D01*
X142750474Y-171150095D02*
X142674284Y-171150095D01*
X142674284Y-171150095D02*
X142598093Y-171112000D01*
X142598093Y-171112000D02*
X142559998Y-171073904D01*
X142559998Y-171073904D02*
X142521903Y-170997714D01*
X142521903Y-170997714D02*
X142483807Y-170845333D01*
X142483807Y-170845333D02*
X142483807Y-170654857D01*
X142483807Y-170654857D02*
X142521903Y-170502476D01*
X142521903Y-170502476D02*
X142559998Y-170426285D01*
X142559998Y-170426285D02*
X142598093Y-170388190D01*
X142598093Y-170388190D02*
X142674284Y-170350095D01*
X143436189Y-170350095D02*
X143512379Y-170350095D01*
X143512379Y-170350095D02*
X143588570Y-170388190D01*
X143588570Y-170388190D02*
X143626665Y-170426285D01*
X143626665Y-170426285D02*
X143664760Y-170502476D01*
X143664760Y-170502476D02*
X143702855Y-170654857D01*
X143702855Y-170654857D02*
X143702855Y-170845333D01*
X143702855Y-170845333D02*
X143664760Y-170997714D01*
X143664760Y-170997714D02*
X143626665Y-171073904D01*
X143626665Y-171073904D02*
X143588570Y-171112000D01*
X143588570Y-171112000D02*
X143512379Y-171150095D01*
X143512379Y-171150095D02*
X143436189Y-171150095D01*
X143436189Y-171150095D02*
X143359998Y-171112000D01*
X143359998Y-171112000D02*
X143321903Y-171073904D01*
X143321903Y-171073904D02*
X143283808Y-170997714D01*
X143283808Y-170997714D02*
X143245712Y-170845333D01*
X143245712Y-170845333D02*
X143245712Y-170654857D01*
X143245712Y-170654857D02*
X143283808Y-170502476D01*
X143283808Y-170502476D02*
X143321903Y-170426285D01*
X143321903Y-170426285D02*
X143359998Y-170388190D01*
X143359998Y-170388190D02*
X143436189Y-170350095D01*
X143969522Y-170350095D02*
X144159998Y-171150095D01*
X144159998Y-171150095D02*
X144312379Y-170578666D01*
X144312379Y-170578666D02*
X144464760Y-171150095D01*
X144464760Y-171150095D02*
X144655237Y-170350095D01*
X146026666Y-171073904D02*
X145988570Y-171112000D01*
X145988570Y-171112000D02*
X145874285Y-171150095D01*
X145874285Y-171150095D02*
X145798094Y-171150095D01*
X145798094Y-171150095D02*
X145683808Y-171112000D01*
X145683808Y-171112000D02*
X145607618Y-171035809D01*
X145607618Y-171035809D02*
X145569523Y-170959619D01*
X145569523Y-170959619D02*
X145531427Y-170807238D01*
X145531427Y-170807238D02*
X145531427Y-170692952D01*
X145531427Y-170692952D02*
X145569523Y-170540571D01*
X145569523Y-170540571D02*
X145607618Y-170464380D01*
X145607618Y-170464380D02*
X145683808Y-170388190D01*
X145683808Y-170388190D02*
X145798094Y-170350095D01*
X145798094Y-170350095D02*
X145874285Y-170350095D01*
X145874285Y-170350095D02*
X145988570Y-170388190D01*
X145988570Y-170388190D02*
X146026666Y-170426285D01*
X146712380Y-171150095D02*
X146712380Y-170731047D01*
X146712380Y-170731047D02*
X146674285Y-170654857D01*
X146674285Y-170654857D02*
X146598094Y-170616761D01*
X146598094Y-170616761D02*
X146445713Y-170616761D01*
X146445713Y-170616761D02*
X146369523Y-170654857D01*
X146712380Y-171112000D02*
X146636189Y-171150095D01*
X146636189Y-171150095D02*
X146445713Y-171150095D01*
X146445713Y-171150095D02*
X146369523Y-171112000D01*
X146369523Y-171112000D02*
X146331427Y-171035809D01*
X146331427Y-171035809D02*
X146331427Y-170959619D01*
X146331427Y-170959619D02*
X146369523Y-170883428D01*
X146369523Y-170883428D02*
X146445713Y-170845333D01*
X146445713Y-170845333D02*
X146636189Y-170845333D01*
X146636189Y-170845333D02*
X146712380Y-170807238D01*
X147093333Y-170616761D02*
X147093333Y-171416761D01*
X147093333Y-170654857D02*
X147169523Y-170616761D01*
X147169523Y-170616761D02*
X147321904Y-170616761D01*
X147321904Y-170616761D02*
X147398095Y-170654857D01*
X147398095Y-170654857D02*
X147436190Y-170692952D01*
X147436190Y-170692952D02*
X147474285Y-170769142D01*
X147474285Y-170769142D02*
X147474285Y-170997714D01*
X147474285Y-170997714D02*
X147436190Y-171073904D01*
X147436190Y-171073904D02*
X147398095Y-171112000D01*
X147398095Y-171112000D02*
X147321904Y-171150095D01*
X147321904Y-171150095D02*
X147169523Y-171150095D01*
X147169523Y-171150095D02*
X147093333Y-171112000D01*
X148160000Y-171150095D02*
X148160000Y-170731047D01*
X148160000Y-170731047D02*
X148121905Y-170654857D01*
X148121905Y-170654857D02*
X148045714Y-170616761D01*
X148045714Y-170616761D02*
X147893333Y-170616761D01*
X147893333Y-170616761D02*
X147817143Y-170654857D01*
X148160000Y-171112000D02*
X148083809Y-171150095D01*
X148083809Y-171150095D02*
X147893333Y-171150095D01*
X147893333Y-171150095D02*
X147817143Y-171112000D01*
X147817143Y-171112000D02*
X147779047Y-171035809D01*
X147779047Y-171035809D02*
X147779047Y-170959619D01*
X147779047Y-170959619D02*
X147817143Y-170883428D01*
X147817143Y-170883428D02*
X147893333Y-170845333D01*
X147893333Y-170845333D02*
X148083809Y-170845333D01*
X148083809Y-170845333D02*
X148160000Y-170807238D01*
X148883810Y-171112000D02*
X148807619Y-171150095D01*
X148807619Y-171150095D02*
X148655238Y-171150095D01*
X148655238Y-171150095D02*
X148579048Y-171112000D01*
X148579048Y-171112000D02*
X148540953Y-171073904D01*
X148540953Y-171073904D02*
X148502857Y-170997714D01*
X148502857Y-170997714D02*
X148502857Y-170769142D01*
X148502857Y-170769142D02*
X148540953Y-170692952D01*
X148540953Y-170692952D02*
X148579048Y-170654857D01*
X148579048Y-170654857D02*
X148655238Y-170616761D01*
X148655238Y-170616761D02*
X148807619Y-170616761D01*
X148807619Y-170616761D02*
X148883810Y-170654857D01*
X149226667Y-171150095D02*
X149226667Y-170616761D01*
X149226667Y-170350095D02*
X149188571Y-170388190D01*
X149188571Y-170388190D02*
X149226667Y-170426285D01*
X149226667Y-170426285D02*
X149264762Y-170388190D01*
X149264762Y-170388190D02*
X149226667Y-170350095D01*
X149226667Y-170350095D02*
X149226667Y-170426285D01*
X149493333Y-170616761D02*
X149798095Y-170616761D01*
X149607619Y-170350095D02*
X149607619Y-171035809D01*
X149607619Y-171035809D02*
X149645714Y-171112000D01*
X149645714Y-171112000D02*
X149721904Y-171150095D01*
X149721904Y-171150095D02*
X149798095Y-171150095D01*
X150179047Y-171150095D02*
X150102857Y-171112000D01*
X150102857Y-171112000D02*
X150064762Y-171073904D01*
X150064762Y-171073904D02*
X150026666Y-170997714D01*
X150026666Y-170997714D02*
X150026666Y-170769142D01*
X150026666Y-170769142D02*
X150064762Y-170692952D01*
X150064762Y-170692952D02*
X150102857Y-170654857D01*
X150102857Y-170654857D02*
X150179047Y-170616761D01*
X150179047Y-170616761D02*
X150293333Y-170616761D01*
X150293333Y-170616761D02*
X150369524Y-170654857D01*
X150369524Y-170654857D02*
X150407619Y-170692952D01*
X150407619Y-170692952D02*
X150445714Y-170769142D01*
X150445714Y-170769142D02*
X150445714Y-170997714D01*
X150445714Y-170997714D02*
X150407619Y-171073904D01*
X150407619Y-171073904D02*
X150369524Y-171112000D01*
X150369524Y-171112000D02*
X150293333Y-171150095D01*
X150293333Y-171150095D02*
X150179047Y-171150095D01*
X150788572Y-171150095D02*
X150788572Y-170616761D01*
X150788572Y-170769142D02*
X150826667Y-170692952D01*
X150826667Y-170692952D02*
X150864762Y-170654857D01*
X150864762Y-170654857D02*
X150940953Y-170616761D01*
X150940953Y-170616761D02*
X151017143Y-170616761D01*
X152350477Y-171073904D02*
X152312381Y-171112000D01*
X152312381Y-171112000D02*
X152198096Y-171150095D01*
X152198096Y-171150095D02*
X152121905Y-171150095D01*
X152121905Y-171150095D02*
X152007619Y-171112000D01*
X152007619Y-171112000D02*
X151931429Y-171035809D01*
X151931429Y-171035809D02*
X151893334Y-170959619D01*
X151893334Y-170959619D02*
X151855238Y-170807238D01*
X151855238Y-170807238D02*
X151855238Y-170692952D01*
X151855238Y-170692952D02*
X151893334Y-170540571D01*
X151893334Y-170540571D02*
X151931429Y-170464380D01*
X151931429Y-170464380D02*
X152007619Y-170388190D01*
X152007619Y-170388190D02*
X152121905Y-170350095D01*
X152121905Y-170350095D02*
X152198096Y-170350095D01*
X152198096Y-170350095D02*
X152312381Y-170388190D01*
X152312381Y-170388190D02*
X152350477Y-170426285D01*
X152693334Y-171150095D02*
X152693334Y-170350095D01*
X153036191Y-171150095D02*
X153036191Y-170731047D01*
X153036191Y-170731047D02*
X152998096Y-170654857D01*
X152998096Y-170654857D02*
X152921905Y-170616761D01*
X152921905Y-170616761D02*
X152807619Y-170616761D01*
X152807619Y-170616761D02*
X152731429Y-170654857D01*
X152731429Y-170654857D02*
X152693334Y-170692952D01*
X153760001Y-171150095D02*
X153760001Y-170731047D01*
X153760001Y-170731047D02*
X153721906Y-170654857D01*
X153721906Y-170654857D02*
X153645715Y-170616761D01*
X153645715Y-170616761D02*
X153493334Y-170616761D01*
X153493334Y-170616761D02*
X153417144Y-170654857D01*
X153760001Y-171112000D02*
X153683810Y-171150095D01*
X153683810Y-171150095D02*
X153493334Y-171150095D01*
X153493334Y-171150095D02*
X153417144Y-171112000D01*
X153417144Y-171112000D02*
X153379048Y-171035809D01*
X153379048Y-171035809D02*
X153379048Y-170959619D01*
X153379048Y-170959619D02*
X153417144Y-170883428D01*
X153417144Y-170883428D02*
X153493334Y-170845333D01*
X153493334Y-170845333D02*
X153683810Y-170845333D01*
X153683810Y-170845333D02*
X153760001Y-170807238D01*
X154140954Y-171150095D02*
X154140954Y-170616761D01*
X154140954Y-170769142D02*
X154179049Y-170692952D01*
X154179049Y-170692952D02*
X154217144Y-170654857D01*
X154217144Y-170654857D02*
X154293335Y-170616761D01*
X154293335Y-170616761D02*
X154369525Y-170616761D01*
X154979049Y-170616761D02*
X154979049Y-171264380D01*
X154979049Y-171264380D02*
X154940954Y-171340571D01*
X154940954Y-171340571D02*
X154902858Y-171378666D01*
X154902858Y-171378666D02*
X154826668Y-171416761D01*
X154826668Y-171416761D02*
X154712382Y-171416761D01*
X154712382Y-171416761D02*
X154636192Y-171378666D01*
X154979049Y-171112000D02*
X154902858Y-171150095D01*
X154902858Y-171150095D02*
X154750477Y-171150095D01*
X154750477Y-171150095D02*
X154674287Y-171112000D01*
X154674287Y-171112000D02*
X154636192Y-171073904D01*
X154636192Y-171073904D02*
X154598096Y-170997714D01*
X154598096Y-170997714D02*
X154598096Y-170769142D01*
X154598096Y-170769142D02*
X154636192Y-170692952D01*
X154636192Y-170692952D02*
X154674287Y-170654857D01*
X154674287Y-170654857D02*
X154750477Y-170616761D01*
X154750477Y-170616761D02*
X154902858Y-170616761D01*
X154902858Y-170616761D02*
X154979049Y-170654857D01*
X155664764Y-171112000D02*
X155588573Y-171150095D01*
X155588573Y-171150095D02*
X155436192Y-171150095D01*
X155436192Y-171150095D02*
X155360002Y-171112000D01*
X155360002Y-171112000D02*
X155321906Y-171035809D01*
X155321906Y-171035809D02*
X155321906Y-170731047D01*
X155321906Y-170731047D02*
X155360002Y-170654857D01*
X155360002Y-170654857D02*
X155436192Y-170616761D01*
X155436192Y-170616761D02*
X155588573Y-170616761D01*
X155588573Y-170616761D02*
X155664764Y-170654857D01*
X155664764Y-170654857D02*
X155702859Y-170731047D01*
X155702859Y-170731047D02*
X155702859Y-170807238D01*
X155702859Y-170807238D02*
X155321906Y-170883428D01*
X156045716Y-171150095D02*
X156045716Y-170616761D01*
X156045716Y-170769142D02*
X156083811Y-170692952D01*
X156083811Y-170692952D02*
X156121906Y-170654857D01*
X156121906Y-170654857D02*
X156198097Y-170616761D01*
X156198097Y-170616761D02*
X156274287Y-170616761D01*
D10*
X120863333Y-71632619D02*
X120530000Y-71156428D01*
X120291905Y-71632619D02*
X120291905Y-70632619D01*
X120291905Y-70632619D02*
X120672857Y-70632619D01*
X120672857Y-70632619D02*
X120768095Y-70680238D01*
X120768095Y-70680238D02*
X120815714Y-70727857D01*
X120815714Y-70727857D02*
X120863333Y-70823095D01*
X120863333Y-70823095D02*
X120863333Y-70965952D01*
X120863333Y-70965952D02*
X120815714Y-71061190D01*
X120815714Y-71061190D02*
X120768095Y-71108809D01*
X120768095Y-71108809D02*
X120672857Y-71156428D01*
X120672857Y-71156428D02*
X120291905Y-71156428D01*
X121244286Y-70727857D02*
X121291905Y-70680238D01*
X121291905Y-70680238D02*
X121387143Y-70632619D01*
X121387143Y-70632619D02*
X121625238Y-70632619D01*
X121625238Y-70632619D02*
X121720476Y-70680238D01*
X121720476Y-70680238D02*
X121768095Y-70727857D01*
X121768095Y-70727857D02*
X121815714Y-70823095D01*
X121815714Y-70823095D02*
X121815714Y-70918333D01*
X121815714Y-70918333D02*
X121768095Y-71061190D01*
X121768095Y-71061190D02*
X121196667Y-71632619D01*
X121196667Y-71632619D02*
X121815714Y-71632619D01*
X124592619Y-115368094D02*
X123592619Y-115368094D01*
X123592619Y-115368094D02*
X123592619Y-115129999D01*
X123592619Y-115129999D02*
X123640238Y-114987142D01*
X123640238Y-114987142D02*
X123735476Y-114891904D01*
X123735476Y-114891904D02*
X123830714Y-114844285D01*
X123830714Y-114844285D02*
X124021190Y-114796666D01*
X124021190Y-114796666D02*
X124164047Y-114796666D01*
X124164047Y-114796666D02*
X124354523Y-114844285D01*
X124354523Y-114844285D02*
X124449761Y-114891904D01*
X124449761Y-114891904D02*
X124545000Y-114987142D01*
X124545000Y-114987142D02*
X124592619Y-115129999D01*
X124592619Y-115129999D02*
X124592619Y-115368094D01*
X123925952Y-113939523D02*
X124592619Y-113939523D01*
X123545000Y-114177618D02*
X124259285Y-114415713D01*
X124259285Y-114415713D02*
X124259285Y-113796666D01*
X122452619Y-109301904D02*
X121452619Y-109301904D01*
X122452619Y-108730476D02*
X121881190Y-109159047D01*
X121452619Y-108730476D02*
X122024047Y-109301904D01*
D13*
X141287618Y-76717526D02*
X141287618Y-75447526D01*
X141287618Y-76052288D02*
X142013333Y-76052288D01*
X142013333Y-76717526D02*
X142013333Y-75447526D01*
X142557618Y-76657050D02*
X142739047Y-76717526D01*
X142739047Y-76717526D02*
X143041428Y-76717526D01*
X143041428Y-76717526D02*
X143162380Y-76657050D01*
X143162380Y-76657050D02*
X143222856Y-76596573D01*
X143222856Y-76596573D02*
X143283333Y-76475621D01*
X143283333Y-76475621D02*
X143283333Y-76354669D01*
X143283333Y-76354669D02*
X143222856Y-76233716D01*
X143222856Y-76233716D02*
X143162380Y-76173240D01*
X143162380Y-76173240D02*
X143041428Y-76112764D01*
X143041428Y-76112764D02*
X142799523Y-76052288D01*
X142799523Y-76052288D02*
X142678571Y-75991811D01*
X142678571Y-75991811D02*
X142618094Y-75931335D01*
X142618094Y-75931335D02*
X142557618Y-75810383D01*
X142557618Y-75810383D02*
X142557618Y-75689430D01*
X142557618Y-75689430D02*
X142618094Y-75568478D01*
X142618094Y-75568478D02*
X142678571Y-75508002D01*
X142678571Y-75508002D02*
X142799523Y-75447526D01*
X142799523Y-75447526D02*
X143101904Y-75447526D01*
X143101904Y-75447526D02*
X143283333Y-75508002D01*
X143767142Y-75568478D02*
X143827618Y-75508002D01*
X143827618Y-75508002D02*
X143948571Y-75447526D01*
X143948571Y-75447526D02*
X144250952Y-75447526D01*
X144250952Y-75447526D02*
X144371904Y-75508002D01*
X144371904Y-75508002D02*
X144432380Y-75568478D01*
X144432380Y-75568478D02*
X144492857Y-75689430D01*
X144492857Y-75689430D02*
X144492857Y-75810383D01*
X144492857Y-75810383D02*
X144432380Y-75991811D01*
X144432380Y-75991811D02*
X143706666Y-76717526D01*
X143706666Y-76717526D02*
X144492857Y-76717526D01*
D10*
X121652619Y-75226666D02*
X121176428Y-75559999D01*
X121652619Y-75798094D02*
X120652619Y-75798094D01*
X120652619Y-75798094D02*
X120652619Y-75417142D01*
X120652619Y-75417142D02*
X120700238Y-75321904D01*
X120700238Y-75321904D02*
X120747857Y-75274285D01*
X120747857Y-75274285D02*
X120843095Y-75226666D01*
X120843095Y-75226666D02*
X120985952Y-75226666D01*
X120985952Y-75226666D02*
X121081190Y-75274285D01*
X121081190Y-75274285D02*
X121128809Y-75321904D01*
X121128809Y-75321904D02*
X121176428Y-75417142D01*
X121176428Y-75417142D02*
X121176428Y-75798094D01*
X120652619Y-74893332D02*
X120652619Y-74274285D01*
X120652619Y-74274285D02*
X121033571Y-74607618D01*
X121033571Y-74607618D02*
X121033571Y-74464761D01*
X121033571Y-74464761D02*
X121081190Y-74369523D01*
X121081190Y-74369523D02*
X121128809Y-74321904D01*
X121128809Y-74321904D02*
X121224047Y-74274285D01*
X121224047Y-74274285D02*
X121462142Y-74274285D01*
X121462142Y-74274285D02*
X121557380Y-74321904D01*
X121557380Y-74321904D02*
X121605000Y-74369523D01*
X121605000Y-74369523D02*
X121652619Y-74464761D01*
X121652619Y-74464761D02*
X121652619Y-74750475D01*
X121652619Y-74750475D02*
X121605000Y-74845713D01*
X121605000Y-74845713D02*
X121557380Y-74893332D01*
X121892619Y-79578094D02*
X120892619Y-79578094D01*
X120892619Y-79578094D02*
X120892619Y-79339999D01*
X120892619Y-79339999D02*
X120940238Y-79197142D01*
X120940238Y-79197142D02*
X121035476Y-79101904D01*
X121035476Y-79101904D02*
X121130714Y-79054285D01*
X121130714Y-79054285D02*
X121321190Y-79006666D01*
X121321190Y-79006666D02*
X121464047Y-79006666D01*
X121464047Y-79006666D02*
X121654523Y-79054285D01*
X121654523Y-79054285D02*
X121749761Y-79101904D01*
X121749761Y-79101904D02*
X121845000Y-79197142D01*
X121845000Y-79197142D02*
X121892619Y-79339999D01*
X121892619Y-79339999D02*
X121892619Y-79578094D01*
X120892619Y-78673332D02*
X120892619Y-78054285D01*
X120892619Y-78054285D02*
X121273571Y-78387618D01*
X121273571Y-78387618D02*
X121273571Y-78244761D01*
X121273571Y-78244761D02*
X121321190Y-78149523D01*
X121321190Y-78149523D02*
X121368809Y-78101904D01*
X121368809Y-78101904D02*
X121464047Y-78054285D01*
X121464047Y-78054285D02*
X121702142Y-78054285D01*
X121702142Y-78054285D02*
X121797380Y-78101904D01*
X121797380Y-78101904D02*
X121845000Y-78149523D01*
X121845000Y-78149523D02*
X121892619Y-78244761D01*
X121892619Y-78244761D02*
X121892619Y-78530475D01*
X121892619Y-78530475D02*
X121845000Y-78625713D01*
X121845000Y-78625713D02*
X121797380Y-78673332D01*
X121662619Y-88901904D02*
X120662619Y-88901904D01*
X121662619Y-88330476D02*
X121091190Y-88759047D01*
X120662619Y-88330476D02*
X121234047Y-88901904D01*
X128117380Y-95626666D02*
X128165000Y-95674285D01*
X128165000Y-95674285D02*
X128212619Y-95817142D01*
X128212619Y-95817142D02*
X128212619Y-95912380D01*
X128212619Y-95912380D02*
X128165000Y-96055237D01*
X128165000Y-96055237D02*
X128069761Y-96150475D01*
X128069761Y-96150475D02*
X127974523Y-96198094D01*
X127974523Y-96198094D02*
X127784047Y-96245713D01*
X127784047Y-96245713D02*
X127641190Y-96245713D01*
X127641190Y-96245713D02*
X127450714Y-96198094D01*
X127450714Y-96198094D02*
X127355476Y-96150475D01*
X127355476Y-96150475D02*
X127260238Y-96055237D01*
X127260238Y-96055237D02*
X127212619Y-95912380D01*
X127212619Y-95912380D02*
X127212619Y-95817142D01*
X127212619Y-95817142D02*
X127260238Y-95674285D01*
X127260238Y-95674285D02*
X127307857Y-95626666D01*
X128212619Y-94674285D02*
X128212619Y-95245713D01*
X128212619Y-94959999D02*
X127212619Y-94959999D01*
X127212619Y-94959999D02*
X127355476Y-95055237D01*
X127355476Y-95055237D02*
X127450714Y-95150475D01*
X127450714Y-95150475D02*
X127498333Y-95245713D01*
X154377380Y-99756666D02*
X154425000Y-99804285D01*
X154425000Y-99804285D02*
X154472619Y-99947142D01*
X154472619Y-99947142D02*
X154472619Y-100042380D01*
X154472619Y-100042380D02*
X154425000Y-100185237D01*
X154425000Y-100185237D02*
X154329761Y-100280475D01*
X154329761Y-100280475D02*
X154234523Y-100328094D01*
X154234523Y-100328094D02*
X154044047Y-100375713D01*
X154044047Y-100375713D02*
X153901190Y-100375713D01*
X153901190Y-100375713D02*
X153710714Y-100328094D01*
X153710714Y-100328094D02*
X153615476Y-100280475D01*
X153615476Y-100280475D02*
X153520238Y-100185237D01*
X153520238Y-100185237D02*
X153472619Y-100042380D01*
X153472619Y-100042380D02*
X153472619Y-99947142D01*
X153472619Y-99947142D02*
X153520238Y-99804285D01*
X153520238Y-99804285D02*
X153567857Y-99756666D01*
X153567857Y-99375713D02*
X153520238Y-99328094D01*
X153520238Y-99328094D02*
X153472619Y-99232856D01*
X153472619Y-99232856D02*
X153472619Y-98994761D01*
X153472619Y-98994761D02*
X153520238Y-98899523D01*
X153520238Y-98899523D02*
X153567857Y-98851904D01*
X153567857Y-98851904D02*
X153663095Y-98804285D01*
X153663095Y-98804285D02*
X153758333Y-98804285D01*
X153758333Y-98804285D02*
X153901190Y-98851904D01*
X153901190Y-98851904D02*
X154472619Y-99423332D01*
X154472619Y-99423332D02*
X154472619Y-98804285D01*
X124862619Y-124596666D02*
X124386428Y-124929999D01*
X124862619Y-125168094D02*
X123862619Y-125168094D01*
X123862619Y-125168094D02*
X123862619Y-124787142D01*
X123862619Y-124787142D02*
X123910238Y-124691904D01*
X123910238Y-124691904D02*
X123957857Y-124644285D01*
X123957857Y-124644285D02*
X124053095Y-124596666D01*
X124053095Y-124596666D02*
X124195952Y-124596666D01*
X124195952Y-124596666D02*
X124291190Y-124644285D01*
X124291190Y-124644285D02*
X124338809Y-124691904D01*
X124338809Y-124691904D02*
X124386428Y-124787142D01*
X124386428Y-124787142D02*
X124386428Y-125168094D01*
X124195952Y-123739523D02*
X124862619Y-123739523D01*
X123815000Y-123977618D02*
X124529285Y-124215713D01*
X124529285Y-124215713D02*
X124529285Y-123596666D01*
X126032619Y-95296666D02*
X125556428Y-95629999D01*
X126032619Y-95868094D02*
X125032619Y-95868094D01*
X125032619Y-95868094D02*
X125032619Y-95487142D01*
X125032619Y-95487142D02*
X125080238Y-95391904D01*
X125080238Y-95391904D02*
X125127857Y-95344285D01*
X125127857Y-95344285D02*
X125223095Y-95296666D01*
X125223095Y-95296666D02*
X125365952Y-95296666D01*
X125365952Y-95296666D02*
X125461190Y-95344285D01*
X125461190Y-95344285D02*
X125508809Y-95391904D01*
X125508809Y-95391904D02*
X125556428Y-95487142D01*
X125556428Y-95487142D02*
X125556428Y-95868094D01*
X126032619Y-94820475D02*
X126032619Y-94629999D01*
X126032619Y-94629999D02*
X125985000Y-94534761D01*
X125985000Y-94534761D02*
X125937380Y-94487142D01*
X125937380Y-94487142D02*
X125794523Y-94391904D01*
X125794523Y-94391904D02*
X125604047Y-94344285D01*
X125604047Y-94344285D02*
X125223095Y-94344285D01*
X125223095Y-94344285D02*
X125127857Y-94391904D01*
X125127857Y-94391904D02*
X125080238Y-94439523D01*
X125080238Y-94439523D02*
X125032619Y-94534761D01*
X125032619Y-94534761D02*
X125032619Y-94725237D01*
X125032619Y-94725237D02*
X125080238Y-94820475D01*
X125080238Y-94820475D02*
X125127857Y-94868094D01*
X125127857Y-94868094D02*
X125223095Y-94915713D01*
X125223095Y-94915713D02*
X125461190Y-94915713D01*
X125461190Y-94915713D02*
X125556428Y-94868094D01*
X125556428Y-94868094D02*
X125604047Y-94820475D01*
X125604047Y-94820475D02*
X125651666Y-94725237D01*
X125651666Y-94725237D02*
X125651666Y-94534761D01*
X125651666Y-94534761D02*
X125604047Y-94439523D01*
X125604047Y-94439523D02*
X125556428Y-94391904D01*
X125556428Y-94391904D02*
X125461190Y-94344285D01*
X136062619Y-145786666D02*
X136062619Y-146262856D01*
X136062619Y-146262856D02*
X135062619Y-146262856D01*
X136062619Y-144929523D02*
X136062619Y-145500951D01*
X136062619Y-145215237D02*
X135062619Y-145215237D01*
X135062619Y-145215237D02*
X135205476Y-145310475D01*
X135205476Y-145310475D02*
X135300714Y-145405713D01*
X135300714Y-145405713D02*
X135348333Y-145500951D01*
X158551905Y-65472619D02*
X158551905Y-64472619D01*
X158551905Y-64472619D02*
X158790000Y-64472619D01*
X158790000Y-64472619D02*
X158932857Y-64520238D01*
X158932857Y-64520238D02*
X159028095Y-64615476D01*
X159028095Y-64615476D02*
X159075714Y-64710714D01*
X159075714Y-64710714D02*
X159123333Y-64901190D01*
X159123333Y-64901190D02*
X159123333Y-65044047D01*
X159123333Y-65044047D02*
X159075714Y-65234523D01*
X159075714Y-65234523D02*
X159028095Y-65329761D01*
X159028095Y-65329761D02*
X158932857Y-65425000D01*
X158932857Y-65425000D02*
X158790000Y-65472619D01*
X158790000Y-65472619D02*
X158551905Y-65472619D01*
X159504286Y-64567857D02*
X159551905Y-64520238D01*
X159551905Y-64520238D02*
X159647143Y-64472619D01*
X159647143Y-64472619D02*
X159885238Y-64472619D01*
X159885238Y-64472619D02*
X159980476Y-64520238D01*
X159980476Y-64520238D02*
X160028095Y-64567857D01*
X160028095Y-64567857D02*
X160075714Y-64663095D01*
X160075714Y-64663095D02*
X160075714Y-64758333D01*
X160075714Y-64758333D02*
X160028095Y-64901190D01*
X160028095Y-64901190D02*
X159456667Y-65472619D01*
X159456667Y-65472619D02*
X160075714Y-65472619D01*
X158718095Y-69922619D02*
X158718095Y-68922619D01*
X159289523Y-69922619D02*
X158860952Y-69351190D01*
X159289523Y-68922619D02*
X158718095Y-69494047D01*
X129291905Y-157937619D02*
X129291905Y-156937619D01*
X129291905Y-156937619D02*
X129530000Y-156937619D01*
X129530000Y-156937619D02*
X129672857Y-156985238D01*
X129672857Y-156985238D02*
X129768095Y-157080476D01*
X129768095Y-157080476D02*
X129815714Y-157175714D01*
X129815714Y-157175714D02*
X129863333Y-157366190D01*
X129863333Y-157366190D02*
X129863333Y-157509047D01*
X129863333Y-157509047D02*
X129815714Y-157699523D01*
X129815714Y-157699523D02*
X129768095Y-157794761D01*
X129768095Y-157794761D02*
X129672857Y-157890000D01*
X129672857Y-157890000D02*
X129530000Y-157937619D01*
X129530000Y-157937619D02*
X129291905Y-157937619D01*
X130815714Y-157937619D02*
X130244286Y-157937619D01*
X130530000Y-157937619D02*
X130530000Y-156937619D01*
X130530000Y-156937619D02*
X130434762Y-157080476D01*
X130434762Y-157080476D02*
X130339524Y-157175714D01*
X130339524Y-157175714D02*
X130244286Y-157223333D01*
X123418095Y-159362619D02*
X123418095Y-158362619D01*
X123989523Y-159362619D02*
X123560952Y-158791190D01*
X123989523Y-158362619D02*
X123418095Y-158934047D01*
X130287857Y-105245238D02*
X130240238Y-105340476D01*
X130240238Y-105340476D02*
X130145000Y-105435714D01*
X130145000Y-105435714D02*
X130002142Y-105578571D01*
X130002142Y-105578571D02*
X129954523Y-105673809D01*
X129954523Y-105673809D02*
X129954523Y-105769047D01*
X130192619Y-105721428D02*
X130145000Y-105816666D01*
X130145000Y-105816666D02*
X130049761Y-105911904D01*
X130049761Y-105911904D02*
X129859285Y-105959523D01*
X129859285Y-105959523D02*
X129525952Y-105959523D01*
X129525952Y-105959523D02*
X129335476Y-105911904D01*
X129335476Y-105911904D02*
X129240238Y-105816666D01*
X129240238Y-105816666D02*
X129192619Y-105721428D01*
X129192619Y-105721428D02*
X129192619Y-105530952D01*
X129192619Y-105530952D02*
X129240238Y-105435714D01*
X129240238Y-105435714D02*
X129335476Y-105340476D01*
X129335476Y-105340476D02*
X129525952Y-105292857D01*
X129525952Y-105292857D02*
X129859285Y-105292857D01*
X129859285Y-105292857D02*
X130049761Y-105340476D01*
X130049761Y-105340476D02*
X130145000Y-105435714D01*
X130145000Y-105435714D02*
X130192619Y-105530952D01*
X130192619Y-105530952D02*
X130192619Y-105721428D01*
X129287857Y-104911904D02*
X129240238Y-104864285D01*
X129240238Y-104864285D02*
X129192619Y-104769047D01*
X129192619Y-104769047D02*
X129192619Y-104530952D01*
X129192619Y-104530952D02*
X129240238Y-104435714D01*
X129240238Y-104435714D02*
X129287857Y-104388095D01*
X129287857Y-104388095D02*
X129383095Y-104340476D01*
X129383095Y-104340476D02*
X129478333Y-104340476D01*
X129478333Y-104340476D02*
X129621190Y-104388095D01*
X129621190Y-104388095D02*
X130192619Y-104959523D01*
X130192619Y-104959523D02*
X130192619Y-104340476D01*
X139136666Y-162612619D02*
X139136666Y-163326904D01*
X139136666Y-163326904D02*
X139089047Y-163469761D01*
X139089047Y-163469761D02*
X138993809Y-163565000D01*
X138993809Y-163565000D02*
X138850952Y-163612619D01*
X138850952Y-163612619D02*
X138755714Y-163612619D01*
X140136666Y-163612619D02*
X139565238Y-163612619D01*
X139850952Y-163612619D02*
X139850952Y-162612619D01*
X139850952Y-162612619D02*
X139755714Y-162755476D01*
X139755714Y-162755476D02*
X139660476Y-162850714D01*
X139660476Y-162850714D02*
X139565238Y-162898333D01*
X146457619Y-142666666D02*
X146457619Y-143142856D01*
X146457619Y-143142856D02*
X145457619Y-143142856D01*
X145457619Y-142428570D02*
X145457619Y-141809523D01*
X145457619Y-141809523D02*
X145838571Y-142142856D01*
X145838571Y-142142856D02*
X145838571Y-141999999D01*
X145838571Y-141999999D02*
X145886190Y-141904761D01*
X145886190Y-141904761D02*
X145933809Y-141857142D01*
X145933809Y-141857142D02*
X146029047Y-141809523D01*
X146029047Y-141809523D02*
X146267142Y-141809523D01*
X146267142Y-141809523D02*
X146362380Y-141857142D01*
X146362380Y-141857142D02*
X146410000Y-141904761D01*
X146410000Y-141904761D02*
X146457619Y-141999999D01*
X146457619Y-141999999D02*
X146457619Y-142285713D01*
X146457619Y-142285713D02*
X146410000Y-142380951D01*
X146410000Y-142380951D02*
X146362380Y-142428570D01*
X157277380Y-99043333D02*
X157277380Y-98567143D01*
X157277380Y-98567143D02*
X158277380Y-98567143D01*
X158182142Y-99329048D02*
X158229761Y-99376667D01*
X158229761Y-99376667D02*
X158277380Y-99471905D01*
X158277380Y-99471905D02*
X158277380Y-99710000D01*
X158277380Y-99710000D02*
X158229761Y-99805238D01*
X158229761Y-99805238D02*
X158182142Y-99852857D01*
X158182142Y-99852857D02*
X158086904Y-99900476D01*
X158086904Y-99900476D02*
X157991666Y-99900476D01*
X157991666Y-99900476D02*
X157848809Y-99852857D01*
X157848809Y-99852857D02*
X157277380Y-99281429D01*
X157277380Y-99281429D02*
X157277380Y-99900476D01*
X136772619Y-142646666D02*
X136296428Y-142979999D01*
X136772619Y-143218094D02*
X135772619Y-143218094D01*
X135772619Y-143218094D02*
X135772619Y-142837142D01*
X135772619Y-142837142D02*
X135820238Y-142741904D01*
X135820238Y-142741904D02*
X135867857Y-142694285D01*
X135867857Y-142694285D02*
X135963095Y-142646666D01*
X135963095Y-142646666D02*
X136105952Y-142646666D01*
X136105952Y-142646666D02*
X136201190Y-142694285D01*
X136201190Y-142694285D02*
X136248809Y-142741904D01*
X136248809Y-142741904D02*
X136296428Y-142837142D01*
X136296428Y-142837142D02*
X136296428Y-143218094D01*
X136772619Y-141694285D02*
X136772619Y-142265713D01*
X136772619Y-141979999D02*
X135772619Y-141979999D01*
X135772619Y-141979999D02*
X135915476Y-142075237D01*
X135915476Y-142075237D02*
X136010714Y-142170475D01*
X136010714Y-142170475D02*
X136058333Y-142265713D01*
D13*
X141187618Y-121957526D02*
X141187618Y-120687526D01*
X141187618Y-121292288D02*
X141913333Y-121292288D01*
X141913333Y-121957526D02*
X141913333Y-120687526D01*
X142457618Y-121897050D02*
X142639047Y-121957526D01*
X142639047Y-121957526D02*
X142941428Y-121957526D01*
X142941428Y-121957526D02*
X143062380Y-121897050D01*
X143062380Y-121897050D02*
X143122856Y-121836573D01*
X143122856Y-121836573D02*
X143183333Y-121715621D01*
X143183333Y-121715621D02*
X143183333Y-121594669D01*
X143183333Y-121594669D02*
X143122856Y-121473716D01*
X143122856Y-121473716D02*
X143062380Y-121413240D01*
X143062380Y-121413240D02*
X142941428Y-121352764D01*
X142941428Y-121352764D02*
X142699523Y-121292288D01*
X142699523Y-121292288D02*
X142578571Y-121231811D01*
X142578571Y-121231811D02*
X142518094Y-121171335D01*
X142518094Y-121171335D02*
X142457618Y-121050383D01*
X142457618Y-121050383D02*
X142457618Y-120929430D01*
X142457618Y-120929430D02*
X142518094Y-120808478D01*
X142518094Y-120808478D02*
X142578571Y-120748002D01*
X142578571Y-120748002D02*
X142699523Y-120687526D01*
X142699523Y-120687526D02*
X143001904Y-120687526D01*
X143001904Y-120687526D02*
X143183333Y-120748002D01*
X144392857Y-121957526D02*
X143667142Y-121957526D01*
X144029999Y-121957526D02*
X144029999Y-120687526D01*
X144029999Y-120687526D02*
X143909047Y-120868954D01*
X143909047Y-120868954D02*
X143788095Y-120989907D01*
X143788095Y-120989907D02*
X143667142Y-121050383D01*
D10*
X127184761Y-86667857D02*
X127089523Y-86620238D01*
X127089523Y-86620238D02*
X126994285Y-86525000D01*
X126994285Y-86525000D02*
X126851428Y-86382142D01*
X126851428Y-86382142D02*
X126756190Y-86334523D01*
X126756190Y-86334523D02*
X126660952Y-86334523D01*
X126708571Y-86572619D02*
X126613333Y-86525000D01*
X126613333Y-86525000D02*
X126518095Y-86429761D01*
X126518095Y-86429761D02*
X126470476Y-86239285D01*
X126470476Y-86239285D02*
X126470476Y-85905952D01*
X126470476Y-85905952D02*
X126518095Y-85715476D01*
X126518095Y-85715476D02*
X126613333Y-85620238D01*
X126613333Y-85620238D02*
X126708571Y-85572619D01*
X126708571Y-85572619D02*
X126899047Y-85572619D01*
X126899047Y-85572619D02*
X126994285Y-85620238D01*
X126994285Y-85620238D02*
X127089523Y-85715476D01*
X127089523Y-85715476D02*
X127137142Y-85905952D01*
X127137142Y-85905952D02*
X127137142Y-86239285D01*
X127137142Y-86239285D02*
X127089523Y-86429761D01*
X127089523Y-86429761D02*
X126994285Y-86525000D01*
X126994285Y-86525000D02*
X126899047Y-86572619D01*
X126899047Y-86572619D02*
X126708571Y-86572619D01*
X128089523Y-86572619D02*
X127518095Y-86572619D01*
X127803809Y-86572619D02*
X127803809Y-85572619D01*
X127803809Y-85572619D02*
X127708571Y-85715476D01*
X127708571Y-85715476D02*
X127613333Y-85810714D01*
X127613333Y-85810714D02*
X127518095Y-85858333D01*
X157344761Y-113737857D02*
X157249523Y-113690238D01*
X157249523Y-113690238D02*
X157154285Y-113595000D01*
X157154285Y-113595000D02*
X157011428Y-113452142D01*
X157011428Y-113452142D02*
X156916190Y-113404523D01*
X156916190Y-113404523D02*
X156820952Y-113404523D01*
X156868571Y-113642619D02*
X156773333Y-113595000D01*
X156773333Y-113595000D02*
X156678095Y-113499761D01*
X156678095Y-113499761D02*
X156630476Y-113309285D01*
X156630476Y-113309285D02*
X156630476Y-112975952D01*
X156630476Y-112975952D02*
X156678095Y-112785476D01*
X156678095Y-112785476D02*
X156773333Y-112690238D01*
X156773333Y-112690238D02*
X156868571Y-112642619D01*
X156868571Y-112642619D02*
X157059047Y-112642619D01*
X157059047Y-112642619D02*
X157154285Y-112690238D01*
X157154285Y-112690238D02*
X157249523Y-112785476D01*
X157249523Y-112785476D02*
X157297142Y-112975952D01*
X157297142Y-112975952D02*
X157297142Y-113309285D01*
X157297142Y-113309285D02*
X157249523Y-113499761D01*
X157249523Y-113499761D02*
X157154285Y-113595000D01*
X157154285Y-113595000D02*
X157059047Y-113642619D01*
X157059047Y-113642619D02*
X156868571Y-113642619D01*
X157630476Y-112642619D02*
X158249523Y-112642619D01*
X158249523Y-112642619D02*
X157916190Y-113023571D01*
X157916190Y-113023571D02*
X158059047Y-113023571D01*
X158059047Y-113023571D02*
X158154285Y-113071190D01*
X158154285Y-113071190D02*
X158201904Y-113118809D01*
X158201904Y-113118809D02*
X158249523Y-113214047D01*
X158249523Y-113214047D02*
X158249523Y-113452142D01*
X158249523Y-113452142D02*
X158201904Y-113547380D01*
X158201904Y-113547380D02*
X158154285Y-113595000D01*
X158154285Y-113595000D02*
X158059047Y-113642619D01*
X158059047Y-113642619D02*
X157773333Y-113642619D01*
X157773333Y-113642619D02*
X157678095Y-113595000D01*
X157678095Y-113595000D02*
X157630476Y-113547380D01*
D14*
X123890000Y-66990000D02*
X123990000Y-66990000D01*
X123990000Y-63870000D02*
X123990000Y-70110000D01*
X123990000Y-70110000D02*
X141230000Y-70110000D01*
X141230000Y-63870000D02*
X123990000Y-63870000D01*
X141230000Y-70110000D02*
X141230000Y-63870000D01*
X141330000Y-66990000D02*
X141230000Y-66990000D01*
X122010000Y-111860000D02*
X122010000Y-112510000D01*
X123130000Y-112510000D02*
X120890000Y-112510000D01*
X120890000Y-112510000D02*
X120890000Y-116750000D01*
X123130000Y-113110000D02*
X120890000Y-113110000D01*
X123130000Y-113230000D02*
X120890000Y-113230000D01*
X123130000Y-113350000D02*
X120890000Y-113350000D01*
X123130000Y-116750000D02*
X123130000Y-112510000D01*
X120890000Y-116750000D02*
X123130000Y-116750000D01*
X122010000Y-117400000D02*
X122010000Y-116750000D01*
D15*
X125330000Y-71590000D02*
X160230000Y-71590000D01*
X125330000Y-84290000D02*
X125330000Y-71590000D01*
X160230000Y-71590000D02*
X160230000Y-84290000D01*
X160230000Y-84290000D02*
X125330000Y-84290000D01*
D14*
X123110000Y-77930000D02*
X123110000Y-76980000D01*
X122190000Y-76980000D02*
X124030000Y-76980000D01*
X124030000Y-76980000D02*
X124030000Y-73140000D01*
X122190000Y-73140000D02*
X122190000Y-76980000D01*
X124030000Y-73140000D02*
X122190000Y-73140000D01*
X123110000Y-72190000D02*
X123110000Y-73140000D01*
X123000000Y-87600000D02*
X123000000Y-86950000D01*
X121880000Y-86950000D02*
X124120000Y-86950000D01*
X124120000Y-86950000D02*
X124120000Y-82710000D01*
X121880000Y-86350000D02*
X124120000Y-86350000D01*
X121880000Y-86230000D02*
X124120000Y-86230000D01*
X121880000Y-86110000D02*
X124120000Y-86110000D01*
X121880000Y-82710000D02*
X121880000Y-86950000D01*
X124120000Y-82710000D02*
X121880000Y-82710000D01*
X123000000Y-82060000D02*
X123000000Y-82710000D01*
X140490000Y-86000000D02*
X128750000Y-86000000D01*
X140490000Y-86000000D02*
X140490000Y-112740000D01*
X128750000Y-86000000D02*
X128750000Y-112740000D01*
X140490000Y-112740000D02*
X128750000Y-112740000D01*
X152880000Y-86220000D02*
X141140000Y-86220000D01*
X152880000Y-86220000D02*
X152880000Y-112960000D01*
X141140000Y-86220000D02*
X141140000Y-112960000D01*
X152880000Y-112960000D02*
X141140000Y-112960000D01*
D11*
X147471993Y-165756521D02*
X147541362Y-165787644D01*
X147611147Y-165833319D01*
X147674318Y-165891094D01*
X147676548Y-165893555D01*
X147745235Y-165979739D01*
X147810929Y-166083160D01*
X147874553Y-166206335D01*
X147937031Y-166351784D01*
X147999288Y-166522023D01*
X148062246Y-166719571D01*
X148126830Y-166946946D01*
X148193964Y-167206664D01*
X148261244Y-167486934D01*
X148288048Y-167593703D01*
X148322556Y-167719266D01*
X148360062Y-167847011D01*
X148391681Y-167947633D01*
X148475094Y-168181885D01*
X148559700Y-168378751D01*
X148645485Y-168538212D01*
X148732434Y-168660253D01*
X148820535Y-168744857D01*
X148909772Y-168792009D01*
X149000132Y-168801691D01*
X149091602Y-168773888D01*
X149094177Y-168772571D01*
X149175541Y-168712249D01*
X149257530Y-168615831D01*
X149339530Y-168484720D01*
X149420924Y-168320319D01*
X149501098Y-168124029D01*
X149579434Y-167897253D01*
X149655318Y-167641393D01*
X149728133Y-167357852D01*
X149743010Y-167294779D01*
X149799556Y-167059016D01*
X149852587Y-166854936D01*
X149903897Y-166677079D01*
X149955278Y-166519988D01*
X150008523Y-166378202D01*
X150065425Y-166246264D01*
X150127776Y-166118714D01*
X150131826Y-166110898D01*
X150213088Y-165976203D01*
X150300741Y-165870683D01*
X150392293Y-165796262D01*
X150485251Y-165754866D01*
X150577123Y-165748420D01*
X150596615Y-165751811D01*
X150687087Y-165790254D01*
X150777101Y-165865041D01*
X150866087Y-165974995D01*
X150953477Y-166118942D01*
X151038704Y-166295706D01*
X151121200Y-166504112D01*
X151200395Y-166742986D01*
X151275722Y-167011151D01*
X151344821Y-167299342D01*
X151411757Y-167577720D01*
X151483573Y-167832727D01*
X151559403Y-168062324D01*
X151638381Y-168264472D01*
X151719641Y-168437132D01*
X151802316Y-168578266D01*
X151885542Y-168685835D01*
X151962728Y-168753999D01*
X152049182Y-168792003D01*
X152142340Y-168797859D01*
X152227234Y-168772433D01*
X152300969Y-168716748D01*
X152378400Y-168624001D01*
X152459597Y-168494098D01*
X152520191Y-168377998D01*
X152592418Y-168219269D01*
X152658391Y-168049211D01*
X152720391Y-167860991D01*
X152780704Y-167647775D01*
X152830521Y-167449416D01*
X152880734Y-167241884D01*
X152924421Y-167065989D01*
X152963049Y-166916712D01*
X152998081Y-166789032D01*
X153030982Y-166677929D01*
X153063217Y-166578383D01*
X153096252Y-166485374D01*
X153131550Y-166393880D01*
X153156059Y-166333669D01*
X153241055Y-166149186D01*
X153329010Y-165998646D01*
X153419261Y-165882744D01*
X153511147Y-165802178D01*
X153604005Y-165757643D01*
X153697173Y-165749836D01*
X153709425Y-165751580D01*
X153804938Y-165784994D01*
X153897483Y-165852706D01*
X153987259Y-165955121D01*
X154074470Y-166092646D01*
X154159315Y-166265686D01*
X154241997Y-166474645D01*
X154322717Y-166719928D01*
X154401676Y-167001942D01*
X154470085Y-167281778D01*
X154546624Y-167591720D01*
X154625332Y-167867071D01*
X154706024Y-168107537D01*
X154788514Y-168312822D01*
X154872614Y-168482632D01*
X154958139Y-168616672D01*
X155044903Y-168714647D01*
X155132719Y-168776263D01*
X155221402Y-168801224D01*
X155310766Y-168789237D01*
X155394045Y-168744870D01*
X155478886Y-168664877D01*
X155563331Y-168548690D01*
X155646774Y-168397634D01*
X155728609Y-168213032D01*
X155808230Y-167996210D01*
X155885029Y-167748491D01*
X155935418Y-167562735D01*
X155959532Y-167470715D01*
X155980869Y-167392434D01*
X155997503Y-167334727D01*
X156007508Y-167304433D01*
X156008970Y-167301669D01*
X156021540Y-167300688D01*
X156023718Y-167330992D01*
X156016527Y-167388127D01*
X156000990Y-167467639D01*
X155978130Y-167565074D01*
X155948972Y-167675978D01*
X155914539Y-167795897D01*
X155875854Y-167920376D01*
X155846466Y-168008799D01*
X155769478Y-168215490D01*
X155689309Y-168395848D01*
X155607329Y-168547517D01*
X155524911Y-168668142D01*
X155443427Y-168755369D01*
X155388532Y-168794812D01*
X155290311Y-168833739D01*
X155194643Y-168837595D01*
X155101381Y-168806143D01*
X155010379Y-168739142D01*
X154921490Y-168636353D01*
X154834567Y-168497537D01*
X154749464Y-168322454D01*
X154666034Y-168110865D01*
X154584132Y-167862529D01*
X154503609Y-167577209D01*
X154424320Y-167254663D01*
X154411460Y-167198356D01*
X154355677Y-166972753D01*
X154292492Y-166754316D01*
X154223847Y-166548156D01*
X154151682Y-166359388D01*
X154077937Y-166193124D01*
X154004551Y-166054475D01*
X153940816Y-165958057D01*
X153861306Y-165873577D01*
X153774196Y-165816210D01*
X153685810Y-165789286D01*
X153623375Y-165790907D01*
X153540922Y-165824738D01*
X153457703Y-165894502D01*
X153374512Y-165998649D01*
X153292144Y-166135624D01*
X153211392Y-166303875D01*
X153133050Y-166501851D01*
X153057913Y-166727999D01*
X152986774Y-166980767D01*
X152959814Y-167088166D01*
X152915212Y-167271185D01*
X152877861Y-167422852D01*
X152846366Y-167548323D01*
X152819330Y-167652753D01*
X152795357Y-167741299D01*
X152773051Y-167819117D01*
X152751016Y-167891362D01*
X152727856Y-167963191D01*
X152702174Y-168039760D01*
X152702029Y-168040187D01*
X152618288Y-168264752D01*
X152532333Y-168452018D01*
X152444042Y-168602146D01*
X152353295Y-168715298D01*
X152259973Y-168791634D01*
X152163954Y-168831315D01*
X152106250Y-168837599D01*
X152016207Y-168823609D01*
X151931202Y-168780367D01*
X151849244Y-168705961D01*
X151768341Y-168598482D01*
X151686500Y-168456020D01*
X151666055Y-168415516D01*
X151624247Y-168328539D01*
X151586411Y-168244034D01*
X151551257Y-168157810D01*
X151517491Y-168065679D01*
X151483823Y-167963452D01*
X151448961Y-167846939D01*
X151411612Y-167711953D01*
X151370485Y-167554302D01*
X151324289Y-167369800D01*
X151271731Y-167154255D01*
X151252441Y-167074231D01*
X151197944Y-166867022D01*
X151136152Y-166665882D01*
X151069158Y-166475993D01*
X150999057Y-166302538D01*
X150927942Y-166150699D01*
X150857908Y-166025659D01*
X150791258Y-165932846D01*
X150729332Y-165872475D01*
X150659200Y-165822463D01*
X150591823Y-165789613D01*
X150545291Y-165780256D01*
X150508248Y-165788011D01*
X150454813Y-165807024D01*
X150432938Y-165816432D01*
X150355311Y-165869526D01*
X150276178Y-165957829D01*
X150196546Y-166079118D01*
X150117421Y-166231168D01*
X150039813Y-166411755D01*
X149964728Y-166618653D01*
X149893173Y-166849640D01*
X149826156Y-167102490D01*
X149799547Y-167214925D01*
X149724067Y-167527295D01*
X149648616Y-167803378D01*
X149572683Y-168044404D01*
X149495758Y-168251601D01*
X149417330Y-168426197D01*
X149336888Y-168569422D01*
X149253923Y-168682504D01*
X149167923Y-168766671D01*
X149148652Y-168781351D01*
X149056141Y-168826593D01*
X148955849Y-168836632D01*
X148853837Y-168811136D01*
X148828212Y-168798874D01*
X148749729Y-168739827D01*
X148669643Y-168646076D01*
X148589196Y-168520328D01*
X148509627Y-168365290D01*
X148432178Y-168183670D01*
X148358090Y-167978174D01*
X148288604Y-167751508D01*
X148224961Y-167506380D01*
X148213828Y-167458795D01*
X148140404Y-167152735D01*
X148068984Y-166882432D01*
X147998931Y-166646219D01*
X147929609Y-166442428D01*
X147860381Y-166269391D01*
X147790611Y-166125441D01*
X147719662Y-166008909D01*
X147646899Y-165918128D01*
X147613424Y-165885261D01*
X147530956Y-165821359D01*
X147458126Y-165789226D01*
X147389156Y-165786424D01*
X147382106Y-165787691D01*
X147343960Y-165790436D01*
X147336282Y-165776285D01*
X147336677Y-165774987D01*
X147362621Y-165747740D01*
X147410070Y-165742402D01*
X147471993Y-165756521D01*
G36*
X147471993Y-165756521D02*
G01*
X147541362Y-165787644D01*
X147611147Y-165833319D01*
X147674318Y-165891094D01*
X147676548Y-165893555D01*
X147745235Y-165979739D01*
X147810929Y-166083160D01*
X147874553Y-166206335D01*
X147937031Y-166351784D01*
X147999288Y-166522023D01*
X148062246Y-166719571D01*
X148126830Y-166946946D01*
X148193964Y-167206664D01*
X148261244Y-167486934D01*
X148288048Y-167593703D01*
X148322556Y-167719266D01*
X148360062Y-167847011D01*
X148391681Y-167947633D01*
X148475094Y-168181885D01*
X148559700Y-168378751D01*
X148645485Y-168538212D01*
X148732434Y-168660253D01*
X148820535Y-168744857D01*
X148909772Y-168792009D01*
X149000132Y-168801691D01*
X149091602Y-168773888D01*
X149094177Y-168772571D01*
X149175541Y-168712249D01*
X149257530Y-168615831D01*
X149339530Y-168484720D01*
X149420924Y-168320319D01*
X149501098Y-168124029D01*
X149579434Y-167897253D01*
X149655318Y-167641393D01*
X149728133Y-167357852D01*
X149743010Y-167294779D01*
X149799556Y-167059016D01*
X149852587Y-166854936D01*
X149903897Y-166677079D01*
X149955278Y-166519988D01*
X150008523Y-166378202D01*
X150065425Y-166246264D01*
X150127776Y-166118714D01*
X150131826Y-166110898D01*
X150213088Y-165976203D01*
X150300741Y-165870683D01*
X150392293Y-165796262D01*
X150485251Y-165754866D01*
X150577123Y-165748420D01*
X150596615Y-165751811D01*
X150687087Y-165790254D01*
X150777101Y-165865041D01*
X150866087Y-165974995D01*
X150953477Y-166118942D01*
X151038704Y-166295706D01*
X151121200Y-166504112D01*
X151200395Y-166742986D01*
X151275722Y-167011151D01*
X151344821Y-167299342D01*
X151411757Y-167577720D01*
X151483573Y-167832727D01*
X151559403Y-168062324D01*
X151638381Y-168264472D01*
X151719641Y-168437132D01*
X151802316Y-168578266D01*
X151885542Y-168685835D01*
X151962728Y-168753999D01*
X152049182Y-168792003D01*
X152142340Y-168797859D01*
X152227234Y-168772433D01*
X152300969Y-168716748D01*
X152378400Y-168624001D01*
X152459597Y-168494098D01*
X152520191Y-168377998D01*
X152592418Y-168219269D01*
X152658391Y-168049211D01*
X152720391Y-167860991D01*
X152780704Y-167647775D01*
X152830521Y-167449416D01*
X152880734Y-167241884D01*
X152924421Y-167065989D01*
X152963049Y-166916712D01*
X152998081Y-166789032D01*
X153030982Y-166677929D01*
X153063217Y-166578383D01*
X153096252Y-166485374D01*
X153131550Y-166393880D01*
X153156059Y-166333669D01*
X153241055Y-166149186D01*
X153329010Y-165998646D01*
X153419261Y-165882744D01*
X153511147Y-165802178D01*
X153604005Y-165757643D01*
X153697173Y-165749836D01*
X153709425Y-165751580D01*
X153804938Y-165784994D01*
X153897483Y-165852706D01*
X153987259Y-165955121D01*
X154074470Y-166092646D01*
X154159315Y-166265686D01*
X154241997Y-166474645D01*
X154322717Y-166719928D01*
X154401676Y-167001942D01*
X154470085Y-167281778D01*
X154546624Y-167591720D01*
X154625332Y-167867071D01*
X154706024Y-168107537D01*
X154788514Y-168312822D01*
X154872614Y-168482632D01*
X154958139Y-168616672D01*
X155044903Y-168714647D01*
X155132719Y-168776263D01*
X155221402Y-168801224D01*
X155310766Y-168789237D01*
X155394045Y-168744870D01*
X155478886Y-168664877D01*
X155563331Y-168548690D01*
X155646774Y-168397634D01*
X155728609Y-168213032D01*
X155808230Y-167996210D01*
X155885029Y-167748491D01*
X155935418Y-167562735D01*
X155959532Y-167470715D01*
X155980869Y-167392434D01*
X155997503Y-167334727D01*
X156007508Y-167304433D01*
X156008970Y-167301669D01*
X156021540Y-167300688D01*
X156023718Y-167330992D01*
X156016527Y-167388127D01*
X156000990Y-167467639D01*
X155978130Y-167565074D01*
X155948972Y-167675978D01*
X155914539Y-167795897D01*
X155875854Y-167920376D01*
X155846466Y-168008799D01*
X155769478Y-168215490D01*
X155689309Y-168395848D01*
X155607329Y-168547517D01*
X155524911Y-168668142D01*
X155443427Y-168755369D01*
X155388532Y-168794812D01*
X155290311Y-168833739D01*
X155194643Y-168837595D01*
X155101381Y-168806143D01*
X155010379Y-168739142D01*
X154921490Y-168636353D01*
X154834567Y-168497537D01*
X154749464Y-168322454D01*
X154666034Y-168110865D01*
X154584132Y-167862529D01*
X154503609Y-167577209D01*
X154424320Y-167254663D01*
X154411460Y-167198356D01*
X154355677Y-166972753D01*
X154292492Y-166754316D01*
X154223847Y-166548156D01*
X154151682Y-166359388D01*
X154077937Y-166193124D01*
X154004551Y-166054475D01*
X153940816Y-165958057D01*
X153861306Y-165873577D01*
X153774196Y-165816210D01*
X153685810Y-165789286D01*
X153623375Y-165790907D01*
X153540922Y-165824738D01*
X153457703Y-165894502D01*
X153374512Y-165998649D01*
X153292144Y-166135624D01*
X153211392Y-166303875D01*
X153133050Y-166501851D01*
X153057913Y-166727999D01*
X152986774Y-166980767D01*
X152959814Y-167088166D01*
X152915212Y-167271185D01*
X152877861Y-167422852D01*
X152846366Y-167548323D01*
X152819330Y-167652753D01*
X152795357Y-167741299D01*
X152773051Y-167819117D01*
X152751016Y-167891362D01*
X152727856Y-167963191D01*
X152702174Y-168039760D01*
X152702029Y-168040187D01*
X152618288Y-168264752D01*
X152532333Y-168452018D01*
X152444042Y-168602146D01*
X152353295Y-168715298D01*
X152259973Y-168791634D01*
X152163954Y-168831315D01*
X152106250Y-168837599D01*
X152016207Y-168823609D01*
X151931202Y-168780367D01*
X151849244Y-168705961D01*
X151768341Y-168598482D01*
X151686500Y-168456020D01*
X151666055Y-168415516D01*
X151624247Y-168328539D01*
X151586411Y-168244034D01*
X151551257Y-168157810D01*
X151517491Y-168065679D01*
X151483823Y-167963452D01*
X151448961Y-167846939D01*
X151411612Y-167711953D01*
X151370485Y-167554302D01*
X151324289Y-167369800D01*
X151271731Y-167154255D01*
X151252441Y-167074231D01*
X151197944Y-166867022D01*
X151136152Y-166665882D01*
X151069158Y-166475993D01*
X150999057Y-166302538D01*
X150927942Y-166150699D01*
X150857908Y-166025659D01*
X150791258Y-165932846D01*
X150729332Y-165872475D01*
X150659200Y-165822463D01*
X150591823Y-165789613D01*
X150545291Y-165780256D01*
X150508248Y-165788011D01*
X150454813Y-165807024D01*
X150432938Y-165816432D01*
X150355311Y-165869526D01*
X150276178Y-165957829D01*
X150196546Y-166079118D01*
X150117421Y-166231168D01*
X150039813Y-166411755D01*
X149964728Y-166618653D01*
X149893173Y-166849640D01*
X149826156Y-167102490D01*
X149799547Y-167214925D01*
X149724067Y-167527295D01*
X149648616Y-167803378D01*
X149572683Y-168044404D01*
X149495758Y-168251601D01*
X149417330Y-168426197D01*
X149336888Y-168569422D01*
X149253923Y-168682504D01*
X149167923Y-168766671D01*
X149148652Y-168781351D01*
X149056141Y-168826593D01*
X148955849Y-168836632D01*
X148853837Y-168811136D01*
X148828212Y-168798874D01*
X148749729Y-168739827D01*
X148669643Y-168646076D01*
X148589196Y-168520328D01*
X148509627Y-168365290D01*
X148432178Y-168183670D01*
X148358090Y-167978174D01*
X148288604Y-167751508D01*
X148224961Y-167506380D01*
X148213828Y-167458795D01*
X148140404Y-167152735D01*
X148068984Y-166882432D01*
X147998931Y-166646219D01*
X147929609Y-166442428D01*
X147860381Y-166269391D01*
X147790611Y-166125441D01*
X147719662Y-166008909D01*
X147646899Y-165918128D01*
X147613424Y-165885261D01*
X147530956Y-165821359D01*
X147458126Y-165789226D01*
X147389156Y-165786424D01*
X147382106Y-165787691D01*
X147343960Y-165790436D01*
X147336282Y-165776285D01*
X147336677Y-165774987D01*
X147362621Y-165747740D01*
X147410070Y-165742402D01*
X147471993Y-165756521D01*
G37*
D14*
X122480000Y-121560000D02*
X122480000Y-122510000D01*
X123400000Y-122510000D02*
X121560000Y-122510000D01*
X121560000Y-122510000D02*
X121560000Y-126350000D01*
X123400000Y-126350000D02*
X123400000Y-122510000D01*
X121560000Y-126350000D02*
X123400000Y-126350000D01*
X122480000Y-127300000D02*
X122480000Y-126350000D01*
X123650000Y-92260000D02*
X123650000Y-93210000D01*
X124570000Y-93210000D02*
X122730000Y-93210000D01*
X122730000Y-93210000D02*
X122730000Y-97050000D01*
X124570000Y-97050000D02*
X124570000Y-93210000D01*
X122730000Y-97050000D02*
X124570000Y-97050000D01*
X123650000Y-98000000D02*
X123650000Y-97050000D01*
X134555000Y-129435000D02*
X120345000Y-129435000D01*
X134555000Y-129435000D02*
X134555000Y-142165000D01*
X120345000Y-129435000D02*
X120345000Y-142165000D01*
X134555000Y-143615000D02*
X134555000Y-156345000D01*
X120345000Y-143615000D02*
X120345000Y-156345000D01*
X134555000Y-156345000D02*
X120345000Y-156345000D01*
X157515000Y-69885000D02*
X147745000Y-69885000D01*
X157515000Y-68700000D02*
X157515000Y-69885000D01*
X157515000Y-65620000D02*
X157515000Y-64435000D01*
X157515000Y-64435000D02*
X147745000Y-64435000D01*
X156085500Y-69885000D02*
X156085500Y-64435000D01*
X155965500Y-69885000D02*
X155965500Y-64435000D01*
X155845500Y-69885000D02*
X155845500Y-64435000D01*
X147745000Y-69885000D02*
X147745000Y-68700000D01*
X147745000Y-64435000D02*
X147745000Y-65620000D01*
X125145000Y-158475000D02*
X134915000Y-158475000D01*
X125145000Y-159660000D02*
X125145000Y-158475000D01*
X125145000Y-162740000D02*
X125145000Y-163925000D01*
X125145000Y-163925000D02*
X134915000Y-163925000D01*
X126574500Y-158475000D02*
X126574500Y-163925000D01*
X126694500Y-158475000D02*
X126694500Y-163925000D01*
X126814500Y-158475000D02*
X126814500Y-163925000D01*
X134915000Y-158475000D02*
X134915000Y-159660000D01*
X134915000Y-163925000D02*
X134915000Y-162740000D01*
X128145000Y-100310000D02*
X123504000Y-100310000D01*
X128145000Y-100310000D02*
X128145000Y-110550000D01*
X126635000Y-100310000D02*
X126635000Y-110550000D01*
X123504000Y-100310000D02*
X123504000Y-110550000D01*
X128145000Y-103580000D02*
X126635000Y-103580000D01*
X128145000Y-107281000D02*
X126635000Y-107281000D01*
X128145000Y-110550000D02*
X123504000Y-110550000D01*
X160680000Y-164500000D02*
X160680000Y-156880000D01*
X160680000Y-164500000D02*
X140360000Y-164500000D01*
X160680000Y-156880000D02*
X140360000Y-156880000D01*
X140360000Y-158150000D02*
X160680000Y-158150000D01*
X140360000Y-156880000D02*
X140360000Y-164500000D01*
X147125000Y-155955000D02*
X161335000Y-155955000D01*
X147125000Y-155955000D02*
X147125000Y-143225000D01*
X161335000Y-155955000D02*
X161335000Y-143225000D01*
X147125000Y-141775000D02*
X147125000Y-129045000D01*
X161335000Y-141775000D02*
X161335000Y-129045000D01*
X147125000Y-129045000D02*
X161335000Y-129045000D01*
G36*
X130066986Y-168716839D02*
G01*
X129531815Y-168716839D01*
X129531815Y-165629319D01*
X130066986Y-165629319D01*
X130066986Y-168716839D01*
G37*
G36*
X138382707Y-167399497D02*
G01*
X136283193Y-167399497D01*
X136283193Y-166905494D01*
X138382707Y-166905494D01*
X138382707Y-167399497D01*
G37*
G36*
X138588542Y-166123322D02*
G01*
X136283193Y-166123322D01*
X136283193Y-165629319D01*
X138588542Y-165629319D01*
X138588542Y-166123322D01*
G37*
G36*
X138588542Y-168716839D02*
G01*
X136283193Y-168716839D01*
X136283193Y-168222836D01*
X138588542Y-168222836D01*
X138588542Y-168716839D01*
G37*
G36*
X132084166Y-168716839D02*
G01*
X131548995Y-168716839D01*
X131548995Y-167440664D01*
X130602156Y-167440664D01*
X130602156Y-166905494D01*
X131548995Y-166905494D01*
X131548995Y-165629319D01*
X132084166Y-165629319D01*
X132084166Y-168716839D01*
G37*
G36*
X128965770Y-169138801D02*
G01*
X128998678Y-169192458D01*
X129015223Y-169324609D01*
X129017229Y-169416677D01*
X129008804Y-169586219D01*
X128983810Y-169678378D01*
X128965770Y-169694554D01*
X128937397Y-169680320D01*
X128920967Y-169607411D01*
X128914568Y-169465500D01*
X128914311Y-169416677D01*
X128918444Y-169255384D01*
X128932116Y-169165744D01*
X128957240Y-169137429D01*
X128965770Y-169138801D01*
G37*
G36*
X136213826Y-169145456D02*
G01*
X136233028Y-169206392D01*
X136241126Y-169326461D01*
X136242026Y-169416677D01*
X136238395Y-169573244D01*
X136225337Y-169662852D01*
X136199608Y-169700644D01*
X136180276Y-169704846D01*
X136146726Y-169687899D01*
X136127524Y-169626963D01*
X136119426Y-169506894D01*
X136118525Y-169416677D01*
X136122157Y-169260111D01*
X136135215Y-169170502D01*
X136160944Y-169132710D01*
X136180276Y-169128509D01*
X136213826Y-169145456D01*
G37*
G36*
X138519174Y-169145456D02*
G01*
X138538376Y-169206392D01*
X138546474Y-169326461D01*
X138547375Y-169416677D01*
X138543743Y-169573244D01*
X138530685Y-169662852D01*
X138504956Y-169700644D01*
X138485624Y-169704846D01*
X138452074Y-169687899D01*
X138432872Y-169626963D01*
X138424774Y-169506894D01*
X138423874Y-169416677D01*
X138427505Y-169260111D01*
X138440563Y-169170502D01*
X138466292Y-169132710D01*
X138485624Y-169128509D01*
X138519174Y-169145456D01*
G37*
G36*
X131894987Y-169148836D02*
G01*
X131914159Y-169220164D01*
X131919498Y-169354927D01*
X131923071Y-169485774D01*
X131938523Y-169553937D01*
X131972947Y-169578930D01*
X132001832Y-169581345D01*
X132068884Y-169607086D01*
X132084166Y-169643095D01*
X132052921Y-169688767D01*
X131953204Y-169704734D01*
X131940081Y-169704846D01*
X131795997Y-169704846D01*
X131795997Y-169416677D01*
X131799629Y-169260111D01*
X131812686Y-169170502D01*
X131838415Y-169132710D01*
X131857747Y-169128509D01*
X131894987Y-169148836D01*
G37*
G36*
X132432685Y-169136590D02*
G01*
X132488302Y-169164068D01*
X132495835Y-169190259D01*
X132462882Y-169244837D01*
X132434085Y-169252010D01*
X132396845Y-169272337D01*
X132377673Y-169343664D01*
X132372334Y-169478428D01*
X132366790Y-169614971D01*
X132347337Y-169685270D01*
X132310584Y-169704846D01*
X132273345Y-169684519D01*
X132254172Y-169613191D01*
X132248833Y-169478428D01*
X132243289Y-169341884D01*
X132223837Y-169271586D01*
X132187083Y-169252010D01*
X132132505Y-169219057D01*
X132125332Y-169190259D01*
X132149576Y-169149559D01*
X132232011Y-169131020D01*
X132310584Y-169128509D01*
X132432685Y-169136590D01*
G37*
G36*
X137621979Y-169136315D02*
G01*
X137723123Y-169158466D01*
X137765817Y-169193501D01*
X137742364Y-169228087D01*
X137684500Y-169244581D01*
X137616603Y-169279445D01*
X137604827Y-169332442D01*
X137649576Y-169371224D01*
X137682869Y-169375510D01*
X137749764Y-169392750D01*
X137765203Y-169416677D01*
X137730724Y-169450125D01*
X137682869Y-169457844D01*
X137615709Y-169482118D01*
X137605231Y-169533370D01*
X137651034Y-169579252D01*
X137684500Y-169588774D01*
X137763258Y-169615969D01*
X137769045Y-169652101D01*
X137708243Y-169684155D01*
X137631410Y-169697039D01*
X137477034Y-169709816D01*
X137477034Y-169123539D01*
X137621979Y-169136315D01*
G37*
G36*
X134051176Y-169138705D02*
G01*
X134098357Y-169172506D01*
X134101345Y-169190259D01*
X134065559Y-169239924D01*
X133998428Y-169252010D01*
X133915654Y-169273482D01*
X133895511Y-169313760D01*
X133931297Y-169363424D01*
X133998428Y-169375510D01*
X134075794Y-169389602D01*
X134101345Y-169416677D01*
X134066116Y-169447624D01*
X133998428Y-169457844D01*
X133915654Y-169479316D01*
X133895511Y-169519595D01*
X133931297Y-169569259D01*
X133998428Y-169581345D01*
X134081202Y-169602817D01*
X134101345Y-169643095D01*
X134074154Y-169686032D01*
X133984018Y-169703725D01*
X133936678Y-169704846D01*
X133772010Y-169704846D01*
X133772010Y-169128509D01*
X133936678Y-169128509D01*
X134051176Y-169138705D01*
G37*
G36*
X134709847Y-169138705D02*
G01*
X134757028Y-169172506D01*
X134760016Y-169190259D01*
X134724230Y-169239924D01*
X134657099Y-169252010D01*
X134574325Y-169273482D01*
X134554182Y-169313760D01*
X134588502Y-169364049D01*
X134636516Y-169375510D01*
X134703411Y-169392750D01*
X134718850Y-169416677D01*
X134684370Y-169450125D01*
X134636516Y-169457844D01*
X134569463Y-169483585D01*
X134554182Y-169519595D01*
X134589968Y-169569259D01*
X134657099Y-169581345D01*
X134739873Y-169602817D01*
X134760016Y-169643095D01*
X134732825Y-169686032D01*
X134642689Y-169703725D01*
X134595349Y-169704846D01*
X134430681Y-169704846D01*
X134430681Y-169128509D01*
X134595349Y-169128509D01*
X134709847Y-169138705D01*
G37*
G36*
X137303364Y-169138705D02*
G01*
X137350545Y-169172506D01*
X137353533Y-169190259D01*
X137317747Y-169239924D01*
X137250616Y-169252010D01*
X137167842Y-169273482D01*
X137147699Y-169313760D01*
X137182019Y-169364049D01*
X137230033Y-169375510D01*
X137296928Y-169392750D01*
X137312367Y-169416677D01*
X137277887Y-169450125D01*
X137230033Y-169457844D01*
X137162980Y-169483585D01*
X137147699Y-169519595D01*
X137183485Y-169569259D01*
X137250616Y-169581345D01*
X137333390Y-169602817D01*
X137353533Y-169643095D01*
X137326342Y-169686032D01*
X137236206Y-169703725D01*
X137188866Y-169704846D01*
X137024198Y-169704846D01*
X137024198Y-169128509D01*
X137188866Y-169128509D01*
X137303364Y-169138705D01*
G37*
G36*
X135442445Y-165631682D02*
G01*
X135543115Y-165637887D01*
X135583303Y-165646612D01*
X135583355Y-165646952D01*
X135568284Y-165691703D01*
X135526236Y-165800862D01*
X135461959Y-165962859D01*
X135380202Y-166166125D01*
X135285713Y-166399091D01*
X135183240Y-166650189D01*
X135077532Y-166907849D01*
X134973336Y-167160502D01*
X134875402Y-167396580D01*
X134788476Y-167604513D01*
X134717309Y-167772732D01*
X134666647Y-167889669D01*
X134641239Y-167943754D01*
X134639837Y-167945799D01*
X134613487Y-167924402D01*
X134567490Y-167840670D01*
X134509662Y-167709888D01*
X134477502Y-167628340D01*
X134344868Y-167279166D01*
X134683143Y-166454243D01*
X135021418Y-165629319D01*
X135302387Y-165629319D01*
X135442445Y-165631682D01*
G37*
G36*
X135317847Y-169146099D02*
G01*
X135342059Y-169223217D01*
X135355788Y-169358702D01*
X135356937Y-169419544D01*
X135346396Y-169592016D01*
X135314656Y-169684948D01*
X135261541Y-169698402D01*
X135186877Y-169632444D01*
X135104748Y-169511338D01*
X134986435Y-169313760D01*
X134973887Y-169509303D01*
X134955355Y-169634249D01*
X134923794Y-169699174D01*
X134885954Y-169695879D01*
X134859304Y-169648480D01*
X134849286Y-169577359D01*
X134847178Y-169456591D01*
X134850304Y-169370989D01*
X134871837Y-169215709D01*
X134913794Y-169140150D01*
X134975641Y-169144410D01*
X135056844Y-169228588D01*
X135117078Y-169321640D01*
X135233436Y-169519595D01*
X135246091Y-169321409D01*
X135263486Y-169189549D01*
X135289531Y-169132994D01*
X135317847Y-169146099D01*
G37*
G36*
X136841024Y-169146099D02*
G01*
X136865235Y-169223217D01*
X136878965Y-169358702D01*
X136880114Y-169419544D01*
X136870307Y-169589596D01*
X136840035Y-169680049D01*
X136788019Y-169691372D01*
X136712981Y-169624032D01*
X136633112Y-169510027D01*
X136509611Y-169313760D01*
X136497064Y-169509303D01*
X136478532Y-169634249D01*
X136446970Y-169699174D01*
X136409131Y-169695879D01*
X136382480Y-169648480D01*
X136372463Y-169577359D01*
X136370355Y-169456591D01*
X136373481Y-169370989D01*
X136395014Y-169215709D01*
X136436971Y-169140150D01*
X136498817Y-169144410D01*
X136580020Y-169228588D01*
X136640255Y-169321640D01*
X136756613Y-169519595D01*
X136769268Y-169321409D01*
X136786663Y-169189549D01*
X136812707Y-169132994D01*
X136841024Y-169146099D01*
G37*
G36*
X131035568Y-169133523D02*
G01*
X131050105Y-169158863D01*
X131040600Y-169219970D01*
X131005448Y-169332289D01*
X130965462Y-169447553D01*
X130898924Y-169608128D01*
X130839497Y-169692327D01*
X130810301Y-169704846D01*
X130755750Y-169664780D01*
X130692339Y-169547388D01*
X130653238Y-169447553D01*
X130598349Y-169291111D01*
X130570547Y-169196398D01*
X130568100Y-169148015D01*
X130589280Y-169130565D01*
X130617389Y-169128509D01*
X130661692Y-169165000D01*
X130707844Y-169258764D01*
X130725657Y-169313760D01*
X130762129Y-169422966D01*
X130795721Y-169489512D01*
X130807991Y-169499011D01*
X130835989Y-169463160D01*
X130872402Y-169372194D01*
X130890324Y-169313760D01*
X130932780Y-169201803D01*
X130979627Y-169136442D01*
X130998592Y-169128509D01*
X131035568Y-169133523D01*
G37*
G36*
X131141417Y-169368213D02*
G01*
X131267863Y-169368213D01*
X131269214Y-169497629D01*
X131321291Y-169564196D01*
X131414969Y-169573810D01*
X131491977Y-169554212D01*
X131523238Y-169501885D01*
X131528412Y-169416677D01*
X131521527Y-169319873D01*
X131486607Y-169280167D01*
X131404911Y-169272593D01*
X131312220Y-169286885D01*
X131272980Y-169341724D01*
X131267863Y-169368213D01*
X131141417Y-169368213D01*
X131156476Y-169287914D01*
X131228820Y-169192594D01*
X131367392Y-169135720D01*
X131500657Y-169147169D01*
X131608953Y-169217064D01*
X131672613Y-169335528D01*
X131681423Y-169419906D01*
X131643465Y-169564176D01*
X131551991Y-169660939D01*
X131426538Y-169700661D01*
X131286646Y-169673809D01*
X131228820Y-169640761D01*
X131156449Y-169545376D01*
X131132335Y-169416640D01*
X131141417Y-169368213D01*
G37*
G36*
X133399286Y-166092447D02*
G01*
X133450004Y-166227797D01*
X133518833Y-166413770D01*
X133601847Y-166639545D01*
X133695115Y-166894304D01*
X133794711Y-167167226D01*
X133896707Y-167447493D01*
X133997174Y-167724285D01*
X134092184Y-167986782D01*
X134177810Y-168224165D01*
X134250122Y-168425615D01*
X134305194Y-168580312D01*
X134339097Y-168677436D01*
X134348346Y-168706548D01*
X134310580Y-168711527D01*
X134210878Y-168715181D01*
X134069635Y-168716812D01*
X134047756Y-168716839D01*
X133747164Y-168716839D01*
X133279330Y-167430373D01*
X133162423Y-167109077D01*
X133050248Y-166801123D01*
X132947018Y-166518051D01*
X132856946Y-166271404D01*
X132784247Y-166072723D01*
X132733132Y-165933549D01*
X132715770Y-165886613D01*
X132620043Y-165629319D01*
X133223695Y-165629319D01*
X133399286Y-166092447D01*
G37*
G36*
X139138067Y-169147547D02*
G01*
X139156676Y-169214187D01*
X139164267Y-169342721D01*
X139164879Y-169416677D01*
X139156427Y-169591437D01*
X139129472Y-169686355D01*
X139081616Y-169702335D01*
X139010458Y-169640280D01*
X138918735Y-169509303D01*
X138795941Y-169313760D01*
X138795158Y-169509303D01*
X138787285Y-169635288D01*
X138761813Y-169694788D01*
X138732626Y-169704846D01*
X138699076Y-169687899D01*
X138679874Y-169626963D01*
X138671776Y-169506894D01*
X138670875Y-169416677D01*
X138673475Y-169264276D01*
X138684248Y-169176920D01*
X138707659Y-169137406D01*
X138745629Y-169128509D01*
X138814450Y-169164423D01*
X138894471Y-169260965D01*
X138920588Y-169303468D01*
X139020794Y-169478428D01*
X139033453Y-169303468D01*
X139054757Y-169178561D01*
X139096083Y-169129595D01*
X139105495Y-169128509D01*
X139138067Y-169147547D01*
G37*
G36*
X129889111Y-169164497D02*
G01*
X129902318Y-169254744D01*
X129910781Y-169342142D01*
X129951581Y-169370840D01*
X130015527Y-169367953D01*
X130102885Y-169339189D01*
X130138655Y-169262963D01*
X130141998Y-169239277D01*
X130166297Y-169159626D01*
X130203748Y-169139790D01*
X130232058Y-169187400D01*
X130248618Y-169289257D01*
X130253572Y-169418139D01*
X130247067Y-169546825D01*
X130229249Y-169648091D01*
X130200778Y-169694554D01*
X130161588Y-169673323D01*
X130149320Y-169584776D01*
X130139804Y-169495701D01*
X130094340Y-169462198D01*
X130025819Y-169457844D01*
X129938343Y-169468045D01*
X129906101Y-169516162D01*
X129902318Y-169581345D01*
X129883907Y-169679393D01*
X129840567Y-169704846D01*
X129807017Y-169687899D01*
X129787816Y-169626963D01*
X129779717Y-169506894D01*
X129778817Y-169416677D01*
X129782449Y-169260111D01*
X129795506Y-169170502D01*
X129821235Y-169132710D01*
X129840567Y-169128509D01*
X129889111Y-169164497D01*
G37*
G36*
X132635118Y-169371366D02*
G01*
X132744518Y-169371366D01*
X132756033Y-169432596D01*
X132800733Y-169457844D01*
X132841206Y-169427572D01*
X132837220Y-169375973D01*
X132805692Y-169319731D01*
X132779323Y-169316653D01*
X132744518Y-169371366D01*
X132635118Y-169371366D01*
X132697884Y-169223293D01*
X132761339Y-169142333D01*
X132823810Y-169141818D01*
X132889122Y-169222108D01*
X132961104Y-169383563D01*
X132973395Y-169416677D01*
X133027443Y-169564743D01*
X133056995Y-169651288D01*
X133064395Y-169692626D01*
X133051989Y-169705074D01*
X133022124Y-169704946D01*
X133014826Y-169704846D01*
X132951274Y-169671640D01*
X132933784Y-169643095D01*
X132876991Y-169596803D01*
X132785295Y-169581345D01*
X132686683Y-169599369D01*
X132660503Y-169643095D01*
X132627550Y-169697673D01*
X132598752Y-169704846D01*
X132543891Y-169688104D01*
X132536993Y-169673971D01*
X132549956Y-169622044D01*
X132583887Y-169516137D01*
X132629619Y-169384338D01*
X132635118Y-169371366D01*
G37*
G36*
X128407582Y-169165330D02*
G01*
X128420308Y-169252010D01*
X128431554Y-169340444D01*
X128478618Y-169372724D01*
X128520491Y-169375510D01*
X128598977Y-169355762D01*
X128631491Y-169281603D01*
X128633700Y-169265476D01*
X128660553Y-169177983D01*
X128698185Y-169138545D01*
X128726572Y-169152998D01*
X128743006Y-169226212D01*
X128749393Y-169368491D01*
X128749644Y-169416677D01*
X128745497Y-169578069D01*
X128731786Y-169667788D01*
X128706604Y-169696139D01*
X128698185Y-169694810D01*
X128655559Y-169645541D01*
X128633700Y-169567879D01*
X128605819Y-169484242D01*
X128535213Y-169458174D01*
X128520491Y-169457844D01*
X128448754Y-169471707D01*
X128422568Y-169529726D01*
X128420308Y-169581345D01*
X128401898Y-169679393D01*
X128358558Y-169704846D01*
X128325008Y-169687899D01*
X128305806Y-169626963D01*
X128297708Y-169506894D01*
X128296807Y-169416677D01*
X128300439Y-169260111D01*
X128313497Y-169170502D01*
X128339226Y-169132710D01*
X128358558Y-169128509D01*
X128407582Y-169165330D01*
G37*
G36*
X129549032Y-169153497D02*
G01*
X129605773Y-169202566D01*
X129614149Y-169231913D01*
X129587323Y-169265343D01*
X129498828Y-169268866D01*
X129451557Y-169263534D01*
X129345300Y-169254785D01*
X129292327Y-169274989D01*
X129265243Y-169336669D01*
X129261708Y-169350319D01*
X129259151Y-169462815D01*
X129285258Y-169520129D01*
X129363369Y-169570696D01*
X129452700Y-169576967D01*
X129511232Y-169540178D01*
X129501899Y-169504935D01*
X129472495Y-169499011D01*
X129416444Y-169465906D01*
X129408315Y-169434653D01*
X129431594Y-169390253D01*
X129512313Y-169380911D01*
X129542107Y-169383194D01*
X129632693Y-169400310D01*
X129669314Y-169445917D01*
X129675900Y-169538198D01*
X129671433Y-169625271D01*
X129643253Y-169668579D01*
X129569192Y-169686295D01*
X129487546Y-169692588D01*
X129355103Y-169691675D01*
X129267589Y-169660254D01*
X129209670Y-169609582D01*
X129133776Y-169482496D01*
X129126957Y-169355102D01*
X129177529Y-169243104D01*
X129273806Y-169162207D01*
X129404101Y-169128116D01*
X129549032Y-169153497D01*
G37*
G36*
X135888740Y-169153497D02*
G01*
X135945482Y-169202566D01*
X135953858Y-169231913D01*
X135927032Y-169265343D01*
X135838536Y-169268866D01*
X135791265Y-169263534D01*
X135685009Y-169254785D01*
X135632036Y-169274989D01*
X135604952Y-169336669D01*
X135601417Y-169350319D01*
X135598859Y-169462815D01*
X135624966Y-169520129D01*
X135703077Y-169570696D01*
X135792408Y-169576967D01*
X135850940Y-169540178D01*
X135841608Y-169504935D01*
X135812203Y-169499011D01*
X135756152Y-169465906D01*
X135748023Y-169434653D01*
X135771302Y-169390253D01*
X135852022Y-169380911D01*
X135881815Y-169383194D01*
X135972402Y-169400310D01*
X136009022Y-169445917D01*
X136015608Y-169538198D01*
X136011141Y-169625271D01*
X135982961Y-169668579D01*
X135908900Y-169686295D01*
X135827255Y-169692588D01*
X135694811Y-169691675D01*
X135607297Y-169660254D01*
X135549378Y-169609582D01*
X135473484Y-169482496D01*
X135466666Y-169355102D01*
X135517238Y-169243104D01*
X135613514Y-169162207D01*
X135743809Y-169128116D01*
X135888740Y-169153497D01*
G37*
G36*
X139642424Y-169150452D02*
G01*
X139746848Y-169201610D01*
X139771278Y-169246320D01*
X139718002Y-169275347D01*
X139610110Y-169280654D01*
X139499387Y-169278818D01*
X139448060Y-169298406D01*
X139433286Y-169356909D01*
X139432464Y-169416677D01*
X139442109Y-169517197D01*
X139481721Y-169562537D01*
X139529837Y-169574539D01*
X139623797Y-169568157D01*
X139671863Y-169543664D01*
X139688476Y-169507184D01*
X139646532Y-169499011D01*
X139586850Y-169469409D01*
X139576548Y-169437261D01*
X139613369Y-169388237D01*
X139700049Y-169375510D01*
X139780810Y-169382618D01*
X139815564Y-169420063D01*
X139823489Y-169512027D01*
X139823550Y-169531225D01*
X139819538Y-169628433D01*
X139792272Y-169674615D01*
X139718909Y-169690771D01*
X139645725Y-169694679D01*
X139493181Y-169682819D01*
X139377785Y-169639279D01*
X139375962Y-169638021D01*
X139315151Y-169576673D01*
X139294113Y-169489199D01*
X139296493Y-169403836D01*
X139338057Y-169253055D01*
X139428637Y-169159490D01*
X139555924Y-169132157D01*
X139642424Y-169150452D01*
G37*
G36*
X133504642Y-169150213D02*
G01*
X133584902Y-169203835D01*
X133607342Y-169256326D01*
X133571303Y-169269657D01*
X133481267Y-169267689D01*
X133444749Y-169263534D01*
X133338493Y-169254785D01*
X133285520Y-169274989D01*
X133258436Y-169336669D01*
X133254901Y-169350319D01*
X133252343Y-169462815D01*
X133278450Y-169520129D01*
X133356561Y-169570696D01*
X133445893Y-169576967D01*
X133504425Y-169540178D01*
X133495092Y-169504935D01*
X133465687Y-169499011D01*
X133409564Y-169467123D01*
X133401508Y-169437261D01*
X133438328Y-169388237D01*
X133525008Y-169375510D01*
X133605769Y-169382618D01*
X133640523Y-169420063D01*
X133648449Y-169512027D01*
X133648509Y-169531225D01*
X133644541Y-169628254D01*
X133617445Y-169674471D01*
X133544439Y-169690717D01*
X133469761Y-169694719D01*
X133319424Y-169683990D01*
X133214167Y-169630359D01*
X133202176Y-169619735D01*
X133128096Y-169503514D01*
X133118818Y-169373734D01*
X133165570Y-169252941D01*
X133259581Y-169163685D01*
X133392078Y-169128511D01*
X133393274Y-169128509D01*
X133504642Y-169150213D01*
G37*
G36*
X137900439Y-169322361D02*
G01*
X138019770Y-169322361D01*
X138040507Y-169348923D01*
X138101780Y-169364588D01*
X138158143Y-169321210D01*
X138167438Y-169300895D01*
X138147147Y-169262052D01*
X138097969Y-169252010D01*
X138023913Y-169271925D01*
X138019770Y-169322361D01*
X137900439Y-169322361D01*
X137906694Y-169242563D01*
X137926637Y-169175143D01*
X137969556Y-169146692D01*
X138037916Y-169136577D01*
X138165391Y-169150592D01*
X138233459Y-169190977D01*
X138293213Y-169273134D01*
X138280289Y-169342573D01*
X138242379Y-169384179D01*
X138210266Y-169430083D01*
X138221483Y-169490207D01*
X138266320Y-169571053D01*
X138316523Y-169657839D01*
X138323203Y-169695578D01*
X138287351Y-169704489D01*
X138272855Y-169704586D01*
X138203630Y-169671696D01*
X138129262Y-169590891D01*
X138116172Y-169570793D01*
X138034887Y-169437261D01*
X138020938Y-169571053D01*
X137996219Y-169668965D01*
X137956728Y-169704480D01*
X137914948Y-169669214D01*
X137905657Y-169648480D01*
X137895645Y-169577384D01*
X137893527Y-169456595D01*
X137896657Y-169370603D01*
X137900439Y-169322361D01*
G37*
G36*
X128009787Y-166101017D02*
G01*
X126980556Y-167644047D01*
X128009280Y-167667083D01*
X126465199Y-169210637D01*
X126171680Y-169503673D01*
X125896421Y-169777736D01*
X125644763Y-170027562D01*
X125422046Y-170247884D01*
X125233610Y-170433437D01*
X125084796Y-170578954D01*
X124980943Y-170679170D01*
X124927392Y-170728818D01*
X124921119Y-170733196D01*
X124933716Y-170690807D01*
X124969645Y-170578833D01*
X125026109Y-170405769D01*
X125100314Y-170180109D01*
X125189464Y-169910346D01*
X125290765Y-169604975D01*
X125401419Y-169272490D01*
X125432478Y-169179350D01*
X125943837Y-167646499D01*
X125429704Y-167646499D01*
X125216305Y-167645612D01*
X125072654Y-167641723D01*
X124986176Y-167632984D01*
X124944293Y-167617553D01*
X124934429Y-167593584D01*
X124938608Y-167574457D01*
X124956512Y-167520111D01*
X124997446Y-167396783D01*
X125058376Y-167213588D01*
X125136264Y-166979644D01*
X125228077Y-166704067D01*
X125330779Y-166395973D01*
X125441334Y-166064479D01*
X125449170Y-166040989D01*
X125936695Y-164579562D01*
X127487857Y-164568775D01*
X129039018Y-164557988D01*
X128009787Y-166101017D01*
G37*
X140430000Y-151200000D02*
X140430000Y-151100000D01*
X137310000Y-151100000D02*
X143550000Y-151100000D01*
X143550000Y-151100000D02*
X143550000Y-133860000D01*
X137310000Y-133860000D02*
X137310000Y-151100000D01*
X143550000Y-133860000D02*
X137310000Y-133860000D01*
X140430000Y-133760000D02*
X140430000Y-133860000D01*
D15*
X160210000Y-127720000D02*
X125310000Y-127720000D01*
X160210000Y-115020000D02*
X160210000Y-127720000D01*
X125310000Y-127720000D02*
X125310000Y-115020000D01*
X125310000Y-115020000D02*
X160210000Y-115020000D01*
D14*
X137710000Y-79195000D02*
X137710000Y-83836000D01*
X137710000Y-79195000D02*
X147950000Y-79195000D01*
X137710000Y-80705000D02*
X147950000Y-80705000D01*
X137710000Y-83836000D02*
X147950000Y-83836000D01*
X140980000Y-79195000D02*
X140980000Y-80705000D01*
X144681000Y-79195000D02*
X144681000Y-80705000D01*
X147950000Y-79195000D02*
X147950000Y-83836000D01*
X147860000Y-120255000D02*
X147860000Y-115614000D01*
X147860000Y-120255000D02*
X137620000Y-120255000D01*
X147860000Y-118745000D02*
X137620000Y-118745000D01*
X147860000Y-115614000D02*
X137620000Y-115614000D01*
X144590000Y-120255000D02*
X144590000Y-118745000D01*
X140889000Y-120255000D02*
X140889000Y-118745000D01*
X137620000Y-120255000D02*
X137620000Y-115614000D01*
%LPC*%
D16*
X122450000Y-66990000D03*
D17*
X142770000Y-66990000D03*
D18*
X122010000Y-110820000D03*
D19*
X122010000Y-118440000D03*
D20*
X130080000Y-77940000D03*
X155480000Y-77940000D03*
D21*
X123110000Y-78870000D03*
D22*
X123110000Y-71250000D03*
D18*
X123000000Y-88640000D03*
D19*
X123000000Y-81020000D03*
D16*
X134620000Y-88120000D03*
X134620000Y-110620000D03*
X147010000Y-88340000D03*
X147010000Y-110840000D03*
D21*
X122480000Y-120620000D03*
D22*
X122480000Y-128240000D03*
D21*
X123650000Y-91320000D03*
D22*
X123650000Y-98940000D03*
D23*
X132530000Y-142890000D03*
X122370000Y-142890000D03*
D24*
X158980000Y-67160000D03*
D25*
X146280000Y-67160000D03*
D24*
X123680000Y-161200000D03*
D25*
X136380000Y-161200000D03*
D26*
X124875000Y-102890000D03*
D27*
X124875000Y-105430000D03*
X124875000Y-107970000D03*
D28*
X158140000Y-160690000D03*
D29*
X153060000Y-160690000D03*
X147980000Y-160690000D03*
X142900000Y-160690000D03*
D23*
X149150000Y-142500000D03*
X159310000Y-142500000D03*
D30*
X157240000Y-92210000D03*
X157240000Y-106210000D03*
D16*
X140430000Y-152640000D03*
D17*
X140430000Y-132320000D03*
D20*
X155460000Y-121370000D03*
X130060000Y-121370000D03*
D31*
X140290000Y-82465000D03*
D32*
X142830000Y-82465000D03*
X145370000Y-82465000D03*
D31*
X145280000Y-116985000D03*
D32*
X142740000Y-116985000D03*
X140200000Y-116985000D03*
M02*
