G04 #@! TF.GenerationSoftware,KiCad,Pcbnew,7.0.1*
G04 #@! TF.CreationDate,2023-06-08T18:27:25+10:00*
G04 #@! TF.ProjectId,ZVS,5a56532e-6b69-4636-9164-5f7063625858,rev?*
G04 #@! TF.SameCoordinates,Original*
G04 #@! TF.FileFunction,Legend,Bot*
G04 #@! TF.FilePolarity,Positive*
%FSLAX46Y46*%
G04 Gerber Fmt 4.6, Leading zero omitted, Abs format (unit mm)*
G04 Created by KiCad (PCBNEW 7.0.1) date 2023-06-08 18:27:25*
%MOMM*%
%LPD*%
G01*
G04 APERTURE LIST*
%ADD10C,2.000000*%
%ADD11C,4.000000*%
%ADD12C,5.000000*%
%ADD13C,2.400000*%
%ADD14O,2.400000X2.400000*%
%ADD15R,1.600000X1.600000*%
%ADD16O,1.600000X1.600000*%
%ADD17C,3.840000*%
%ADD18C,1.400000*%
%ADD19O,1.400000X1.400000*%
%ADD20C,3.600000*%
%ADD21R,2.600000X2.600000*%
%ADD22O,2.600000X2.600000*%
%ADD23R,2.000000X1.905000*%
%ADD24O,2.000000X1.905000*%
%ADD25R,3.000000X3.000000*%
%ADD26C,3.000000*%
%ADD27C,5.000000*%
%ADD28R,1.905000X2.000000*%
%ADD29O,1.905000X2.000000*%
G04 APERTURE END LIST*
%LPC*%
D10*
X125270000Y-105440000D02*
X127040000Y-105440000D01*
D11*
X128050000Y-110460000D02*
X128050000Y-105410000D01*
D12*
X152585000Y-110855000D02*
X157240000Y-106290000D01*
D11*
X139530000Y-116990000D02*
X135060000Y-116990000D01*
D10*
X126850000Y-106850000D02*
X126090000Y-106030000D01*
X126390000Y-105040000D02*
X127090000Y-104490000D01*
D12*
X129340000Y-85080000D02*
X129330000Y-103490000D01*
X134615000Y-110590000D02*
X146740000Y-110620000D01*
X146590000Y-82470000D02*
X146570000Y-79830000D01*
D10*
X142830000Y-84150000D02*
X145090000Y-86410000D01*
D11*
X134390000Y-116940000D02*
X128030000Y-110630000D01*
D10*
X142820000Y-82480000D02*
X142820000Y-84060000D01*
D12*
X144045000Y-77100000D02*
X137655000Y-77100000D01*
X147295000Y-110820000D02*
X152645000Y-110820000D01*
X147080000Y-110710000D02*
X147000000Y-110810000D01*
X137430000Y-77100000D02*
X129550000Y-85090000D01*
X151215000Y-92210000D02*
X157210000Y-92190000D01*
X146460000Y-79560000D02*
X143920000Y-77050000D01*
X134860000Y-88290000D02*
X147000000Y-88330000D01*
D10*
X142770000Y-117020000D02*
X142770000Y-115050000D01*
D12*
X147040000Y-88350000D02*
X150830000Y-92160000D01*
D10*
X142770000Y-115050000D02*
X145290000Y-112540000D01*
D13*
X122450000Y-66990000D03*
D14*
X142770000Y-66990000D03*
D15*
X122010000Y-110820000D03*
D16*
X122010000Y-118440000D03*
D17*
X130080000Y-77940000D03*
X155480000Y-77940000D03*
D18*
X123110000Y-78870000D03*
D19*
X123110000Y-71250000D03*
D15*
X123000000Y-88640000D03*
D16*
X123000000Y-81020000D03*
D13*
X134620000Y-88120000D03*
X134620000Y-110620000D03*
X147010000Y-88340000D03*
X147010000Y-110840000D03*
D18*
X122480000Y-120620000D03*
D19*
X122480000Y-128240000D03*
D18*
X123650000Y-91320000D03*
D19*
X123650000Y-98940000D03*
D20*
X132530000Y-142890000D03*
X122370000Y-142890000D03*
D21*
X158980000Y-67160000D03*
D22*
X146280000Y-67160000D03*
D21*
X123680000Y-161200000D03*
D22*
X136380000Y-161200000D03*
D23*
X124875000Y-102890000D03*
D24*
X124875000Y-105430000D03*
X124875000Y-107970000D03*
D25*
X158140000Y-160690000D03*
D26*
X153060000Y-160690000D03*
X147980000Y-160690000D03*
X142900000Y-160690000D03*
D20*
X149150000Y-142500000D03*
X159310000Y-142500000D03*
D27*
X157240000Y-92210000D03*
X157240000Y-106210000D03*
D13*
X140430000Y-152640000D03*
D14*
X140430000Y-132320000D03*
D17*
X155460000Y-121370000D03*
X130060000Y-121370000D03*
D28*
X140290000Y-82465000D03*
D29*
X142830000Y-82465000D03*
X145370000Y-82465000D03*
D28*
X145280000Y-116985000D03*
D29*
X142740000Y-116985000D03*
X140200000Y-116985000D03*
M02*
