G04 #@! TF.GenerationSoftware,KiCad,Pcbnew,7.0.1*
G04 #@! TF.CreationDate,2023-06-08T18:27:25+10:00*
G04 #@! TF.ProjectId,ZVS,5a56532e-6b69-4636-9164-5f7063625858,rev?*
G04 #@! TF.SameCoordinates,Original*
G04 #@! TF.FileFunction,Copper,L2,Bot*
G04 #@! TF.FilePolarity,Positive*
%FSLAX46Y46*%
G04 Gerber Fmt 4.6, Leading zero omitted, Abs format (unit mm)*
G04 Created by KiCad (PCBNEW 7.0.1) date 2023-06-08 18:27:25*
%MOMM*%
%LPD*%
G01*
G04 APERTURE LIST*
G04 #@! TA.AperFunction,ComponentPad*
%ADD10C,2.400000*%
G04 #@! TD*
G04 #@! TA.AperFunction,ComponentPad*
%ADD11O,2.400000X2.400000*%
G04 #@! TD*
G04 #@! TA.AperFunction,ComponentPad*
%ADD12R,1.600000X1.600000*%
G04 #@! TD*
G04 #@! TA.AperFunction,ComponentPad*
%ADD13O,1.600000X1.600000*%
G04 #@! TD*
G04 #@! TA.AperFunction,ComponentPad*
%ADD14C,3.840000*%
G04 #@! TD*
G04 #@! TA.AperFunction,ComponentPad*
%ADD15C,1.400000*%
G04 #@! TD*
G04 #@! TA.AperFunction,ComponentPad*
%ADD16O,1.400000X1.400000*%
G04 #@! TD*
G04 #@! TA.AperFunction,ComponentPad*
%ADD17C,3.600000*%
G04 #@! TD*
G04 #@! TA.AperFunction,ComponentPad*
%ADD18R,2.600000X2.600000*%
G04 #@! TD*
G04 #@! TA.AperFunction,ComponentPad*
%ADD19O,2.600000X2.600000*%
G04 #@! TD*
G04 #@! TA.AperFunction,ComponentPad*
%ADD20R,2.000000X1.905000*%
G04 #@! TD*
G04 #@! TA.AperFunction,ComponentPad*
%ADD21O,2.000000X1.905000*%
G04 #@! TD*
G04 #@! TA.AperFunction,ComponentPad*
%ADD22R,3.000000X3.000000*%
G04 #@! TD*
G04 #@! TA.AperFunction,ComponentPad*
%ADD23C,3.000000*%
G04 #@! TD*
G04 #@! TA.AperFunction,ComponentPad*
%ADD24C,5.000000*%
G04 #@! TD*
G04 #@! TA.AperFunction,ComponentPad*
%ADD25R,1.905000X2.000000*%
G04 #@! TD*
G04 #@! TA.AperFunction,ComponentPad*
%ADD26O,1.905000X2.000000*%
G04 #@! TD*
G04 #@! TA.AperFunction,ViaPad*
%ADD27C,0.800000*%
G04 #@! TD*
G04 #@! TA.AperFunction,Conductor*
%ADD28C,5.000000*%
G04 #@! TD*
G04 #@! TA.AperFunction,Conductor*
%ADD29C,2.000000*%
G04 #@! TD*
G04 #@! TA.AperFunction,Conductor*
%ADD30C,4.000000*%
G04 #@! TD*
G04 #@! TA.AperFunction,Conductor*
%ADD31C,3.000000*%
G04 #@! TD*
G04 #@! TA.AperFunction,Conductor*
%ADD32C,0.500000*%
G04 #@! TD*
G04 APERTURE END LIST*
D10*
X122450000Y-66990000D03*
D11*
X142770000Y-66990000D03*
D12*
X122010000Y-110820000D03*
D13*
X122010000Y-118440000D03*
D14*
X130080000Y-77940000D03*
X155480000Y-77940000D03*
D15*
X123110000Y-78870000D03*
D16*
X123110000Y-71250000D03*
D12*
X123000000Y-88640000D03*
D13*
X123000000Y-81020000D03*
D10*
X134620000Y-88120000D03*
X134620000Y-110620000D03*
X147010000Y-88340000D03*
X147010000Y-110840000D03*
D15*
X122480000Y-120620000D03*
D16*
X122480000Y-128240000D03*
D15*
X123650000Y-91320000D03*
D16*
X123650000Y-98940000D03*
D17*
X132530000Y-142890000D03*
X122370000Y-142890000D03*
D18*
X158980000Y-67160000D03*
D19*
X146280000Y-67160000D03*
D18*
X123680000Y-161200000D03*
D19*
X136380000Y-161200000D03*
D20*
X124875000Y-102890000D03*
D21*
X124875000Y-105430000D03*
X124875000Y-107970000D03*
D22*
X158140000Y-160690000D03*
D23*
X153060000Y-160690000D03*
X147980000Y-160690000D03*
X142900000Y-160690000D03*
D17*
X149150000Y-142500000D03*
X159310000Y-142500000D03*
D24*
X157240000Y-92210000D03*
X157240000Y-106210000D03*
D10*
X140430000Y-152640000D03*
D11*
X140430000Y-132320000D03*
D14*
X155460000Y-121370000D03*
X130060000Y-121370000D03*
D25*
X140290000Y-82465000D03*
D26*
X142830000Y-82465000D03*
X145370000Y-82465000D03*
D25*
X145280000Y-116985000D03*
D26*
X142740000Y-116985000D03*
X140200000Y-116985000D03*
D27*
X120560481Y-137899191D03*
D28*
X157240000Y-92210000D02*
X150880000Y-92210000D01*
D29*
X142830000Y-84160000D02*
X147010000Y-88340000D01*
D28*
X150880000Y-92210000D02*
X147010000Y-88340000D01*
X147010000Y-88340000D02*
X134840000Y-88340000D01*
D29*
X142830000Y-82465000D02*
X142830000Y-84160000D01*
X142740000Y-115110000D02*
X147010000Y-110840000D01*
D28*
X134620000Y-110620000D02*
X146790000Y-110620000D01*
X146790000Y-110620000D02*
X147010000Y-110840000D01*
D29*
X142740000Y-116985000D02*
X142740000Y-115110000D01*
D28*
X152610000Y-110840000D02*
X157240000Y-106210000D01*
X147010000Y-110840000D02*
X152610000Y-110840000D01*
D30*
X127120000Y-105690000D02*
X128074520Y-106644520D01*
X128074520Y-106644520D02*
X128074520Y-110720644D01*
D29*
X126860000Y-105430000D02*
X127120000Y-105690000D01*
D30*
X128074520Y-110720644D02*
X134338876Y-116985000D01*
D31*
X127120000Y-105690000D02*
X129330000Y-103480000D01*
D30*
X134338876Y-116985000D02*
X139540480Y-116985000D01*
D28*
X137432976Y-77120000D02*
X143950000Y-77120000D01*
X129330000Y-103480000D02*
X129330000Y-85222976D01*
X129330000Y-85222976D02*
X137432976Y-77120000D01*
X143950000Y-77120000D02*
X146529520Y-79699520D01*
D29*
X124875000Y-105430000D02*
X126860000Y-105430000D01*
D28*
X146529520Y-79699520D02*
X146529520Y-82465000D01*
D29*
X123650000Y-98940000D02*
X123650000Y-101665000D01*
D32*
X129310000Y-146648710D02*
X120560481Y-137899191D01*
X129310000Y-147100000D02*
X129110000Y-146900000D01*
X142900000Y-160690000D02*
X129310000Y-147100000D01*
D29*
X123650000Y-101665000D02*
X124875000Y-102890000D01*
D32*
X129310000Y-147100000D02*
X129310000Y-146648710D01*
D29*
X134180000Y-132320000D02*
X140430000Y-132320000D01*
X140430000Y-132320000D02*
X145280000Y-127470000D01*
X145280000Y-127470000D02*
X145280000Y-116985000D01*
X122480000Y-120620000D02*
X134180000Y-132320000D01*
G04 #@! TA.AperFunction,Conductor*
G36*
X161817000Y-63496881D02*
G01*
X161863119Y-63543000D01*
X161880000Y-63606000D01*
X161880000Y-165004000D01*
X161863119Y-165067000D01*
X161817000Y-165113119D01*
X161754000Y-165130000D01*
X120096000Y-165130000D01*
X120033000Y-165113119D01*
X119986881Y-165067000D01*
X119970000Y-165004000D01*
X119970000Y-162547874D01*
X121879500Y-162547874D01*
X121885908Y-162607481D01*
X121936204Y-162742331D01*
X122022453Y-162857546D01*
X122053434Y-162880738D01*
X122137669Y-162943796D01*
X122272517Y-162994091D01*
X122332127Y-163000500D01*
X125027872Y-163000499D01*
X125027874Y-163000499D01*
X125057677Y-162997294D01*
X125087483Y-162994091D01*
X125222331Y-162943796D01*
X125337546Y-162857546D01*
X125423796Y-162742331D01*
X125474091Y-162607483D01*
X125480500Y-162547873D01*
X125480499Y-161200000D01*
X134574451Y-161200000D01*
X134594617Y-161469105D01*
X134654665Y-161732193D01*
X134656067Y-161735765D01*
X134753257Y-161983398D01*
X134888185Y-162217102D01*
X135056439Y-162428085D01*
X135109196Y-162477036D01*
X135254258Y-162611635D01*
X135369931Y-162690499D01*
X135477226Y-162763651D01*
X135603271Y-162824351D01*
X135720358Y-162880738D01*
X135777868Y-162898477D01*
X135978228Y-162960280D01*
X136245071Y-163000500D01*
X136514927Y-163000500D01*
X136514929Y-163000500D01*
X136781772Y-162960280D01*
X137039641Y-162880738D01*
X137282775Y-162763651D01*
X137505741Y-162611635D01*
X137703561Y-162428085D01*
X137871815Y-162217102D01*
X138006743Y-161983398D01*
X138105334Y-161732195D01*
X138165383Y-161469103D01*
X138185549Y-161200000D01*
X138165383Y-160930897D01*
X138105334Y-160667805D01*
X138006743Y-160416602D01*
X137871815Y-160182898D01*
X137703561Y-159971915D01*
X137505741Y-159788365D01*
X137282775Y-159636349D01*
X137282774Y-159636348D01*
X137039641Y-159519261D01*
X136835212Y-159456204D01*
X136781772Y-159439720D01*
X136514929Y-159399500D01*
X136245071Y-159399500D01*
X135978228Y-159439720D01*
X135978224Y-159439721D01*
X135978225Y-159439721D01*
X135720358Y-159519261D01*
X135477225Y-159636349D01*
X135254258Y-159788364D01*
X135056442Y-159971912D01*
X135056439Y-159971915D01*
X134934394Y-160124954D01*
X134888183Y-160182901D01*
X134753258Y-160416599D01*
X134654665Y-160667806D01*
X134594617Y-160930894D01*
X134574451Y-161200000D01*
X125480499Y-161200000D01*
X125480499Y-159852128D01*
X125480343Y-159850681D01*
X125474091Y-159792518D01*
X125472542Y-159788364D01*
X125423796Y-159657669D01*
X125384879Y-159605682D01*
X125337546Y-159542453D01*
X125222331Y-159456204D01*
X125087483Y-159405909D01*
X125027872Y-159399500D01*
X122332125Y-159399500D01*
X122272518Y-159405908D01*
X122137668Y-159456204D01*
X122022453Y-159542453D01*
X121936204Y-159657668D01*
X121885909Y-159792517D01*
X121879500Y-159852127D01*
X121879500Y-162547874D01*
X119970000Y-162547874D01*
X119970000Y-143739868D01*
X119989438Y-143672633D01*
X120041756Y-143626142D01*
X120110810Y-143614741D01*
X120175294Y-143641948D01*
X120215313Y-143699367D01*
X120240052Y-143772247D01*
X120373435Y-144042720D01*
X120540972Y-144293458D01*
X120739810Y-144520189D01*
X120966541Y-144719027D01*
X121095862Y-144805436D01*
X121217282Y-144886566D01*
X121474218Y-145013272D01*
X121487752Y-145019947D01*
X121678121Y-145084568D01*
X121773309Y-145116880D01*
X122069080Y-145175713D01*
X122370000Y-145195436D01*
X122670920Y-145175713D01*
X122966691Y-145116880D01*
X123162505Y-145050409D01*
X123252247Y-145019947D01*
X123252248Y-145019946D01*
X123252252Y-145019945D01*
X123522718Y-144886566D01*
X123773461Y-144719025D01*
X124000189Y-144520189D01*
X124199025Y-144293461D01*
X124366566Y-144042718D01*
X124499945Y-143772252D01*
X124596880Y-143486691D01*
X124632144Y-143309406D01*
X124662362Y-143249374D01*
X124719146Y-143213416D01*
X124786337Y-143211766D01*
X124844817Y-143244895D01*
X128325709Y-146725786D01*
X128356218Y-146775247D01*
X128361284Y-146833139D01*
X128354711Y-146878019D01*
X128370001Y-147052800D01*
X128425184Y-147219331D01*
X128425186Y-147219334D01*
X128517288Y-147368656D01*
X128517290Y-147368658D01*
X128715995Y-147567363D01*
X128730139Y-147584725D01*
X128785708Y-147637151D01*
X128788337Y-147639705D01*
X140999314Y-159850681D01*
X141033339Y-159912992D01*
X141028275Y-159983808D01*
X140975631Y-160124951D01*
X140914803Y-160404575D01*
X140894389Y-160690000D01*
X140914803Y-160975424D01*
X140914804Y-160975428D01*
X140975631Y-161255046D01*
X141075633Y-161523161D01*
X141075634Y-161523162D01*
X141212775Y-161774317D01*
X141384262Y-162003397D01*
X141586602Y-162205737D01*
X141709160Y-162297483D01*
X141815685Y-162377226D01*
X142066839Y-162514367D01*
X142334954Y-162614369D01*
X142614572Y-162675196D01*
X142900000Y-162695610D01*
X143185428Y-162675196D01*
X143465046Y-162614369D01*
X143733161Y-162514367D01*
X143984315Y-162377226D01*
X144213395Y-162205739D01*
X144415739Y-162003395D01*
X144587226Y-161774315D01*
X144724367Y-161523161D01*
X144824369Y-161255046D01*
X144885196Y-160975428D01*
X144905610Y-160690000D01*
X145974389Y-160690000D01*
X145994803Y-160975424D01*
X145994804Y-160975428D01*
X146055631Y-161255046D01*
X146155633Y-161523161D01*
X146155634Y-161523162D01*
X146292775Y-161774317D01*
X146464262Y-162003397D01*
X146666602Y-162205737D01*
X146789160Y-162297483D01*
X146895685Y-162377226D01*
X147146839Y-162514367D01*
X147414954Y-162614369D01*
X147694572Y-162675196D01*
X147980000Y-162695610D01*
X148265428Y-162675196D01*
X148545046Y-162614369D01*
X148813161Y-162514367D01*
X149064315Y-162377226D01*
X149196206Y-162278494D01*
X151830715Y-162278494D01*
X151899321Y-162334310D01*
X152134026Y-162477036D01*
X152385989Y-162586480D01*
X152650513Y-162660596D01*
X152922645Y-162698000D01*
X153197355Y-162698000D01*
X153469486Y-162660596D01*
X153734010Y-162586480D01*
X153985970Y-162477038D01*
X154220681Y-162334307D01*
X154289283Y-162278493D01*
X154289283Y-162278492D01*
X154248665Y-162237874D01*
X156139500Y-162237874D01*
X156145908Y-162297481D01*
X156196204Y-162432331D01*
X156282453Y-162547546D01*
X156334463Y-162586480D01*
X156397669Y-162633796D01*
X156532517Y-162684091D01*
X156592127Y-162690500D01*
X159687872Y-162690499D01*
X159687874Y-162690499D01*
X159717677Y-162687294D01*
X159747483Y-162684091D01*
X159882331Y-162633796D01*
X159997546Y-162547546D01*
X160083796Y-162432331D01*
X160134091Y-162297483D01*
X160140500Y-162237873D01*
X160140499Y-159142128D01*
X160134091Y-159082517D01*
X160083796Y-158947669D01*
X160008115Y-158846572D01*
X159997546Y-158832453D01*
X159882331Y-158746204D01*
X159747483Y-158695909D01*
X159687872Y-158689500D01*
X156592125Y-158689500D01*
X156532518Y-158695908D01*
X156397668Y-158746204D01*
X156282453Y-158832453D01*
X156196204Y-158947668D01*
X156145909Y-159082517D01*
X156139500Y-159142127D01*
X156139500Y-162237874D01*
X154248665Y-162237874D01*
X153060001Y-161049210D01*
X153059999Y-161049210D01*
X151830715Y-162278492D01*
X151830715Y-162278494D01*
X149196206Y-162278494D01*
X149293395Y-162205739D01*
X149495739Y-162003395D01*
X149667226Y-161774315D01*
X149804367Y-161523161D01*
X149904369Y-161255046D01*
X149965196Y-160975428D01*
X149985610Y-160690000D01*
X151047308Y-160690000D01*
X151066053Y-160964056D01*
X151121945Y-161233020D01*
X151213936Y-161491860D01*
X151340318Y-161735765D01*
X151470540Y-161920248D01*
X151470541Y-161920248D01*
X152700790Y-160690001D01*
X153419210Y-160690001D01*
X154649457Y-161920247D01*
X154779683Y-161735761D01*
X154906063Y-161491860D01*
X154998054Y-161233020D01*
X155053946Y-160964056D01*
X155072691Y-160690000D01*
X155053946Y-160415943D01*
X154998054Y-160146979D01*
X154906063Y-159888139D01*
X154779683Y-159644238D01*
X154649457Y-159459750D01*
X153419210Y-160689999D01*
X153419210Y-160690001D01*
X152700790Y-160690001D01*
X152700790Y-160689999D01*
X151470541Y-159459750D01*
X151340316Y-159644240D01*
X151213936Y-159888139D01*
X151121945Y-160146979D01*
X151066053Y-160415943D01*
X151047308Y-160690000D01*
X149985610Y-160690000D01*
X149965196Y-160404572D01*
X149904369Y-160124954D01*
X149804367Y-159856839D01*
X149667226Y-159605685D01*
X149542986Y-159439720D01*
X149495737Y-159376602D01*
X149293397Y-159174262D01*
X149196205Y-159101505D01*
X151830714Y-159101505D01*
X153059999Y-160330790D01*
X153060000Y-160330790D01*
X154289283Y-159101504D01*
X154220678Y-159045689D01*
X153985973Y-158902963D01*
X153734010Y-158793519D01*
X153469486Y-158719403D01*
X153197355Y-158682000D01*
X152922645Y-158682000D01*
X152650513Y-158719403D01*
X152385989Y-158793519D01*
X152134026Y-158902963D01*
X151899322Y-159045689D01*
X151830715Y-159101505D01*
X151830714Y-159101505D01*
X149196205Y-159101505D01*
X149064317Y-159002775D01*
X148963396Y-158947668D01*
X148813161Y-158865633D01*
X148545046Y-158765631D01*
X148332539Y-158719403D01*
X148265424Y-158704803D01*
X147980000Y-158684389D01*
X147694575Y-158704803D01*
X147414953Y-158765631D01*
X147414954Y-158765631D01*
X147146839Y-158865633D01*
X147146837Y-158865633D01*
X147146837Y-158865634D01*
X146895682Y-159002775D01*
X146666602Y-159174262D01*
X146464262Y-159376602D01*
X146292775Y-159605682D01*
X146155634Y-159856837D01*
X146055631Y-160124954D01*
X145994803Y-160404575D01*
X145974389Y-160690000D01*
X144905610Y-160690000D01*
X144885196Y-160404572D01*
X144824369Y-160124954D01*
X144724367Y-159856839D01*
X144587226Y-159605685D01*
X144462986Y-159439720D01*
X144415737Y-159376602D01*
X144213397Y-159174262D01*
X143984317Y-159002775D01*
X143883396Y-158947668D01*
X143733161Y-158865633D01*
X143465046Y-158765631D01*
X143252539Y-158719403D01*
X143185424Y-158704803D01*
X142900000Y-158684389D01*
X142614575Y-158704803D01*
X142334948Y-158765632D01*
X142193807Y-158818274D01*
X142122992Y-158823338D01*
X142060681Y-158789313D01*
X135911368Y-152640000D01*
X138724732Y-152640000D01*
X138743778Y-152894157D01*
X138800492Y-153142637D01*
X138893607Y-153379888D01*
X139021041Y-153600612D01*
X139179950Y-153799877D01*
X139366783Y-153973232D01*
X139577366Y-154116805D01*
X139696411Y-154174134D01*
X139806995Y-154227389D01*
X139876901Y-154248951D01*
X140050542Y-154302513D01*
X140302565Y-154340500D01*
X140557433Y-154340500D01*
X140557435Y-154340500D01*
X140809458Y-154302513D01*
X141053004Y-154227389D01*
X141282634Y-154116805D01*
X141493217Y-153973232D01*
X141680050Y-153799877D01*
X141838959Y-153600612D01*
X141966393Y-153379888D01*
X142059508Y-153142637D01*
X142116222Y-152894157D01*
X142135268Y-152640000D01*
X142116222Y-152385843D01*
X142059508Y-152137363D01*
X141966393Y-151900112D01*
X141838959Y-151679388D01*
X141680050Y-151480123D01*
X141493217Y-151306768D01*
X141493214Y-151306766D01*
X141493212Y-151306764D01*
X141282634Y-151163195D01*
X141053004Y-151052610D01*
X140809461Y-150977488D01*
X140809458Y-150977487D01*
X140557435Y-150939500D01*
X140302565Y-150939500D01*
X140050542Y-150977487D01*
X140050539Y-150977487D01*
X140050538Y-150977488D01*
X139806995Y-151052610D01*
X139577365Y-151163195D01*
X139366787Y-151306764D01*
X139366781Y-151306768D01*
X139366783Y-151306768D01*
X139179950Y-151480123D01*
X139021041Y-151679388D01*
X139021039Y-151679391D01*
X138893607Y-151900111D01*
X138893607Y-151900112D01*
X138800492Y-152137363D01*
X138743778Y-152385843D01*
X138724732Y-152640000D01*
X135911368Y-152640000D01*
X130097405Y-146826037D01*
X130070091Y-146785160D01*
X130060500Y-146736942D01*
X130060500Y-146712563D01*
X130061830Y-146694303D01*
X130062635Y-146688800D01*
X130065289Y-146670687D01*
X130060978Y-146621423D01*
X130060500Y-146610443D01*
X130060500Y-146605004D01*
X130060500Y-146605001D01*
X130056898Y-146574191D01*
X130056535Y-146570642D01*
X130049998Y-146495912D01*
X130049996Y-146495906D01*
X130049872Y-146494487D01*
X130045729Y-146475796D01*
X130019600Y-146404005D01*
X130018396Y-146400543D01*
X129994814Y-146329375D01*
X129994812Y-146329372D01*
X129994367Y-146328028D01*
X129986020Y-146310784D01*
X129985237Y-146309593D01*
X129944013Y-146246916D01*
X129942078Y-146243878D01*
X129901960Y-146178837D01*
X129889862Y-146163987D01*
X129834272Y-146111540D01*
X129831644Y-146108987D01*
X126612657Y-142890000D01*
X130224564Y-142890000D01*
X130244286Y-143190919D01*
X130303120Y-143486692D01*
X130400052Y-143772247D01*
X130533435Y-144042720D01*
X130700972Y-144293458D01*
X130899810Y-144520189D01*
X131126541Y-144719027D01*
X131255862Y-144805436D01*
X131377282Y-144886566D01*
X131634218Y-145013272D01*
X131647752Y-145019947D01*
X131838121Y-145084568D01*
X131933309Y-145116880D01*
X132229080Y-145175713D01*
X132530000Y-145195436D01*
X132830920Y-145175713D01*
X133126691Y-145116880D01*
X133322505Y-145050409D01*
X133412247Y-145019947D01*
X133412248Y-145019946D01*
X133412252Y-145019945D01*
X133682718Y-144886566D01*
X133933461Y-144719025D01*
X134160189Y-144520189D01*
X134359025Y-144293461D01*
X134526566Y-144042718D01*
X134659945Y-143772252D01*
X134756880Y-143486691D01*
X134815713Y-143190920D01*
X134835436Y-142890000D01*
X134815713Y-142589080D01*
X134797994Y-142499999D01*
X146844564Y-142499999D01*
X146864286Y-142800919D01*
X146923120Y-143096692D01*
X147020052Y-143382247D01*
X147153435Y-143652720D01*
X147320972Y-143903458D01*
X147519810Y-144130189D01*
X147746541Y-144329027D01*
X147997279Y-144496564D01*
X147997282Y-144496566D01*
X148254218Y-144623272D01*
X148267752Y-144629947D01*
X148458122Y-144694568D01*
X148553309Y-144726880D01*
X148849080Y-144785713D01*
X149150000Y-144805436D01*
X149450920Y-144785713D01*
X149746691Y-144726880D01*
X149942505Y-144660409D01*
X150032247Y-144629947D01*
X150032248Y-144629946D01*
X150032252Y-144629945D01*
X150302718Y-144496566D01*
X150553461Y-144329025D01*
X150780189Y-144130189D01*
X150979025Y-143903461D01*
X151146566Y-143652718D01*
X151279945Y-143382252D01*
X151376880Y-143096691D01*
X151435713Y-142800920D01*
X151455436Y-142500000D01*
X151455436Y-142499999D01*
X157004564Y-142499999D01*
X157024286Y-142800919D01*
X157083120Y-143096692D01*
X157180052Y-143382247D01*
X157313435Y-143652720D01*
X157480972Y-143903458D01*
X157679810Y-144130189D01*
X157906541Y-144329027D01*
X158157279Y-144496564D01*
X158157282Y-144496566D01*
X158414218Y-144623272D01*
X158427752Y-144629947D01*
X158618122Y-144694568D01*
X158713309Y-144726880D01*
X159009080Y-144785713D01*
X159310000Y-144805436D01*
X159610920Y-144785713D01*
X159906691Y-144726880D01*
X160102505Y-144660409D01*
X160192247Y-144629947D01*
X160192248Y-144629946D01*
X160192252Y-144629945D01*
X160462718Y-144496566D01*
X160713461Y-144329025D01*
X160940189Y-144130189D01*
X161139025Y-143903461D01*
X161306566Y-143652718D01*
X161439945Y-143382252D01*
X161536880Y-143096691D01*
X161595713Y-142800920D01*
X161615436Y-142500000D01*
X161595713Y-142199080D01*
X161536880Y-141903309D01*
X161504568Y-141808121D01*
X161439947Y-141617752D01*
X161375240Y-141486539D01*
X161306566Y-141347282D01*
X161248119Y-141259810D01*
X161139027Y-141096541D01*
X160940189Y-140869810D01*
X160713458Y-140670972D01*
X160462720Y-140503435D01*
X160192247Y-140370052D01*
X159906692Y-140273120D01*
X159610919Y-140214286D01*
X159329722Y-140195856D01*
X159310000Y-140194564D01*
X159309999Y-140194564D01*
X159009080Y-140214286D01*
X158713307Y-140273120D01*
X158427752Y-140370052D01*
X158157279Y-140503435D01*
X157906541Y-140670972D01*
X157679810Y-140869810D01*
X157480972Y-141096541D01*
X157313435Y-141347279D01*
X157180052Y-141617752D01*
X157083120Y-141903307D01*
X157024286Y-142199080D01*
X157004564Y-142499999D01*
X151455436Y-142499999D01*
X151435713Y-142199080D01*
X151376880Y-141903309D01*
X151344568Y-141808121D01*
X151279947Y-141617752D01*
X151215240Y-141486539D01*
X151146566Y-141347282D01*
X151088119Y-141259810D01*
X150979027Y-141096541D01*
X150780189Y-140869810D01*
X150553458Y-140670972D01*
X150302720Y-140503435D01*
X150032247Y-140370052D01*
X149746692Y-140273120D01*
X149450919Y-140214286D01*
X149169722Y-140195856D01*
X149150000Y-140194564D01*
X149149999Y-140194564D01*
X148849080Y-140214286D01*
X148553307Y-140273120D01*
X148267752Y-140370052D01*
X147997279Y-140503435D01*
X147746541Y-140670972D01*
X147519810Y-140869810D01*
X147320972Y-141096541D01*
X147153435Y-141347279D01*
X147020052Y-141617752D01*
X146923120Y-141903307D01*
X146864286Y-142199080D01*
X146844564Y-142499999D01*
X134797994Y-142499999D01*
X134756880Y-142293309D01*
X134693761Y-142107367D01*
X134659947Y-142007752D01*
X134608440Y-141903307D01*
X134526566Y-141737282D01*
X134446696Y-141617748D01*
X134359027Y-141486541D01*
X134160189Y-141259810D01*
X133933458Y-141060972D01*
X133682720Y-140893435D01*
X133412247Y-140760052D01*
X133126692Y-140663120D01*
X132830919Y-140604286D01*
X132549721Y-140585856D01*
X132530000Y-140584564D01*
X132529999Y-140584564D01*
X132229080Y-140604286D01*
X131933307Y-140663120D01*
X131647752Y-140760052D01*
X131377279Y-140893435D01*
X131126541Y-141060972D01*
X130899810Y-141259810D01*
X130700972Y-141486541D01*
X130533435Y-141737279D01*
X130400052Y-142007752D01*
X130303120Y-142293307D01*
X130244286Y-142589080D01*
X130224564Y-142890000D01*
X126612657Y-142890000D01*
X121473592Y-137750934D01*
X121442854Y-137700775D01*
X121387660Y-137530906D01*
X121293015Y-137366976D01*
X121166351Y-137226302D01*
X121013208Y-137115038D01*
X120840288Y-137038048D01*
X120840284Y-137038047D01*
X120655127Y-136998691D01*
X120465835Y-136998691D01*
X120280678Y-137038047D01*
X120280676Y-137038047D01*
X120280675Y-137038048D01*
X120210475Y-137069303D01*
X120147248Y-137097454D01*
X120086115Y-137107960D01*
X120027376Y-137088021D01*
X119985269Y-137042470D01*
X119970000Y-136982348D01*
X119970000Y-128494000D01*
X121297446Y-128494000D01*
X121340515Y-128654738D01*
X121429845Y-128846307D01*
X121551086Y-129019456D01*
X121700543Y-129168913D01*
X121873692Y-129290154D01*
X122065261Y-129379484D01*
X122226000Y-129422554D01*
X122226000Y-128494000D01*
X122734000Y-128494000D01*
X122734000Y-129422554D01*
X122894738Y-129379484D01*
X123086307Y-129290154D01*
X123259456Y-129168913D01*
X123408913Y-129019456D01*
X123530154Y-128846307D01*
X123619484Y-128654738D01*
X123662554Y-128494000D01*
X122734000Y-128494000D01*
X122226000Y-128494000D01*
X121297446Y-128494000D01*
X119970000Y-128494000D01*
X119970000Y-127986000D01*
X121297445Y-127986000D01*
X122226000Y-127986000D01*
X122226000Y-127057446D01*
X122734000Y-127057446D01*
X122734000Y-127986000D01*
X123662554Y-127986000D01*
X123619484Y-127825261D01*
X123530154Y-127633692D01*
X123408913Y-127460543D01*
X123259456Y-127311086D01*
X123086307Y-127189845D01*
X122894738Y-127100515D01*
X122734000Y-127057446D01*
X122226000Y-127057446D01*
X122226000Y-127057445D01*
X122065261Y-127100515D01*
X121873692Y-127189845D01*
X121700543Y-127311086D01*
X121551086Y-127460543D01*
X121429845Y-127633692D01*
X121340515Y-127825261D01*
X121297445Y-127986000D01*
X119970000Y-127986000D01*
X119970000Y-118694000D01*
X120723918Y-118694000D01*
X120776186Y-118889070D01*
X120872912Y-119096498D01*
X121004189Y-119283981D01*
X121166018Y-119445810D01*
X121267613Y-119516948D01*
X121309699Y-119567261D01*
X121320793Y-119631911D01*
X121297887Y-119693377D01*
X121186569Y-119849285D01*
X121077356Y-120072684D01*
X121006400Y-120311023D01*
X120975642Y-120557778D01*
X120985918Y-120806235D01*
X121036949Y-121049610D01*
X121127345Y-121281276D01*
X121254634Y-121494894D01*
X121375101Y-121637130D01*
X133047577Y-133309605D01*
X133057914Y-133321310D01*
X133072259Y-133339741D01*
X133072261Y-133339743D01*
X133072262Y-133339744D01*
X133139034Y-133401212D01*
X133142741Y-133404769D01*
X133162874Y-133424902D01*
X133162875Y-133424903D01*
X133184569Y-133443276D01*
X133188475Y-133446725D01*
X133255217Y-133508166D01*
X133274769Y-133520940D01*
X133287288Y-133530275D01*
X133305104Y-133545365D01*
X133383040Y-133591804D01*
X133387428Y-133594543D01*
X133463393Y-133644173D01*
X133484045Y-133653232D01*
X133484775Y-133653552D01*
X133498656Y-133660697D01*
X133518725Y-133672655D01*
X133518727Y-133672656D01*
X133549564Y-133684688D01*
X133603257Y-133705640D01*
X133608068Y-133707633D01*
X133691119Y-133744063D01*
X133713752Y-133749794D01*
X133728627Y-133754559D01*
X133750386Y-133763050D01*
X133839211Y-133781674D01*
X133844189Y-133782825D01*
X133918934Y-133801754D01*
X133932178Y-133805108D01*
X133940137Y-133805767D01*
X133955453Y-133807036D01*
X133970898Y-133809286D01*
X133993763Y-133814081D01*
X134084420Y-133817829D01*
X134089582Y-133818150D01*
X134111571Y-133819972D01*
X134117931Y-133820500D01*
X134117933Y-133820500D01*
X134146369Y-133820500D01*
X134151576Y-133820608D01*
X134242219Y-133824357D01*
X134242219Y-133824356D01*
X134242221Y-133824357D01*
X134265399Y-133821467D01*
X134280984Y-133820500D01*
X139597811Y-133820500D01*
X139652480Y-133832978D01*
X139806995Y-133907389D01*
X139876901Y-133928951D01*
X140050542Y-133982513D01*
X140302565Y-134020500D01*
X140557433Y-134020500D01*
X140557435Y-134020500D01*
X140809458Y-133982513D01*
X141053004Y-133907389D01*
X141282634Y-133796805D01*
X141493217Y-133653232D01*
X141680050Y-133479877D01*
X141838959Y-133280612D01*
X141966393Y-133059888D01*
X142056441Y-132830450D01*
X142084632Y-132787394D01*
X146269611Y-128602415D01*
X146281306Y-128592087D01*
X146299744Y-128577738D01*
X146361201Y-128510976D01*
X146364759Y-128507267D01*
X146384902Y-128487126D01*
X146403318Y-128465380D01*
X146406681Y-128461571D01*
X146468164Y-128394785D01*
X146480944Y-128375222D01*
X146490271Y-128362715D01*
X146505366Y-128344894D01*
X146551820Y-128266932D01*
X146554556Y-128262550D01*
X146604173Y-128186607D01*
X146613557Y-128165212D01*
X146620697Y-128151342D01*
X146632656Y-128131273D01*
X146665654Y-128046704D01*
X146667612Y-128041977D01*
X146704063Y-127958881D01*
X146709795Y-127936241D01*
X146714559Y-127921372D01*
X146723050Y-127899614D01*
X146741686Y-127810731D01*
X146742820Y-127805831D01*
X146765108Y-127717821D01*
X146767036Y-127694547D01*
X146769288Y-127679092D01*
X146774081Y-127656237D01*
X146777829Y-127565581D01*
X146778152Y-127560390D01*
X146780500Y-127532069D01*
X146780500Y-127503631D01*
X146780608Y-127498424D01*
X146784357Y-127407780D01*
X146781468Y-127384603D01*
X146780500Y-127369016D01*
X146780500Y-121370000D01*
X153034713Y-121370000D01*
X153053837Y-121673967D01*
X153110908Y-121973143D01*
X153205026Y-122262807D01*
X153334706Y-122538390D01*
X153497900Y-122795544D01*
X153692042Y-123030223D01*
X153914065Y-123238715D01*
X154160463Y-123417735D01*
X154160468Y-123417737D01*
X154160467Y-123417737D01*
X154427363Y-123564464D01*
X154710545Y-123676584D01*
X154865423Y-123716350D01*
X155005546Y-123752328D01*
X155307712Y-123790500D01*
X155307715Y-123790500D01*
X155612285Y-123790500D01*
X155612288Y-123790500D01*
X155914453Y-123752328D01*
X155914453Y-123752327D01*
X156209455Y-123676584D01*
X156492637Y-123564464D01*
X156759533Y-123417737D01*
X157005935Y-123238715D01*
X157227957Y-123030223D01*
X157422098Y-122795547D01*
X157585294Y-122538390D01*
X157714974Y-122262807D01*
X157809091Y-121973144D01*
X157866162Y-121673969D01*
X157885286Y-121370000D01*
X157866162Y-121066031D01*
X157809091Y-120766856D01*
X157714974Y-120477193D01*
X157585294Y-120201610D01*
X157422098Y-119944453D01*
X157336343Y-119840793D01*
X157227957Y-119709776D01*
X157005934Y-119501284D01*
X156759536Y-119322264D01*
X156492636Y-119175535D01*
X156293008Y-119096497D01*
X156209455Y-119063416D01*
X156209452Y-119063415D01*
X156209449Y-119063414D01*
X155914453Y-118987671D01*
X155612288Y-118949500D01*
X155612285Y-118949500D01*
X155307715Y-118949500D01*
X155307712Y-118949500D01*
X155005546Y-118987671D01*
X154710550Y-119063414D01*
X154427363Y-119175535D01*
X154160463Y-119322264D01*
X153914065Y-119501284D01*
X153692042Y-119709776D01*
X153497900Y-119944455D01*
X153334706Y-120201609D01*
X153205026Y-120477192D01*
X153110908Y-120766856D01*
X153053837Y-121066032D01*
X153034713Y-121370000D01*
X146780500Y-121370000D01*
X146780500Y-116922938D01*
X146780500Y-116922933D01*
X146765108Y-116737179D01*
X146736855Y-116625611D01*
X146732999Y-116594680D01*
X146732999Y-115937125D01*
X146726591Y-115877518D01*
X146726591Y-115877517D01*
X146676296Y-115742669D01*
X146654612Y-115713702D01*
X146590046Y-115627453D01*
X146474831Y-115541204D01*
X146339983Y-115490909D01*
X146280373Y-115484500D01*
X146280372Y-115484500D01*
X144791717Y-115484500D01*
X144734514Y-115470767D01*
X144689781Y-115432561D01*
X144667268Y-115378211D01*
X144671884Y-115319564D01*
X144702622Y-115269405D01*
X145438787Y-114533240D01*
X146179485Y-113792541D01*
X146237743Y-113759469D01*
X146304719Y-113760932D01*
X146311025Y-113762820D01*
X146316860Y-113764568D01*
X146316861Y-113764568D01*
X146316864Y-113764569D01*
X146354544Y-113771212D01*
X146365252Y-113773586D01*
X146402218Y-113783492D01*
X146530173Y-113802234D01*
X146533754Y-113802812D01*
X146661073Y-113825262D01*
X146699261Y-113827485D01*
X146710193Y-113828602D01*
X146748046Y-113834148D01*
X146877350Y-113837910D01*
X146880891Y-113838065D01*
X146922695Y-113840500D01*
X146964499Y-113840500D01*
X146968163Y-113840553D01*
X147097416Y-113844314D01*
X147132561Y-113841239D01*
X147135536Y-113840979D01*
X147146516Y-113840500D01*
X152473484Y-113840500D01*
X152484464Y-113840979D01*
X152487699Y-113841262D01*
X152522584Y-113844314D01*
X152651836Y-113840553D01*
X152655501Y-113840500D01*
X152697299Y-113840500D01*
X152697305Y-113840500D01*
X152739104Y-113838065D01*
X152742651Y-113837910D01*
X152871954Y-113834148D01*
X152909810Y-113828602D01*
X152920735Y-113827485D01*
X152958927Y-113825262D01*
X153086255Y-113802810D01*
X153089814Y-113802235D01*
X153217782Y-113783492D01*
X153254760Y-113773583D01*
X153265460Y-113771212D01*
X153303136Y-113764569D01*
X153427028Y-113727477D01*
X153430453Y-113726505D01*
X153555391Y-113693029D01*
X153590958Y-113678898D01*
X153601291Y-113675306D01*
X153637971Y-113664326D01*
X153756762Y-113613083D01*
X153760047Y-113611723D01*
X153880215Y-113563985D01*
X153913888Y-113545827D01*
X153923779Y-113541040D01*
X153958897Y-113525892D01*
X153958896Y-113525892D01*
X153958904Y-113525889D01*
X154070926Y-113461212D01*
X154074018Y-113459486D01*
X154187861Y-113398104D01*
X154219205Y-113376155D01*
X154228455Y-113370262D01*
X154261596Y-113351130D01*
X154365354Y-113273883D01*
X154368260Y-113271785D01*
X154474170Y-113197628D01*
X154502756Y-113172187D01*
X154511252Y-113165267D01*
X154541953Y-113142412D01*
X154636043Y-113053641D01*
X154638639Y-113051262D01*
X154669940Y-113023408D01*
X154699559Y-112993787D01*
X154702083Y-112991335D01*
X154796183Y-112902558D01*
X154820778Y-112873245D01*
X154828193Y-112865153D01*
X159265153Y-108428193D01*
X159273248Y-108420776D01*
X159302558Y-108396183D01*
X159391335Y-108302083D01*
X159393787Y-108299559D01*
X159423408Y-108269940D01*
X159451262Y-108238639D01*
X159453641Y-108236043D01*
X159542412Y-108141953D01*
X159565267Y-108111252D01*
X159572187Y-108102756D01*
X159597628Y-108074170D01*
X159671785Y-107968260D01*
X159673883Y-107965354D01*
X159751130Y-107861596D01*
X159770262Y-107828455D01*
X159776155Y-107819205D01*
X159798104Y-107787861D01*
X159859486Y-107674018D01*
X159861212Y-107670926D01*
X159925889Y-107558904D01*
X159941039Y-107523779D01*
X159945832Y-107513880D01*
X159963985Y-107480215D01*
X160011736Y-107360015D01*
X160013090Y-107356748D01*
X160064326Y-107237971D01*
X160075298Y-107201316D01*
X160078903Y-107190948D01*
X160087843Y-107168446D01*
X160093030Y-107155391D01*
X160126507Y-107030451D01*
X160127495Y-107026970D01*
X160142325Y-106977436D01*
X160164569Y-106903136D01*
X160171212Y-106865451D01*
X160173585Y-106854751D01*
X160183492Y-106817782D01*
X160202234Y-106689824D01*
X160202815Y-106686225D01*
X160225262Y-106558927D01*
X160227485Y-106520736D01*
X160228603Y-106509803D01*
X160234147Y-106471958D01*
X160234148Y-106471954D01*
X160237910Y-106342648D01*
X160238065Y-106339107D01*
X160245585Y-106210000D01*
X160243359Y-106171795D01*
X160243200Y-106160849D01*
X160244314Y-106122584D01*
X160233041Y-105993744D01*
X160232781Y-105990183D01*
X160225262Y-105861073D01*
X160218615Y-105823385D01*
X160217186Y-105812527D01*
X160213851Y-105774395D01*
X160187704Y-105647765D01*
X160187015Y-105644166D01*
X160164569Y-105516864D01*
X160153595Y-105480210D01*
X160150912Y-105469582D01*
X160143173Y-105432098D01*
X160102485Y-105309311D01*
X160101417Y-105305925D01*
X160064326Y-105182029D01*
X160049173Y-105146901D01*
X160045265Y-105136631D01*
X160043595Y-105131591D01*
X160033233Y-105100319D01*
X159978573Y-104983100D01*
X159977115Y-104979851D01*
X159925889Y-104861096D01*
X159906755Y-104827956D01*
X159901687Y-104818219D01*
X159885520Y-104783548D01*
X159817620Y-104673465D01*
X159815803Y-104670422D01*
X159751130Y-104558404D01*
X159728279Y-104527710D01*
X159722114Y-104518627D01*
X159715544Y-104507975D01*
X159702031Y-104486067D01*
X159661871Y-104435277D01*
X159621860Y-104384674D01*
X159619630Y-104381768D01*
X159577914Y-104325735D01*
X159542412Y-104278047D01*
X159516152Y-104250213D01*
X159508973Y-104241905D01*
X159485248Y-104211900D01*
X159446484Y-104173136D01*
X159393804Y-104120456D01*
X159391284Y-104117861D01*
X159302560Y-104023819D01*
X159302556Y-104023816D01*
X159273247Y-103999222D01*
X159265153Y-103991805D01*
X159238101Y-103964753D01*
X159238100Y-103964752D01*
X159238099Y-103964751D01*
X159136688Y-103884566D01*
X159133847Y-103882251D01*
X159034817Y-103799154D01*
X159014266Y-103785638D01*
X159002848Y-103778129D01*
X158993943Y-103771698D01*
X158963934Y-103747970D01*
X158963935Y-103747970D01*
X158963933Y-103747969D01*
X158853872Y-103680082D01*
X158850823Y-103678139D01*
X158810922Y-103651896D01*
X158742792Y-103607085D01*
X158708609Y-103589918D01*
X158699015Y-103584564D01*
X158666451Y-103564479D01*
X158549275Y-103509839D01*
X158545977Y-103508242D01*
X158464643Y-103467395D01*
X158430451Y-103450223D01*
X158430450Y-103450222D01*
X158430447Y-103450221D01*
X158394505Y-103437139D01*
X158384354Y-103432935D01*
X158374492Y-103428336D01*
X158349681Y-103416767D01*
X158313275Y-103404703D01*
X158226979Y-103376107D01*
X158223519Y-103374905D01*
X158102008Y-103330680D01*
X158064791Y-103321859D01*
X158054219Y-103318861D01*
X158017900Y-103306826D01*
X157913422Y-103285253D01*
X157891262Y-103280678D01*
X157887702Y-103279889D01*
X157831243Y-103266508D01*
X157761912Y-103250076D01*
X157723923Y-103245636D01*
X157713074Y-103243885D01*
X157675602Y-103236148D01*
X157546782Y-103224877D01*
X157543136Y-103224505D01*
X157414759Y-103209500D01*
X157376516Y-103209500D01*
X157365536Y-103209021D01*
X157327416Y-103205686D01*
X157198163Y-103209447D01*
X157194499Y-103209500D01*
X157065236Y-103209500D01*
X157027249Y-103213939D01*
X157016295Y-103214738D01*
X156978045Y-103215852D01*
X156850100Y-103234592D01*
X156846469Y-103235070D01*
X156718085Y-103250077D01*
X156680870Y-103258896D01*
X156670083Y-103260960D01*
X156632219Y-103266507D01*
X156507320Y-103299973D01*
X156503768Y-103300869D01*
X156377996Y-103330678D01*
X156342046Y-103343762D01*
X156331570Y-103347065D01*
X156294608Y-103356970D01*
X156230174Y-103382567D01*
X156174436Y-103404710D01*
X156171052Y-103405998D01*
X156049549Y-103450223D01*
X156049541Y-103450226D01*
X156015352Y-103467395D01*
X156005332Y-103471891D01*
X155969787Y-103486013D01*
X155855974Y-103547379D01*
X155852726Y-103549070D01*
X155737205Y-103607087D01*
X155705248Y-103628106D01*
X155695813Y-103633738D01*
X155662135Y-103651897D01*
X155556220Y-103726060D01*
X155553188Y-103728118D01*
X155445189Y-103799150D01*
X155415876Y-103823745D01*
X155407164Y-103830430D01*
X155375830Y-103852371D01*
X155279239Y-103938328D01*
X155276469Y-103940722D01*
X155177443Y-104023816D01*
X155088697Y-104117879D01*
X155086144Y-104120506D01*
X151404057Y-107802595D01*
X151363180Y-107829909D01*
X151314962Y-107839500D01*
X147945588Y-107839500D01*
X147895682Y-107829195D01*
X147817975Y-107795675D01*
X147809111Y-107793021D01*
X147781308Y-107784697D01*
X147770939Y-107781093D01*
X147735389Y-107766970D01*
X147610539Y-107733516D01*
X147607015Y-107732517D01*
X147483132Y-107695429D01*
X147445467Y-107688788D01*
X147434743Y-107686411D01*
X147397782Y-107676508D01*
X147397779Y-107676507D01*
X147397777Y-107676507D01*
X147269831Y-107657764D01*
X147266216Y-107657181D01*
X147138929Y-107634738D01*
X147100740Y-107632513D01*
X147089812Y-107631396D01*
X147051959Y-107625852D01*
X146922697Y-107622089D01*
X146919043Y-107621929D01*
X146877309Y-107619500D01*
X146877305Y-107619500D01*
X146835501Y-107619500D01*
X146831837Y-107619447D01*
X146793170Y-107618321D01*
X146702584Y-107615686D01*
X146702583Y-107615686D01*
X146664464Y-107619021D01*
X146653484Y-107619500D01*
X134532695Y-107619500D01*
X134271073Y-107634738D01*
X134098968Y-107665084D01*
X133926863Y-107695431D01*
X133592024Y-107795675D01*
X133271096Y-107934110D01*
X132968408Y-108108867D01*
X132688046Y-108317588D01*
X132433811Y-108557447D01*
X132209151Y-108825187D01*
X132017090Y-109117200D01*
X131860220Y-109429555D01*
X131740683Y-109757982D01*
X131660076Y-110098089D01*
X131619978Y-110441151D01*
X131593095Y-110505389D01*
X131536198Y-110545539D01*
X131466665Y-110549335D01*
X131405735Y-110515618D01*
X130611925Y-109721808D01*
X130584611Y-109680931D01*
X130575020Y-109632713D01*
X130575020Y-106685776D01*
X130575082Y-106681819D01*
X130578727Y-106565822D01*
X130573947Y-106515252D01*
X130567801Y-106450247D01*
X130567494Y-106446326D01*
X130560209Y-106330513D01*
X130560208Y-106330509D01*
X130560208Y-106330505D01*
X130558773Y-106322983D01*
X130560234Y-106269082D01*
X130584097Y-106220724D01*
X130625988Y-106186773D01*
X130832793Y-106082913D01*
X131124811Y-105890849D01*
X131392558Y-105666183D01*
X131632412Y-105411953D01*
X131841130Y-105131596D01*
X132015889Y-104828904D01*
X132154326Y-104507971D01*
X132254569Y-104173136D01*
X132315262Y-103828927D01*
X132330500Y-103567305D01*
X132330500Y-90363426D01*
X132345249Y-90304273D01*
X132386042Y-90258967D01*
X132443329Y-90238116D01*
X132503700Y-90246601D01*
X132553021Y-90282435D01*
X132653811Y-90402552D01*
X132653815Y-90402556D01*
X132653817Y-90402558D01*
X132908047Y-90642412D01*
X133188404Y-90851130D01*
X133491096Y-91025889D01*
X133812029Y-91164326D01*
X134146864Y-91264569D01*
X134491073Y-91325262D01*
X134752695Y-91340500D01*
X145714962Y-91340500D01*
X145763180Y-91350091D01*
X145804057Y-91377405D01*
X148661796Y-94235144D01*
X148669222Y-94243247D01*
X148693819Y-94272560D01*
X148787861Y-94361284D01*
X148790457Y-94363805D01*
X148820060Y-94393408D01*
X148851321Y-94421227D01*
X148854005Y-94423688D01*
X148881940Y-94450043D01*
X148948047Y-94512412D01*
X148978730Y-94535254D01*
X148987253Y-94542197D01*
X149015827Y-94567626D01*
X149042432Y-94586254D01*
X149121761Y-94641801D01*
X149124608Y-94643856D01*
X149228404Y-94721130D01*
X149261547Y-94740264D01*
X149270800Y-94746160D01*
X149302138Y-94768103D01*
X149385244Y-94812913D01*
X149415932Y-94829460D01*
X149419093Y-94831223D01*
X149516675Y-94887563D01*
X149531101Y-94895892D01*
X149566220Y-94911040D01*
X149576111Y-94915828D01*
X149609785Y-94933985D01*
X149729975Y-94981733D01*
X149733267Y-94983097D01*
X149852029Y-95034326D01*
X149888683Y-95045299D01*
X149899038Y-95048897D01*
X149934608Y-95063029D01*
X150059524Y-95096500D01*
X150063005Y-95097488D01*
X150186863Y-95134569D01*
X150201248Y-95137105D01*
X150224536Y-95141211D01*
X150235264Y-95143589D01*
X150272217Y-95153491D01*
X150400155Y-95172231D01*
X150403747Y-95172810D01*
X150531073Y-95195262D01*
X150569262Y-95197485D01*
X150580194Y-95198602D01*
X150618046Y-95204148D01*
X150747326Y-95207909D01*
X150750884Y-95208064D01*
X150792695Y-95210500D01*
X150834522Y-95210500D01*
X150838185Y-95210552D01*
X150967416Y-95214313D01*
X151002754Y-95211221D01*
X151005524Y-95210979D01*
X151016504Y-95210500D01*
X157414757Y-95210500D01*
X157414759Y-95210500D01*
X157498011Y-95200768D01*
X157505258Y-95200134D01*
X157588927Y-95195262D01*
X157671456Y-95180709D01*
X157678694Y-95179649D01*
X157761914Y-95169923D01*
X157843449Y-95150598D01*
X157850600Y-95149122D01*
X157933136Y-95134569D01*
X158013409Y-95110536D01*
X158020475Y-95108642D01*
X158102011Y-95089319D01*
X158180751Y-95060659D01*
X158187697Y-95058358D01*
X158267971Y-95034326D01*
X158344927Y-95001129D01*
X158351691Y-94998442D01*
X158430451Y-94969777D01*
X158505357Y-94932156D01*
X158511955Y-94929080D01*
X158588904Y-94895889D01*
X158661482Y-94853985D01*
X158667914Y-94850518D01*
X158742793Y-94812913D01*
X158812820Y-94766854D01*
X158819017Y-94763032D01*
X158891596Y-94721130D01*
X158958830Y-94671075D01*
X158964804Y-94666893D01*
X159034805Y-94620853D01*
X159034805Y-94620852D01*
X159034811Y-94620849D01*
X159099029Y-94566962D01*
X159104706Y-94562473D01*
X159171953Y-94512412D01*
X159232920Y-94454891D01*
X159238369Y-94450043D01*
X159269778Y-94423688D01*
X159302558Y-94396183D01*
X159360103Y-94335186D01*
X159365186Y-94330103D01*
X159426183Y-94272558D01*
X159480043Y-94208369D01*
X159484891Y-94202920D01*
X159542412Y-94141953D01*
X159592473Y-94074706D01*
X159596962Y-94069029D01*
X159650849Y-94004811D01*
X159696893Y-93934803D01*
X159701075Y-93928830D01*
X159751130Y-93861596D01*
X159793032Y-93789017D01*
X159796854Y-93782820D01*
X159842913Y-93712793D01*
X159880521Y-93637907D01*
X159883985Y-93631482D01*
X159925889Y-93558904D01*
X159959080Y-93481955D01*
X159962156Y-93475357D01*
X159999777Y-93400451D01*
X160028442Y-93321691D01*
X160031129Y-93314927D01*
X160064326Y-93237971D01*
X160088358Y-93157694D01*
X160090664Y-93150738D01*
X160119319Y-93072011D01*
X160138642Y-92990475D01*
X160140536Y-92983411D01*
X160141894Y-92978873D01*
X160164569Y-92903136D01*
X160179122Y-92820600D01*
X160180600Y-92813443D01*
X160199923Y-92731914D01*
X160209649Y-92648694D01*
X160210710Y-92641451D01*
X160225262Y-92558927D01*
X160230134Y-92475258D01*
X160230768Y-92468011D01*
X160240500Y-92384759D01*
X160240500Y-92300974D01*
X160240713Y-92293647D01*
X160245585Y-92210000D01*
X160240713Y-92126353D01*
X160240500Y-92119026D01*
X160240500Y-92035244D01*
X160240500Y-92035241D01*
X160230768Y-91951991D01*
X160230134Y-91944737D01*
X160225262Y-91861073D01*
X160210707Y-91778533D01*
X160209648Y-91771296D01*
X160207805Y-91755527D01*
X160199923Y-91688086D01*
X160180595Y-91606534D01*
X160179123Y-91599406D01*
X160164569Y-91516864D01*
X160140535Y-91436588D01*
X160138640Y-91429513D01*
X160119319Y-91347989D01*
X160090656Y-91269238D01*
X160088364Y-91262324D01*
X160064326Y-91182029D01*
X160031125Y-91105061D01*
X160028446Y-91098318D01*
X159999777Y-91019549D01*
X159962166Y-90944661D01*
X159959078Y-90938039D01*
X159925889Y-90861096D01*
X159920135Y-90851130D01*
X159883982Y-90788510D01*
X159880521Y-90782091D01*
X159842913Y-90707207D01*
X159796859Y-90637187D01*
X159793036Y-90630988D01*
X159751130Y-90558404D01*
X159701072Y-90491164D01*
X159696891Y-90485192D01*
X159675480Y-90452639D01*
X159650850Y-90415189D01*
X159616134Y-90373818D01*
X159596991Y-90351003D01*
X159592453Y-90345264D01*
X159542410Y-90278044D01*
X159484907Y-90217094D01*
X159480035Y-90211620D01*
X159452869Y-90179246D01*
X159426183Y-90147442D01*
X159365237Y-90089943D01*
X159360055Y-90084761D01*
X159353319Y-90077621D01*
X159302558Y-90023817D01*
X159278416Y-90003560D01*
X159238378Y-89969963D01*
X159232904Y-89965091D01*
X159171953Y-89907587D01*
X159104744Y-89857552D01*
X159098995Y-89853007D01*
X159034810Y-89799150D01*
X158964817Y-89753114D01*
X158958815Y-89748912D01*
X158935470Y-89731533D01*
X158891596Y-89698870D01*
X158891593Y-89698868D01*
X158891590Y-89698866D01*
X158819027Y-89656972D01*
X158812800Y-89653131D01*
X158742793Y-89607087D01*
X158667906Y-89569477D01*
X158661475Y-89566009D01*
X158588905Y-89524111D01*
X158560513Y-89511864D01*
X158511958Y-89490920D01*
X158505337Y-89487832D01*
X158430451Y-89450223D01*
X158351711Y-89421563D01*
X158344909Y-89418861D01*
X158267977Y-89385676D01*
X158267972Y-89385674D01*
X158267971Y-89385674D01*
X158187694Y-89361640D01*
X158180761Y-89359342D01*
X158102016Y-89330683D01*
X158102017Y-89330683D01*
X158102011Y-89330681D01*
X158020462Y-89311353D01*
X158013414Y-89309464D01*
X157933133Y-89285430D01*
X157850605Y-89270877D01*
X157843431Y-89269396D01*
X157761914Y-89250077D01*
X157678694Y-89240349D01*
X157671445Y-89239287D01*
X157588929Y-89224738D01*
X157533596Y-89221515D01*
X157505275Y-89219865D01*
X157497977Y-89219227D01*
X157414759Y-89209500D01*
X157327305Y-89209500D01*
X152175038Y-89209500D01*
X152126820Y-89199909D01*
X152085943Y-89172595D01*
X149228203Y-86314855D01*
X149220776Y-86306750D01*
X149196184Y-86277442D01*
X149102121Y-86188698D01*
X149099524Y-86186176D01*
X149069940Y-86156592D01*
X149038635Y-86128732D01*
X149036052Y-86126365D01*
X148941953Y-86037588D01*
X148911257Y-86014735D01*
X148902738Y-86007795D01*
X148874170Y-85982372D01*
X148768255Y-85908210D01*
X148765339Y-85906104D01*
X148661596Y-85828870D01*
X148628459Y-85809738D01*
X148619200Y-85803840D01*
X148587861Y-85781896D01*
X148474070Y-85720540D01*
X148470870Y-85718754D01*
X148384561Y-85668924D01*
X148358904Y-85654111D01*
X148358901Y-85654110D01*
X148358900Y-85654109D01*
X148323773Y-85638955D01*
X148313887Y-85634169D01*
X148280223Y-85616019D01*
X148280220Y-85616018D01*
X148280215Y-85616015D01*
X148160037Y-85568271D01*
X148156676Y-85566878D01*
X148037975Y-85515675D01*
X148029111Y-85513021D01*
X148001308Y-85504697D01*
X147990939Y-85501093D01*
X147955389Y-85486970D01*
X147850304Y-85458812D01*
X147830533Y-85453514D01*
X147827014Y-85452517D01*
X147779679Y-85438346D01*
X147728289Y-85408276D01*
X147696444Y-85357967D01*
X147691255Y-85298653D01*
X147713880Y-85243578D01*
X147759264Y-85205042D01*
X148032313Y-85067913D01*
X148324331Y-84875849D01*
X148592078Y-84651183D01*
X148831932Y-84396953D01*
X149040650Y-84116596D01*
X149215409Y-83813904D01*
X149353846Y-83492971D01*
X149454089Y-83158136D01*
X149514782Y-82813927D01*
X149530020Y-82552305D01*
X149530020Y-79836025D01*
X149530499Y-79825045D01*
X149530541Y-79824560D01*
X149533833Y-79786936D01*
X149530072Y-79657705D01*
X149530020Y-79654042D01*
X149530020Y-79612221D01*
X149529321Y-79600223D01*
X149527584Y-79570404D01*
X149527429Y-79566846D01*
X149523668Y-79437566D01*
X149518122Y-79399713D01*
X149517005Y-79388776D01*
X149514782Y-79350593D01*
X149492332Y-79223274D01*
X149491751Y-79219674D01*
X149473012Y-79091738D01*
X149463104Y-79054763D01*
X149460733Y-79044065D01*
X149454089Y-79006384D01*
X149417009Y-78882528D01*
X149416012Y-78879010D01*
X149382548Y-78754127D01*
X149368425Y-78718574D01*
X149364816Y-78708193D01*
X149353846Y-78671549D01*
X149302615Y-78552784D01*
X149301237Y-78549455D01*
X149298729Y-78543143D01*
X149253505Y-78429305D01*
X149235345Y-78395627D01*
X149230557Y-78385734D01*
X149215410Y-78350617D01*
X149174758Y-78280206D01*
X149150761Y-78238642D01*
X149149003Y-78235493D01*
X149087624Y-78121658D01*
X149087623Y-78121656D01*
X149087620Y-78121651D01*
X149065679Y-78090316D01*
X149059773Y-78081046D01*
X149040649Y-78047922D01*
X148963451Y-77944228D01*
X148961305Y-77941257D01*
X148960424Y-77939999D01*
X153054713Y-77939999D01*
X153073837Y-78243967D01*
X153130908Y-78543143D01*
X153225026Y-78832807D01*
X153354706Y-79108390D01*
X153517900Y-79365544D01*
X153712042Y-79600223D01*
X153934065Y-79808715D01*
X154180463Y-79987735D01*
X154439409Y-80130091D01*
X154447363Y-80134464D01*
X154730545Y-80246584D01*
X154885423Y-80286350D01*
X155025546Y-80322328D01*
X155327712Y-80360500D01*
X155327715Y-80360500D01*
X155632285Y-80360500D01*
X155632288Y-80360500D01*
X155934453Y-80322328D01*
X155934461Y-80322326D01*
X156229455Y-80246584D01*
X156512637Y-80134464D01*
X156779533Y-79987737D01*
X157025935Y-79808715D01*
X157247957Y-79600223D01*
X157442098Y-79365547D01*
X157605294Y-79108390D01*
X157734974Y-78832807D01*
X157829091Y-78543144D01*
X157886162Y-78243969D01*
X157905286Y-77940000D01*
X157886162Y-77636031D01*
X157829091Y-77336856D01*
X157734974Y-77047193D01*
X157605294Y-76771610D01*
X157442098Y-76514453D01*
X157356343Y-76410793D01*
X157247957Y-76279776D01*
X157025934Y-76071284D01*
X156779536Y-75892264D01*
X156512636Y-75745535D01*
X156338016Y-75676398D01*
X156229455Y-75633416D01*
X156229452Y-75633415D01*
X156229449Y-75633414D01*
X155934453Y-75557671D01*
X155632288Y-75519500D01*
X155632285Y-75519500D01*
X155327715Y-75519500D01*
X155327712Y-75519500D01*
X155025546Y-75557671D01*
X154730550Y-75633414D01*
X154447363Y-75745535D01*
X154180463Y-75892264D01*
X153934065Y-76071284D01*
X153712042Y-76279776D01*
X153517900Y-76514455D01*
X153354706Y-76771609D01*
X153225026Y-77047192D01*
X153130908Y-77336856D01*
X153073837Y-77636032D01*
X153054713Y-77939999D01*
X148960424Y-77939999D01*
X148887149Y-77835352D01*
X148887148Y-77835350D01*
X148861710Y-77806766D01*
X148854777Y-77798253D01*
X148849193Y-77790753D01*
X148831932Y-77767567D01*
X148831930Y-77767564D01*
X148743205Y-77673521D01*
X148740752Y-77670846D01*
X148712928Y-77639580D01*
X148683358Y-77610010D01*
X148680804Y-77607381D01*
X148592080Y-77513339D01*
X148562767Y-77488742D01*
X148554664Y-77481316D01*
X146168203Y-75094855D01*
X146160776Y-75086750D01*
X146136184Y-75057442D01*
X146042121Y-74968698D01*
X146039512Y-74966164D01*
X146009940Y-74936592D01*
X145978635Y-74908732D01*
X145976052Y-74906365D01*
X145881953Y-74817588D01*
X145851257Y-74794735D01*
X145842738Y-74787795D01*
X145814170Y-74762372D01*
X145708255Y-74688210D01*
X145705339Y-74686104D01*
X145601596Y-74608870D01*
X145568459Y-74589738D01*
X145559200Y-74583840D01*
X145527861Y-74561896D01*
X145414070Y-74500540D01*
X145410870Y-74498754D01*
X145370591Y-74475499D01*
X145298904Y-74434111D01*
X145298901Y-74434110D01*
X145298900Y-74434109D01*
X145263773Y-74418955D01*
X145253887Y-74414169D01*
X145220223Y-74396019D01*
X145220220Y-74396018D01*
X145220215Y-74396015D01*
X145100037Y-74348271D01*
X145096676Y-74346878D01*
X144977975Y-74295675D01*
X144969111Y-74293021D01*
X144941308Y-74284697D01*
X144930939Y-74281093D01*
X144895389Y-74266970D01*
X144770539Y-74233516D01*
X144767015Y-74232517D01*
X144643132Y-74195429D01*
X144605467Y-74188788D01*
X144594743Y-74186411D01*
X144557782Y-74176508D01*
X144557779Y-74176507D01*
X144557777Y-74176507D01*
X144429831Y-74157764D01*
X144426216Y-74157181D01*
X144298929Y-74134738D01*
X144260740Y-74132513D01*
X144249812Y-74131396D01*
X144211959Y-74125852D01*
X144082697Y-74122089D01*
X144079043Y-74121929D01*
X144037309Y-74119500D01*
X144037305Y-74119500D01*
X143995501Y-74119500D01*
X143991837Y-74119447D01*
X143953170Y-74118321D01*
X143862584Y-74115686D01*
X143862583Y-74115686D01*
X143824464Y-74119021D01*
X143813484Y-74119500D01*
X137569492Y-74119500D01*
X137558512Y-74119021D01*
X137520392Y-74115686D01*
X137405769Y-74119021D01*
X137391127Y-74119447D01*
X137387463Y-74119500D01*
X137345671Y-74119500D01*
X137320373Y-74120972D01*
X137303954Y-74121929D01*
X137300296Y-74122089D01*
X137171015Y-74125851D01*
X137133156Y-74131396D01*
X137122230Y-74132513D01*
X137084045Y-74134738D01*
X136956771Y-74157179D01*
X136953156Y-74157762D01*
X136825194Y-74176507D01*
X136788235Y-74186410D01*
X136777509Y-74188788D01*
X136739839Y-74195431D01*
X136615987Y-74232508D01*
X136612465Y-74233507D01*
X136487586Y-74266969D01*
X136452019Y-74281098D01*
X136441644Y-74284704D01*
X136405002Y-74295674D01*
X136286320Y-74346869D01*
X136282934Y-74348272D01*
X136162757Y-74396015D01*
X136129092Y-74414167D01*
X136119206Y-74418954D01*
X136084073Y-74434110D01*
X136021031Y-74470507D01*
X135972105Y-74498754D01*
X135968923Y-74500530D01*
X135855118Y-74561893D01*
X135823782Y-74583835D01*
X135814515Y-74589738D01*
X135781382Y-74608868D01*
X135677654Y-74686089D01*
X135674686Y-74688233D01*
X135568800Y-74762375D01*
X135540230Y-74787800D01*
X135531716Y-74794736D01*
X135501025Y-74817586D01*
X135406971Y-74906319D01*
X135404276Y-74908788D01*
X135373037Y-74936590D01*
X135343462Y-74966164D01*
X135340839Y-74968712D01*
X135246789Y-75057445D01*
X135222198Y-75086751D01*
X135214774Y-75094852D01*
X132684460Y-77625166D01*
X132625740Y-77658355D01*
X132558316Y-77656501D01*
X132501508Y-77620136D01*
X132471597Y-77559681D01*
X132462756Y-77513337D01*
X132429091Y-77336856D01*
X132334974Y-77047193D01*
X132205294Y-76771610D01*
X132042098Y-76514453D01*
X131956343Y-76410793D01*
X131847957Y-76279776D01*
X131625934Y-76071284D01*
X131379536Y-75892264D01*
X131112636Y-75745535D01*
X130938016Y-75676398D01*
X130829455Y-75633416D01*
X130829452Y-75633415D01*
X130829449Y-75633414D01*
X130534453Y-75557671D01*
X130232288Y-75519500D01*
X130232285Y-75519500D01*
X129927715Y-75519500D01*
X129927712Y-75519500D01*
X129625546Y-75557671D01*
X129330550Y-75633414D01*
X129047363Y-75745535D01*
X128780463Y-75892264D01*
X128534065Y-76071284D01*
X128312042Y-76279776D01*
X128117900Y-76514455D01*
X127954706Y-76771609D01*
X127825026Y-77047192D01*
X127730908Y-77336856D01*
X127673837Y-77636032D01*
X127654713Y-77940000D01*
X127673837Y-78243967D01*
X127730908Y-78543143D01*
X127825026Y-78832807D01*
X127954706Y-79108390D01*
X128117900Y-79365544D01*
X128312042Y-79600223D01*
X128534065Y-79808715D01*
X128780463Y-79987735D01*
X129039409Y-80130091D01*
X129047363Y-80134464D01*
X129330545Y-80246584D01*
X129625547Y-80322328D01*
X129691556Y-80330666D01*
X129755314Y-80357960D01*
X129794971Y-80414859D01*
X129798510Y-80484124D01*
X129764859Y-80544768D01*
X127304852Y-83004774D01*
X127296751Y-83012198D01*
X127267445Y-83036789D01*
X127178712Y-83130839D01*
X127176164Y-83133462D01*
X127146590Y-83163037D01*
X127118788Y-83194276D01*
X127116319Y-83196971D01*
X127027586Y-83291025D01*
X127004736Y-83321716D01*
X126997800Y-83330230D01*
X126972375Y-83358800D01*
X126898233Y-83464686D01*
X126896089Y-83467654D01*
X126818868Y-83571382D01*
X126799738Y-83604515D01*
X126793835Y-83613782D01*
X126771893Y-83645118D01*
X126710546Y-83758894D01*
X126708761Y-83762093D01*
X126644112Y-83874070D01*
X126628961Y-83909192D01*
X126624175Y-83919077D01*
X126606014Y-83952761D01*
X126558281Y-84072909D01*
X126556880Y-84076292D01*
X126505673Y-84195006D01*
X126494701Y-84231654D01*
X126491095Y-84242028D01*
X126476971Y-84277583D01*
X126443513Y-84402445D01*
X126442514Y-84405968D01*
X126405430Y-84529841D01*
X126398788Y-84567508D01*
X126396413Y-84578224D01*
X126386508Y-84615194D01*
X126386506Y-84615202D01*
X126367764Y-84743143D01*
X126367181Y-84746758D01*
X126344738Y-84874046D01*
X126342513Y-84912235D01*
X126341396Y-84923162D01*
X126335852Y-84961015D01*
X126332089Y-85090277D01*
X126331929Y-85093931D01*
X126329500Y-85135667D01*
X126329500Y-85177475D01*
X126329447Y-85181139D01*
X126325686Y-85310392D01*
X126329021Y-85348512D01*
X126329500Y-85359492D01*
X126329500Y-101400816D01*
X126310697Y-101467034D01*
X126259899Y-101513489D01*
X126192269Y-101526314D01*
X126127991Y-101501684D01*
X126117331Y-101493704D01*
X126117329Y-101493703D01*
X126045825Y-101467034D01*
X125982483Y-101443409D01*
X125922873Y-101437000D01*
X125922872Y-101437000D01*
X125596218Y-101437000D01*
X125548000Y-101427409D01*
X125507122Y-101400095D01*
X125187404Y-101080376D01*
X125160091Y-101039499D01*
X125150500Y-100991281D01*
X125150500Y-98877938D01*
X125150500Y-98877933D01*
X125135108Y-98692179D01*
X125074063Y-98451119D01*
X124974173Y-98223393D01*
X124974172Y-98223391D01*
X124974171Y-98223389D01*
X124838166Y-98015217D01*
X124669744Y-97832262D01*
X124473510Y-97679527D01*
X124473509Y-97679526D01*
X124254810Y-97561172D01*
X124254809Y-97561171D01*
X124254806Y-97561170D01*
X124098012Y-97507343D01*
X124019614Y-97480429D01*
X123774335Y-97439500D01*
X123525665Y-97439500D01*
X123280386Y-97480429D01*
X123280383Y-97480429D01*
X123280383Y-97480430D01*
X123045193Y-97561170D01*
X122826489Y-97679527D01*
X122630255Y-97832262D01*
X122461833Y-98015217D01*
X122325828Y-98223389D01*
X122225935Y-98451123D01*
X122164893Y-98692174D01*
X122164892Y-98692179D01*
X122149500Y-98877933D01*
X122149500Y-98877938D01*
X122149500Y-101564016D01*
X122148532Y-101579603D01*
X122145642Y-101602780D01*
X122149392Y-101693424D01*
X122149500Y-101698631D01*
X122149500Y-101727067D01*
X122151848Y-101755411D01*
X122152170Y-101760606D01*
X122155918Y-101851235D01*
X122160713Y-101874105D01*
X122162963Y-101889551D01*
X122164891Y-101912819D01*
X122187165Y-102000780D01*
X122188338Y-102005851D01*
X122206950Y-102094614D01*
X122215438Y-102116367D01*
X122220200Y-102131231D01*
X122225936Y-102153880D01*
X122262380Y-102236966D01*
X122264372Y-102241776D01*
X122297343Y-102326273D01*
X122309302Y-102346343D01*
X122316449Y-102360228D01*
X122325827Y-102381608D01*
X122375438Y-102457544D01*
X122378195Y-102461961D01*
X122424633Y-102539893D01*
X122439725Y-102557712D01*
X122449058Y-102570228D01*
X122461836Y-102589785D01*
X122523273Y-102656524D01*
X122526717Y-102660423D01*
X122545098Y-102682126D01*
X122565228Y-102702256D01*
X122568787Y-102705965D01*
X122630256Y-102772738D01*
X122648692Y-102787087D01*
X122660396Y-102797424D01*
X123337595Y-103474623D01*
X123364909Y-103515500D01*
X123374500Y-103563718D01*
X123374500Y-103890374D01*
X123380908Y-103949981D01*
X123431204Y-104084831D01*
X123517453Y-104200046D01*
X123632669Y-104286296D01*
X123650922Y-104293104D01*
X123699511Y-104325735D01*
X123728115Y-104376798D01*
X123730562Y-104435277D01*
X123706323Y-104488549D01*
X123679273Y-104523304D01*
X123614527Y-104606489D01*
X123496170Y-104825193D01*
X123442515Y-104981486D01*
X123415429Y-105060386D01*
X123374500Y-105305665D01*
X123374500Y-105554335D01*
X123415429Y-105799614D01*
X123423600Y-105823416D01*
X123496170Y-106034806D01*
X123496171Y-106034809D01*
X123496172Y-106034810D01*
X123614526Y-106253509D01*
X123767262Y-106449744D01*
X123767264Y-106449746D01*
X123767265Y-106449747D01*
X123945744Y-106614049D01*
X123977787Y-106660947D01*
X123985977Y-106717152D01*
X123968650Y-106771244D01*
X123934967Y-106806350D01*
X123935049Y-106806439D01*
X123933627Y-106807747D01*
X123929327Y-106812230D01*
X123927367Y-106813510D01*
X123749296Y-106977436D01*
X123600626Y-107168446D01*
X123485429Y-107381313D01*
X123406840Y-107610237D01*
X123389192Y-107716000D01*
X125003000Y-107716000D01*
X125066000Y-107732881D01*
X125112119Y-107779000D01*
X125129000Y-107842000D01*
X125129000Y-109418393D01*
X125163720Y-109415515D01*
X125408470Y-109353537D01*
X125408744Y-109354620D01*
X125458422Y-109346330D01*
X125516934Y-109366416D01*
X125558833Y-109411930D01*
X125574020Y-109471900D01*
X125574020Y-110679388D01*
X125573958Y-110683345D01*
X125570312Y-110799341D01*
X125581234Y-110914884D01*
X125581544Y-110918830D01*
X125588831Y-111034657D01*
X125595099Y-111067515D01*
X125596772Y-111079265D01*
X125599922Y-111112582D01*
X125625242Y-111225862D01*
X125626044Y-111229736D01*
X125647789Y-111343723D01*
X125658130Y-111375552D01*
X125661259Y-111386989D01*
X125668557Y-111419637D01*
X125707871Y-111528837D01*
X125709153Y-111532582D01*
X125745016Y-111642960D01*
X125759259Y-111673228D01*
X125763800Y-111684190D01*
X125775135Y-111715674D01*
X125827826Y-111819085D01*
X125829567Y-111822639D01*
X125848245Y-111862331D01*
X125878983Y-111927651D01*
X125896910Y-111955899D01*
X125902785Y-111966199D01*
X125917979Y-111996019D01*
X125983229Y-112092032D01*
X125985387Y-112095318D01*
X126047568Y-112193300D01*
X126047570Y-112193302D01*
X126047573Y-112193307D01*
X126068904Y-112219092D01*
X126076022Y-112228573D01*
X126094827Y-112256244D01*
X126171598Y-112343324D01*
X126174167Y-112346333D01*
X126248128Y-112435736D01*
X126332744Y-112515196D01*
X126335586Y-112517951D01*
X132541567Y-118723932D01*
X132544322Y-118726774D01*
X132623782Y-118811390D01*
X132713202Y-118885365D01*
X132716194Y-118887921D01*
X132783981Y-118947683D01*
X132803271Y-118964689D01*
X132830946Y-118983497D01*
X132840433Y-118990620D01*
X132866213Y-119011947D01*
X132964230Y-119074150D01*
X132967464Y-119076274D01*
X133063501Y-119141541D01*
X133063503Y-119141542D01*
X133093313Y-119156731D01*
X133103614Y-119162606D01*
X133131869Y-119180537D01*
X133236871Y-119229947D01*
X133240425Y-119231688D01*
X133343839Y-119284380D01*
X133343842Y-119284381D01*
X133343844Y-119284382D01*
X133375316Y-119295712D01*
X133386274Y-119300251D01*
X133400303Y-119306852D01*
X133416561Y-119314503D01*
X133526957Y-119350373D01*
X133530678Y-119351647D01*
X133639880Y-119390962D01*
X133672535Y-119398261D01*
X133683977Y-119401392D01*
X133715796Y-119411731D01*
X133755243Y-119419255D01*
X133829825Y-119433482D01*
X133833648Y-119434274D01*
X133946938Y-119459598D01*
X133980250Y-119462746D01*
X133991997Y-119464418D01*
X134024861Y-119470688D01*
X134140705Y-119477975D01*
X134144603Y-119478281D01*
X134260178Y-119489207D01*
X134376175Y-119485562D01*
X134380132Y-119485500D01*
X139619070Y-119485500D01*
X139802176Y-119473979D01*
X139854495Y-119470688D01*
X140163559Y-119411731D01*
X140462795Y-119314503D01*
X140747487Y-119180537D01*
X141013143Y-119011947D01*
X141255574Y-118811390D01*
X141470958Y-118582030D01*
X141655896Y-118327484D01*
X141694372Y-118257495D01*
X141729968Y-118216815D01*
X141779337Y-118194794D01*
X141833390Y-118195487D01*
X141882174Y-118218764D01*
X141916491Y-118245474D01*
X142135190Y-118363828D01*
X142370386Y-118444571D01*
X142615665Y-118485500D01*
X142619601Y-118485500D01*
X142864332Y-118485500D01*
X142864335Y-118485500D01*
X143109614Y-118444571D01*
X143344810Y-118363828D01*
X143563509Y-118245474D01*
X143576110Y-118235666D01*
X143640501Y-118209770D01*
X143708838Y-118221900D01*
X143760385Y-118268377D01*
X143779500Y-118335098D01*
X143779500Y-126796282D01*
X143769909Y-126844500D01*
X143742595Y-126885377D01*
X139956871Y-130671099D01*
X139904916Y-130702406D01*
X139806994Y-130732611D01*
X139652480Y-130807022D01*
X139597811Y-130819500D01*
X134853718Y-130819500D01*
X134805500Y-130809909D01*
X134764623Y-130782595D01*
X125352029Y-121370000D01*
X127634713Y-121370000D01*
X127653837Y-121673967D01*
X127710908Y-121973143D01*
X127805026Y-122262807D01*
X127934706Y-122538390D01*
X128097900Y-122795544D01*
X128292042Y-123030223D01*
X128514065Y-123238715D01*
X128760463Y-123417735D01*
X128760468Y-123417737D01*
X128760467Y-123417737D01*
X129027363Y-123564464D01*
X129310545Y-123676584D01*
X129465423Y-123716350D01*
X129605546Y-123752328D01*
X129907712Y-123790500D01*
X129907715Y-123790500D01*
X130212285Y-123790500D01*
X130212288Y-123790500D01*
X130514453Y-123752328D01*
X130514453Y-123752327D01*
X130809455Y-123676584D01*
X131092637Y-123564464D01*
X131359533Y-123417737D01*
X131605935Y-123238715D01*
X131827957Y-123030223D01*
X132022098Y-122795547D01*
X132185294Y-122538390D01*
X132314974Y-122262807D01*
X132409091Y-121973144D01*
X132466162Y-121673969D01*
X132485286Y-121370000D01*
X132466162Y-121066031D01*
X132409091Y-120766856D01*
X132314974Y-120477193D01*
X132185294Y-120201610D01*
X132022098Y-119944453D01*
X131936343Y-119840793D01*
X131827957Y-119709776D01*
X131605934Y-119501284D01*
X131359536Y-119322264D01*
X131092636Y-119175535D01*
X130893008Y-119096497D01*
X130809455Y-119063416D01*
X130809452Y-119063415D01*
X130809449Y-119063414D01*
X130514453Y-118987671D01*
X130212288Y-118949500D01*
X130212285Y-118949500D01*
X129907715Y-118949500D01*
X129907712Y-118949500D01*
X129605546Y-118987671D01*
X129310550Y-119063414D01*
X129027363Y-119175535D01*
X128760463Y-119322264D01*
X128514065Y-119501284D01*
X128292042Y-119709776D01*
X128097900Y-119944455D01*
X127934706Y-120201609D01*
X127805026Y-120477192D01*
X127710908Y-120766856D01*
X127653837Y-121066032D01*
X127634713Y-121370000D01*
X125352029Y-121370000D01*
X123497130Y-119515101D01*
X123354894Y-119394634D01*
X123281638Y-119350983D01*
X123177468Y-119288910D01*
X123130515Y-119239448D01*
X123116214Y-119172764D01*
X123138756Y-119108396D01*
X123147088Y-119096497D01*
X123243813Y-118889070D01*
X123296082Y-118694000D01*
X120723918Y-118694000D01*
X119970000Y-118694000D01*
X119970000Y-118186000D01*
X120723917Y-118186000D01*
X121756000Y-118186000D01*
X121756000Y-117153917D01*
X122263999Y-117153917D01*
X122264000Y-117153918D01*
X122264000Y-118186000D01*
X123296082Y-118186000D01*
X123243813Y-117990929D01*
X123147087Y-117783501D01*
X123015810Y-117596018D01*
X122853981Y-117434189D01*
X122666498Y-117302912D01*
X122459070Y-117206186D01*
X122263999Y-117153917D01*
X121756000Y-117153917D01*
X121560929Y-117206186D01*
X121353501Y-117302912D01*
X121166018Y-117434189D01*
X121004189Y-117596018D01*
X120872912Y-117783501D01*
X120776186Y-117990929D01*
X120723917Y-118186000D01*
X119970000Y-118186000D01*
X119970000Y-111667874D01*
X120709500Y-111667874D01*
X120715908Y-111727481D01*
X120766204Y-111862331D01*
X120852453Y-111977546D01*
X120938703Y-112042112D01*
X120967669Y-112063796D01*
X121102517Y-112114091D01*
X121162127Y-112120500D01*
X122857872Y-112120499D01*
X122857874Y-112120499D01*
X122887677Y-112117294D01*
X122917483Y-112114091D01*
X123052331Y-112063796D01*
X123167546Y-111977546D01*
X123253796Y-111862331D01*
X123304091Y-111727483D01*
X123310500Y-111667873D01*
X123310499Y-109972128D01*
X123304091Y-109912517D01*
X123253796Y-109777669D01*
X123232112Y-109748702D01*
X123167546Y-109662453D01*
X123052331Y-109576204D01*
X122917483Y-109525909D01*
X122857872Y-109519500D01*
X121162125Y-109519500D01*
X121102518Y-109525908D01*
X120967668Y-109576204D01*
X120852453Y-109662453D01*
X120766204Y-109777668D01*
X120715909Y-109912517D01*
X120709500Y-109972127D01*
X120709500Y-111667874D01*
X119970000Y-111667874D01*
X119970000Y-108224000D01*
X123389192Y-108224000D01*
X123406840Y-108329762D01*
X123485429Y-108558686D01*
X123600626Y-108771553D01*
X123749296Y-108962563D01*
X123927366Y-109126488D01*
X124129996Y-109258872D01*
X124351652Y-109356100D01*
X124586279Y-109415515D01*
X124621000Y-109418393D01*
X124621000Y-108224000D01*
X123389192Y-108224000D01*
X119970000Y-108224000D01*
X119970000Y-89487874D01*
X121699500Y-89487874D01*
X121705908Y-89547481D01*
X121756204Y-89682331D01*
X121842453Y-89797546D01*
X121916540Y-89853007D01*
X121957669Y-89883796D01*
X122092517Y-89934091D01*
X122152127Y-89940500D01*
X123213603Y-89940499D01*
X123279932Y-89959372D01*
X123326393Y-90010336D01*
X123339065Y-90078125D01*
X123314152Y-90142431D01*
X123259119Y-90183990D01*
X123112597Y-90240753D01*
X122923441Y-90357873D01*
X122759018Y-90507765D01*
X122624942Y-90685310D01*
X122525770Y-90884472D01*
X122464886Y-91098459D01*
X122464885Y-91098464D01*
X122444357Y-91320000D01*
X122464885Y-91541536D01*
X122464885Y-91541539D01*
X122464886Y-91541540D01*
X122525770Y-91755527D01*
X122578326Y-91861073D01*
X122624942Y-91954689D01*
X122759019Y-92132236D01*
X122923438Y-92282124D01*
X122923440Y-92282125D01*
X122923441Y-92282126D01*
X123112594Y-92399245D01*
X123112598Y-92399246D01*
X123112599Y-92399247D01*
X123320060Y-92479618D01*
X123538757Y-92520500D01*
X123761241Y-92520500D01*
X123761243Y-92520500D01*
X123979940Y-92479618D01*
X124187401Y-92399247D01*
X124187402Y-92399245D01*
X124187405Y-92399245D01*
X124346118Y-92300974D01*
X124376562Y-92282124D01*
X124540981Y-92132236D01*
X124675058Y-91954689D01*
X124774229Y-91755528D01*
X124835115Y-91541536D01*
X124855643Y-91320000D01*
X124835115Y-91098464D01*
X124774229Y-90884472D01*
X124675058Y-90685311D01*
X124540981Y-90507764D01*
X124376562Y-90357876D01*
X124376559Y-90357874D01*
X124376558Y-90357873D01*
X124187405Y-90240754D01*
X123979937Y-90160381D01*
X123973473Y-90159173D01*
X123914998Y-90131299D01*
X123878100Y-90078056D01*
X123872531Y-90013517D01*
X123899764Y-89954741D01*
X123952598Y-89917263D01*
X124042331Y-89883796D01*
X124157546Y-89797546D01*
X124243796Y-89682331D01*
X124294091Y-89547483D01*
X124300500Y-89487873D01*
X124300499Y-87792128D01*
X124294091Y-87732517D01*
X124243796Y-87597669D01*
X124222112Y-87568702D01*
X124157546Y-87482453D01*
X124042331Y-87396204D01*
X124042330Y-87396203D01*
X123907483Y-87345909D01*
X123847872Y-87339500D01*
X122152125Y-87339500D01*
X122092518Y-87345908D01*
X121957668Y-87396204D01*
X121842453Y-87482453D01*
X121756204Y-87597668D01*
X121705909Y-87732517D01*
X121699500Y-87792127D01*
X121699500Y-89487874D01*
X119970000Y-89487874D01*
X119970000Y-81274000D01*
X121713918Y-81274000D01*
X121766186Y-81469070D01*
X121862912Y-81676498D01*
X121994189Y-81863981D01*
X122156018Y-82025810D01*
X122343501Y-82157087D01*
X122550929Y-82253813D01*
X122746000Y-82306082D01*
X122746000Y-81274000D01*
X123254000Y-81274000D01*
X123254000Y-82306082D01*
X123449070Y-82253813D01*
X123656498Y-82157087D01*
X123843981Y-82025810D01*
X124005810Y-81863981D01*
X124137087Y-81676498D01*
X124233813Y-81469070D01*
X124286082Y-81274000D01*
X123254000Y-81274000D01*
X122746000Y-81274000D01*
X121713918Y-81274000D01*
X119970000Y-81274000D01*
X119970000Y-80766000D01*
X121713917Y-80766000D01*
X124286082Y-80766000D01*
X124233813Y-80570929D01*
X124137087Y-80363501D01*
X124005810Y-80176018D01*
X123838511Y-80008719D01*
X123805412Y-79950357D01*
X123806961Y-79883280D01*
X123842718Y-79826511D01*
X124000981Y-79682236D01*
X124135058Y-79504689D01*
X124234229Y-79305528D01*
X124295115Y-79091536D01*
X124315643Y-78870000D01*
X124295115Y-78648464D01*
X124234229Y-78434472D01*
X124135058Y-78235311D01*
X124000981Y-78057764D01*
X123836562Y-77907876D01*
X123836559Y-77907874D01*
X123836558Y-77907873D01*
X123647405Y-77790754D01*
X123439940Y-77710382D01*
X123221243Y-77669500D01*
X122998757Y-77669500D01*
X122852958Y-77696754D01*
X122780059Y-77710382D01*
X122572594Y-77790754D01*
X122383441Y-77907873D01*
X122219018Y-78057765D01*
X122084942Y-78235310D01*
X121985770Y-78434472D01*
X121924886Y-78648459D01*
X121924885Y-78648464D01*
X121904357Y-78870000D01*
X121924885Y-79091536D01*
X121924885Y-79091539D01*
X121924886Y-79091540D01*
X121985770Y-79305527D01*
X122084942Y-79504689D01*
X122219019Y-79682236D01*
X122281274Y-79738989D01*
X122313225Y-79784934D01*
X122322129Y-79840183D01*
X122306228Y-79893839D01*
X122268659Y-79935317D01*
X122156018Y-80014189D01*
X121994189Y-80176018D01*
X121862912Y-80363501D01*
X121766186Y-80570929D01*
X121713917Y-80766000D01*
X119970000Y-80766000D01*
X119970000Y-71504000D01*
X121927446Y-71504000D01*
X121970515Y-71664738D01*
X122059845Y-71856307D01*
X122181086Y-72029456D01*
X122330543Y-72178913D01*
X122503692Y-72300154D01*
X122695261Y-72389484D01*
X122856000Y-72432554D01*
X122856000Y-71504000D01*
X123364000Y-71504000D01*
X123364000Y-72432554D01*
X123524738Y-72389484D01*
X123716307Y-72300154D01*
X123889456Y-72178913D01*
X124038913Y-72029456D01*
X124160154Y-71856307D01*
X124249484Y-71664738D01*
X124292554Y-71504000D01*
X123364000Y-71504000D01*
X122856000Y-71504000D01*
X121927446Y-71504000D01*
X119970000Y-71504000D01*
X119970000Y-70996000D01*
X121927445Y-70996000D01*
X122856000Y-70996000D01*
X122856000Y-70067445D01*
X123363999Y-70067445D01*
X123364000Y-70067446D01*
X123364000Y-70996000D01*
X124292554Y-70996000D01*
X124249484Y-70835261D01*
X124160154Y-70643692D01*
X124038913Y-70470543D01*
X123889456Y-70321086D01*
X123716307Y-70199845D01*
X123524738Y-70110515D01*
X123363999Y-70067445D01*
X122856000Y-70067445D01*
X122695261Y-70110515D01*
X122503692Y-70199845D01*
X122330543Y-70321086D01*
X122181086Y-70470543D01*
X122059845Y-70643692D01*
X121970515Y-70835261D01*
X121927445Y-70996000D01*
X119970000Y-70996000D01*
X119970000Y-66990000D01*
X120744732Y-66990000D01*
X120763778Y-67244157D01*
X120820492Y-67492637D01*
X120913607Y-67729888D01*
X121041041Y-67950612D01*
X121199950Y-68149877D01*
X121386783Y-68323232D01*
X121597366Y-68466805D01*
X121682645Y-68507873D01*
X121826995Y-68577389D01*
X121896901Y-68598951D01*
X122070542Y-68652513D01*
X122322565Y-68690500D01*
X122577433Y-68690500D01*
X122577435Y-68690500D01*
X122829458Y-68652513D01*
X123073004Y-68577389D01*
X123302634Y-68466805D01*
X123513217Y-68323232D01*
X123700050Y-68149877D01*
X123858959Y-67950612D01*
X123986393Y-67729888D01*
X124079508Y-67492637D01*
X124136222Y-67244157D01*
X124155268Y-66990000D01*
X141064732Y-66990000D01*
X141083778Y-67244157D01*
X141140492Y-67492637D01*
X141233607Y-67729888D01*
X141361041Y-67950612D01*
X141519950Y-68149877D01*
X141706783Y-68323232D01*
X141917366Y-68466805D01*
X142002645Y-68507873D01*
X142146995Y-68577389D01*
X142216901Y-68598951D01*
X142390542Y-68652513D01*
X142642565Y-68690500D01*
X142897433Y-68690500D01*
X142897435Y-68690500D01*
X143149458Y-68652513D01*
X143393004Y-68577389D01*
X143622634Y-68466805D01*
X143833217Y-68323232D01*
X144020050Y-68149877D01*
X144178959Y-67950612D01*
X144306393Y-67729888D01*
X144320637Y-67693594D01*
X144355023Y-67644744D01*
X144408051Y-67617223D01*
X144467796Y-67617222D01*
X144520824Y-67644742D01*
X144555215Y-67693596D01*
X144633610Y-67893339D01*
X144653257Y-67943398D01*
X144788185Y-68177102D01*
X144956439Y-68388085D01*
X145041278Y-68466804D01*
X145154258Y-68571635D01*
X145272885Y-68652513D01*
X145377226Y-68723651D01*
X145503270Y-68784351D01*
X145620358Y-68840738D01*
X145677868Y-68858477D01*
X145878228Y-68920280D01*
X146145071Y-68960500D01*
X146414927Y-68960500D01*
X146414929Y-68960500D01*
X146681772Y-68920280D01*
X146939641Y-68840738D01*
X147182775Y-68723651D01*
X147405741Y-68571635D01*
X147474459Y-68507874D01*
X157179500Y-68507874D01*
X157185908Y-68567481D01*
X157236204Y-68702331D01*
X157322453Y-68817546D01*
X157353434Y-68840738D01*
X157437669Y-68903796D01*
X157572517Y-68954091D01*
X157632127Y-68960500D01*
X160327872Y-68960499D01*
X160327874Y-68960499D01*
X160357677Y-68957295D01*
X160387483Y-68954091D01*
X160522331Y-68903796D01*
X160637546Y-68817546D01*
X160723796Y-68702331D01*
X160774091Y-68567483D01*
X160780500Y-68507873D01*
X160780499Y-65812128D01*
X160774091Y-65752517D01*
X160723796Y-65617669D01*
X160645587Y-65513195D01*
X160637546Y-65502453D01*
X160522331Y-65416204D01*
X160485886Y-65402611D01*
X160387483Y-65365909D01*
X160327872Y-65359500D01*
X157632125Y-65359500D01*
X157572518Y-65365908D01*
X157437668Y-65416204D01*
X157322453Y-65502453D01*
X157236204Y-65617668D01*
X157185909Y-65752517D01*
X157179500Y-65812127D01*
X157179500Y-68507874D01*
X147474459Y-68507874D01*
X147603561Y-68388085D01*
X147771815Y-68177102D01*
X147906743Y-67943398D01*
X148005334Y-67692195D01*
X148065383Y-67429103D01*
X148085549Y-67160000D01*
X148065383Y-66890897D01*
X148005334Y-66627805D01*
X147906743Y-66376602D01*
X147771815Y-66142898D01*
X147603561Y-65931915D01*
X147405741Y-65748365D01*
X147271387Y-65656764D01*
X147182775Y-65596349D01*
X146939641Y-65479261D01*
X146735212Y-65416204D01*
X146681772Y-65399720D01*
X146414929Y-65359500D01*
X146145071Y-65359500D01*
X145878228Y-65399720D01*
X145878224Y-65399721D01*
X145878225Y-65399721D01*
X145620358Y-65479261D01*
X145377225Y-65596349D01*
X145154258Y-65748364D01*
X144956442Y-65931912D01*
X144956439Y-65931915D01*
X144788185Y-66142898D01*
X144788183Y-66142901D01*
X144653258Y-66376599D01*
X144621937Y-66456403D01*
X144587547Y-66505257D01*
X144534519Y-66532777D01*
X144474775Y-66532777D01*
X144421747Y-66505256D01*
X144387357Y-66456403D01*
X144306391Y-66250108D01*
X144244493Y-66142898D01*
X144178959Y-66029388D01*
X144020050Y-65830123D01*
X143833217Y-65656768D01*
X143833214Y-65656766D01*
X143833212Y-65656764D01*
X143622634Y-65513195D01*
X143393004Y-65402610D01*
X143149461Y-65327488D01*
X143149458Y-65327487D01*
X142897435Y-65289500D01*
X142642565Y-65289500D01*
X142390542Y-65327487D01*
X142390539Y-65327487D01*
X142390538Y-65327488D01*
X142146995Y-65402610D01*
X141917365Y-65513195D01*
X141706787Y-65656764D01*
X141706781Y-65656768D01*
X141706783Y-65656768D01*
X141519950Y-65830123D01*
X141361041Y-66029388D01*
X141361039Y-66029391D01*
X141233607Y-66250111D01*
X141140492Y-66487362D01*
X141108437Y-66627806D01*
X141083778Y-66735843D01*
X141064732Y-66990000D01*
X124155268Y-66990000D01*
X124136222Y-66735843D01*
X124079508Y-66487363D01*
X123986393Y-66250112D01*
X123858959Y-66029388D01*
X123700050Y-65830123D01*
X123513217Y-65656768D01*
X123513214Y-65656766D01*
X123513212Y-65656764D01*
X123302634Y-65513195D01*
X123073004Y-65402610D01*
X122829461Y-65327488D01*
X122829458Y-65327487D01*
X122577435Y-65289500D01*
X122322565Y-65289500D01*
X122070542Y-65327487D01*
X122070539Y-65327487D01*
X122070538Y-65327488D01*
X121826995Y-65402610D01*
X121597365Y-65513195D01*
X121386787Y-65656764D01*
X121386781Y-65656768D01*
X121386783Y-65656768D01*
X121199950Y-65830123D01*
X121041041Y-66029388D01*
X121041039Y-66029391D01*
X120913607Y-66250111D01*
X120820492Y-66487362D01*
X120788437Y-66627806D01*
X120763778Y-66735843D01*
X120744732Y-66990000D01*
X119970000Y-66990000D01*
X119970000Y-63606000D01*
X119986881Y-63543000D01*
X120033000Y-63496881D01*
X120096000Y-63480000D01*
X161754000Y-63480000D01*
X161817000Y-63496881D01*
G37*
G04 #@! TD.AperFunction*
M02*
