G04*
G04 #@! TF.GenerationSoftware,Altium Limited,Altium Designer,23.10.1 (27)*
G04*
G04 Layer_Color=32896*
%FSLAX25Y25*%
%MOIN*%
G70*
G04*
G04 #@! TF.SameCoordinates,29CFA998-7EC6-4FDD-B126-FBB6EF8C8D2F*
G04*
G04*
G04 #@! TF.FilePolarity,Positive*
G04*
G01*
G75*
%ADD10C,0.02000*%
%ADD13C,0.00787*%
%ADD16C,0.01000*%
D10*
X205745Y279500D02*
X205394Y280464D01*
X204506Y280977D01*
X203495Y280799D01*
X202836Y280013D01*
Y278987D01*
X203495Y278201D01*
X204506Y278023D01*
X205394Y278536D01*
X205745Y279500D01*
X113755Y52500D02*
X113404Y53464D01*
X112515Y53977D01*
X111505Y53799D01*
X110845Y53013D01*
Y51987D01*
X111505Y51201D01*
X112515Y51023D01*
X113404Y51536D01*
X113755Y52500D01*
X204755Y51500D02*
X204404Y52464D01*
X203515Y52977D01*
X202505Y52799D01*
X201845Y52013D01*
Y50987D01*
X202505Y50201D01*
X203515Y50023D01*
X204404Y50536D01*
X204755Y51500D01*
D13*
X94964Y121567D02*
X106036D01*
X94964Y114433D02*
X106036D01*
X79433Y116964D02*
Y128036D01*
X86567Y116964D02*
Y128036D01*
X94567Y137464D02*
Y148536D01*
X87433Y137464D02*
Y148536D01*
X100933Y136964D02*
Y148036D01*
X108067Y136964D02*
Y148036D01*
D16*
X107101Y158398D02*
X108101Y159398D01*
X110100D01*
X111100Y158398D01*
Y154400D01*
X110100Y153400D01*
X108101D01*
X107101Y154400D01*
X101103Y159398D02*
X103103Y158398D01*
X105102Y156399D01*
Y154400D01*
X104102Y153400D01*
X102103D01*
X101103Y154400D01*
Y155399D01*
X102103Y156399D01*
X105102D01*
X98500Y128999D02*
X99499Y129999D01*
X101499D01*
X102498Y128999D01*
Y125001D01*
X101499Y124001D01*
X99499D01*
X98500Y125001D01*
X92502Y129999D02*
X96500D01*
Y127000D01*
X94501Y128000D01*
X93501D01*
X92502Y127000D01*
Y125001D01*
X93501Y124001D01*
X95501D01*
X96500Y125001D01*
X93601Y158898D02*
X94601Y159898D01*
X96600D01*
X97600Y158898D01*
Y154900D01*
X96600Y153900D01*
X94601D01*
X93601Y154900D01*
X88603Y153900D02*
Y159898D01*
X91602Y156899D01*
X87603D01*
X80500Y137999D02*
X81499Y138999D01*
X83499D01*
X84498Y137999D01*
Y134001D01*
X83499Y133001D01*
X81499D01*
X80500Y134001D01*
X78500Y137999D02*
X77501Y138999D01*
X75501D01*
X74502Y137999D01*
Y137000D01*
X75501Y136000D01*
X76501D01*
X75501D01*
X74502Y135000D01*
Y134001D01*
X75501Y133001D01*
X77501D01*
X78500Y134001D01*
M02*
