M48
;Layer_Color=9474304
;FILE_FORMAT=2:4
INCH,TZ
;TYPE=PLATED
T02F00S00C0.0276
T03F00S00C0.0280
T04F00S00C0.0315
T05F00S00C0.0335
T06F00S00C0.0354
T07F00S00C0.0402
T08F00S00C0.0690
;TYPE=NON_PLATED
T09F00S00C0.1260
%
T02
X10505Y2130
X11095
X2050Y17200
X1263
Y17988
Y18775
Y19563
Y20350
Y21137
X2050
Y20350
Y19563
Y18775
Y17988
Y21925
X1263
X1777Y24409
Y25000
Y25591
X7655Y31020
X8245
X9855Y31070
X10445
X12105
X12695
T03
X850Y650
X3350Y2100
X3850Y4500
X6800Y5600
X6350Y1850
X6750Y6950
X6500Y10350
X8600Y9350
X9600Y9950
X10550Y9850
X12350Y8850
X12600Y13100
X12700Y13850
X11550Y15150
X11750Y16400
X10500Y13100
X9150Y13122
X8950Y12050
X8350Y14300
X7250Y15550
X6450Y15500
Y16550
X6916Y17216
X5720Y17715
X8000Y17850
X15650Y12900
X17150Y12650
X19800Y18900
X4800Y10650
T04
X14700Y7200
X17700
T05
X2213Y3522
Y5491
T06
X7900Y20250
X10300Y20200
Y21200
X13300
Y20200
X15600Y20250
X18600
X4900
X1950Y15121
Y14137
Y13153
Y12169
Y11184
Y10200
X4900Y21250
Y22250
Y23250
X7900
Y22250
Y21250
X10300Y22200
Y23200
X13300
Y22200
X15600Y22250
Y21250
Y23250
X18600
Y22250
Y21250
T07
X16400Y4450
X17400
X18400
X19400
T08
X12741Y5250
X14300
X21841Y5150
X23400
X18909Y27950
X17350
T09
X5453Y2701
X26563
X5453Y30642
X22382
M30
