G04*
G04 #@! TF.GenerationSoftware,Altium Limited,Altium Designer,23.10.1 (27)*
G04*
G04 Layer_Color=65535*
%FSLAX25Y25*%
%MOIN*%
G70*
G04*
G04 #@! TF.SameCoordinates,29CFA998-7EC6-4FDD-B126-FBB6EF8C8D2F*
G04*
G04*
G04 #@! TF.FilePolarity,Positive*
G04*
G01*
G75*
%ADD10C,0.02000*%
%ADD11C,0.00984*%
%ADD12C,0.02362*%
%ADD13C,0.00787*%
%ADD14C,0.00600*%
%ADD15C,0.01575*%
%ADD16C,0.01000*%
%ADD17C,0.00394*%
%ADD18C,0.01968*%
G36*
X71735Y294053D02*
X60219D01*
Y296521D01*
X71735D01*
Y294053D01*
D02*
G37*
G36*
X70501Y287677D02*
X60219D01*
Y290145D01*
X70501D01*
Y287677D01*
D02*
G37*
G36*
X56722Y296109D02*
X56517D01*
Y295698D01*
X56311D01*
Y295081D01*
X56105D01*
Y294670D01*
X55900D01*
Y294053D01*
X55694D01*
Y293641D01*
X55488D01*
Y293230D01*
X55283D01*
Y292613D01*
X55077D01*
Y292202D01*
X54871D01*
Y291585D01*
X54666D01*
Y291174D01*
X54460D01*
Y290557D01*
X54255D01*
Y290145D01*
X54049D01*
Y289528D01*
X53843D01*
Y289117D01*
X53637D01*
Y288500D01*
X53432D01*
Y288089D01*
X53226D01*
Y287472D01*
X53021D01*
Y287060D01*
X52815D01*
Y286649D01*
X52609D01*
Y286032D01*
X52404D01*
Y285621D01*
X52198D01*
Y285004D01*
X51992D01*
Y284798D01*
X51787D01*
Y285415D01*
X51581D01*
Y285826D01*
X51375D01*
Y286443D01*
X51170D01*
Y286855D01*
X50964D01*
Y287472D01*
X50758D01*
Y288089D01*
X50553D01*
Y288500D01*
X50758D01*
Y289117D01*
X50964D01*
Y289528D01*
X51170D01*
Y289940D01*
X51375D01*
Y290557D01*
X51581D01*
Y290968D01*
X51787D01*
Y291585D01*
X51992D01*
Y291996D01*
X52198D01*
Y292613D01*
X52404D01*
Y293024D01*
X52609D01*
Y293436D01*
X52815D01*
Y294053D01*
X53021D01*
Y294464D01*
X53226D01*
Y295081D01*
X53432D01*
Y295492D01*
X53637D01*
Y296109D01*
X53843D01*
Y296521D01*
X56722D01*
Y296109D01*
D02*
G37*
G36*
X71735Y281096D02*
X60219D01*
Y283564D01*
X71735D01*
Y281096D01*
D02*
G37*
G36*
X45000Y295904D02*
X45206D01*
Y295492D01*
X45411D01*
Y294875D01*
X45617D01*
Y294258D01*
X45823D01*
Y293847D01*
X46028D01*
Y293230D01*
X46234D01*
Y292613D01*
X46440D01*
Y292202D01*
X46645D01*
Y291585D01*
X46851D01*
Y291174D01*
X47056D01*
Y290557D01*
X47262D01*
Y289940D01*
X47468D01*
Y289528D01*
X47673D01*
Y288911D01*
X47879D01*
Y288294D01*
X48085D01*
Y287677D01*
X48291D01*
Y287472D01*
Y287060D01*
X48496D01*
Y286649D01*
X48702D01*
Y286032D01*
X48908D01*
Y285415D01*
X49113D01*
Y284798D01*
X49319D01*
Y284181D01*
X49524D01*
Y283770D01*
X49730D01*
Y283153D01*
X49936D01*
Y282536D01*
X50141D01*
Y281919D01*
X50347D01*
Y281302D01*
X50553D01*
Y281096D01*
X47468D01*
Y281713D01*
X47262D01*
Y282330D01*
X47056D01*
Y282742D01*
X46851D01*
Y283359D01*
X46645D01*
Y283976D01*
X46440D01*
Y284593D01*
X46234D01*
Y285004D01*
X46028D01*
Y285621D01*
X45823D01*
Y286238D01*
X45617D01*
Y286649D01*
X45411D01*
Y287266D01*
X45206D01*
Y287883D01*
X45000D01*
Y288500D01*
X44794D01*
Y288911D01*
X44589D01*
Y289528D01*
X44383D01*
Y290145D01*
X44177D01*
Y290762D01*
X43972D01*
Y291379D01*
X43766D01*
Y291791D01*
X43560D01*
Y292407D01*
X43355D01*
Y293024D01*
X43149D01*
Y293641D01*
X42943D01*
Y294053D01*
X42738D01*
Y294670D01*
X42532D01*
Y295287D01*
X42327D01*
Y295904D01*
X42121D01*
Y296315D01*
X41915D01*
Y296521D01*
X45000D01*
Y295904D01*
D02*
G37*
G36*
X39242Y295287D02*
Y295081D01*
Y281096D01*
X36568D01*
Y287677D01*
X31838D01*
Y290145D01*
X36568D01*
Y296521D01*
X39242D01*
Y295287D01*
D02*
G37*
G36*
X29164Y281096D02*
X26491D01*
Y291585D01*
Y291791D01*
Y296521D01*
X29164D01*
Y281096D01*
D02*
G37*
G36*
X77082Y278834D02*
X77494D01*
Y278628D01*
X77699D01*
Y278217D01*
X77082D01*
Y278423D01*
X76671D01*
Y278628D01*
X76465D01*
Y278423D01*
X76054D01*
Y278217D01*
X75848D01*
Y277806D01*
X75643D01*
Y277600D01*
X75848D01*
Y276983D01*
X76054D01*
Y276778D01*
X77082D01*
Y276983D01*
X77288D01*
Y277395D01*
X76671D01*
Y277806D01*
X77905D01*
Y276161D01*
X77494D01*
Y276572D01*
X77288D01*
Y276366D01*
X76877D01*
Y276161D01*
X76054D01*
Y276366D01*
X75643D01*
Y276572D01*
X75437D01*
Y276983D01*
X75231D01*
Y278217D01*
X75437D01*
Y278628D01*
X75643D01*
Y278834D01*
X76054D01*
Y279040D01*
X77082D01*
Y278834D01*
D02*
G37*
G36*
X58162D02*
X58368D01*
Y278628D01*
X58573D01*
Y278217D01*
X58162D01*
Y278423D01*
X57751D01*
Y278628D01*
X57339D01*
Y278423D01*
X56928D01*
Y278217D01*
X56722D01*
Y277189D01*
X56928D01*
Y276778D01*
X58162D01*
Y277395D01*
X57545D01*
Y277806D01*
X58779D01*
Y276161D01*
X58368D01*
Y276366D01*
X57956D01*
Y276161D01*
X57134D01*
Y276366D01*
X56722D01*
Y276572D01*
X56517D01*
Y276778D01*
X56311D01*
Y277189D01*
X56105D01*
Y278012D01*
X56311D01*
Y278423D01*
X56517D01*
Y278628D01*
X56722D01*
Y278834D01*
X56928D01*
Y279040D01*
X58162D01*
Y278834D01*
D02*
G37*
G36*
X46234D02*
X46645D01*
Y278628D01*
X46851D01*
Y278217D01*
X46440D01*
Y278423D01*
X46028D01*
Y278628D01*
X45617D01*
Y278423D01*
X45206D01*
Y278217D01*
X45000D01*
Y277189D01*
X45206D01*
Y276778D01*
X46440D01*
Y277395D01*
X45823D01*
Y277806D01*
X47056D01*
Y276161D01*
X46645D01*
Y276572D01*
X46440D01*
Y276366D01*
X46234D01*
Y276161D01*
X45411D01*
Y276366D01*
X45000D01*
Y276572D01*
X44794D01*
Y276778D01*
X44589D01*
Y276983D01*
X44383D01*
Y278217D01*
X44589D01*
Y278628D01*
X44794D01*
Y278834D01*
X45206D01*
Y279040D01*
X46234D01*
Y278834D01*
D02*
G37*
G36*
X26491D02*
X26697D01*
Y278628D01*
X26902D01*
Y278217D01*
X26491D01*
Y278423D01*
X26080D01*
Y278628D01*
X25668D01*
Y278423D01*
X25257D01*
Y278217D01*
X25051D01*
Y277189D01*
X25257D01*
Y276778D01*
X26491D01*
Y277395D01*
X25874D01*
Y277806D01*
X27108D01*
Y277395D01*
Y277189D01*
Y276161D01*
X26697D01*
Y276366D01*
X26285D01*
Y276161D01*
X25463D01*
Y276366D01*
X25051D01*
Y276572D01*
X24846D01*
Y276778D01*
X24640D01*
Y277189D01*
X24434D01*
Y278012D01*
X24640D01*
Y278423D01*
X24846D01*
Y278628D01*
X25051D01*
Y278834D01*
X25257D01*
Y279040D01*
X26491D01*
Y278834D01*
D02*
G37*
G36*
X29987Y276161D02*
X29576D01*
Y277395D01*
X28342D01*
Y276161D01*
X27725D01*
Y279040D01*
X28342D01*
Y277806D01*
X29576D01*
Y279040D01*
X29987D01*
Y276161D01*
D02*
G37*
G36*
X22583D02*
X22172D01*
Y277395D01*
X20938D01*
Y276161D01*
X20321D01*
Y279040D01*
X20938D01*
Y278012D01*
Y277806D01*
X21967D01*
Y278012D01*
X22172D01*
Y279040D01*
X22583D01*
Y276161D01*
D02*
G37*
G36*
X74614D02*
X73997D01*
Y276366D01*
X73792D01*
Y276778D01*
X73586D01*
Y276983D01*
X73381D01*
Y277395D01*
X73175D01*
Y277806D01*
X72969D01*
Y278012D01*
X72764D01*
Y276161D01*
X72146D01*
Y279040D01*
X72764D01*
Y278834D01*
X72969D01*
Y278628D01*
X73175D01*
Y278217D01*
X73381D01*
Y278012D01*
X73586D01*
Y277600D01*
X73792D01*
Y277189D01*
X73997D01*
Y279040D01*
X74614D01*
Y276161D01*
D02*
G37*
G36*
X63098D02*
X62481D01*
Y276572D01*
X62275D01*
Y276778D01*
X62069D01*
Y277189D01*
X61864D01*
Y277600D01*
X61658D01*
Y277806D01*
X61452D01*
Y278012D01*
X61247D01*
Y276161D01*
X60835D01*
Y277806D01*
Y278012D01*
Y279040D01*
X61452D01*
Y278834D01*
X61658D01*
Y278423D01*
X61864D01*
Y278012D01*
X62069D01*
Y277806D01*
X62275D01*
Y277395D01*
X62481D01*
Y277189D01*
X62686D01*
Y279040D01*
X63098D01*
Y276161D01*
D02*
G37*
G36*
X55488D02*
X54871D01*
Y276572D01*
X54666D01*
Y276778D01*
X54460D01*
Y277189D01*
X54255D01*
Y277600D01*
X54049D01*
Y277806D01*
X53843D01*
Y278012D01*
X53637D01*
Y276161D01*
X53226D01*
Y279040D01*
X53843D01*
Y278834D01*
X54049D01*
Y278423D01*
X54255D01*
Y278012D01*
X54460D01*
Y277806D01*
X54666D01*
Y277395D01*
X54871D01*
Y277189D01*
X55077D01*
Y277600D01*
Y277806D01*
Y279040D01*
X55488D01*
Y276161D01*
D02*
G37*
G36*
X34100Y278423D02*
X33895D01*
Y277806D01*
X33689D01*
Y277395D01*
X33483D01*
Y276778D01*
X33278D01*
Y276366D01*
X33072D01*
Y276161D01*
X32661D01*
Y276366D01*
X32455D01*
Y276778D01*
X32249D01*
Y277395D01*
X32044D01*
Y278012D01*
X31838D01*
Y278423D01*
X31632D01*
Y279040D01*
X32044D01*
Y278834D01*
X32249D01*
Y278423D01*
X32455D01*
Y277806D01*
X32661D01*
Y277189D01*
X33072D01*
Y277806D01*
X33278D01*
Y278423D01*
X33483D01*
Y278834D01*
X33689D01*
Y279040D01*
X34100D01*
Y278423D01*
D02*
G37*
G36*
X289467Y303558D02*
X289182D01*
Y302989D01*
X288898D01*
Y302420D01*
X288613D01*
Y301567D01*
X288329D01*
Y300998D01*
X288044D01*
Y300429D01*
X287760D01*
Y299576D01*
X287476D01*
Y299007D01*
X250782D01*
Y298722D01*
X249929D01*
Y298438D01*
X249076D01*
Y298153D01*
X248507D01*
Y297869D01*
X247938D01*
Y297585D01*
X247653D01*
Y297300D01*
X247369D01*
Y297016D01*
X247084D01*
Y296731D01*
X246800D01*
Y296447D01*
X246515D01*
Y296162D01*
X246231D01*
Y295878D01*
X245947D01*
Y295593D01*
X245662D01*
Y295024D01*
X245378D01*
Y294456D01*
X245093D01*
Y293602D01*
X244809D01*
Y292749D01*
X244524D01*
Y289904D01*
X244809D01*
Y289051D01*
X245093D01*
Y288198D01*
X245378D01*
Y287629D01*
X245662D01*
Y287345D01*
X245947D01*
Y286776D01*
X246231D01*
Y286491D01*
X246515D01*
Y286207D01*
X246800D01*
Y285922D01*
X247084D01*
Y285638D01*
X247369D01*
Y285353D01*
X247653D01*
Y285069D01*
X247938D01*
Y284785D01*
X248222D01*
Y284500D01*
X248507D01*
Y284216D01*
X248791D01*
Y283931D01*
X249076D01*
Y283647D01*
X249360D01*
Y283362D01*
X249644D01*
Y283078D01*
X249929D01*
Y282793D01*
X250213D01*
Y282509D01*
X250498D01*
Y282224D01*
X250782D01*
Y281940D01*
X251067D01*
Y281656D01*
X251636D01*
Y281371D01*
X251920D01*
Y281087D01*
X252204D01*
Y280802D01*
X252489D01*
Y280518D01*
X252773D01*
Y280233D01*
X253058D01*
Y279949D01*
X253342D01*
Y279664D01*
X253627D01*
Y279380D01*
X253911D01*
Y278811D01*
X254196D01*
Y277104D01*
X253911D01*
Y276820D01*
X253342D01*
Y276536D01*
X235707D01*
Y276820D01*
X235991D01*
Y277673D01*
X236276D01*
Y278242D01*
X236560D01*
Y278811D01*
X236844D01*
Y279664D01*
X237129D01*
Y280233D01*
X237413D01*
Y280802D01*
X237698D01*
Y281656D01*
X237982D01*
Y282224D01*
X238267D01*
Y282793D01*
X238551D01*
Y283647D01*
X238836D01*
Y284216D01*
X239120D01*
Y284785D01*
X239404D01*
Y285638D01*
X239689D01*
Y286207D01*
X239973D01*
Y286776D01*
X240258D01*
Y287629D01*
X240542D01*
Y288198D01*
X240827D01*
Y288767D01*
X241111D01*
Y289620D01*
X241396D01*
Y290189D01*
X241680D01*
Y290758D01*
X241964D01*
Y291611D01*
X242249D01*
Y292180D01*
X242533D01*
Y292749D01*
X242818D01*
Y293602D01*
X243102D01*
Y294171D01*
X243387D01*
Y294740D01*
X243671D01*
Y295593D01*
X243955D01*
Y296162D01*
X244240D01*
Y296731D01*
X244524D01*
Y297585D01*
X244809D01*
Y298153D01*
X245093D01*
Y298722D01*
X245378D01*
Y299576D01*
X245662D01*
Y300145D01*
X245947D01*
Y300713D01*
X246231D01*
Y301282D01*
X246515D01*
Y302136D01*
X246800D01*
Y302704D01*
X247084D01*
Y303273D01*
X247369D01*
Y303842D01*
X289467D01*
Y303558D01*
D02*
G37*
G36*
X71530Y276161D02*
X70913D01*
Y279040D01*
X71530D01*
Y276161D01*
D02*
G37*
G36*
X69679Y278834D02*
X70090D01*
Y277600D01*
X69679D01*
Y277395D01*
Y277189D01*
X69884D01*
Y276983D01*
X70090D01*
Y276572D01*
X70296D01*
Y276161D01*
X69884D01*
Y276366D01*
X69679D01*
Y276572D01*
X69473D01*
Y276983D01*
X69267D01*
Y277395D01*
X68856D01*
Y276161D01*
X68445D01*
Y279040D01*
X69679D01*
Y278834D01*
D02*
G37*
G36*
X67622Y278423D02*
X66594D01*
Y278012D01*
X66799D01*
Y277806D01*
X67622D01*
Y277395D01*
X66799D01*
Y277189D01*
X66594D01*
Y276778D01*
X67622D01*
Y276161D01*
X66183D01*
Y279040D01*
X67622D01*
Y278423D01*
D02*
G37*
G36*
X65566D02*
X64537D01*
Y277806D01*
X65360D01*
Y277395D01*
X64537D01*
Y276778D01*
X65566D01*
Y276161D01*
X63920D01*
Y279040D01*
X65566D01*
Y278423D01*
D02*
G37*
G36*
X60013Y277395D02*
Y277189D01*
Y276161D01*
X59396D01*
Y279040D01*
X60013D01*
Y277395D01*
D02*
G37*
G36*
X52609Y278423D02*
X51581D01*
Y277806D01*
X52404D01*
Y277395D01*
X51581D01*
Y276778D01*
X52609D01*
Y276161D01*
X50964D01*
Y279040D01*
X52609D01*
Y278423D01*
D02*
G37*
G36*
X49319D02*
X48291D01*
Y277806D01*
X49113D01*
Y277395D01*
X48291D01*
Y276778D01*
X49319D01*
Y276161D01*
X47673D01*
Y276366D01*
Y276572D01*
Y279040D01*
X49319D01*
Y278423D01*
D02*
G37*
G36*
X43149Y278834D02*
Y278628D01*
X43355D01*
Y278217D01*
X43560D01*
Y277600D01*
X43766D01*
Y276983D01*
X43972D01*
Y276366D01*
X44177D01*
Y276161D01*
X43560D01*
Y276572D01*
X43355D01*
Y276778D01*
X42121D01*
Y276366D01*
X41915D01*
Y276161D01*
X41504D01*
Y276778D01*
X41710D01*
Y277189D01*
X41915D01*
Y277806D01*
X42121D01*
Y278423D01*
X42327D01*
Y278834D01*
X42532D01*
Y279040D01*
X43149D01*
Y278834D01*
D02*
G37*
G36*
X41298D02*
Y278628D01*
Y278423D01*
X40681D01*
Y276161D01*
X40064D01*
Y278423D01*
X39447D01*
Y279040D01*
X41298D01*
Y278834D01*
D02*
G37*
G36*
X38419Y278012D02*
Y277806D01*
Y276778D01*
X39242D01*
Y276161D01*
X37802D01*
Y279040D01*
X38419D01*
Y278012D01*
D02*
G37*
G36*
X36362Y278834D02*
X36774D01*
Y278628D01*
X36979D01*
Y278423D01*
X37185D01*
Y276983D01*
X36979D01*
Y276572D01*
X36774D01*
Y276366D01*
X36362D01*
Y276161D01*
X35334D01*
Y276366D01*
X34923D01*
Y276572D01*
X34717D01*
Y276983D01*
X34512D01*
Y278217D01*
X34717D01*
Y278628D01*
X34923D01*
Y278834D01*
X35334D01*
Y279040D01*
X36362D01*
Y278834D01*
D02*
G37*
G36*
X23818Y276161D02*
X23406D01*
Y278628D01*
Y278834D01*
Y279040D01*
X23818D01*
Y276161D01*
D02*
G37*
G36*
X285200Y272269D02*
X285484D01*
Y271700D01*
X285200D01*
Y271416D01*
X284631D01*
Y270847D01*
X284915D01*
Y270278D01*
X285200D01*
Y269993D01*
X284631D01*
Y270562D01*
X284347D01*
Y270847D01*
X284062D01*
Y271131D01*
X283493D01*
Y269993D01*
X283209D01*
Y272553D01*
X283778D01*
Y272269D01*
X283493D01*
Y271700D01*
X284915D01*
Y272269D01*
X284347D01*
Y272553D01*
X285200D01*
Y272269D01*
D02*
G37*
G36*
X24023Y301662D02*
X23818D01*
Y301456D01*
X23612D01*
Y301045D01*
X23406D01*
Y300839D01*
X23201D01*
Y300428D01*
X22995D01*
Y300222D01*
X22789D01*
Y299811D01*
X22583D01*
Y299605D01*
X22378D01*
Y299194D01*
X22172D01*
Y298988D01*
X21967D01*
Y298577D01*
X21761D01*
Y298372D01*
X21555D01*
Y297960D01*
X21350D01*
Y297755D01*
X21144D01*
Y297343D01*
X20938D01*
Y297137D01*
X20733D01*
Y296726D01*
X20527D01*
Y296521D01*
X20321D01*
Y296109D01*
X20116D01*
Y295904D01*
X19910D01*
Y295492D01*
X19704D01*
Y295287D01*
X19499D01*
Y294875D01*
X19293D01*
Y294670D01*
X19087D01*
Y294258D01*
X18882D01*
Y294053D01*
X18676D01*
Y293641D01*
X18470D01*
Y293436D01*
X18265D01*
Y293024D01*
X18059D01*
Y292819D01*
X17853D01*
Y292407D01*
X17648D01*
Y292202D01*
X17442D01*
Y291791D01*
X17236D01*
Y291585D01*
X17031D01*
Y291174D01*
X16825D01*
Y290968D01*
X16620D01*
Y290557D01*
X16414D01*
Y290351D01*
X16208D01*
Y289940D01*
X16003D01*
Y289734D01*
X15797D01*
Y289323D01*
X15591D01*
Y289117D01*
X15386D01*
Y288706D01*
X15180D01*
Y288500D01*
X14974D01*
Y288089D01*
X14769D01*
Y287883D01*
X14563D01*
Y287472D01*
X14357D01*
Y287266D01*
X14152D01*
Y286855D01*
X13946D01*
Y286649D01*
X13740D01*
Y286443D01*
X18882D01*
Y286238D01*
X18676D01*
Y286032D01*
X18470D01*
Y285826D01*
X18265D01*
Y285621D01*
X18059D01*
Y285415D01*
X17853D01*
Y285209D01*
X17648D01*
Y285004D01*
X17442D01*
Y284798D01*
X17236D01*
Y284593D01*
X17031D01*
Y284387D01*
X16825D01*
Y284181D01*
X16620D01*
Y283976D01*
X16414D01*
Y283770D01*
X16208D01*
Y283564D01*
X16003D01*
Y283359D01*
X15797D01*
Y283153D01*
X15591D01*
Y282947D01*
X15386D01*
Y282742D01*
X15180D01*
Y282536D01*
X14974D01*
Y282330D01*
X14769D01*
Y282125D01*
X14563D01*
Y281919D01*
X14357D01*
Y281713D01*
X14152D01*
Y281508D01*
X13946D01*
Y281302D01*
X13740D01*
Y281096D01*
X13535D01*
Y280891D01*
X13329D01*
Y280685D01*
X13123D01*
Y280479D01*
X12918D01*
Y280274D01*
X12712D01*
Y280068D01*
X12506D01*
Y279862D01*
X12301D01*
Y279657D01*
X12095D01*
Y279451D01*
X11890D01*
Y279245D01*
X11684D01*
Y279040D01*
X11478D01*
Y278834D01*
X11272D01*
Y278628D01*
X11067D01*
Y278423D01*
X10861D01*
Y278217D01*
X10655D01*
Y278012D01*
X10450D01*
Y277806D01*
X10244D01*
Y277600D01*
X10039D01*
Y277395D01*
X9833D01*
Y277189D01*
X9627D01*
Y276983D01*
X9422D01*
Y276778D01*
X9216D01*
Y276572D01*
X9010D01*
Y276366D01*
X8805D01*
Y276161D01*
X8599D01*
Y275955D01*
X8393D01*
Y275749D01*
X8188D01*
Y275544D01*
X7982D01*
Y275338D01*
X7776D01*
Y275132D01*
X7571D01*
Y274927D01*
X7365D01*
Y274721D01*
X7159D01*
Y274515D01*
X6954D01*
Y274310D01*
X6748D01*
Y274104D01*
X6542D01*
Y273899D01*
X6337D01*
Y273693D01*
X6131D01*
Y273487D01*
X5926D01*
Y273282D01*
X5720D01*
Y273076D01*
X5514D01*
Y272870D01*
X5308D01*
Y272664D01*
X5103D01*
Y272459D01*
X4897D01*
Y272253D01*
X4691D01*
Y272048D01*
X4486D01*
Y271842D01*
X4280D01*
Y271636D01*
X4075D01*
Y271431D01*
X3869D01*
Y271225D01*
X3663D01*
Y271842D01*
X3869D01*
Y272459D01*
X4075D01*
Y273076D01*
X4280D01*
Y273693D01*
X4486D01*
Y274310D01*
X4691D01*
Y274927D01*
X4897D01*
Y275544D01*
X5103D01*
Y276161D01*
X5308D01*
Y276778D01*
X5514D01*
Y277395D01*
X5720D01*
Y278012D01*
X5926D01*
Y278628D01*
X6131D01*
Y279245D01*
X6337D01*
Y279862D01*
X6542D01*
Y280479D01*
X6748D01*
Y281096D01*
X6954D01*
Y281713D01*
X7159D01*
Y282330D01*
X7365D01*
Y282947D01*
X7571D01*
Y283564D01*
X7776D01*
Y284181D01*
X7982D01*
Y284798D01*
X8188D01*
Y285415D01*
X8393D01*
Y286032D01*
X8599D01*
Y286443D01*
X3458D01*
Y286649D01*
X3663D01*
Y287266D01*
X3869D01*
Y287883D01*
X4075D01*
Y288500D01*
X4280D01*
Y289117D01*
X4486D01*
Y289734D01*
X4691D01*
Y290351D01*
X4897D01*
Y290968D01*
X5103D01*
Y291585D01*
X5308D01*
Y292202D01*
X5514D01*
Y292819D01*
X5720D01*
Y293024D01*
Y293230D01*
Y293436D01*
X5926D01*
Y294053D01*
X6131D01*
Y294670D01*
X6337D01*
Y295287D01*
X6542D01*
Y295904D01*
X6748D01*
Y296521D01*
X6954D01*
Y297137D01*
X7159D01*
Y297755D01*
X7365D01*
Y298372D01*
X7571D01*
Y298988D01*
X7776D01*
Y299605D01*
X7982D01*
Y300222D01*
X8188D01*
Y300839D01*
X8393D01*
Y301456D01*
X8599D01*
Y301868D01*
X24023D01*
Y301662D01*
D02*
G37*
G36*
X3663Y271019D02*
X3458D01*
Y271225D01*
X3663D01*
Y271019D01*
D02*
G37*
G36*
X284631Y292464D02*
X284347D01*
Y291611D01*
X284062D01*
Y291042D01*
X283778D01*
Y290473D01*
X283493D01*
Y289904D01*
X283209D01*
Y289051D01*
X282924D01*
Y288482D01*
X282640D01*
Y287913D01*
X282355D01*
Y287060D01*
X282071D01*
Y286491D01*
X281787D01*
Y285922D01*
X281502D01*
Y285069D01*
X281218D01*
Y284500D01*
X280933D01*
Y283931D01*
X280649D01*
Y283078D01*
X280364D01*
Y282509D01*
X280080D01*
Y281940D01*
X279796D01*
Y281371D01*
X279511D01*
Y280518D01*
X279227D01*
Y279949D01*
X278942D01*
Y279380D01*
X278658D01*
Y278527D01*
X278373D01*
Y277958D01*
X278089D01*
Y277389D01*
X277804D01*
Y276536D01*
X277520D01*
Y275967D01*
X277236D01*
Y275398D01*
X276951D01*
Y274545D01*
X276667D01*
Y273976D01*
X276382D01*
Y273407D01*
X276098D01*
Y272838D01*
X275813D01*
Y271985D01*
X275529D01*
Y271416D01*
X275244D01*
Y270847D01*
X274960D01*
Y270278D01*
X274676D01*
Y270562D01*
X266711D01*
Y270278D01*
X266427D01*
Y270847D01*
X266711D01*
Y271416D01*
X266996D01*
Y271985D01*
X267280D01*
Y272838D01*
X267564D01*
Y273407D01*
X267849D01*
Y273976D01*
X268133D01*
Y274545D01*
X268418D01*
Y275398D01*
X268702D01*
Y275967D01*
X268987D01*
Y276536D01*
X269271D01*
Y277389D01*
X269555D01*
Y277958D01*
X269840D01*
Y278527D01*
X270124D01*
Y279380D01*
X270409D01*
Y279949D01*
X270693D01*
Y280518D01*
X270978D01*
Y281371D01*
X271262D01*
Y281940D01*
X271547D01*
Y282509D01*
X271831D01*
Y283362D01*
X272115D01*
Y283931D01*
X272400D01*
Y284500D01*
X272684D01*
Y285069D01*
X272969D01*
Y285922D01*
X273253D01*
Y286491D01*
X273538D01*
Y287060D01*
X273822D01*
Y287913D01*
X274107D01*
Y288482D01*
X274391D01*
Y289051D01*
X274676D01*
Y289904D01*
X274960D01*
Y290473D01*
X275244D01*
Y291042D01*
X275529D01*
Y291896D01*
X275813D01*
Y292464D01*
X276098D01*
Y292749D01*
X284631D01*
Y292464D01*
D02*
G37*
G36*
X269555D02*
X269271D01*
Y291611D01*
X268987D01*
Y291042D01*
X268702D01*
Y290473D01*
X268418D01*
Y289620D01*
X268133D01*
Y289051D01*
X267849D01*
Y288482D01*
X267564D01*
Y287629D01*
X267280D01*
Y287060D01*
X266996D01*
Y286491D01*
X266711D01*
Y285922D01*
X266427D01*
Y285069D01*
X266142D01*
Y284500D01*
X265858D01*
Y283931D01*
X265573D01*
Y283078D01*
X265289D01*
Y282509D01*
X265004D01*
Y281940D01*
X264720D01*
Y281087D01*
X264436D01*
Y280518D01*
X264151D01*
Y279949D01*
X263867D01*
Y279096D01*
X263582D01*
Y278527D01*
X263298D01*
Y277958D01*
X263013D01*
Y277104D01*
X262729D01*
Y276536D01*
X262444D01*
Y275967D01*
X262160D01*
Y275398D01*
X261876D01*
Y274545D01*
X261591D01*
Y273976D01*
X261307D01*
Y273407D01*
X261022D01*
Y272553D01*
X260738D01*
Y271985D01*
X260453D01*
Y271416D01*
X260169D01*
Y270562D01*
X259884D01*
Y270278D01*
X259600D01*
Y270562D01*
X255333D01*
Y270847D01*
X255902D01*
Y271131D01*
X256471D01*
Y271416D01*
X256755D01*
Y271700D01*
X257324D01*
Y271985D01*
X257609D01*
Y272269D01*
X257893D01*
Y272553D01*
X258178D01*
Y272838D01*
X258462D01*
Y273122D01*
X258747D01*
Y273407D01*
X259031D01*
Y273691D01*
X259315D01*
Y274260D01*
X259600D01*
Y274829D01*
X259884D01*
Y275682D01*
X260169D01*
Y276536D01*
X260453D01*
Y279949D01*
X260169D01*
Y280802D01*
X259884D01*
Y281371D01*
X259600D01*
Y281940D01*
X259315D01*
Y282224D01*
X259031D01*
Y282793D01*
X258747D01*
Y283078D01*
X258462D01*
Y283362D01*
X258178D01*
Y283647D01*
X257893D01*
Y283931D01*
X257609D01*
Y284216D01*
X257324D01*
Y284500D01*
X257040D01*
Y284785D01*
X256755D01*
Y285069D01*
X256471D01*
Y285353D01*
X256187D01*
Y285638D01*
X255902D01*
Y285922D01*
X255618D01*
Y286207D01*
X255333D01*
Y286491D01*
X255049D01*
Y286776D01*
X254764D01*
Y287060D01*
X254480D01*
Y287345D01*
X254196D01*
Y287629D01*
X253911D01*
Y287913D01*
X253627D01*
Y288198D01*
X253342D01*
Y288482D01*
X253058D01*
Y288767D01*
X252773D01*
Y289051D01*
X252204D01*
Y289336D01*
X251920D01*
Y289620D01*
X251636D01*
Y289904D01*
X251351D01*
Y290189D01*
X251067D01*
Y290758D01*
X250782D01*
Y292180D01*
X251067D01*
Y292464D01*
X251351D01*
Y292749D01*
X269555D01*
Y292464D01*
D02*
G37*
G36*
X284347Y273691D02*
X285484D01*
Y273407D01*
X285769D01*
Y273122D01*
X286053D01*
Y272838D01*
X286338D01*
Y272269D01*
X286622D01*
Y270278D01*
X286338D01*
Y269709D01*
X286053D01*
Y269424D01*
X285769D01*
Y269140D01*
X285200D01*
Y269424D01*
X285484D01*
Y269709D01*
X285769D01*
Y269993D01*
X286053D01*
Y270562D01*
X286338D01*
Y271985D01*
X286053D01*
Y272553D01*
X285769D01*
Y272838D01*
X285484D01*
Y273122D01*
X285200D01*
Y273407D01*
X282924D01*
Y273691D01*
X283778D01*
Y273976D01*
X284347D01*
Y273691D01*
D02*
G37*
G36*
X282924Y273122D02*
X282640D01*
Y272838D01*
X282355D01*
Y272553D01*
X282071D01*
Y271700D01*
X281787D01*
Y270847D01*
X282071D01*
Y269993D01*
X282355D01*
Y269709D01*
X282640D01*
Y269424D01*
X283209D01*
Y269140D01*
X285200D01*
Y268856D01*
X282924D01*
Y269140D01*
X282355D01*
Y269424D01*
X282071D01*
Y269993D01*
X281787D01*
Y270562D01*
X281502D01*
Y272269D01*
X281787D01*
Y272838D01*
X282071D01*
Y273122D01*
X282355D01*
Y273407D01*
X282924D01*
Y273122D01*
D02*
G37*
G36*
X284886Y258588D02*
X284835D01*
Y258333D01*
X284784D01*
Y258130D01*
X284733D01*
Y257876D01*
X284682D01*
Y257622D01*
X284632D01*
Y257418D01*
X284581D01*
Y257164D01*
X284530D01*
Y256961D01*
X284479D01*
Y256707D01*
X284428D01*
Y256452D01*
X284378D01*
Y256198D01*
X284327D01*
Y255995D01*
X284276D01*
Y255741D01*
X284225D01*
Y255487D01*
X285852D01*
Y255436D01*
X287834D01*
Y255385D01*
X288088D01*
Y255334D01*
X288342D01*
Y255283D01*
X288546D01*
Y255233D01*
X288749D01*
Y255182D01*
X288902D01*
Y255131D01*
X289054D01*
Y255080D01*
X289207D01*
Y255029D01*
X289359D01*
Y254978D01*
X289461D01*
Y254927D01*
X289613D01*
Y254877D01*
X289715D01*
Y254826D01*
X289817D01*
Y254775D01*
X289918D01*
Y254724D01*
X289969D01*
Y254673D01*
X290071D01*
Y254623D01*
X290173D01*
Y254572D01*
X290223D01*
Y254521D01*
X290325D01*
Y254470D01*
X290376D01*
Y254419D01*
X290477D01*
Y254368D01*
X290528D01*
Y254317D01*
X290579D01*
Y254267D01*
X290630D01*
Y254216D01*
X290732D01*
Y254165D01*
X290782D01*
Y254114D01*
X290833D01*
Y254063D01*
X290884D01*
Y254012D01*
X290935D01*
Y253962D01*
X290986D01*
Y253860D01*
X291037D01*
Y253809D01*
X291088D01*
Y253758D01*
X291138D01*
Y253708D01*
X291189D01*
Y253606D01*
X291240D01*
Y253504D01*
X291291D01*
Y253453D01*
X291342D01*
Y253352D01*
X291392D01*
Y253199D01*
X291443D01*
Y253098D01*
X291494D01*
Y252945D01*
X291545D01*
Y252742D01*
X291596D01*
Y252487D01*
X291647D01*
Y251674D01*
X291596D01*
Y251369D01*
X291545D01*
Y251166D01*
X291494D01*
Y251013D01*
X291443D01*
Y250861D01*
X291392D01*
Y250708D01*
X291342D01*
Y250607D01*
X291291D01*
Y250454D01*
X291240D01*
Y250353D01*
X291189D01*
Y250251D01*
X291138D01*
Y250149D01*
X291088D01*
Y250047D01*
X291037D01*
Y249997D01*
X290986D01*
Y249895D01*
X290935D01*
Y249844D01*
X290884D01*
Y249743D01*
X290833D01*
Y249692D01*
X290782D01*
Y249590D01*
X290732D01*
Y249539D01*
X290681D01*
Y249488D01*
X290630D01*
Y249387D01*
X290579D01*
Y249336D01*
X290528D01*
Y249285D01*
X290477D01*
Y249234D01*
X290427D01*
Y249132D01*
X290376D01*
Y249082D01*
X290325D01*
Y249031D01*
X290274D01*
Y248980D01*
X290223D01*
Y248929D01*
X290173D01*
Y248878D01*
X290122D01*
Y248828D01*
X290071D01*
Y248777D01*
X290020D01*
Y248675D01*
X290071D01*
Y248573D01*
X290122D01*
Y248522D01*
X290173D01*
Y248472D01*
X290223D01*
Y248370D01*
X290274D01*
Y248268D01*
X290325D01*
Y248218D01*
X290376D01*
Y248116D01*
X290427D01*
Y248014D01*
X290477D01*
Y247913D01*
X290528D01*
Y247760D01*
X290579D01*
Y247658D01*
X290630D01*
Y247506D01*
X290681D01*
Y247353D01*
X290732D01*
Y247150D01*
X290782D01*
Y246896D01*
X290833D01*
Y246489D01*
X290884D01*
Y245930D01*
X290833D01*
Y245473D01*
X290782D01*
Y245218D01*
X290732D01*
Y245015D01*
X290681D01*
Y244812D01*
X290630D01*
Y244659D01*
X290579D01*
Y244557D01*
X290528D01*
Y244405D01*
X290477D01*
Y244303D01*
X290427D01*
Y244202D01*
X290376D01*
Y244100D01*
X290325D01*
Y243998D01*
X290274D01*
Y243897D01*
X290223D01*
Y243795D01*
X290173D01*
Y243744D01*
X290122D01*
Y243642D01*
X290071D01*
Y243541D01*
X290020D01*
Y243490D01*
X289969D01*
Y243439D01*
X289918D01*
Y243337D01*
X289867D01*
Y243287D01*
X289817D01*
Y243236D01*
X289766D01*
Y243134D01*
X289715D01*
Y243083D01*
X289664D01*
Y243033D01*
X289613D01*
Y242982D01*
X289563D01*
Y242931D01*
X289512D01*
Y242829D01*
X289461D01*
Y242778D01*
X289410D01*
Y242727D01*
X289359D01*
Y242677D01*
X289308D01*
Y242626D01*
X289258D01*
Y242575D01*
X289207D01*
Y242524D01*
X289105D01*
Y242473D01*
X289054D01*
Y242423D01*
X289003D01*
Y242372D01*
X288952D01*
Y242321D01*
X288902D01*
Y242270D01*
X288800D01*
Y242219D01*
X288749D01*
Y242168D01*
X288698D01*
Y242118D01*
X288597D01*
Y242067D01*
X288546D01*
Y242016D01*
X288444D01*
Y241965D01*
X288393D01*
Y241914D01*
X288292D01*
Y241863D01*
X288241D01*
Y241812D01*
X288139D01*
Y241762D01*
X288037D01*
Y241711D01*
X287987D01*
Y241660D01*
X287834D01*
Y241609D01*
X287733D01*
Y241558D01*
X287631D01*
Y241508D01*
X287529D01*
Y241457D01*
X287427D01*
Y241406D01*
X287275D01*
Y241355D01*
X287173D01*
Y241304D01*
X287021D01*
Y241253D01*
X286868D01*
Y241202D01*
X286716D01*
Y241152D01*
X286512D01*
Y241101D01*
X286309D01*
Y241050D01*
X286106D01*
Y240999D01*
X285801D01*
Y240948D01*
X285343D01*
Y240897D01*
X280870D01*
Y240643D01*
X280819D01*
Y240389D01*
X280768D01*
Y240135D01*
X280717D01*
Y239881D01*
X280667D01*
Y239627D01*
X280616D01*
Y239372D01*
X280565D01*
Y239118D01*
X280514D01*
Y238864D01*
X280463D01*
Y238610D01*
X280413D01*
Y238356D01*
X280362D01*
Y238102D01*
X280311D01*
Y238000D01*
X260689D01*
Y238051D01*
X260282D01*
Y238102D01*
X259927D01*
Y238153D01*
X259571D01*
Y238203D01*
X259317D01*
Y238254D01*
X259012D01*
Y238305D01*
X258757D01*
Y238356D01*
X258554D01*
Y238407D01*
X258351D01*
Y238457D01*
X258148D01*
Y238508D01*
X257944D01*
Y238559D01*
X257741D01*
Y238610D01*
X257588D01*
Y238661D01*
X257436D01*
Y238712D01*
X257283D01*
Y238762D01*
X257131D01*
Y238813D01*
X257029D01*
Y238864D01*
X256877D01*
Y238915D01*
X256775D01*
Y238966D01*
X256623D01*
Y239017D01*
X256521D01*
Y239068D01*
X256419D01*
Y239118D01*
X256317D01*
Y239169D01*
X256216D01*
Y239220D01*
X256063D01*
Y239271D01*
X255962D01*
Y239322D01*
X255911D01*
Y239372D01*
X255758D01*
Y239423D01*
X255708D01*
Y239474D01*
X255606D01*
Y239525D01*
X255504D01*
Y239576D01*
X255402D01*
Y239627D01*
X255352D01*
Y239678D01*
X255250D01*
Y239728D01*
X255199D01*
Y239779D01*
X255098D01*
Y239830D01*
X255047D01*
Y239881D01*
X254945D01*
Y239932D01*
X254894D01*
Y239983D01*
X254792D01*
Y240033D01*
X254742D01*
Y240084D01*
X254691D01*
Y240135D01*
X254589D01*
Y240186D01*
X254538D01*
Y240237D01*
X254487D01*
Y240287D01*
X254386D01*
Y240338D01*
X254335D01*
Y240389D01*
X254284D01*
Y240440D01*
X254233D01*
Y240491D01*
X254132D01*
Y240542D01*
X254081D01*
Y240593D01*
X254030D01*
Y240643D01*
X253979D01*
Y240694D01*
X253928D01*
Y240745D01*
X253877D01*
Y240796D01*
X253827D01*
Y240847D01*
X253776D01*
Y240897D01*
X253674D01*
Y240948D01*
X253623D01*
Y240999D01*
X253573D01*
Y241050D01*
X253522D01*
Y241101D01*
X253471D01*
Y241152D01*
X253420D01*
Y241202D01*
X253369D01*
Y241253D01*
X253318D01*
Y241304D01*
X253268D01*
Y241355D01*
X253217D01*
Y241457D01*
X253166D01*
Y241508D01*
X253115D01*
Y241558D01*
X253064D01*
Y241609D01*
X253013D01*
Y241660D01*
X252962D01*
Y241711D01*
X252912D01*
Y241762D01*
X252861D01*
Y241812D01*
X252810D01*
Y241914D01*
X252759D01*
Y241965D01*
X252708D01*
Y242016D01*
X252658D01*
Y242067D01*
X252607D01*
Y242168D01*
X252556D01*
Y242219D01*
X252505D01*
Y242270D01*
X252454D01*
Y242321D01*
X252403D01*
Y242423D01*
X252352D01*
Y242473D01*
X252302D01*
Y242524D01*
X252251D01*
Y242626D01*
X252200D01*
Y242677D01*
X252149D01*
Y242727D01*
X252098D01*
Y242829D01*
X252047D01*
Y242880D01*
X251997D01*
Y242982D01*
X251946D01*
Y243033D01*
X251895D01*
Y243134D01*
X251844D01*
Y243185D01*
X251793D01*
Y243287D01*
X251743D01*
Y243337D01*
X251692D01*
Y243439D01*
X251641D01*
Y243541D01*
X251590D01*
Y243592D01*
X251539D01*
Y243693D01*
X251488D01*
Y243795D01*
X251437D01*
Y243846D01*
X251387D01*
Y243948D01*
X251336D01*
Y244049D01*
X251285D01*
Y244100D01*
X251234D01*
Y244202D01*
X251183D01*
Y244303D01*
X251132D01*
Y244405D01*
X251082D01*
Y244507D01*
X251031D01*
Y244608D01*
X250980D01*
Y244710D01*
X250929D01*
Y244812D01*
X250878D01*
Y244913D01*
X250828D01*
Y245015D01*
X230748D01*
Y245066D01*
X230697D01*
Y245167D01*
X230748D01*
Y245320D01*
X230799D01*
Y245574D01*
X230850D01*
Y245778D01*
X230901D01*
Y245981D01*
X230952D01*
Y246184D01*
X231002D01*
Y246388D01*
X231053D01*
Y246642D01*
X231104D01*
Y246845D01*
X231155D01*
Y247048D01*
X231206D01*
Y247252D01*
X231257D01*
Y247506D01*
X231308D01*
Y247709D01*
X231358D01*
Y247913D01*
X231409D01*
Y248116D01*
X231460D01*
Y248319D01*
X231511D01*
Y248522D01*
X231562D01*
Y248726D01*
X231612D01*
Y248929D01*
X231663D01*
Y249183D01*
X231714D01*
Y249387D01*
X231765D01*
Y249590D01*
X231816D01*
Y249793D01*
X231867D01*
Y250047D01*
X231918D01*
Y250251D01*
X231968D01*
Y250454D01*
X232019D01*
Y250658D01*
X232070D01*
Y250912D01*
X232121D01*
Y251115D01*
X232172D01*
Y251318D01*
X232223D01*
Y251420D01*
X251437D01*
Y251522D01*
X251488D01*
Y251623D01*
X251539D01*
Y251725D01*
X251590D01*
Y251827D01*
X251641D01*
Y251928D01*
X251692D01*
Y252030D01*
X251743D01*
Y252132D01*
X251793D01*
Y252233D01*
X251844D01*
Y252335D01*
X251895D01*
Y252437D01*
X251946D01*
Y252538D01*
X251997D01*
Y252640D01*
X252047D01*
Y252691D01*
X252098D01*
Y252793D01*
X252149D01*
Y252894D01*
X252200D01*
Y252945D01*
X252251D01*
Y253047D01*
X252302D01*
Y253098D01*
X252352D01*
Y253199D01*
X252403D01*
Y253250D01*
X252454D01*
Y253352D01*
X252505D01*
Y253402D01*
X252556D01*
Y253504D01*
X252607D01*
Y253555D01*
X252658D01*
Y253657D01*
X252708D01*
Y253708D01*
X252759D01*
Y253758D01*
X252810D01*
Y253860D01*
X252861D01*
Y253911D01*
X252912D01*
Y253962D01*
X252962D01*
Y254012D01*
X253013D01*
Y254114D01*
X253064D01*
Y254165D01*
X253115D01*
Y254216D01*
X253166D01*
Y254267D01*
X253217D01*
Y254368D01*
X253268D01*
Y254419D01*
X253318D01*
Y254470D01*
X253369D01*
Y254521D01*
X253420D01*
Y254572D01*
X253471D01*
Y254623D01*
X253522D01*
Y254673D01*
X253573D01*
Y254724D01*
X253623D01*
Y254775D01*
X253674D01*
Y254826D01*
X253725D01*
Y254927D01*
X253776D01*
Y254978D01*
X253827D01*
Y255029D01*
X253877D01*
Y255080D01*
X253979D01*
Y255131D01*
X254030D01*
Y255182D01*
X254081D01*
Y255233D01*
X254132D01*
Y255283D01*
X254183D01*
Y255334D01*
X254233D01*
Y255385D01*
X254284D01*
Y255436D01*
X254335D01*
Y255487D01*
X254386D01*
Y255538D01*
X254487D01*
Y255588D01*
X254538D01*
Y255639D01*
X254589D01*
Y255690D01*
X254640D01*
Y255741D01*
X254691D01*
Y255792D01*
X254792D01*
Y255842D01*
X254843D01*
Y255893D01*
X254894D01*
Y255944D01*
X254945D01*
Y255995D01*
X255047D01*
Y256046D01*
X255098D01*
Y256097D01*
X255199D01*
Y256148D01*
X255250D01*
Y256198D01*
X255301D01*
Y256249D01*
X255402D01*
Y256300D01*
X255453D01*
Y256351D01*
X255555D01*
Y256402D01*
X255606D01*
Y256452D01*
X255708D01*
Y256503D01*
X255758D01*
Y256554D01*
X255860D01*
Y256605D01*
X255962D01*
Y256656D01*
X256013D01*
Y256707D01*
X256114D01*
Y256757D01*
X256216D01*
Y256808D01*
X256317D01*
Y256859D01*
X256368D01*
Y256910D01*
X256470D01*
Y256961D01*
X256572D01*
Y257012D01*
X256673D01*
Y257063D01*
X256775D01*
Y257113D01*
X256877D01*
Y257164D01*
X256978D01*
Y257215D01*
X257080D01*
Y257266D01*
X257182D01*
Y257317D01*
X257283D01*
Y257367D01*
X257436D01*
Y257418D01*
X257538D01*
Y257469D01*
X257690D01*
Y257520D01*
X257792D01*
Y257571D01*
X257944D01*
Y257622D01*
X258046D01*
Y257673D01*
X258198D01*
Y257723D01*
X258351D01*
Y257774D01*
X258453D01*
Y257825D01*
X258605D01*
Y257876D01*
X258757D01*
Y257927D01*
X258910D01*
Y257978D01*
X259113D01*
Y258028D01*
X259266D01*
Y258079D01*
X259469D01*
Y258130D01*
X259622D01*
Y258181D01*
X259825D01*
Y258232D01*
X260028D01*
Y258282D01*
X260282D01*
Y258333D01*
X260537D01*
Y258384D01*
X260791D01*
Y258435D01*
X261045D01*
Y258486D01*
X261350D01*
Y258537D01*
X261655D01*
Y258588D01*
X262011D01*
Y258638D01*
X284886D01*
Y258588D01*
D02*
G37*
G36*
X250472Y244354D02*
X250522D01*
Y244202D01*
X250573D01*
Y244100D01*
X250624D01*
Y243998D01*
X250675D01*
Y243897D01*
X250726D01*
Y243744D01*
X250777D01*
Y243642D01*
X250828D01*
Y243541D01*
X250878D01*
Y243439D01*
X250929D01*
Y243337D01*
X250980D01*
Y243236D01*
X251031D01*
Y243134D01*
X251082D01*
Y243083D01*
X251132D01*
Y242982D01*
X251183D01*
Y242880D01*
X251234D01*
Y242778D01*
X251285D01*
Y242727D01*
X251336D01*
Y242626D01*
X251387D01*
Y242575D01*
X251437D01*
Y242473D01*
X251488D01*
Y242372D01*
X251539D01*
Y242321D01*
X251590D01*
Y242219D01*
X251641D01*
Y242168D01*
X251692D01*
Y242067D01*
X251743D01*
Y242016D01*
X251793D01*
Y241965D01*
X251844D01*
Y241863D01*
X251895D01*
Y241812D01*
X251946D01*
Y241711D01*
X251997D01*
Y241660D01*
X252047D01*
Y241609D01*
X252098D01*
Y241558D01*
X252149D01*
Y241457D01*
X252200D01*
Y241406D01*
X252251D01*
Y241355D01*
X252302D01*
Y241304D01*
X252352D01*
Y241202D01*
X252403D01*
Y241152D01*
X252454D01*
Y241101D01*
X252505D01*
Y241050D01*
X252556D01*
Y240999D01*
X252607D01*
Y240948D01*
X252658D01*
Y240897D01*
X252708D01*
Y240847D01*
X252759D01*
Y240745D01*
X252810D01*
Y240694D01*
X252861D01*
Y240643D01*
X252912D01*
Y240593D01*
X252962D01*
Y240542D01*
X253013D01*
Y240491D01*
X253064D01*
Y240440D01*
X253115D01*
Y240389D01*
X253166D01*
Y240338D01*
X253217D01*
Y240287D01*
X253268D01*
Y240237D01*
X253318D01*
Y240186D01*
X253420D01*
Y240135D01*
X253471D01*
Y240084D01*
X253522D01*
Y240033D01*
X253573D01*
Y239983D01*
X253623D01*
Y239932D01*
X253674D01*
Y239881D01*
X253776D01*
Y239830D01*
X253827D01*
Y239779D01*
X253877D01*
Y239728D01*
X253928D01*
Y239678D01*
X254030D01*
Y239627D01*
X254081D01*
Y239576D01*
X254132D01*
Y239525D01*
X254183D01*
Y239474D01*
X254284D01*
Y239423D01*
X254335D01*
Y239372D01*
X254386D01*
Y239322D01*
X254487D01*
Y239271D01*
X254538D01*
Y239220D01*
X254640D01*
Y239169D01*
X254691D01*
Y239118D01*
X254792D01*
Y239068D01*
X254843D01*
Y239017D01*
X254945D01*
Y238966D01*
X255047D01*
Y238915D01*
X255098D01*
Y238864D01*
X255199D01*
Y238813D01*
X255250D01*
Y238762D01*
X255352D01*
Y238712D01*
X255453D01*
Y238661D01*
X255555D01*
Y238610D01*
X255657D01*
Y238559D01*
X255758D01*
Y238508D01*
X255860D01*
Y238457D01*
X255962D01*
Y238407D01*
X256063D01*
Y238356D01*
X256165D01*
Y238305D01*
X256267D01*
Y238254D01*
X256419D01*
Y238203D01*
X256521D01*
Y238153D01*
X256623D01*
Y238102D01*
X256775D01*
Y238051D01*
X256877D01*
Y238000D01*
X257029D01*
Y237949D01*
X257182D01*
Y237898D01*
X257334D01*
Y237847D01*
X257487D01*
Y237797D01*
X257639D01*
Y237746D01*
X257792D01*
Y237695D01*
X257995D01*
Y237644D01*
X258198D01*
Y237593D01*
X258453D01*
Y237543D01*
X258707D01*
Y237492D01*
X259012D01*
Y237441D01*
X259317D01*
Y237390D01*
X259723D01*
Y237339D01*
X260384D01*
Y237288D01*
X281328D01*
Y237390D01*
X281378D01*
Y237543D01*
X281429D01*
Y237746D01*
X281480D01*
Y237949D01*
X281531D01*
Y238102D01*
X281582D01*
Y238305D01*
X281632D01*
Y238457D01*
X281683D01*
Y238610D01*
X281734D01*
Y238661D01*
X281785D01*
Y238610D01*
X281836D01*
Y238559D01*
X281887D01*
Y238508D01*
X281938D01*
Y238457D01*
X281988D01*
Y238407D01*
X282039D01*
Y238356D01*
X282090D01*
Y238305D01*
X282141D01*
Y238254D01*
X282192D01*
Y238203D01*
X282242D01*
Y238153D01*
X282293D01*
Y238102D01*
X282344D01*
Y238051D01*
X282395D01*
Y238000D01*
X282446D01*
Y237949D01*
X282497D01*
Y237898D01*
X282547D01*
Y237847D01*
X282598D01*
Y237797D01*
X282649D01*
Y237746D01*
X282700D01*
Y237695D01*
X282751D01*
Y237644D01*
X282802D01*
Y237593D01*
X282853D01*
Y237543D01*
X282903D01*
Y237492D01*
X282954D01*
Y237441D01*
X283005D01*
Y237390D01*
X283056D01*
Y237339D01*
X283107D01*
Y237288D01*
X283157D01*
Y237238D01*
X283208D01*
Y237187D01*
X283259D01*
Y237136D01*
X283310D01*
Y237085D01*
X283361D01*
Y237034D01*
X283412D01*
Y236983D01*
X283463D01*
Y236932D01*
X283513D01*
Y236882D01*
X283564D01*
Y236831D01*
X283615D01*
Y236780D01*
X283666D01*
Y236729D01*
X283717D01*
Y236678D01*
X283768D01*
Y236628D01*
X283818D01*
Y236577D01*
X283869D01*
Y236526D01*
X283920D01*
Y236475D01*
X283971D01*
Y236424D01*
X284022D01*
Y236373D01*
X284072D01*
Y236322D01*
X284123D01*
Y236272D01*
X284174D01*
Y236221D01*
X284225D01*
Y236170D01*
X284276D01*
Y236119D01*
X284327D01*
Y236068D01*
X284378D01*
Y236017D01*
X284428D01*
Y235967D01*
X284479D01*
Y235916D01*
X284530D01*
Y235865D01*
X284581D01*
Y235814D01*
X284632D01*
Y235763D01*
X284682D01*
Y235713D01*
X284733D01*
Y235662D01*
X284784D01*
Y235611D01*
X284835D01*
Y235560D01*
X284886D01*
Y235509D01*
X284937D01*
Y235458D01*
X284987D01*
Y235407D01*
X285038D01*
Y235357D01*
X285089D01*
Y235306D01*
X285140D01*
Y235255D01*
X285191D01*
Y235204D01*
X285242D01*
Y235153D01*
X285293D01*
Y235103D01*
X285343D01*
Y235052D01*
X285394D01*
Y235001D01*
X285445D01*
Y234950D01*
X285496D01*
Y234899D01*
X285547D01*
Y234848D01*
X285597D01*
Y234798D01*
X285648D01*
Y234747D01*
X285699D01*
Y234696D01*
X285750D01*
Y234645D01*
X285801D01*
Y234594D01*
X285852D01*
Y234543D01*
X285903D01*
Y234492D01*
X285953D01*
Y234442D01*
X286004D01*
Y234391D01*
X286055D01*
Y234340D01*
X286106D01*
Y234289D01*
X286157D01*
Y234238D01*
X286106D01*
Y234188D01*
X286004D01*
Y234137D01*
X285953D01*
Y234086D01*
X285852D01*
Y234035D01*
X285801D01*
Y233984D01*
X285750D01*
Y233933D01*
X285648D01*
Y233882D01*
X285597D01*
Y233832D01*
X285496D01*
Y233781D01*
X285445D01*
Y233730D01*
X285343D01*
Y233679D01*
X285293D01*
Y233628D01*
X285242D01*
Y233577D01*
X285140D01*
Y233527D01*
X285089D01*
Y233476D01*
X284987D01*
Y233425D01*
X284937D01*
Y233374D01*
X284835D01*
Y233323D01*
X284784D01*
Y233273D01*
X284682D01*
Y233222D01*
X284632D01*
Y233171D01*
X284530D01*
Y233120D01*
X284479D01*
Y233069D01*
X284428D01*
Y233018D01*
X284327D01*
Y232967D01*
X284276D01*
Y232917D01*
X284174D01*
Y232866D01*
X284123D01*
Y232815D01*
X284072D01*
Y232764D01*
X283971D01*
Y232713D01*
X283920D01*
Y232663D01*
X283818D01*
Y232612D01*
X283768D01*
Y232561D01*
X283666D01*
Y232510D01*
X283615D01*
Y232459D01*
X283513D01*
Y232408D01*
X283463D01*
Y232358D01*
X283361D01*
Y232307D01*
X283310D01*
Y232256D01*
X283259D01*
Y232205D01*
X283157D01*
Y232154D01*
X283107D01*
Y232103D01*
X283005D01*
Y232052D01*
X282954D01*
Y232002D01*
X282903D01*
Y231951D01*
X282802D01*
Y231900D01*
X282751D01*
Y231849D01*
X282649D01*
Y231798D01*
X282598D01*
Y231748D01*
X282497D01*
Y231697D01*
X282446D01*
Y231646D01*
X282344D01*
Y231595D01*
X282293D01*
Y231544D01*
X282192D01*
Y231493D01*
X282141D01*
Y231442D01*
X282090D01*
Y231392D01*
X281988D01*
Y231341D01*
X281938D01*
Y231290D01*
X281836D01*
Y231239D01*
X281785D01*
Y231188D01*
X281734D01*
Y231137D01*
X281632D01*
Y231087D01*
X281582D01*
Y231036D01*
X281480D01*
Y230985D01*
X281429D01*
Y230934D01*
X281328D01*
Y230883D01*
X281277D01*
Y230833D01*
X281175D01*
Y230782D01*
X281124D01*
Y230731D01*
X281023D01*
Y230680D01*
X280972D01*
Y230629D01*
X280921D01*
Y230578D01*
X280819D01*
Y230527D01*
X280768D01*
Y230477D01*
X280667D01*
Y230426D01*
X280616D01*
Y230375D01*
X280514D01*
Y230324D01*
X280463D01*
Y230273D01*
X280362D01*
Y230223D01*
X280311D01*
Y230172D01*
X280260D01*
Y230121D01*
X280158D01*
Y230070D01*
X280107D01*
Y230019D01*
X280006D01*
Y229968D01*
X279955D01*
Y229918D01*
X279853D01*
Y229867D01*
X279802D01*
Y230172D01*
X279853D01*
Y230477D01*
X279904D01*
Y230782D01*
X279955D01*
Y231087D01*
X280006D01*
Y231137D01*
X279955D01*
Y231188D01*
X263841D01*
Y231239D01*
X263536D01*
Y231290D01*
X263231D01*
Y231341D01*
X263028D01*
Y231392D01*
X262773D01*
Y231442D01*
X262519D01*
Y231493D01*
X262367D01*
Y231544D01*
X262112D01*
Y231595D01*
X261909D01*
Y231646D01*
X261757D01*
Y231697D01*
X261553D01*
Y231748D01*
X261350D01*
Y231798D01*
X261197D01*
Y231849D01*
X260994D01*
Y231900D01*
X260842D01*
Y231951D01*
X260689D01*
Y232002D01*
X260537D01*
Y232052D01*
X260384D01*
Y232103D01*
X260282D01*
Y232154D01*
X260130D01*
Y232205D01*
X259978D01*
Y232256D01*
X259876D01*
Y232307D01*
X259723D01*
Y232358D01*
X259622D01*
Y232408D01*
X259469D01*
Y232459D01*
X259317D01*
Y232510D01*
X259215D01*
Y232561D01*
X259113D01*
Y232612D01*
X258961D01*
Y232663D01*
X258859D01*
Y232713D01*
X258757D01*
Y232764D01*
X258656D01*
Y232815D01*
X258554D01*
Y232866D01*
X258453D01*
Y232917D01*
X258300D01*
Y232967D01*
X258198D01*
Y233018D01*
X258148D01*
Y233069D01*
X258046D01*
Y233120D01*
X257944D01*
Y233171D01*
X257842D01*
Y233222D01*
X257741D01*
Y233273D01*
X257639D01*
Y233323D01*
X257538D01*
Y233374D01*
X257436D01*
Y233425D01*
X257385D01*
Y233476D01*
X257283D01*
Y233527D01*
X257182D01*
Y233577D01*
X257080D01*
Y233628D01*
X257029D01*
Y233679D01*
X256927D01*
Y233730D01*
X256877D01*
Y233781D01*
X256775D01*
Y233832D01*
X256724D01*
Y233882D01*
X256623D01*
Y233933D01*
X256521D01*
Y233984D01*
X256470D01*
Y234035D01*
X256368D01*
Y234086D01*
X256317D01*
Y234137D01*
X256216D01*
Y234188D01*
X256165D01*
Y234238D01*
X256063D01*
Y234289D01*
X256013D01*
Y234340D01*
X255962D01*
Y234391D01*
X255860D01*
Y234442D01*
X255809D01*
Y234492D01*
X255758D01*
Y234543D01*
X255657D01*
Y234594D01*
X255606D01*
Y234645D01*
X255555D01*
Y234696D01*
X255453D01*
Y234747D01*
X255402D01*
Y234798D01*
X255352D01*
Y234848D01*
X255301D01*
Y234899D01*
X255199D01*
Y234950D01*
X255148D01*
Y235001D01*
X255098D01*
Y235052D01*
X255047D01*
Y235103D01*
X254945D01*
Y235153D01*
X254894D01*
Y235204D01*
X254843D01*
Y235255D01*
X254792D01*
Y235306D01*
X254742D01*
Y235357D01*
X254691D01*
Y235407D01*
X254640D01*
Y235458D01*
X254538D01*
Y235509D01*
X254487D01*
Y235560D01*
X254437D01*
Y235611D01*
X254386D01*
Y235662D01*
X254335D01*
Y235713D01*
X254284D01*
Y235763D01*
X254233D01*
Y235814D01*
X254183D01*
Y235865D01*
X254132D01*
Y235916D01*
X254081D01*
Y235967D01*
X254030D01*
Y236017D01*
X253979D01*
Y236068D01*
X253928D01*
Y236119D01*
X253877D01*
Y236170D01*
X253827D01*
Y236221D01*
X253776D01*
Y236272D01*
X253725D01*
Y236322D01*
X253674D01*
Y236373D01*
X253623D01*
Y236424D01*
X253573D01*
Y236475D01*
X253522D01*
Y236526D01*
X253471D01*
Y236577D01*
X253420D01*
Y236678D01*
X253369D01*
Y236729D01*
X253318D01*
Y236780D01*
X253268D01*
Y236831D01*
X253217D01*
Y236882D01*
X253166D01*
Y236932D01*
X253115D01*
Y237034D01*
X253064D01*
Y237085D01*
X253013D01*
Y237136D01*
X252962D01*
Y237187D01*
X252912D01*
Y237238D01*
X252861D01*
Y237288D01*
X252810D01*
Y237390D01*
X252759D01*
Y237441D01*
X252708D01*
Y237492D01*
X252658D01*
Y237593D01*
X252607D01*
Y237644D01*
X252556D01*
Y237695D01*
X252505D01*
Y237746D01*
X252454D01*
Y237847D01*
X252403D01*
Y237898D01*
X252352D01*
Y238000D01*
X252302D01*
Y238051D01*
X252251D01*
Y238102D01*
X252200D01*
Y238203D01*
X252149D01*
Y238254D01*
X252098D01*
Y238356D01*
X252047D01*
Y238407D01*
X251997D01*
Y238457D01*
X251946D01*
Y238559D01*
X251895D01*
Y238610D01*
X251844D01*
Y238712D01*
X251793D01*
Y238762D01*
X251743D01*
Y238864D01*
X251692D01*
Y238966D01*
X251641D01*
Y239017D01*
X251590D01*
Y239118D01*
X251539D01*
Y239220D01*
X251488D01*
Y239271D01*
X251437D01*
Y239372D01*
X251387D01*
Y239423D01*
X251336D01*
Y239525D01*
X251285D01*
Y239627D01*
X251234D01*
Y239678D01*
X251183D01*
Y239779D01*
X251132D01*
Y239881D01*
X251082D01*
Y239983D01*
X251031D01*
Y240084D01*
X250980D01*
Y240186D01*
X250929D01*
Y240287D01*
X250878D01*
Y240338D01*
X250828D01*
Y240440D01*
X250777D01*
Y240542D01*
X250726D01*
Y240643D01*
X250675D01*
Y240745D01*
X250624D01*
Y240847D01*
X250573D01*
Y240948D01*
X250522D01*
Y241050D01*
X250472D01*
Y241152D01*
X250421D01*
Y241253D01*
X250370D01*
Y241406D01*
X250319D01*
Y241508D01*
X250268D01*
Y241609D01*
X250218D01*
Y241711D01*
X250167D01*
Y241863D01*
X250116D01*
Y241965D01*
X250065D01*
Y242118D01*
X250014D01*
Y242219D01*
X249963D01*
Y242321D01*
X249913D01*
Y242473D01*
X249862D01*
Y242575D01*
X249811D01*
Y242727D01*
X249760D01*
Y242829D01*
X249709D01*
Y242982D01*
X249658D01*
Y243134D01*
X249607D01*
Y243287D01*
X249557D01*
Y243439D01*
X249506D01*
Y243541D01*
X249455D01*
Y243693D01*
X249404D01*
Y243897D01*
X249353D01*
Y244049D01*
X249303D01*
Y244202D01*
X249252D01*
Y244354D01*
X249201D01*
Y244456D01*
X250472D01*
Y244354D01*
D02*
G37*
G36*
X288893Y217903D02*
X288651D01*
Y218388D01*
X288893D01*
Y217903D01*
D02*
G37*
G36*
X286713Y218630D02*
X286955D01*
Y203128D01*
X283080D01*
Y212817D01*
X282838D01*
Y212574D01*
X282596D01*
Y212332D01*
X282353D01*
Y212090D01*
X282111D01*
Y211848D01*
X281869D01*
Y211606D01*
X281627D01*
Y211363D01*
X281384D01*
Y210879D01*
X281142D01*
Y210637D01*
X280900D01*
Y210394D01*
X280658D01*
Y210152D01*
X280416D01*
Y209910D01*
X280173D01*
Y209668D01*
X279931D01*
Y209183D01*
X279689D01*
Y208941D01*
X279447D01*
Y208699D01*
X279204D01*
Y208457D01*
X278962D01*
Y208214D01*
X278720D01*
Y207972D01*
X277993D01*
Y208457D01*
X277751D01*
Y208699D01*
X277509D01*
Y208941D01*
X277267D01*
Y209183D01*
X277024D01*
Y209426D01*
X276782D01*
Y209668D01*
X276540D01*
Y210152D01*
X276298D01*
Y210394D01*
X276056D01*
Y210637D01*
X275813D01*
Y210879D01*
X275571D01*
Y211121D01*
X275329D01*
Y211363D01*
X275087D01*
Y211606D01*
X274844D01*
Y212090D01*
X274602D01*
Y212332D01*
X274360D01*
Y212574D01*
X274118D01*
Y212817D01*
X273876D01*
Y203128D01*
X270000D01*
Y218872D01*
X273391D01*
Y218630D01*
X273633D01*
Y218388D01*
X273876D01*
Y218146D01*
X274118D01*
Y217903D01*
X274360D01*
Y217419D01*
X274602D01*
Y217177D01*
X274844D01*
Y216934D01*
X275087D01*
Y216692D01*
X275329D01*
Y216450D01*
X275571D01*
Y216208D01*
X275813D01*
Y215723D01*
X276056D01*
Y215481D01*
X276298D01*
Y215239D01*
X276540D01*
Y214997D01*
X276782D01*
Y214754D01*
X277024D01*
Y214512D01*
X277267D01*
Y214270D01*
X277509D01*
Y213786D01*
X277751D01*
Y213543D01*
X277993D01*
Y213301D01*
X278236D01*
Y213059D01*
X278720D01*
Y213301D01*
X278962D01*
Y213786D01*
X279204D01*
Y214028D01*
X279447D01*
Y214270D01*
X279689D01*
Y214512D01*
X279931D01*
Y214754D01*
X280173D01*
Y214997D01*
X280416D01*
Y215481D01*
X280658D01*
Y215723D01*
X280900D01*
Y215966D01*
X281142D01*
Y216208D01*
X281384D01*
Y216450D01*
X281627D01*
Y216692D01*
X281869D01*
Y216934D01*
X282111D01*
Y217419D01*
X282353D01*
Y217661D01*
X282596D01*
Y217903D01*
X282838D01*
Y218146D01*
X283080D01*
Y218388D01*
X283322D01*
Y218630D01*
X283564D01*
Y218872D01*
X286713D01*
Y218630D01*
D02*
G37*
G36*
X262733D02*
X263944D01*
Y218388D01*
X264671D01*
Y218146D01*
X265156D01*
Y217903D01*
X265398D01*
Y217661D01*
X265882D01*
Y217419D01*
X266124D01*
Y217177D01*
X266367D01*
Y216692D01*
X266609D01*
Y216450D01*
X266851D01*
Y215966D01*
X267093D01*
Y214997D01*
X267336D01*
Y213543D01*
X267093D01*
Y212817D01*
X266851D01*
Y212332D01*
X266609D01*
Y211848D01*
X266367D01*
Y211606D01*
X266124D01*
Y211363D01*
X265882D01*
Y211121D01*
X265398D01*
Y210879D01*
X265156D01*
Y210637D01*
X264671D01*
Y210394D01*
X264913D01*
Y210152D01*
X265156D01*
Y209910D01*
X265398D01*
Y209668D01*
X265640D01*
Y209426D01*
X265882D01*
Y209183D01*
X266124D01*
Y208699D01*
X266367D01*
Y208214D01*
X266609D01*
Y207730D01*
X266851D01*
Y207246D01*
X267093D01*
Y206761D01*
X267336D01*
Y206277D01*
X267578D01*
Y205550D01*
X267820D01*
Y205066D01*
X268062D01*
Y204581D01*
X268304D01*
Y204097D01*
X268547D01*
Y203612D01*
X268789D01*
Y203128D01*
X264671D01*
Y203370D01*
X264429D01*
Y203854D01*
X264187D01*
Y204339D01*
X263944D01*
Y204823D01*
X263702D01*
Y205550D01*
X263460D01*
Y206034D01*
X263218D01*
Y206519D01*
X262976D01*
Y207003D01*
X262733D01*
Y207488D01*
X262491D01*
Y207972D01*
X262249D01*
Y208214D01*
X262007D01*
Y208699D01*
X261764D01*
Y208941D01*
X261522D01*
Y209183D01*
X261038D01*
Y209426D01*
X259100D01*
Y206034D01*
Y205792D01*
Y203128D01*
X255224D01*
Y218872D01*
X262733D01*
Y218630D01*
D02*
G37*
G36*
X247231D02*
X247473D01*
Y217903D01*
X247715D01*
Y217419D01*
X247958D01*
Y216934D01*
X248200D01*
Y216450D01*
X248442D01*
Y215723D01*
X248684D01*
Y215239D01*
X248927D01*
Y214754D01*
X249169D01*
Y214270D01*
X249411D01*
Y213543D01*
X249653D01*
Y213059D01*
X249896D01*
Y212574D01*
X250138D01*
Y212090D01*
X250380D01*
Y211363D01*
X250622D01*
Y210879D01*
X250864D01*
Y210394D01*
X251107D01*
Y209910D01*
X251349D01*
Y209183D01*
X251591D01*
Y208699D01*
X251833D01*
Y208214D01*
X252076D01*
Y207730D01*
X252318D01*
Y207003D01*
X252560D01*
Y206519D01*
X252802D01*
Y206034D01*
X253044D01*
Y205550D01*
X253287D01*
Y204823D01*
X253529D01*
Y204339D01*
X253771D01*
Y203854D01*
X254013D01*
Y203370D01*
X254256D01*
Y203128D01*
X249896D01*
Y203854D01*
X249653D01*
Y204339D01*
X249411D01*
Y205066D01*
X249169D01*
Y205550D01*
X248927D01*
Y206034D01*
X248684D01*
Y206277D01*
X241660D01*
Y205792D01*
X241418D01*
Y205308D01*
X241176D01*
Y204581D01*
X240933D01*
Y203854D01*
X240691D01*
Y203370D01*
X240449D01*
Y203128D01*
X236573D01*
Y203854D01*
X236816D01*
Y204339D01*
X237058D01*
Y204823D01*
X237300D01*
Y205550D01*
X237542D01*
Y206034D01*
X237784D01*
Y206761D01*
X238027D01*
Y207246D01*
X238269D01*
Y207972D01*
X238511D01*
Y208457D01*
X238753D01*
Y209183D01*
X238996D01*
Y209668D01*
X239238D01*
Y210394D01*
X239480D01*
Y210879D01*
X239722D01*
Y211606D01*
X239964D01*
Y212090D01*
X240207D01*
Y212817D01*
X240449D01*
Y213301D01*
X240691D01*
Y214028D01*
X240933D01*
Y214512D01*
X241176D01*
Y215239D01*
X241418D01*
Y215723D01*
X241660D01*
Y216450D01*
X241902D01*
Y216934D01*
X242144D01*
Y217661D01*
X242387D01*
Y218146D01*
X242629D01*
Y218630D01*
X242871D01*
Y218872D01*
X247231D01*
Y218630D01*
D02*
G37*
%LPC*%
G36*
X69267Y278628D02*
X69062D01*
Y278423D01*
X68856D01*
Y277806D01*
X69473D01*
Y278012D01*
X69679D01*
Y278423D01*
X69267D01*
Y278628D01*
D02*
G37*
G36*
X42943Y278217D02*
X42738D01*
Y278012D01*
X42532D01*
Y277189D01*
X43149D01*
Y277806D01*
X42943D01*
Y278012D01*
Y278217D01*
D02*
G37*
G36*
X36362Y278423D02*
X35334D01*
Y278217D01*
X35129D01*
Y277806D01*
X34923D01*
Y277395D01*
X35129D01*
Y276983D01*
X35334D01*
Y276778D01*
X36362D01*
Y276983D01*
X36568D01*
Y277395D01*
X36774D01*
Y277806D01*
X36568D01*
Y278217D01*
X36362D01*
Y278423D01*
D02*
G37*
G36*
X274770Y254927D02*
X273296D01*
Y254877D01*
X272889D01*
Y254826D01*
X272584D01*
Y254775D01*
X272330D01*
Y254724D01*
X272127D01*
Y254673D01*
X271923D01*
Y254623D01*
X271720D01*
Y254572D01*
X271568D01*
Y254521D01*
X271415D01*
Y254470D01*
X271263D01*
Y254419D01*
X271110D01*
Y254368D01*
X270957D01*
Y254317D01*
X270856D01*
Y254267D01*
X270754D01*
Y254216D01*
X270602D01*
Y254165D01*
X270500D01*
Y254114D01*
X270398D01*
Y254063D01*
X270297D01*
Y254012D01*
X270246D01*
Y253962D01*
X270144D01*
Y253911D01*
X270042D01*
Y253860D01*
X269941D01*
Y253809D01*
X269890D01*
Y253758D01*
X269788D01*
Y253708D01*
X269687D01*
Y253657D01*
X269636D01*
Y253606D01*
X269534D01*
Y253555D01*
X269483D01*
Y253504D01*
X269382D01*
Y253453D01*
X269331D01*
Y253402D01*
X269280D01*
Y253352D01*
X269229D01*
Y253301D01*
X269127D01*
Y253250D01*
X269077D01*
Y253199D01*
X269026D01*
Y253148D01*
X268975D01*
Y253098D01*
X268924D01*
Y253047D01*
X268873D01*
Y252996D01*
X268823D01*
Y252945D01*
X268772D01*
Y252894D01*
X268721D01*
Y252843D01*
X268670D01*
Y252793D01*
X268619D01*
Y252742D01*
X268568D01*
Y252691D01*
X268517D01*
Y252640D01*
X268467D01*
Y252538D01*
X268416D01*
Y252487D01*
X268365D01*
Y252437D01*
X268314D01*
Y252335D01*
X268263D01*
Y252284D01*
X268213D01*
Y252183D01*
X268162D01*
Y252132D01*
X268111D01*
Y252030D01*
X268060D01*
Y251928D01*
X268009D01*
Y251827D01*
X267958D01*
Y251725D01*
X267908D01*
Y251572D01*
X267857D01*
Y251420D01*
X267806D01*
Y251268D01*
X267755D01*
Y251013D01*
X267704D01*
Y249488D01*
X267755D01*
Y249234D01*
X267806D01*
Y249082D01*
X267857D01*
Y248929D01*
X267908D01*
Y248828D01*
X267958D01*
Y248726D01*
X268009D01*
Y248624D01*
X268060D01*
Y248573D01*
X268111D01*
Y248472D01*
X268162D01*
Y248421D01*
X268213D01*
Y248370D01*
X268263D01*
Y248319D01*
X268314D01*
Y248268D01*
X268365D01*
Y248218D01*
X268416D01*
Y248167D01*
X268467D01*
Y248116D01*
X268517D01*
Y248065D01*
X268568D01*
Y248014D01*
X268670D01*
Y247963D01*
X268721D01*
Y247913D01*
X268772D01*
Y247862D01*
X268873D01*
Y247811D01*
X268924D01*
Y247760D01*
X269026D01*
Y247709D01*
X269127D01*
Y247658D01*
X269229D01*
Y247607D01*
X269280D01*
Y247557D01*
X269382D01*
Y247506D01*
X269483D01*
Y247455D01*
X269636D01*
Y247404D01*
X269738D01*
Y247353D01*
X269839D01*
Y247303D01*
X269992D01*
Y247252D01*
X270093D01*
Y247201D01*
X270246D01*
Y247150D01*
X270347D01*
Y247099D01*
X270500D01*
Y247048D01*
X270653D01*
Y246997D01*
X270805D01*
Y246947D01*
X271008D01*
Y246896D01*
X271161D01*
Y246845D01*
X271364D01*
Y246794D01*
X271568D01*
Y246743D01*
X271822D01*
Y246692D01*
X272025D01*
Y246642D01*
X272178D01*
Y246591D01*
X272381D01*
Y246540D01*
X272533D01*
Y246489D01*
X272686D01*
Y246438D01*
X272838D01*
Y246388D01*
X272940D01*
Y246337D01*
X273093D01*
Y246286D01*
X273194D01*
Y246235D01*
X273296D01*
Y246184D01*
X273397D01*
Y246133D01*
X273499D01*
Y246082D01*
X273550D01*
Y246032D01*
X273601D01*
Y245981D01*
X273703D01*
Y245930D01*
X273753D01*
Y245879D01*
X273804D01*
Y245778D01*
X273855D01*
Y245727D01*
X273906D01*
Y245574D01*
X273957D01*
Y245473D01*
X273906D01*
Y245269D01*
X273855D01*
Y245167D01*
X273804D01*
Y245066D01*
X273753D01*
Y245015D01*
X273703D01*
Y244964D01*
X273652D01*
Y244913D01*
X273601D01*
Y244863D01*
X273550D01*
Y244812D01*
X273448D01*
Y244761D01*
X273347D01*
Y244710D01*
X273245D01*
Y244659D01*
X273143D01*
Y244608D01*
X272991D01*
Y244557D01*
X272838D01*
Y244507D01*
X272584D01*
Y244456D01*
X271720D01*
Y244507D01*
X271466D01*
Y244557D01*
X271313D01*
Y244608D01*
X271161D01*
Y244659D01*
X271059D01*
Y244710D01*
X270957D01*
Y244761D01*
X270907D01*
Y244812D01*
X270856D01*
Y244863D01*
X270754D01*
Y244964D01*
X270703D01*
Y245015D01*
X270653D01*
Y245066D01*
X270602D01*
Y245117D01*
X270551D01*
Y245218D01*
X270500D01*
Y245320D01*
X270449D01*
Y245473D01*
X270398D01*
Y245676D01*
X266433D01*
Y245422D01*
X266383D01*
Y244710D01*
X266433D01*
Y244354D01*
X266484D01*
Y244202D01*
X266535D01*
Y244049D01*
X266586D01*
Y243897D01*
X266637D01*
Y243795D01*
X266687D01*
Y243693D01*
X266738D01*
Y243592D01*
X266789D01*
Y243490D01*
X266840D01*
Y243388D01*
X266891D01*
Y243337D01*
X266942D01*
Y243236D01*
X266992D01*
Y243185D01*
X267043D01*
Y243134D01*
X267094D01*
Y243083D01*
X267145D01*
Y242982D01*
X267196D01*
Y242931D01*
X267247D01*
Y242880D01*
X267298D01*
Y242829D01*
X267348D01*
Y242778D01*
X267399D01*
Y242727D01*
X267450D01*
Y242677D01*
X267552D01*
Y242626D01*
X267602D01*
Y242575D01*
X267653D01*
Y242524D01*
X267704D01*
Y242473D01*
X267806D01*
Y242423D01*
X267857D01*
Y242372D01*
X267958D01*
Y242321D01*
X268009D01*
Y242270D01*
X268111D01*
Y242219D01*
X268213D01*
Y242168D01*
X268314D01*
Y242118D01*
X268416D01*
Y242067D01*
X268517D01*
Y242016D01*
X268619D01*
Y241965D01*
X268721D01*
Y241914D01*
X268873D01*
Y241863D01*
X269026D01*
Y241812D01*
X269178D01*
Y241762D01*
X269331D01*
Y241711D01*
X269534D01*
Y241660D01*
X269738D01*
Y241609D01*
X270042D01*
Y241558D01*
X270449D01*
Y241508D01*
X272025D01*
Y241558D01*
X272482D01*
Y241609D01*
X272889D01*
Y241660D01*
X273143D01*
Y241711D01*
X273397D01*
Y241762D01*
X273652D01*
Y241812D01*
X273855D01*
Y241863D01*
X274008D01*
Y241914D01*
X274160D01*
Y241965D01*
X274363D01*
Y242016D01*
X274516D01*
Y242067D01*
X274668D01*
Y242118D01*
X274770D01*
Y242168D01*
X274872D01*
Y242219D01*
X275024D01*
Y242270D01*
X275126D01*
Y242321D01*
X275227D01*
Y242372D01*
X275380D01*
Y242423D01*
X275431D01*
Y242473D01*
X275533D01*
Y242524D01*
X275634D01*
Y242575D01*
X275736D01*
Y242626D01*
X275787D01*
Y242677D01*
X275888D01*
Y242727D01*
X275990D01*
Y242778D01*
X276041D01*
Y242829D01*
X276092D01*
Y242880D01*
X276193D01*
Y242931D01*
X276244D01*
Y242982D01*
X276295D01*
Y243033D01*
X276397D01*
Y243083D01*
X276448D01*
Y243134D01*
X276498D01*
Y243185D01*
X276549D01*
Y243236D01*
X276600D01*
Y243287D01*
X276651D01*
Y243337D01*
X276702D01*
Y243388D01*
X276752D01*
Y243439D01*
X276803D01*
Y243490D01*
X276854D01*
Y243541D01*
X276905D01*
Y243592D01*
X276956D01*
Y243642D01*
X277007D01*
Y243744D01*
X277058D01*
Y243795D01*
X277108D01*
Y243846D01*
X277159D01*
Y243948D01*
X277210D01*
Y243998D01*
X277261D01*
Y244100D01*
X277312D01*
Y244151D01*
X277362D01*
Y244252D01*
X277413D01*
Y244354D01*
X277464D01*
Y244456D01*
X277515D01*
Y244557D01*
X277566D01*
Y244659D01*
X277617D01*
Y244761D01*
X277667D01*
Y244913D01*
X277718D01*
Y245015D01*
X277769D01*
Y245167D01*
X277820D01*
Y245371D01*
X277871D01*
Y245574D01*
X277922D01*
Y245778D01*
X277973D01*
Y246032D01*
X278023D01*
Y246337D01*
X278074D01*
Y247048D01*
X278023D01*
Y247303D01*
X277973D01*
Y247455D01*
X277922D01*
Y247607D01*
X277871D01*
Y247709D01*
X277820D01*
Y247811D01*
X277769D01*
Y247913D01*
X277718D01*
Y248014D01*
X277667D01*
Y248116D01*
X277617D01*
Y248167D01*
X277566D01*
Y248218D01*
X277515D01*
Y248319D01*
X277464D01*
Y248370D01*
X277413D01*
Y248421D01*
X277362D01*
Y248472D01*
X277312D01*
Y248522D01*
X277261D01*
Y248573D01*
X277210D01*
Y248624D01*
X277159D01*
Y248675D01*
X277058D01*
Y248726D01*
X277007D01*
Y248777D01*
X276956D01*
Y248828D01*
X276854D01*
Y248878D01*
X276803D01*
Y248929D01*
X276702D01*
Y248980D01*
X276651D01*
Y249031D01*
X276549D01*
Y249082D01*
X276448D01*
Y249132D01*
X276346D01*
Y249183D01*
X276244D01*
Y249234D01*
X276092D01*
Y249285D01*
X275990D01*
Y249336D01*
X275837D01*
Y249387D01*
X275685D01*
Y249437D01*
X275533D01*
Y249488D01*
X275380D01*
Y249539D01*
X275227D01*
Y249590D01*
X275024D01*
Y249641D01*
X274872D01*
Y249692D01*
X274668D01*
Y249743D01*
X274465D01*
Y249793D01*
X274312D01*
Y249844D01*
X274109D01*
Y249895D01*
X273906D01*
Y249946D01*
X273753D01*
Y249997D01*
X273550D01*
Y250047D01*
X273397D01*
Y250098D01*
X273245D01*
Y250149D01*
X273093D01*
Y250200D01*
X272991D01*
Y250251D01*
X272838D01*
Y250302D01*
X272737D01*
Y250353D01*
X272584D01*
Y250403D01*
X272482D01*
Y250454D01*
X272381D01*
Y250505D01*
X272279D01*
Y250556D01*
X272178D01*
Y250607D01*
X272127D01*
Y250658D01*
X272076D01*
Y250708D01*
X272025D01*
Y250759D01*
X271974D01*
Y250810D01*
X271923D01*
Y250861D01*
X271872D01*
Y251013D01*
X271822D01*
Y251318D01*
X271872D01*
Y251420D01*
X271923D01*
Y251471D01*
X271974D01*
Y251572D01*
X272025D01*
Y251623D01*
X272127D01*
Y251674D01*
X272178D01*
Y251725D01*
X272279D01*
Y251776D01*
X272330D01*
Y251827D01*
X272482D01*
Y251877D01*
X272635D01*
Y251928D01*
X272889D01*
Y251979D01*
X273601D01*
Y251928D01*
X273855D01*
Y251877D01*
X274008D01*
Y251827D01*
X274160D01*
Y251776D01*
X274262D01*
Y251725D01*
X274363D01*
Y251674D01*
X274414D01*
Y251623D01*
X274516D01*
Y251572D01*
X274567D01*
Y251522D01*
X274618D01*
Y251471D01*
X274668D01*
Y251369D01*
X274719D01*
Y251268D01*
X274770D01*
Y251115D01*
X274821D01*
Y250861D01*
X278633D01*
Y251522D01*
X278583D01*
Y251877D01*
X278532D01*
Y252081D01*
X278481D01*
Y252284D01*
X278430D01*
Y252437D01*
X278379D01*
Y252589D01*
X278328D01*
Y252691D01*
X278277D01*
Y252843D01*
X278227D01*
Y252945D01*
X278176D01*
Y252996D01*
X278125D01*
Y253098D01*
X278074D01*
Y253148D01*
X278023D01*
Y253250D01*
X277973D01*
Y253301D01*
X277922D01*
Y253402D01*
X277871D01*
Y253453D01*
X277820D01*
Y253504D01*
X277769D01*
Y253555D01*
X277718D01*
Y253606D01*
X277667D01*
Y253657D01*
X277617D01*
Y253708D01*
X277566D01*
Y253758D01*
X277515D01*
Y253809D01*
X277464D01*
Y253860D01*
X277413D01*
Y253911D01*
X277362D01*
Y253962D01*
X277312D01*
Y254012D01*
X277210D01*
Y254063D01*
X277159D01*
Y254114D01*
X277058D01*
Y254165D01*
X277007D01*
Y254216D01*
X276905D01*
Y254267D01*
X276854D01*
Y254317D01*
X276752D01*
Y254368D01*
X276651D01*
Y254419D01*
X276549D01*
Y254470D01*
X276397D01*
Y254521D01*
X276295D01*
Y254572D01*
X276143D01*
Y254623D01*
X275990D01*
Y254673D01*
X275837D01*
Y254724D01*
X275634D01*
Y254775D01*
X275431D01*
Y254826D01*
X275177D01*
Y254877D01*
X274770D01*
Y254927D01*
D02*
G37*
G36*
X234103Y249437D02*
X233748D01*
Y249387D01*
X233595D01*
Y249336D01*
X233493D01*
Y249285D01*
X233442D01*
Y249234D01*
X233392D01*
Y249183D01*
X233341D01*
Y249132D01*
X233290D01*
Y249082D01*
X233239D01*
Y248980D01*
X233188D01*
Y248878D01*
X233137D01*
Y248777D01*
X233087D01*
Y248675D01*
X233036D01*
Y248522D01*
X232985D01*
Y248370D01*
X232934D01*
Y248065D01*
X232883D01*
Y247506D01*
X232934D01*
Y247303D01*
X232985D01*
Y247150D01*
X233036D01*
Y247099D01*
X233087D01*
Y247048D01*
X233137D01*
Y246997D01*
X233188D01*
Y246947D01*
X233239D01*
Y246896D01*
X233341D01*
Y246845D01*
X233798D01*
Y246896D01*
X233900D01*
Y246947D01*
X234002D01*
Y246997D01*
X234052D01*
Y247048D01*
X234103D01*
Y247099D01*
X234154D01*
Y247150D01*
X234205D01*
Y247252D01*
X234256D01*
Y247353D01*
X234307D01*
Y247455D01*
X234358D01*
Y247607D01*
X234408D01*
Y247760D01*
X234052D01*
Y247607D01*
X234002D01*
Y247506D01*
X233951D01*
Y247404D01*
X233900D01*
Y247353D01*
X233798D01*
Y247303D01*
X233442D01*
Y247353D01*
X233392D01*
Y247404D01*
X233341D01*
Y247455D01*
X233290D01*
Y247607D01*
Y247658D01*
X233239D01*
Y247963D01*
X233290D01*
Y248319D01*
X233341D01*
Y248522D01*
X233392D01*
Y248624D01*
X233442D01*
Y248726D01*
X233493D01*
Y248828D01*
X233544D01*
Y248878D01*
X233595D01*
Y248929D01*
X233697D01*
Y248980D01*
X234052D01*
Y248929D01*
X234103D01*
Y248878D01*
X234154D01*
Y248726D01*
X234205D01*
Y248573D01*
X234561D01*
Y248878D01*
X234510D01*
Y249082D01*
X234459D01*
Y249183D01*
X234408D01*
Y249234D01*
X234358D01*
Y249285D01*
X234307D01*
Y249336D01*
X234205D01*
Y249387D01*
X234103D01*
Y249437D01*
D02*
G37*
G36*
X250472Y249387D02*
X249557D01*
Y249285D01*
X249506D01*
Y248980D01*
X249455D01*
Y248624D01*
X249404D01*
Y248268D01*
X249353D01*
Y247913D01*
X249303D01*
Y247557D01*
X249252D01*
Y247252D01*
X249201D01*
Y246896D01*
X249963D01*
Y246947D01*
X250167D01*
Y246997D01*
X250268D01*
Y247048D01*
X250319D01*
Y247099D01*
X250370D01*
Y247150D01*
X250421D01*
Y247201D01*
X250472D01*
Y247252D01*
X250522D01*
Y247303D01*
X250573D01*
Y247404D01*
X250624D01*
Y247506D01*
X250675D01*
Y247607D01*
X250726D01*
Y247760D01*
X250777D01*
Y247963D01*
X250828D01*
Y248319D01*
X250878D01*
Y248777D01*
X250828D01*
Y249031D01*
X250777D01*
Y249132D01*
X250726D01*
Y249234D01*
X250675D01*
Y249285D01*
X250573D01*
Y249336D01*
X250472D01*
Y249387D01*
D02*
G37*
G36*
X248540D02*
X247269D01*
Y249234D01*
X247218D01*
Y248878D01*
X247167D01*
Y248573D01*
X247117D01*
Y248218D01*
X247066D01*
Y247862D01*
X247015D01*
Y247506D01*
X246964D01*
Y247150D01*
X246913D01*
Y246896D01*
X248184D01*
Y246947D01*
X248235D01*
Y247201D01*
X248286D01*
Y247353D01*
X247320D01*
Y247455D01*
X247371D01*
Y247811D01*
X247422D01*
Y247963D01*
X248235D01*
Y248014D01*
X248286D01*
Y248268D01*
X248337D01*
Y248421D01*
X247523D01*
Y248828D01*
X247574D01*
Y248980D01*
X248489D01*
Y249183D01*
X248540D01*
Y249387D01*
D02*
G37*
G36*
X246252D02*
X245897D01*
Y249234D01*
X245846D01*
Y248929D01*
X245795D01*
Y248573D01*
X245744D01*
Y248268D01*
X245693D01*
Y247913D01*
X245642D01*
Y247557D01*
X245592D01*
Y247201D01*
X245541D01*
Y246896D01*
X245846D01*
Y246947D01*
X245897D01*
Y247150D01*
X245948D01*
Y247506D01*
X245998D01*
Y247811D01*
X246049D01*
Y248167D01*
X246100D01*
Y248472D01*
X246151D01*
Y248828D01*
X246202D01*
Y249183D01*
X246252D01*
Y249387D01*
D02*
G37*
G36*
X244982D02*
X243762D01*
Y249132D01*
X243711D01*
Y248777D01*
X243660D01*
Y248472D01*
X243609D01*
Y248116D01*
X243558D01*
Y247811D01*
X243508D01*
Y247455D01*
X243457D01*
Y247150D01*
X243406D01*
Y246947D01*
X243457D01*
Y246896D01*
X243762D01*
Y247048D01*
X243812D01*
Y247353D01*
X243863D01*
Y247709D01*
X243914D01*
Y247963D01*
X244677D01*
Y248014D01*
X244727D01*
Y248319D01*
X244778D01*
Y248370D01*
X244727D01*
Y248421D01*
X244016D01*
Y248726D01*
X244067D01*
Y248980D01*
X244931D01*
Y249031D01*
X244982D01*
Y249387D01*
D02*
G37*
G36*
X242745D02*
X242389D01*
Y249082D01*
X242338D01*
Y248726D01*
X242287D01*
Y248370D01*
X242237D01*
Y248065D01*
X242186D01*
Y247709D01*
X242135D01*
Y247404D01*
X242084D01*
Y247252D01*
Y247201D01*
Y247048D01*
X242033D01*
Y246947D01*
X242084D01*
Y246896D01*
X242389D01*
Y246997D01*
X242440D01*
Y247303D01*
X242491D01*
Y247658D01*
X242542D01*
Y248014D01*
X242593D01*
Y248370D01*
X242643D01*
Y248726D01*
X242694D01*
Y249031D01*
X242745D01*
Y249387D01*
D02*
G37*
G36*
X241576D02*
X240153D01*
Y249234D01*
X240102D01*
Y248980D01*
X240610D01*
Y248726D01*
X240559D01*
Y248421D01*
X240508D01*
Y248065D01*
X240458D01*
Y247760D01*
X240407D01*
Y247404D01*
X240356D01*
Y247099D01*
X240305D01*
Y246947D01*
X240356D01*
Y246896D01*
X240661D01*
Y246997D01*
X240712D01*
Y247353D01*
X240762D01*
Y247658D01*
X240813D01*
Y248014D01*
X240864D01*
Y248319D01*
X240915D01*
Y248675D01*
X240966D01*
Y248980D01*
X241474D01*
Y249031D01*
X241525D01*
Y249336D01*
X241576D01*
Y249387D01*
D02*
G37*
G36*
X238983D02*
X237916D01*
Y249336D01*
X237865D01*
Y249031D01*
X237814D01*
Y248675D01*
X237763D01*
Y248319D01*
X237713D01*
Y248014D01*
X237662D01*
Y247658D01*
X237611D01*
Y247353D01*
X237560D01*
Y246997D01*
X237509D01*
Y246947D01*
X237560D01*
Y246896D01*
X237865D01*
Y246947D01*
X237916D01*
Y247303D01*
X237967D01*
Y247658D01*
X238018D01*
Y247862D01*
X238068D01*
Y247913D01*
X238526D01*
Y247862D01*
X238628D01*
Y247404D01*
X238577D01*
Y246947D01*
X238628D01*
Y246896D01*
X238932D01*
Y246947D01*
X238983D01*
Y247048D01*
X238932D01*
Y247353D01*
X238983D01*
Y248014D01*
X238932D01*
Y248065D01*
X238882D01*
Y248116D01*
X238831D01*
Y248167D01*
X238932D01*
Y248218D01*
X238983D01*
Y248268D01*
X239034D01*
Y248319D01*
X239085D01*
Y248421D01*
X239136D01*
Y248522D01*
X239187D01*
Y248726D01*
X239237D01*
Y249031D01*
X239187D01*
Y249183D01*
X239136D01*
Y249234D01*
X239085D01*
Y249285D01*
X239034D01*
Y249336D01*
X238983D01*
Y249387D01*
D02*
G37*
G36*
X236899D02*
X235628D01*
Y249336D01*
X235578D01*
Y248980D01*
X235527D01*
Y248624D01*
X235476D01*
Y248319D01*
X235425D01*
Y247963D01*
X235374D01*
Y247658D01*
X235323D01*
Y247303D01*
X235273D01*
Y246997D01*
X235222D01*
Y246947D01*
X235273D01*
Y246896D01*
X236543D01*
Y247048D01*
X236594D01*
Y247353D01*
X235679D01*
Y247607D01*
X235730D01*
Y247963D01*
X236594D01*
Y248116D01*
X236645D01*
Y248421D01*
X235832D01*
Y248624D01*
X235882D01*
Y248929D01*
X235933D01*
Y248980D01*
X236848D01*
Y249285D01*
X236899D01*
Y249387D01*
D02*
G37*
G36*
X268111Y254521D02*
X263892D01*
Y254470D01*
X263841D01*
Y254216D01*
X263790D01*
Y253962D01*
X263739D01*
Y253708D01*
X263688D01*
Y253453D01*
X263637D01*
Y253199D01*
X263587D01*
Y252996D01*
X263536D01*
Y252742D01*
X263485D01*
Y252487D01*
X263434D01*
Y252284D01*
X263383D01*
Y252030D01*
X263333D01*
Y251776D01*
X263282D01*
Y251522D01*
X263231D01*
Y251318D01*
X263180D01*
Y251064D01*
X263129D01*
Y250810D01*
X263078D01*
Y250556D01*
X263028D01*
Y250302D01*
X262977D01*
Y250047D01*
X262926D01*
Y249793D01*
X262875D01*
Y249590D01*
X262824D01*
Y249336D01*
X262773D01*
Y249082D01*
X262722D01*
Y248878D01*
X262672D01*
Y248624D01*
X262621D01*
Y248370D01*
X262570D01*
Y248116D01*
X262519D01*
Y247913D01*
X262468D01*
Y247658D01*
X262418D01*
Y247404D01*
X262367D01*
Y247150D01*
X262316D01*
Y246896D01*
X262265D01*
Y246642D01*
X262214D01*
Y246388D01*
X262163D01*
Y246184D01*
X262112D01*
Y245981D01*
X262062D01*
Y245879D01*
X262011D01*
Y245727D01*
X261960D01*
Y245625D01*
X261909D01*
Y245574D01*
X261858D01*
Y245473D01*
X261807D01*
Y245371D01*
X261757D01*
Y245320D01*
X261706D01*
Y245269D01*
X261655D01*
Y245167D01*
X261604D01*
Y245117D01*
X261553D01*
Y245066D01*
X261503D01*
Y245015D01*
X261452D01*
Y244964D01*
X261350D01*
Y244913D01*
X261299D01*
Y244863D01*
X261197D01*
Y244812D01*
X261096D01*
Y244761D01*
X260994D01*
Y244710D01*
X260791D01*
Y244659D01*
X259927D01*
Y244710D01*
X259367D01*
Y244761D01*
X259164D01*
Y244812D01*
X259012D01*
Y244863D01*
X258910D01*
Y244913D01*
X258808D01*
Y244964D01*
X258707D01*
Y245015D01*
X258656D01*
Y245066D01*
X258605D01*
Y245117D01*
X258554D01*
Y245218D01*
X258503D01*
Y245269D01*
X258453D01*
Y245422D01*
X258402D01*
Y245676D01*
X258351D01*
Y245930D01*
X258402D01*
Y246235D01*
X258453D01*
Y246540D01*
X258503D01*
Y246794D01*
X258554D01*
Y247048D01*
X258605D01*
Y247303D01*
X258656D01*
Y247607D01*
X258707D01*
Y247862D01*
X258757D01*
Y248116D01*
X258808D01*
Y248370D01*
X258859D01*
Y248624D01*
X258910D01*
Y248878D01*
X258961D01*
Y249132D01*
X259012D01*
Y249387D01*
X259063D01*
Y249641D01*
X259113D01*
Y249895D01*
X259164D01*
Y250149D01*
X259215D01*
Y250403D01*
X259266D01*
Y250708D01*
X259317D01*
Y250962D01*
X259367D01*
Y251217D01*
X259418D01*
Y251471D01*
X259469D01*
Y251725D01*
X259520D01*
Y252030D01*
X259571D01*
Y252284D01*
X259622D01*
Y252538D01*
X259672D01*
Y252793D01*
X259723D01*
Y253047D01*
X259774D01*
Y253301D01*
X259825D01*
Y253555D01*
X259876D01*
Y253809D01*
X259927D01*
Y254063D01*
X259978D01*
Y254317D01*
X260028D01*
Y254521D01*
X255911D01*
Y254267D01*
X255860D01*
Y254012D01*
X255809D01*
Y253758D01*
X255758D01*
Y253504D01*
X255708D01*
Y253199D01*
X255657D01*
Y252945D01*
X255606D01*
Y252691D01*
X255555D01*
Y252437D01*
X255504D01*
Y252132D01*
X255453D01*
Y251877D01*
X255402D01*
Y251623D01*
X255352D01*
Y251318D01*
X255301D01*
Y251064D01*
X255250D01*
Y250810D01*
X255199D01*
Y250556D01*
X255148D01*
Y250302D01*
X255098D01*
Y250047D01*
X255047D01*
Y249793D01*
X254996D01*
Y249539D01*
X254945D01*
Y249285D01*
X254894D01*
Y248980D01*
X254843D01*
Y248726D01*
X254792D01*
Y248472D01*
X254742D01*
Y248218D01*
X254691D01*
Y247913D01*
X254640D01*
Y247658D01*
X254589D01*
Y247404D01*
X254538D01*
Y247099D01*
X254487D01*
Y246845D01*
X254437D01*
Y246591D01*
X254386D01*
Y246337D01*
X254335D01*
Y246082D01*
X254284D01*
Y245828D01*
X254233D01*
Y245574D01*
X254183D01*
Y245320D01*
X254233D01*
Y244964D01*
X254284D01*
Y244659D01*
X254335D01*
Y244405D01*
X254386D01*
Y244202D01*
X254437D01*
Y243998D01*
X254487D01*
Y243846D01*
X254538D01*
Y243744D01*
X254589D01*
Y243592D01*
X254640D01*
Y243490D01*
X254691D01*
Y243388D01*
X254742D01*
Y243287D01*
X254792D01*
Y243185D01*
X254843D01*
Y243134D01*
X254894D01*
Y243083D01*
X254945D01*
Y242982D01*
X254996D01*
Y242931D01*
X255047D01*
Y242880D01*
X255098D01*
Y242829D01*
X255148D01*
Y242778D01*
X255199D01*
Y242727D01*
X255250D01*
Y242677D01*
X255301D01*
Y242626D01*
X255352D01*
Y242575D01*
X255402D01*
Y242524D01*
X255453D01*
Y242473D01*
X255504D01*
Y242423D01*
X255606D01*
Y242372D01*
X255657D01*
Y242321D01*
X255758D01*
Y242270D01*
X255809D01*
Y242219D01*
X255911D01*
Y242168D01*
X256013D01*
Y242118D01*
X256114D01*
Y242067D01*
X256216D01*
Y242016D01*
X256368D01*
Y241965D01*
X256470D01*
Y241914D01*
X256623D01*
Y241863D01*
X256775D01*
Y241812D01*
X256927D01*
Y241762D01*
X257131D01*
Y241711D01*
X257334D01*
Y241660D01*
X257588D01*
Y241609D01*
X257944D01*
Y241558D01*
X258402D01*
Y241508D01*
X259367D01*
Y241457D01*
X259876D01*
Y241508D01*
X260740D01*
Y241558D01*
X261147D01*
Y241609D01*
X261452D01*
Y241660D01*
X261706D01*
Y241711D01*
X261909D01*
Y241762D01*
X262112D01*
Y241812D01*
X262265D01*
Y241863D01*
X262418D01*
Y241914D01*
X262570D01*
Y241965D01*
X262672D01*
Y242016D01*
X262824D01*
Y242067D01*
X262926D01*
Y242118D01*
X263028D01*
Y242168D01*
X263129D01*
Y242219D01*
X263231D01*
Y242270D01*
X263333D01*
Y242321D01*
X263434D01*
Y242372D01*
X263536D01*
Y242423D01*
X263637D01*
Y242473D01*
X263688D01*
Y242524D01*
X263790D01*
Y242575D01*
X263841D01*
Y242626D01*
X263892D01*
Y242677D01*
X263993D01*
Y242727D01*
X264044D01*
Y242778D01*
X264095D01*
Y242829D01*
X264197D01*
Y242880D01*
X264247D01*
Y242931D01*
X264298D01*
Y242982D01*
X264349D01*
Y243033D01*
X264400D01*
Y243083D01*
X264451D01*
Y243134D01*
X264502D01*
Y243185D01*
X264552D01*
Y243236D01*
X264603D01*
Y243287D01*
X264654D01*
Y243337D01*
X264705D01*
Y243388D01*
X264756D01*
Y243439D01*
X264807D01*
Y243490D01*
X264858D01*
Y243541D01*
X264908D01*
Y243592D01*
X264959D01*
Y243693D01*
X265010D01*
Y243744D01*
X265061D01*
Y243795D01*
X265112D01*
Y243846D01*
X265162D01*
Y243948D01*
X265213D01*
Y243998D01*
X265264D01*
Y244100D01*
X265315D01*
Y244151D01*
X265366D01*
Y244252D01*
X265417D01*
Y244303D01*
X265468D01*
Y244405D01*
X265518D01*
Y244507D01*
X265569D01*
Y244557D01*
X265620D01*
Y244659D01*
X265671D01*
Y244761D01*
X265722D01*
Y244863D01*
X265773D01*
Y244913D01*
X265823D01*
Y245015D01*
X265874D01*
Y245117D01*
X265925D01*
Y245218D01*
X265976D01*
Y245371D01*
X266027D01*
Y245473D01*
X266077D01*
Y245574D01*
X266128D01*
Y245676D01*
X266179D01*
Y245828D01*
X266230D01*
Y245930D01*
X266281D01*
Y246082D01*
X266332D01*
Y246235D01*
X266383D01*
Y246438D01*
X266433D01*
Y246642D01*
X266484D01*
Y246845D01*
X266535D01*
Y247048D01*
X266586D01*
Y247252D01*
X266637D01*
Y247506D01*
X266687D01*
Y247709D01*
X266738D01*
Y247913D01*
X266789D01*
Y248167D01*
X266840D01*
Y248370D01*
X266891D01*
Y248624D01*
X266942D01*
Y248878D01*
X266992D01*
Y249132D01*
X267043D01*
Y249387D01*
X267094D01*
Y249641D01*
X267145D01*
Y249844D01*
X267196D01*
Y250098D01*
X267247D01*
Y250353D01*
X267298D01*
Y250607D01*
X267348D01*
Y250861D01*
X267399D01*
Y251115D01*
X267450D01*
Y251369D01*
X267501D01*
Y251623D01*
X267552D01*
Y251877D01*
X267602D01*
Y252183D01*
X267653D01*
Y252437D01*
X267704D01*
Y252691D01*
X267755D01*
Y252945D01*
X267806D01*
Y253199D01*
X267857D01*
Y253453D01*
X267908D01*
Y253708D01*
X267958D01*
Y253962D01*
X268009D01*
Y254216D01*
X268060D01*
Y254470D01*
X268111D01*
Y254521D01*
D02*
G37*
G36*
X287834D02*
X280107D01*
Y254317D01*
X280057D01*
Y254063D01*
X280006D01*
Y253809D01*
X279955D01*
Y253555D01*
X279904D01*
Y253301D01*
X279853D01*
Y252996D01*
X279802D01*
Y252742D01*
X279752D01*
Y252487D01*
X279701D01*
Y252233D01*
X279650D01*
Y251979D01*
X279599D01*
Y251674D01*
X279548D01*
Y251420D01*
X279498D01*
Y251166D01*
X279447D01*
Y250962D01*
X279396D01*
Y250708D01*
X279345D01*
Y250454D01*
X279294D01*
Y250200D01*
X279243D01*
Y249946D01*
X279192D01*
Y249692D01*
X279142D01*
Y249437D01*
X279091D01*
Y249285D01*
Y249234D01*
Y249132D01*
X279040D01*
Y248878D01*
X278989D01*
Y248624D01*
X278938D01*
Y248370D01*
X278888D01*
Y248116D01*
X278837D01*
Y247811D01*
X278786D01*
Y247557D01*
X278735D01*
Y247303D01*
X278684D01*
Y247099D01*
X278633D01*
Y246845D01*
X278583D01*
Y246591D01*
X278532D01*
Y246337D01*
X278481D01*
Y246082D01*
X278430D01*
Y245828D01*
X278379D01*
Y245574D01*
X278328D01*
Y245269D01*
X278277D01*
Y245015D01*
X278227D01*
Y244761D01*
X278176D01*
Y244507D01*
X278125D01*
Y244252D01*
X278074D01*
Y243948D01*
X278023D01*
Y243693D01*
X277973D01*
Y243439D01*
X277922D01*
Y243236D01*
X277871D01*
Y242982D01*
X277820D01*
Y242727D01*
X277769D01*
Y242473D01*
X277718D01*
Y242219D01*
X277667D01*
Y241965D01*
X277617D01*
Y241863D01*
X285648D01*
Y241914D01*
X285903D01*
Y241965D01*
X286157D01*
Y242016D01*
X286309D01*
Y242067D01*
X286512D01*
Y242118D01*
X286665D01*
Y242168D01*
X286818D01*
Y242219D01*
X286970D01*
Y242270D01*
X287072D01*
Y242321D01*
X287224D01*
Y242372D01*
X287326D01*
Y242423D01*
X287427D01*
Y242473D01*
X287529D01*
Y242524D01*
X287631D01*
Y242575D01*
X287733D01*
Y242626D01*
X287834D01*
Y242677D01*
X287885D01*
Y242727D01*
X287987D01*
Y242778D01*
X288037D01*
Y242829D01*
X288139D01*
Y242880D01*
X288190D01*
Y242931D01*
X288292D01*
Y242982D01*
X288342D01*
Y243033D01*
X288393D01*
Y243083D01*
X288495D01*
Y243134D01*
X288546D01*
Y243185D01*
X288597D01*
Y243236D01*
X288648D01*
Y243287D01*
X288698D01*
Y243337D01*
X288749D01*
Y243388D01*
X288800D01*
Y243439D01*
X288851D01*
Y243490D01*
X288902D01*
Y243541D01*
X288952D01*
Y243592D01*
X289003D01*
Y243642D01*
X289054D01*
Y243693D01*
X289105D01*
Y243795D01*
X289156D01*
Y243846D01*
X289207D01*
Y243897D01*
X289258D01*
Y243998D01*
X289308D01*
Y244049D01*
X289359D01*
Y244151D01*
X289410D01*
Y244252D01*
X289461D01*
Y244303D01*
X289512D01*
Y244405D01*
X289563D01*
Y244507D01*
X289613D01*
Y244608D01*
X289664D01*
Y244761D01*
X289715D01*
Y244913D01*
X289766D01*
Y245066D01*
X289817D01*
Y245269D01*
X289867D01*
Y245523D01*
X289918D01*
Y246743D01*
X289867D01*
Y246997D01*
X289817D01*
Y247201D01*
X289766D01*
Y247353D01*
X289715D01*
Y247455D01*
X289664D01*
Y247607D01*
X289613D01*
Y247709D01*
X289563D01*
Y247811D01*
X289512D01*
Y247862D01*
X289461D01*
Y247963D01*
X289410D01*
Y248014D01*
X289359D01*
Y248116D01*
X289308D01*
Y248167D01*
X289258D01*
Y248218D01*
X289207D01*
Y248268D01*
X289156D01*
Y248319D01*
X289105D01*
Y248370D01*
X289054D01*
Y248421D01*
X289003D01*
Y248472D01*
X288902D01*
Y248522D01*
X288851D01*
Y248573D01*
X288749D01*
Y248624D01*
X288597D01*
Y248675D01*
X288495D01*
Y248726D01*
X288597D01*
Y248777D01*
X288698D01*
Y248828D01*
X288851D01*
Y248878D01*
X288902D01*
Y248929D01*
X289003D01*
Y248980D01*
X289054D01*
Y249031D01*
X289156D01*
Y249082D01*
X289207D01*
Y249132D01*
X289258D01*
Y249183D01*
X289308D01*
Y249234D01*
X289359D01*
Y249285D01*
X289410D01*
Y249336D01*
X289461D01*
Y249387D01*
X289512D01*
Y249437D01*
X289563D01*
Y249488D01*
X289613D01*
Y249539D01*
X289664D01*
Y249590D01*
X289715D01*
Y249641D01*
X289766D01*
Y249692D01*
X289817D01*
Y249743D01*
X289867D01*
Y249844D01*
X289918D01*
Y249895D01*
X289969D01*
Y249997D01*
X290020D01*
Y250047D01*
X290071D01*
Y250149D01*
X290122D01*
Y250200D01*
X290173D01*
Y250302D01*
X290223D01*
Y250403D01*
X290274D01*
Y250454D01*
X290325D01*
Y250556D01*
X290376D01*
Y250658D01*
X290427D01*
Y250810D01*
X290477D01*
Y250912D01*
X290528D01*
Y251064D01*
X290579D01*
Y251217D01*
X290630D01*
Y251420D01*
X290681D01*
Y251674D01*
X290732D01*
Y252386D01*
X290681D01*
Y252640D01*
X290630D01*
Y252793D01*
X290579D01*
Y252945D01*
X290528D01*
Y253047D01*
X290477D01*
Y253148D01*
X290427D01*
Y253199D01*
X290376D01*
Y253301D01*
X290325D01*
Y253352D01*
X290274D01*
Y253402D01*
X290223D01*
Y253453D01*
X290173D01*
Y253504D01*
X290122D01*
Y253555D01*
X290071D01*
Y253606D01*
X290020D01*
Y253657D01*
X289969D01*
Y253708D01*
X289918D01*
Y253758D01*
X289817D01*
Y253809D01*
X289766D01*
Y253860D01*
X289664D01*
Y253911D01*
X289613D01*
Y253962D01*
X289512D01*
Y254012D01*
X289410D01*
Y254063D01*
X289308D01*
Y254114D01*
X289207D01*
Y254165D01*
X289054D01*
Y254216D01*
X288902D01*
Y254267D01*
X288749D01*
Y254317D01*
X288597D01*
Y254368D01*
X288393D01*
Y254419D01*
X288139D01*
Y254470D01*
X287834D01*
Y254521D01*
D02*
G37*
G36*
X279091Y240593D02*
X278837D01*
Y240542D01*
X278786D01*
Y240440D01*
X278735D01*
Y240338D01*
X278684D01*
Y240287D01*
X278633D01*
Y240186D01*
X278583D01*
Y240084D01*
X278532D01*
Y239983D01*
X278481D01*
Y239932D01*
X278430D01*
Y239830D01*
X278379D01*
Y239728D01*
X278328D01*
Y239627D01*
X278277D01*
Y239525D01*
X278227D01*
Y239474D01*
X278176D01*
Y239372D01*
X278125D01*
Y239271D01*
X278074D01*
Y239169D01*
X277973D01*
Y239576D01*
X277922D01*
Y239881D01*
X277871D01*
Y240186D01*
X277820D01*
Y240491D01*
X277769D01*
Y240593D01*
X277515D01*
Y240491D01*
X277464D01*
Y240237D01*
X277413D01*
Y240033D01*
X277362D01*
Y239779D01*
X277312D01*
Y239525D01*
X277261D01*
Y239322D01*
X277210D01*
Y239068D01*
X277159D01*
Y238915D01*
Y238864D01*
X277362D01*
Y238966D01*
X277413D01*
Y239169D01*
X277464D01*
Y239423D01*
X277515D01*
Y239678D01*
X277566D01*
Y239932D01*
X277617D01*
Y240135D01*
X277667D01*
Y239932D01*
X277718D01*
Y239576D01*
X277769D01*
Y239271D01*
X277820D01*
Y238966D01*
X277871D01*
Y238864D01*
X278074D01*
Y238915D01*
X278125D01*
Y239017D01*
X278176D01*
Y239068D01*
X278227D01*
Y239169D01*
X278277D01*
Y239271D01*
X278328D01*
Y239372D01*
X278379D01*
Y239423D01*
X278430D01*
Y239525D01*
X278481D01*
Y239627D01*
X278532D01*
Y239728D01*
X278583D01*
Y239830D01*
X278633D01*
Y239881D01*
X278684D01*
Y239983D01*
X278735D01*
Y240084D01*
X278786D01*
Y240135D01*
X278837D01*
Y240084D01*
X278786D01*
Y239881D01*
X278735D01*
Y239678D01*
X278684D01*
Y239423D01*
X278633D01*
Y239220D01*
X278583D01*
Y238966D01*
X278532D01*
Y238915D01*
X278583D01*
Y238864D01*
X278735D01*
Y238915D01*
X278786D01*
Y239068D01*
X278837D01*
Y239322D01*
X278888D01*
Y239576D01*
X278938D01*
Y239779D01*
X278989D01*
Y240033D01*
X279040D01*
Y240287D01*
X279091D01*
Y240593D01*
D02*
G37*
G36*
X277261D02*
X275939D01*
Y240542D01*
X275888D01*
Y240389D01*
X276448D01*
Y240287D01*
X276397D01*
Y240084D01*
X276346D01*
Y239830D01*
X276295D01*
Y239576D01*
X276244D01*
Y239322D01*
X276193D01*
Y239118D01*
X276143D01*
Y238864D01*
X276346D01*
Y238966D01*
X276397D01*
Y239220D01*
X276448D01*
Y239423D01*
X276498D01*
Y239678D01*
X276549D01*
Y239932D01*
X276600D01*
Y240135D01*
X276651D01*
Y240389D01*
X277210D01*
Y240440D01*
X277261D01*
Y240593D01*
D02*
G37*
%LPD*%
G36*
X250319Y248929D02*
X250370D01*
Y248878D01*
X250421D01*
Y248828D01*
X250472D01*
Y248726D01*
Y248675D01*
Y248624D01*
X250522D01*
Y248421D01*
X250472D01*
Y248014D01*
X250421D01*
Y247811D01*
X250370D01*
Y247658D01*
X250319D01*
Y247557D01*
X250268D01*
Y247506D01*
X250218D01*
Y247455D01*
X250167D01*
Y247404D01*
X250065D01*
Y247353D01*
X249607D01*
Y247557D01*
X249658D01*
Y247862D01*
X249709D01*
Y248218D01*
X249760D01*
Y248573D01*
X249811D01*
Y248878D01*
X249862D01*
Y248980D01*
X250319D01*
Y248929D01*
D02*
G37*
G36*
X238729D02*
X238780D01*
Y248878D01*
X238831D01*
Y248777D01*
X238882D01*
Y248726D01*
X238831D01*
Y248522D01*
X238780D01*
Y248421D01*
X238729D01*
Y248370D01*
X238628D01*
Y248319D01*
X238119D01*
Y248421D01*
Y248472D01*
Y248675D01*
X238170D01*
Y248980D01*
X238729D01*
Y248929D01*
D02*
G37*
G36*
X285852Y251572D02*
X286004D01*
Y251522D01*
X286157D01*
Y251471D01*
X286208D01*
Y251420D01*
X286309D01*
Y251369D01*
X286360D01*
Y251318D01*
X286411D01*
Y251217D01*
X286462D01*
Y251115D01*
X286512D01*
Y251013D01*
X286563D01*
Y250505D01*
X286512D01*
Y250353D01*
X286462D01*
Y250251D01*
X286411D01*
Y250149D01*
X286360D01*
Y250047D01*
X286309D01*
Y249997D01*
X286258D01*
Y249946D01*
X286208D01*
Y249895D01*
X286157D01*
Y249844D01*
X286106D01*
Y249793D01*
X286055D01*
Y249743D01*
X286004D01*
Y249692D01*
X285953D01*
Y249641D01*
X285852D01*
Y249590D01*
X285750D01*
Y249539D01*
X285648D01*
Y249488D01*
X285445D01*
Y249437D01*
X283005D01*
Y249743D01*
X283056D01*
Y250047D01*
X283107D01*
Y250302D01*
X283157D01*
Y250607D01*
X283208D01*
Y250861D01*
X283259D01*
Y251166D01*
X283310D01*
Y251420D01*
X283361D01*
Y251623D01*
X285852D01*
Y251572D01*
D02*
G37*
G36*
X285343Y247048D02*
X285547D01*
Y246997D01*
X285699D01*
Y246947D01*
X285750D01*
Y246896D01*
X285852D01*
Y246845D01*
X285903D01*
Y246794D01*
X285953D01*
Y246743D01*
X286004D01*
Y246692D01*
X286055D01*
Y246591D01*
X286106D01*
Y246438D01*
X286157D01*
Y246184D01*
X286208D01*
Y246082D01*
X286157D01*
Y245828D01*
X286106D01*
Y245676D01*
X286055D01*
Y245574D01*
X286004D01*
Y245473D01*
X285953D01*
Y245422D01*
X285903D01*
Y245371D01*
X285852D01*
Y245320D01*
X285801D01*
Y245269D01*
X285750D01*
Y245218D01*
X285699D01*
Y245167D01*
X285648D01*
Y245117D01*
X285547D01*
Y245066D01*
X285496D01*
Y245015D01*
X285394D01*
Y244964D01*
X285293D01*
Y244913D01*
X285191D01*
Y244863D01*
X285038D01*
Y244812D01*
X284835D01*
Y244761D01*
X281988D01*
Y245015D01*
X282039D01*
Y245320D01*
X282090D01*
Y245574D01*
X282141D01*
Y245879D01*
X282192D01*
Y246184D01*
X282242D01*
Y246489D01*
X282293D01*
Y246794D01*
X282344D01*
Y247048D01*
X282395D01*
Y247099D01*
X285343D01*
Y247048D01*
D02*
G37*
%LPC*%
G36*
X277871Y236170D02*
X277210D01*
Y236119D01*
X277058D01*
Y236068D01*
X276956D01*
Y236017D01*
X276905D01*
Y235967D01*
X276803D01*
Y235916D01*
X276752D01*
Y235865D01*
X276702D01*
Y235814D01*
X276651D01*
Y235763D01*
X276600D01*
Y235713D01*
X276549D01*
Y235611D01*
X276498D01*
Y235560D01*
X276448D01*
Y235458D01*
X276397D01*
Y235357D01*
X276346D01*
Y235255D01*
X276295D01*
Y235153D01*
X276244D01*
Y235001D01*
X276193D01*
Y234798D01*
X276143D01*
Y234543D01*
X276092D01*
Y233476D01*
X276143D01*
Y233323D01*
X276193D01*
Y233171D01*
X276244D01*
Y233069D01*
X276295D01*
Y232967D01*
X276346D01*
Y232917D01*
X276397D01*
Y232866D01*
X276448D01*
Y232815D01*
X276498D01*
Y232764D01*
X276549D01*
Y232713D01*
X276651D01*
Y232663D01*
X276752D01*
Y232612D01*
X276905D01*
Y232561D01*
X277312D01*
Y232612D01*
X277515D01*
Y232663D01*
X277667D01*
Y232713D01*
X277769D01*
Y232764D01*
X277871D01*
Y232815D01*
X277973D01*
Y232866D01*
X278023D01*
Y232967D01*
X278074D01*
Y233374D01*
X278125D01*
Y233781D01*
X278176D01*
Y234188D01*
X278227D01*
Y234594D01*
X277362D01*
Y234442D01*
X277312D01*
Y233984D01*
X277617D01*
Y233730D01*
X277566D01*
Y233323D01*
X277515D01*
Y233273D01*
X277362D01*
Y233222D01*
X277108D01*
Y233273D01*
X276956D01*
Y233323D01*
X276905D01*
Y233374D01*
X276854D01*
Y233476D01*
X276803D01*
Y233577D01*
X276752D01*
Y233730D01*
X276702D01*
Y233781D01*
Y233832D01*
Y234594D01*
X276752D01*
Y234798D01*
X276803D01*
Y234950D01*
X276854D01*
Y235052D01*
X276905D01*
Y235153D01*
X276956D01*
Y235204D01*
X277007D01*
Y235306D01*
X277058D01*
Y235357D01*
X277108D01*
Y235407D01*
X277210D01*
Y235458D01*
X277312D01*
Y235509D01*
X277769D01*
Y235458D01*
X277922D01*
Y235407D01*
X278023D01*
Y235357D01*
X278074D01*
Y235306D01*
X278125D01*
Y235255D01*
X278277D01*
Y235662D01*
X278328D01*
Y235967D01*
X278227D01*
Y236017D01*
X278125D01*
Y236068D01*
X278023D01*
Y236119D01*
X277871D01*
Y236170D01*
D02*
G37*
G36*
X272584Y236119D02*
X272025D01*
Y236017D01*
X271974D01*
Y235611D01*
X271923D01*
Y235204D01*
X271872D01*
Y234848D01*
X271822D01*
Y234798D01*
X271008D01*
Y234950D01*
X271059D01*
Y235357D01*
X271110D01*
Y235763D01*
X271161D01*
Y236119D01*
X270602D01*
Y235916D01*
X270551D01*
Y235509D01*
X270500D01*
Y235103D01*
X270449D01*
Y234696D01*
X270398D01*
Y234289D01*
X270347D01*
Y233882D01*
X270297D01*
Y233476D01*
X270246D01*
Y233069D01*
X270195D01*
Y232612D01*
X270754D01*
Y232917D01*
X270805D01*
Y233323D01*
X270856D01*
Y233730D01*
X270907D01*
Y234086D01*
X271771D01*
Y234035D01*
X271720D01*
Y233628D01*
X271669D01*
Y233222D01*
X271618D01*
Y232815D01*
X271568D01*
Y232612D01*
X272127D01*
Y232663D01*
X272178D01*
Y232967D01*
X272228D01*
Y233425D01*
X272279D01*
Y233832D01*
X272330D01*
Y234289D01*
X272381D01*
Y234696D01*
X272432D01*
Y235103D01*
X272482D01*
Y235509D01*
X272533D01*
Y235916D01*
X272584D01*
Y236119D01*
D02*
G37*
G36*
X267145D02*
X266637D01*
Y236068D01*
X266586D01*
Y235763D01*
X266535D01*
Y235357D01*
X266484D01*
Y234950D01*
X266433D01*
Y234594D01*
Y234543D01*
X266383D01*
Y234137D01*
X266332D01*
Y233832D01*
X266281D01*
Y233984D01*
X266230D01*
Y234238D01*
X266179D01*
Y234492D01*
X266128D01*
Y234747D01*
X266077D01*
Y234950D01*
X266027D01*
Y235204D01*
X265976D01*
Y235458D01*
X265925D01*
Y235713D01*
X265874D01*
Y235916D01*
X265823D01*
Y236119D01*
X265162D01*
Y235865D01*
X265112D01*
Y235458D01*
X265061D01*
Y235052D01*
X265010D01*
Y234645D01*
X264959D01*
Y234238D01*
X264908D01*
Y233832D01*
X264858D01*
Y233425D01*
X264807D01*
Y233018D01*
X264756D01*
Y232612D01*
X265264D01*
Y232663D01*
X265315D01*
Y233069D01*
X265366D01*
Y233476D01*
X265417D01*
Y233933D01*
X265468D01*
Y234340D01*
X265518D01*
Y234747D01*
X265569D01*
Y234848D01*
X265620D01*
Y234645D01*
X265671D01*
Y234442D01*
X265722D01*
Y234188D01*
X265773D01*
Y233933D01*
X265823D01*
Y233730D01*
X265874D01*
Y233476D01*
X265925D01*
Y233222D01*
X265976D01*
Y233018D01*
X266027D01*
Y232764D01*
X266077D01*
Y232612D01*
X266738D01*
Y232917D01*
X266789D01*
Y233323D01*
X266840D01*
Y233781D01*
X266891D01*
Y234188D01*
X266942D01*
Y234594D01*
X266992D01*
Y235052D01*
X267043D01*
Y235458D01*
X267094D01*
Y235865D01*
X267145D01*
Y236119D01*
D02*
G37*
G36*
X275787Y234340D02*
X274821D01*
Y234035D01*
X274770D01*
Y233679D01*
X275685D01*
Y233781D01*
X275736D01*
Y234188D01*
X275787D01*
Y234340D01*
D02*
G37*
G36*
X268314D02*
X267348D01*
Y234086D01*
X267298D01*
Y233679D01*
X268213D01*
Y233832D01*
X268263D01*
Y234238D01*
X268314D01*
Y234340D01*
D02*
G37*
G36*
X270246Y236119D02*
X268263D01*
Y236068D01*
X268213D01*
Y235713D01*
X268162D01*
Y235458D01*
X268823D01*
Y235407D01*
X268873D01*
Y235153D01*
X268823D01*
Y234747D01*
X268772D01*
Y234696D01*
Y234340D01*
X268721D01*
Y233933D01*
X268670D01*
Y233527D01*
X268619D01*
Y233120D01*
X268568D01*
Y232663D01*
X269127D01*
Y232917D01*
X269178D01*
Y233323D01*
X269229D01*
Y233730D01*
X269280D01*
Y234188D01*
X269331D01*
Y234594D01*
X269382D01*
Y235001D01*
X269432D01*
Y235407D01*
X269534D01*
Y235458D01*
X270195D01*
Y235662D01*
X270246D01*
Y236017D01*
X270297D01*
Y236068D01*
X270246D01*
Y236119D01*
D02*
G37*
G36*
X274668D02*
X273143D01*
Y236068D01*
X273093D01*
Y235662D01*
X273042D01*
Y235255D01*
X272991D01*
Y234848D01*
X272940D01*
Y234391D01*
X272889D01*
Y233984D01*
X272838D01*
Y233577D01*
X272787D01*
Y233171D01*
X272737D01*
Y232764D01*
X272686D01*
Y232612D01*
X274262D01*
Y232713D01*
X274312D01*
Y233171D01*
X274363D01*
Y233273D01*
X274312D01*
Y233323D01*
X273347D01*
Y233425D01*
X273397D01*
Y233832D01*
X273448D01*
Y234086D01*
X274363D01*
Y234289D01*
X274414D01*
Y234696D01*
X274465D01*
Y234747D01*
X274414D01*
Y234798D01*
X273550D01*
Y235052D01*
X273601D01*
Y235407D01*
X274567D01*
Y235509D01*
X274618D01*
Y235916D01*
X274668D01*
Y236119D01*
D02*
G37*
G36*
X280158Y236170D02*
X279548D01*
Y236119D01*
X279447D01*
Y236068D01*
X279345D01*
Y236017D01*
X279243D01*
Y235967D01*
X279192D01*
Y235916D01*
X279142D01*
Y235865D01*
X279091D01*
Y235814D01*
X279040D01*
Y235763D01*
X278989D01*
Y235662D01*
X278938D01*
Y235611D01*
X278888D01*
Y235509D01*
X278837D01*
Y235407D01*
X278786D01*
Y235306D01*
X278735D01*
Y235204D01*
X278684D01*
Y235052D01*
X278633D01*
Y234848D01*
X278583D01*
Y234645D01*
X278532D01*
Y234137D01*
X278481D01*
Y233832D01*
X278532D01*
Y233476D01*
X278583D01*
Y233273D01*
X278633D01*
Y233171D01*
X278684D01*
Y233069D01*
X278735D01*
Y232967D01*
X278786D01*
Y232917D01*
X278837D01*
Y232866D01*
X278888D01*
Y232815D01*
X278938D01*
Y232764D01*
X278989D01*
Y232713D01*
X279040D01*
Y232663D01*
X279142D01*
Y232612D01*
X279345D01*
Y232561D01*
X279650D01*
Y232612D01*
X279853D01*
Y232663D01*
X279955D01*
Y232713D01*
X280057D01*
Y232764D01*
X280107D01*
Y232815D01*
X280209D01*
Y232866D01*
X280260D01*
Y232917D01*
X280311D01*
Y232967D01*
X280362D01*
Y233069D01*
X280413D01*
Y233120D01*
X280463D01*
Y233222D01*
X280514D01*
Y233273D01*
X280565D01*
Y233374D01*
X280616D01*
Y233527D01*
X280667D01*
Y233628D01*
X280717D01*
Y233832D01*
X280768D01*
Y234035D01*
X280819D01*
Y234340D01*
X280870D01*
Y234899D01*
Y234950D01*
Y235103D01*
X280819D01*
Y235357D01*
X280768D01*
Y235509D01*
X280717D01*
Y235662D01*
X280667D01*
Y235713D01*
X280616D01*
Y235814D01*
X280565D01*
Y235865D01*
X280514D01*
Y235916D01*
X280463D01*
Y235967D01*
X280413D01*
Y236017D01*
X280362D01*
Y236068D01*
X280260D01*
Y236119D01*
X280158D01*
Y236170D01*
D02*
G37*
G36*
X263892D02*
X263282D01*
Y236119D01*
X263129D01*
Y236068D01*
X263028D01*
Y236017D01*
X262977D01*
Y235967D01*
X262926D01*
Y235916D01*
X262824D01*
Y235814D01*
X262773D01*
Y235763D01*
X262722D01*
Y235713D01*
X262672D01*
Y235662D01*
X262621D01*
Y235560D01*
X262570D01*
Y235509D01*
X262519D01*
Y235407D01*
X262468D01*
Y235255D01*
X262418D01*
Y235153D01*
X262367D01*
Y235001D01*
X262316D01*
Y234798D01*
X262265D01*
Y234442D01*
X262214D01*
Y234086D01*
Y234035D01*
Y233577D01*
X262265D01*
Y233374D01*
X262316D01*
Y233222D01*
X262367D01*
Y233120D01*
X262418D01*
Y233018D01*
X262468D01*
Y232917D01*
X262519D01*
Y232866D01*
X262570D01*
Y232815D01*
X262621D01*
Y232764D01*
X262672D01*
Y232713D01*
X262773D01*
Y232663D01*
X262875D01*
Y232612D01*
X263028D01*
Y232561D01*
X263383D01*
Y232612D01*
X263587D01*
Y232663D01*
X263688D01*
Y232713D01*
X263790D01*
Y232764D01*
X263841D01*
Y232815D01*
X263892D01*
Y232866D01*
X263943D01*
Y232917D01*
X263993D01*
Y232967D01*
X264044D01*
Y233018D01*
X264095D01*
Y233120D01*
X264146D01*
Y233171D01*
X264197D01*
Y233273D01*
X264247D01*
Y233374D01*
X264298D01*
Y233476D01*
X264349D01*
Y233577D01*
X264400D01*
Y233730D01*
X264451D01*
Y233933D01*
X264502D01*
Y234188D01*
X264552D01*
Y235255D01*
X264502D01*
Y235458D01*
X264451D01*
Y235560D01*
X264400D01*
Y235662D01*
X264349D01*
Y235763D01*
X264298D01*
Y235814D01*
X264247D01*
Y235916D01*
X264197D01*
Y235967D01*
X264146D01*
Y236017D01*
X264044D01*
Y236068D01*
X263993D01*
Y236119D01*
X263892D01*
Y236170D01*
D02*
G37*
%LPD*%
G36*
X279955Y235458D02*
X280057D01*
Y235407D01*
X280107D01*
Y235306D01*
X280158D01*
Y235204D01*
X280209D01*
Y235001D01*
X280260D01*
Y234289D01*
X280209D01*
Y234035D01*
X280158D01*
Y233832D01*
X280107D01*
Y233679D01*
X280057D01*
Y233577D01*
X280006D01*
Y233527D01*
X279955D01*
Y233425D01*
X279904D01*
Y233374D01*
X279853D01*
Y233323D01*
X279802D01*
Y233273D01*
X279650D01*
Y233222D01*
X279447D01*
Y233273D01*
X279345D01*
Y233323D01*
X279294D01*
Y233374D01*
X279243D01*
Y233476D01*
X279192D01*
Y233628D01*
X279142D01*
Y234645D01*
X279192D01*
Y234848D01*
X279243D01*
Y234950D01*
Y235001D01*
X279294D01*
Y235153D01*
X279345D01*
Y235204D01*
X279396D01*
Y235306D01*
X279447D01*
Y235357D01*
X279498D01*
Y235407D01*
X279548D01*
Y235458D01*
X279650D01*
Y235509D01*
X279955D01*
Y235458D01*
D02*
G37*
G36*
X263688D02*
X263739D01*
Y235407D01*
X263790D01*
Y235357D01*
X263841D01*
Y235255D01*
X263892D01*
Y235103D01*
X263943D01*
Y234188D01*
X263892D01*
Y233933D01*
X263841D01*
Y233781D01*
X263790D01*
Y233628D01*
X263739D01*
Y233527D01*
X263688D01*
Y233476D01*
X263637D01*
Y233425D01*
X263587D01*
Y233374D01*
X263536D01*
Y233323D01*
X263485D01*
Y233273D01*
X263333D01*
Y233222D01*
X263180D01*
Y233273D01*
X263078D01*
Y233323D01*
X263028D01*
Y233374D01*
X262977D01*
Y233425D01*
X262926D01*
Y233527D01*
X262875D01*
Y233730D01*
X262824D01*
Y234543D01*
X262875D01*
Y234798D01*
X262926D01*
Y234950D01*
X262977D01*
Y235052D01*
X263028D01*
Y235153D01*
X263078D01*
Y235255D01*
X263129D01*
Y235357D01*
X263180D01*
Y235407D01*
X263231D01*
Y235458D01*
X263333D01*
Y235509D01*
X263688D01*
Y235458D01*
D02*
G37*
%LPC*%
G36*
X262007Y215966D02*
X259100D01*
Y212332D01*
X262007D01*
Y212574D01*
X262491D01*
Y212817D01*
X262733D01*
Y213059D01*
X262976D01*
Y213301D01*
X263218D01*
Y214997D01*
X262976D01*
Y215481D01*
X262491D01*
Y215723D01*
X262007D01*
Y215966D01*
D02*
G37*
G36*
X245293Y214997D02*
X245051D01*
Y214754D01*
X244809D01*
Y214270D01*
X244567D01*
Y213543D01*
X244324D01*
Y212817D01*
X244082D01*
Y212332D01*
X243840D01*
Y211606D01*
X243598D01*
Y210879D01*
X243355D01*
Y210394D01*
X243113D01*
Y209668D01*
X242871D01*
Y208941D01*
X247473D01*
Y209668D01*
X247231D01*
Y210152D01*
X246989D01*
Y210879D01*
X246747D01*
Y211363D01*
X246504D01*
Y211606D01*
Y211848D01*
X246262D01*
Y212574D01*
X246020D01*
Y213059D01*
X245778D01*
Y213786D01*
X245536D01*
Y214270D01*
X245293D01*
Y214997D01*
D02*
G37*
%LPD*%
D10*
X205745Y279500D02*
X205394Y280464D01*
X204506Y280977D01*
X203495Y280799D01*
X202836Y280013D01*
Y278987D01*
X203495Y278201D01*
X204506Y278023D01*
X205394Y278536D01*
X205745Y279500D01*
X113755Y52500D02*
X113404Y53464D01*
X112515Y53977D01*
X111505Y53799D01*
X110845Y53013D01*
Y51987D01*
X111505Y51201D01*
X112515Y51023D01*
X113404Y51536D01*
X113755Y52500D01*
X204755Y51500D02*
X204404Y52464D01*
X203515Y52977D01*
X202505Y52799D01*
X201845Y52013D01*
Y50987D01*
X202505Y50201D01*
X203515Y50023D01*
X204404Y50536D01*
X204755Y51500D01*
D11*
X158561Y44500D02*
X157823Y44926D01*
Y44074D01*
X158561Y44500D01*
X68028Y22240D02*
X67289Y22666D01*
Y21814D01*
X68028Y22240D01*
X20992Y229287D02*
X20254Y229714D01*
Y228861D01*
X20992Y229287D01*
X127445Y303614D02*
X126707Y304040D01*
Y303188D01*
X127445Y303614D01*
X183992Y124323D02*
X183254Y124749D01*
Y123897D01*
X183992Y124323D01*
X19992Y90287D02*
X19254Y90714D01*
Y89861D01*
X19992Y90287D01*
X27445Y50181D02*
X26707Y50607D01*
Y49755D01*
X27445Y50181D01*
X116342Y112480D02*
X115604Y112907D01*
Y112054D01*
X116342Y112480D01*
X156492Y237618D02*
X155754Y238044D01*
Y237192D01*
X156492Y237618D01*
X105539Y28386D02*
X104801Y28812D01*
Y27960D01*
X105539Y28386D01*
X108905Y71035D02*
X108167Y71462D01*
Y70609D01*
X108905Y71035D01*
X104945Y303614D02*
X104207Y304040D01*
Y303188D01*
X104945Y303614D01*
X82945Y303114D02*
X82207Y303540D01*
Y302688D01*
X82945Y303114D01*
X63484Y68000D02*
X62746Y68426D01*
Y67574D01*
X63484Y68000D01*
X49492Y237618D02*
X48754Y238044D01*
Y237192D01*
X49492Y237618D01*
X103492Y237118D02*
X102754Y237544D01*
Y236692D01*
X103492Y237118D01*
X25350Y255906D02*
X24612Y256332D01*
Y255479D01*
X25350Y255906D01*
D12*
X107976Y117205D02*
X107532Y118128D01*
X106532Y118356D01*
X105731Y117717D01*
Y116692D01*
X106532Y116053D01*
X107532Y116281D01*
X107976Y117205D01*
X165685Y233839D02*
X165240Y234762D01*
X164241Y234990D01*
X163440Y234351D01*
Y233326D01*
X164241Y232687D01*
X165240Y232915D01*
X165685Y233839D01*
X58685D02*
X58240Y234762D01*
X57241Y234990D01*
X56440Y234351D01*
Y233326D01*
X57241Y232687D01*
X58240Y232915D01*
X58685Y233839D01*
X112685Y233339D02*
X112240Y234262D01*
X111241Y234490D01*
X110440Y233851D01*
Y232826D01*
X111241Y232187D01*
X112240Y232415D01*
X112685Y233339D01*
D13*
X168500Y237776D02*
X168690Y236819D01*
X169232Y236008D01*
X170043Y235466D01*
X171000Y235276D01*
X171957Y235466D01*
X172768Y236008D01*
X173310Y236819D01*
X173500Y237776D01*
X61500D02*
X61690Y236819D01*
X62232Y236008D01*
X63043Y235466D01*
X64000Y235276D01*
X64957Y235466D01*
X65768Y236008D01*
X66310Y236819D01*
X66500Y237776D01*
X115500Y237276D02*
X115690Y236319D01*
X116232Y235508D01*
X117043Y234966D01*
X118000Y234776D01*
X118957Y234966D01*
X119768Y235508D01*
X120310Y236319D01*
X120500Y237276D01*
X174964Y60067D02*
X186036D01*
X174964Y52933D02*
X186036D01*
X199750Y28350D02*
Y39650D01*
X158250D02*
X199750D01*
X158250Y28350D02*
Y39650D01*
Y28350D02*
X199750D01*
X74622Y24602D02*
X77378D01*
Y12398D02*
Y24602D01*
X74622Y12398D02*
X77378D01*
X74622D02*
Y24602D01*
X6720Y164327D02*
X26406D01*
Y226925D01*
X6720D02*
X26406D01*
X6720Y164327D02*
Y226925D01*
X115142Y305189D02*
X132858D01*
X115142D02*
Y328811D01*
X132858D01*
Y305189D02*
Y328811D01*
X176610Y137098D02*
Y160721D01*
Y137098D02*
X190390D01*
X176610Y160721D02*
X190390D01*
Y137098D02*
Y160721D01*
X142315Y64047D02*
X181685D01*
X142315D02*
Y79953D01*
X181685D01*
Y64047D02*
Y79953D01*
X146595Y127205D02*
X147283D01*
X132717D02*
X133405D01*
X132717Y102795D02*
Y127205D01*
X146595Y102795D02*
X147283D01*
X132717D02*
X133405D01*
X147283D02*
Y127205D01*
X194433Y135464D02*
Y146536D01*
X201567Y135464D02*
Y146536D01*
X150964Y94067D02*
X162036D01*
X150964Y86933D02*
X162036D01*
X152121Y141567D02*
X163193D01*
X152121Y134433D02*
X163193D01*
X6114Y92354D02*
Y160858D01*
X28752D01*
Y92354D02*
Y160858D01*
X6114Y92354D02*
X28752D01*
X3036Y59807D02*
X6232D01*
X16768Y59808D02*
X21521D01*
Y59291D02*
Y59808D01*
X21539Y30318D02*
Y30831D01*
X16768Y30318D02*
X21539D01*
X3035D02*
X6232D01*
X3036Y30319D02*
Y59807D01*
X77268Y146732D02*
X110732D01*
X77268Y113268D02*
X110732D01*
X77268D02*
Y146732D01*
X110732Y113268D02*
Y146732D01*
X160567Y197224D02*
X181433D01*
X173500Y237776D02*
X181433D01*
X160567D02*
X168500D01*
X181433Y197224D02*
Y237776D01*
X160567Y197224D02*
Y237776D01*
X186555Y247847D02*
X193445D01*
X186576Y241142D02*
X193466D01*
X200153Y229693D02*
Y236583D01*
X206858Y229714D02*
Y236604D01*
X206049Y175259D02*
X206819D01*
X234181D02*
X234951D01*
Y150660D02*
Y175259D01*
X206049Y150660D02*
X234951D01*
X206049D02*
Y175259D01*
Y113799D02*
X206819D01*
X234181D02*
X234951D01*
Y89201D02*
Y113799D01*
X206049Y89201D02*
X234951D01*
X206049D02*
Y113799D01*
X99142Y3189D02*
Y26811D01*
Y3189D02*
X116858D01*
Y26811D01*
X99142D02*
X116858D01*
X82508Y62571D02*
X108492D01*
X82508Y60405D02*
Y62571D01*
X108492Y60405D02*
Y62571D01*
X110358Y305189D02*
Y328811D01*
X92642D02*
X110358D01*
X92642Y305189D02*
Y328811D01*
Y305189D02*
X110358D01*
X88358Y304689D02*
Y328311D01*
X70642D02*
X88358D01*
X70642Y304689D02*
Y328311D01*
Y304689D02*
X88358D01*
X36811Y50874D02*
Y62685D01*
X63189Y50874D02*
Y62685D01*
X36811Y50874D02*
X63189D01*
X36811Y62685D02*
X63189D01*
X91964Y171933D02*
X103036D01*
X91964Y179067D02*
X103036D01*
X91807Y86567D02*
X102879D01*
X91807Y79433D02*
X102879D01*
X53567Y197224D02*
Y237776D01*
X74433Y197224D02*
Y237776D01*
X53567D02*
X61500D01*
X66500D02*
X74433D01*
X53567Y197224D02*
X74433D01*
X116807Y75067D02*
X127879D01*
X116807Y67933D02*
X127879D01*
X206858Y213076D02*
Y219966D01*
X200153Y213055D02*
Y219945D01*
X29142Y214172D02*
Y221062D01*
X35846Y214193D02*
Y221083D01*
X29642Y200396D02*
Y207286D01*
X36347Y200417D02*
Y207307D01*
X107567Y196724D02*
Y237276D01*
X128433Y196724D02*
Y237276D01*
X107567D02*
X115500D01*
X120500D02*
X128433D01*
X107567Y196724D02*
X128433D01*
X141858Y243576D02*
Y250466D01*
X135153Y243555D02*
Y250445D01*
X116034Y247858D02*
X122924D01*
X116055Y241154D02*
X122945D01*
X88034Y247358D02*
X94924D01*
X88055Y240653D02*
X94945D01*
X29142Y227672D02*
Y234562D01*
X35846Y227693D02*
Y234583D01*
X246049Y151201D02*
Y175799D01*
Y151201D02*
X274951D01*
Y175799D01*
X274181D02*
X274951D01*
X246049D02*
X246819D01*
X9110Y238189D02*
X22890D01*
Y261811D01*
X9110D02*
X22890D01*
X9110Y238189D02*
Y261811D01*
X61464Y76433D02*
X72536D01*
X61464Y83567D02*
X72536D01*
X41464D02*
X52536D01*
X41464Y76433D02*
X52536D01*
X246049Y89701D02*
Y114299D01*
Y89701D02*
X274951D01*
Y114299D01*
X274181D02*
X274951D01*
X246049D02*
X246819D01*
D14*
X194155Y276756D02*
X197245D01*
Y328656D01*
X165345Y276756D02*
X168436D01*
X165345D02*
Y328656D01*
X197245D01*
X178564Y276756D02*
X184026D01*
X8500Y77550D02*
Y85450D01*
X21500Y77550D02*
Y85450D01*
X119255Y55244D02*
X122345D01*
X119255Y3344D02*
Y55244D01*
X148064D02*
X151155D01*
Y3344D02*
Y55244D01*
X119255Y3344D02*
X151155D01*
X132474Y55244D02*
X137936D01*
X210255Y54244D02*
X213345D01*
X210255Y2344D02*
Y54244D01*
X239064D02*
X242155D01*
Y2344D02*
Y54244D01*
X210255Y2344D02*
X242155D01*
X223474Y54244D02*
X228936D01*
X173085Y73150D02*
Y74483D01*
X172419Y75150D01*
X169753D01*
X169087Y74483D01*
Y73150D01*
X169753Y72484D01*
X172419D01*
X173085Y73150D01*
X169087Y71151D02*
X173085D01*
X169087Y68485D01*
X173085D01*
D15*
X63425Y25996D02*
X66575D01*
X76925Y39350D02*
X80075D01*
X131358Y189425D02*
Y192575D01*
X80004Y190425D02*
Y193575D01*
X181150Y189425D02*
Y192575D01*
X157142Y107425D02*
Y110575D01*
X251425Y11574D02*
X245427D01*
X248426Y8575D01*
Y12573D01*
X246427Y14573D02*
X245427Y15573D01*
Y17572D01*
X246427Y18572D01*
X250426D01*
X251425Y17572D01*
Y15573D01*
X250426Y14573D01*
X246427D01*
Y20571D02*
X245427Y21571D01*
Y23570D01*
X246427Y24570D01*
X250426D01*
X251425Y23570D01*
Y21571D01*
X250426Y20571D01*
X246427D01*
X245427Y26569D02*
X249426D01*
X251425Y28568D01*
X249426Y30568D01*
X245427D01*
X251425Y32567D02*
X247427D01*
X245427Y34566D01*
X247427Y36566D01*
X251425D01*
X248426D01*
Y32567D01*
X246427Y42564D02*
X245427Y41564D01*
Y39565D01*
X246427Y38565D01*
X250426D01*
X251425Y39565D01*
Y41564D01*
X250426Y42564D01*
D16*
X204500Y293999D02*
X202501D01*
X203501D01*
Y289001D01*
X202501Y288001D01*
X201501D01*
X200502Y289001D01*
X206500Y293999D02*
X210498D01*
Y292999D01*
X206500Y289001D01*
Y288001D01*
X188501Y67499D02*
X187502Y68499D01*
X185502D01*
X184503Y67499D01*
Y63501D01*
X185502Y62501D01*
X187502D01*
X188501Y63501D01*
X194499Y62501D02*
X190501D01*
X194499Y66500D01*
Y67499D01*
X193500Y68499D01*
X191500D01*
X190501Y67499D01*
X200497Y62501D02*
X196499D01*
X200497Y66500D01*
Y67499D01*
X199498Y68499D01*
X197498D01*
X196499Y67499D01*
X196500Y24499D02*
X194501D01*
X195501D01*
Y19501D01*
X194501Y18501D01*
X193501D01*
X192502Y19501D01*
X202498Y18501D02*
X198500D01*
X202498Y22500D01*
Y23499D01*
X201499Y24499D01*
X199499D01*
X198500Y23499D01*
X70188Y26252D02*
X69532Y26908D01*
Y28220D01*
X70188Y28876D01*
X70844D01*
X71500Y28220D01*
Y27564D01*
Y28220D01*
X72156Y28876D01*
X72812D01*
X73468Y28220D01*
Y26908D01*
X72812Y26252D01*
X69532Y30188D02*
X72156D01*
X73468Y31500D01*
X72156Y32812D01*
X69532D01*
X70188Y34124D02*
X69532Y34780D01*
Y36092D01*
X70188Y36748D01*
X70844D01*
X71500Y36092D01*
Y35436D01*
Y36092D01*
X72156Y36748D01*
X72812D01*
X73468Y36092D01*
Y34780D01*
X72812Y34124D01*
X71002Y9999D02*
Y5001D01*
X72001Y4001D01*
X74001D01*
X75000Y5001D01*
Y9999D01*
X77000D02*
X80998D01*
Y8999D01*
X77000Y5001D01*
Y4001D01*
X70032Y44344D02*
Y41720D01*
X72000D01*
X71344Y43032D01*
Y43688D01*
X72000Y44344D01*
X73312D01*
X73968Y43688D01*
Y42376D01*
X73312Y41720D01*
X70032Y45656D02*
X72656D01*
X73968Y46968D01*
X72656Y48280D01*
X70032D01*
X11500Y234999D02*
X9501D01*
X10501D01*
Y230001D01*
X9501Y229001D01*
X8501D01*
X7502Y230001D01*
X16499Y229001D02*
Y234999D01*
X13500Y232000D01*
X17498D01*
X117501Y294001D02*
Y292002D01*
Y293001D01*
X122499D01*
X123499Y292002D01*
Y291002D01*
X122499Y290002D01*
X123499Y296000D02*
Y298000D01*
Y297000D01*
X117501D01*
X118501Y296000D01*
X123499Y300998D02*
Y302998D01*
Y301998D01*
X117501D01*
X118501Y300998D01*
X171188Y159532D02*
X170532Y158876D01*
Y157564D01*
X171188Y156908D01*
X171844D01*
X172500Y157564D01*
Y158876D01*
X173156Y159532D01*
X173812D01*
X174468Y158876D01*
Y157564D01*
X173812Y156908D01*
X170532Y160844D02*
X174468D01*
X173156Y162156D01*
X174468Y163468D01*
X170532D01*
X174468Y164780D02*
Y166092D01*
Y165436D01*
X170532D01*
X171188Y164780D01*
X193580Y114532D02*
Y118468D01*
X195548D01*
X196204Y117812D01*
Y116500D01*
X195548Y115844D01*
X193580D01*
X194892D02*
X196204Y114532D01*
X197516D02*
X198828D01*
X198172D01*
Y118468D01*
X197516Y117812D01*
X200796Y118468D02*
X203420D01*
Y117812D01*
X200796Y115188D01*
Y114532D01*
X170876Y85812D02*
X170220Y86468D01*
X168908D01*
X168252Y85812D01*
Y85156D01*
X168908Y84500D01*
X170220D01*
X170876Y83844D01*
Y83188D01*
X170220Y82532D01*
X168908D01*
X168252Y83188D01*
X172188Y86468D02*
Y82532D01*
X173500Y83844D01*
X174812Y82532D01*
Y86468D01*
X178748Y82532D02*
X176124D01*
X178748Y85156D01*
Y85812D01*
X178092Y86468D01*
X176780D01*
X176124Y85812D01*
X126468Y104080D02*
X122532D01*
Y106048D01*
X123188Y106704D01*
X124500D01*
X125156Y106048D01*
Y104080D01*
Y105392D02*
X126468Y106704D01*
Y108016D02*
Y109328D01*
Y108672D01*
X122532D01*
X123188Y108016D01*
Y111296D02*
X122532Y111952D01*
Y113264D01*
X123188Y113920D01*
X123844D01*
X124500Y113264D01*
X125156Y113920D01*
X125812D01*
X126468Y113264D01*
Y111952D01*
X125812Y111296D01*
X125156D01*
X124500Y111952D01*
X123844Y111296D01*
X123188D01*
X124500Y111952D02*
Y113264D01*
X137001Y99999D02*
Y98999D01*
X139001Y97000D01*
X141000Y98999D01*
Y99999D01*
X139001Y97000D02*
Y94001D01*
X142999D02*
X144999D01*
X143999D01*
Y99999D01*
X142999Y98999D01*
X153599Y102898D02*
X152599Y103898D01*
X150600D01*
X149600Y102898D01*
Y98900D01*
X150600Y97900D01*
X152599D01*
X153599Y98900D01*
X159597Y97900D02*
X155598D01*
X159597Y101899D01*
Y102898D01*
X158597Y103898D01*
X156598D01*
X155598Y102898D01*
X161596D02*
X162596Y103898D01*
X164595D01*
X165595Y102898D01*
Y98900D01*
X164595Y97900D01*
X162596D01*
X161596Y98900D01*
Y102898D01*
X154799Y150398D02*
X153799Y151398D01*
X151800D01*
X150800Y150398D01*
Y146400D01*
X151800Y145400D01*
X153799D01*
X154799Y146400D01*
X156798Y145400D02*
X158797D01*
X157798D01*
Y151398D01*
X156798Y150398D01*
X161796Y146400D02*
X162796Y145400D01*
X164795D01*
X165795Y146400D01*
Y150398D01*
X164795Y151398D01*
X162796D01*
X161796Y150398D01*
Y149399D01*
X162796Y148399D01*
X165795D01*
X176612Y101968D02*
X179236D01*
X177924Y103280D02*
Y100656D01*
X180548Y100000D02*
X181860D01*
X181204D01*
Y103936D01*
X180548Y103280D01*
X186452Y100000D02*
X183828D01*
X186452Y102624D01*
Y103280D01*
X185796Y103936D01*
X184484D01*
X183828Y103280D01*
X187764Y103936D02*
Y101312D01*
X189076Y100000D01*
X190387Y101312D01*
Y103936D01*
X2032Y80220D02*
X5312D01*
X5968Y80876D01*
Y82188D01*
X5312Y82844D01*
X2032D01*
X2688Y84156D02*
X2032Y84812D01*
Y86124D01*
X2688Y86780D01*
X3344D01*
X4000Y86124D01*
X4656Y86780D01*
X5312D01*
X5968Y86124D01*
Y84812D01*
X5312Y84156D01*
X4656D01*
X4000Y84812D01*
X3344Y84156D01*
X2688D01*
X4000Y84812D02*
Y86124D01*
X6500Y68999D02*
X4501D01*
X5501D01*
Y64001D01*
X4501Y63001D01*
X3501D01*
X2502Y64001D01*
X12498Y68999D02*
X10499Y67999D01*
X8500Y66000D01*
Y64001D01*
X9499Y63001D01*
X11499D01*
X12498Y64001D01*
Y65000D01*
X11499Y66000D01*
X8500D01*
X91001Y7500D02*
Y5501D01*
Y6501D01*
X95999D01*
X96999Y5501D01*
Y4501D01*
X95999Y3502D01*
X92001Y9500D02*
X91001Y10499D01*
Y12499D01*
X92001Y13498D01*
X93000D01*
X94000Y12499D01*
Y11499D01*
Y12499D01*
X95000Y13498D01*
X95999D01*
X96999Y12499D01*
Y10499D01*
X95999Y9500D01*
X39121Y2501D02*
Y8499D01*
X42120D01*
X43119Y7499D01*
Y5500D01*
X42120Y4500D01*
X39121D01*
X41120D02*
X43119Y2501D01*
X45119D02*
X47118D01*
X46118D01*
Y8499D01*
X45119Y7499D01*
X54116Y8499D02*
X52116Y7499D01*
X50117Y5500D01*
Y3501D01*
X51117Y2501D01*
X53116D01*
X54116Y3501D01*
Y4500D01*
X53116Y5500D01*
X50117D01*
X2002Y16501D02*
Y22499D01*
X5001D01*
X6001Y21499D01*
Y19500D01*
X5001Y18500D01*
X2002D01*
X4002D02*
X6001Y16501D01*
X8000D02*
X10000D01*
X9000D01*
Y22499D01*
X8000Y21499D01*
X16998Y22499D02*
X12999D01*
Y19500D01*
X14998Y20500D01*
X15998D01*
X16998Y19500D01*
Y17501D01*
X15998Y16501D01*
X13999D01*
X12999Y17501D01*
X20943Y2501D02*
Y8499D01*
X23942D01*
X24942Y7499D01*
Y5500D01*
X23942Y4500D01*
X20943D01*
X22943D02*
X24942Y2501D01*
X26941D02*
X28941D01*
X27941D01*
Y8499D01*
X26941Y7499D01*
X34939Y2501D02*
Y8499D01*
X31940Y5500D01*
X35939D01*
X926Y95663D02*
Y94614D01*
Y95139D01*
X3550D01*
X4074Y94614D01*
Y94089D01*
X3550Y93564D01*
X4074Y96713D02*
Y97762D01*
Y97238D01*
X926D01*
X1450Y96713D01*
X4074Y101436D02*
Y99337D01*
X1975Y101436D01*
X1450D01*
X926Y100911D01*
Y99862D01*
X1450Y99337D01*
X134000Y63999D02*
X132001D01*
X133000D01*
Y59001D01*
X132001Y58001D01*
X131001D01*
X130001Y59001D01*
X135999Y58001D02*
X137999D01*
X136999D01*
Y63999D01*
X135999Y62999D01*
X97501Y291001D02*
Y289002D01*
Y290002D01*
X102499D01*
X103499Y289002D01*
Y288002D01*
X102499Y287002D01*
X103499Y293001D02*
Y295000D01*
Y294000D01*
X97501D01*
X98501Y293001D01*
Y297999D02*
X97501Y298998D01*
Y300998D01*
X98501Y301998D01*
X102499D01*
X103499Y300998D01*
Y298998D01*
X102499Y297999D01*
X98501D01*
X75501Y295500D02*
Y293501D01*
Y294501D01*
X80499D01*
X81499Y293501D01*
Y292501D01*
X80499Y291502D01*
Y297500D02*
X81499Y298499D01*
Y300499D01*
X80499Y301498D01*
X76501D01*
X75501Y300499D01*
Y298499D01*
X76501Y297500D01*
X77500D01*
X78500Y298499D01*
Y301498D01*
X154002Y247499D02*
Y242501D01*
X155001Y241501D01*
X157001D01*
X158000Y242501D01*
Y247499D01*
X162999Y241501D02*
Y247499D01*
X160000Y244500D01*
X163998D01*
X68500Y165498D02*
Y160500D01*
X69500Y159500D01*
X71499D01*
X72499Y160500D01*
Y165498D01*
X74498Y159500D02*
X76497D01*
X75498D01*
Y165498D01*
X74498Y164498D01*
X145499Y132002D02*
X139501D01*
Y135001D01*
X140501Y136001D01*
X142500D01*
X143500Y135001D01*
Y132002D01*
Y134002D02*
X145499Y136001D01*
Y138001D02*
Y140000D01*
Y139000D01*
X139501D01*
X140501Y138001D01*
Y142999D02*
X139501Y143999D01*
Y145998D01*
X140501Y146998D01*
X141500D01*
X142500Y145998D01*
Y144998D01*
Y145998D01*
X143500Y146998D01*
X144499D01*
X145499Y145998D01*
Y143999D01*
X144499Y142999D01*
X132400Y157200D02*
Y163198D01*
X135399D01*
X136399Y162198D01*
Y160199D01*
X135399Y159199D01*
X132400D01*
X134399D02*
X136399Y157200D01*
X138398D02*
X140397D01*
X139398D01*
Y163198D01*
X138398Y162198D01*
X147395Y157200D02*
X143396D01*
X147395Y161199D01*
Y162198D01*
X146396Y163198D01*
X144396D01*
X143396Y162198D01*
X232000Y60001D02*
X233999D01*
X232999D01*
Y64999D01*
X233999Y65999D01*
X234999D01*
X235998Y64999D01*
X230000Y61001D02*
X229001Y60001D01*
X227001D01*
X226002Y61001D01*
Y62000D01*
X227001Y63000D01*
X226002Y64000D01*
Y64999D01*
X227001Y65999D01*
X229001D01*
X230000Y64999D01*
Y64000D01*
X229001Y63000D01*
X230000Y62000D01*
Y61001D01*
X229001Y63000D02*
X227001D01*
X52502Y246999D02*
Y242001D01*
X53501Y241001D01*
X55501D01*
X56500Y242001D01*
Y246999D01*
X62498D02*
X60499Y245999D01*
X58500Y244000D01*
Y242001D01*
X59499Y241001D01*
X61499D01*
X62498Y242001D01*
Y243000D01*
X61499Y244000D01*
X58500D01*
X100600Y247098D02*
Y242100D01*
X101600Y241100D01*
X103599D01*
X104599Y242100D01*
Y247098D01*
X110597D02*
X106598D01*
Y244099D01*
X108597Y245099D01*
X109597D01*
X110597Y244099D01*
Y242100D01*
X109597Y241100D01*
X107598D01*
X106598Y242100D01*
X53002Y181501D02*
Y187499D01*
X56001D01*
X57001Y186499D01*
Y184500D01*
X56001Y183500D01*
X53002D01*
X55001D02*
X57001Y181501D01*
X59000D02*
X61000D01*
X60000D01*
Y187499D01*
X59000Y186499D01*
X63999Y181501D02*
X65998D01*
X64998D01*
Y187499D01*
X63999Y186499D01*
X104502Y181501D02*
Y187499D01*
X107501D01*
X108501Y186499D01*
Y184500D01*
X107501Y183500D01*
X104502D01*
X106502D02*
X108501Y181501D01*
X110501D02*
X112500D01*
X111500D01*
Y187499D01*
X110501Y186499D01*
X115499D02*
X116499Y187499D01*
X118498D01*
X119498Y186499D01*
Y182501D01*
X118498Y181501D01*
X116499D01*
X115499Y182501D01*
Y186499D01*
X156502Y179501D02*
Y185499D01*
X159501D01*
X160500Y184499D01*
Y182500D01*
X159501Y181500D01*
X156502D01*
X158501D02*
X160500Y179501D01*
X162500Y180501D02*
X163499Y179501D01*
X165499D01*
X166498Y180501D01*
Y184499D01*
X165499Y185499D01*
X163499D01*
X162500Y184499D01*
Y183500D01*
X163499Y182500D01*
X166498D01*
X69503Y186999D02*
Y181001D01*
X72502D01*
X73501Y182001D01*
Y185999D01*
X72502Y186999D01*
X69503D01*
X79499Y185999D02*
X78500Y186999D01*
X76500D01*
X75501Y185999D01*
Y185000D01*
X76500Y184000D01*
X78500D01*
X79499Y183000D01*
Y182001D01*
X78500Y181001D01*
X76500D01*
X75501Y182001D01*
X84498Y181001D02*
Y186999D01*
X81499Y184000D01*
X85497D01*
X122003Y185499D02*
Y179501D01*
X125002D01*
X126001Y180501D01*
Y184499D01*
X125002Y185499D01*
X122003D01*
X131999Y184499D02*
X131000Y185499D01*
X129000D01*
X128001Y184499D01*
Y183500D01*
X129000Y182500D01*
X131000D01*
X131999Y181500D01*
Y180501D01*
X131000Y179501D01*
X129000D01*
X128001Y180501D01*
X133999Y184499D02*
X134998Y185499D01*
X136998D01*
X137997Y184499D01*
Y183500D01*
X136998Y182500D01*
X135998D01*
X136998D01*
X137997Y181500D01*
Y180501D01*
X136998Y179501D01*
X134998D01*
X133999Y180501D01*
X171503Y185999D02*
Y180001D01*
X174502D01*
X175501Y181001D01*
Y184999D01*
X174502Y185999D01*
X171503D01*
X181499Y184999D02*
X180500Y185999D01*
X178500D01*
X177501Y184999D01*
Y184000D01*
X178500Y183000D01*
X180500D01*
X181499Y182000D01*
Y181001D01*
X180500Y180001D01*
X178500D01*
X177501Y181001D01*
X187497Y180001D02*
X183499D01*
X187497Y184000D01*
Y184999D01*
X186498Y185999D01*
X184498D01*
X183499Y184999D01*
X39001Y213501D02*
X38001Y212502D01*
Y210502D01*
X39001Y209502D01*
X42999D01*
X43999Y210502D01*
Y212502D01*
X42999Y213501D01*
X43999Y215500D02*
Y217500D01*
Y216500D01*
X38001D01*
X39001Y215500D01*
Y220499D02*
X38001Y221498D01*
Y223498D01*
X39001Y224498D01*
X40000D01*
X41000Y223498D01*
X42000Y224498D01*
X42999D01*
X43999Y223498D01*
Y221498D01*
X42999Y220499D01*
X42000D01*
X41000Y221498D01*
X40000Y220499D01*
X39001D01*
X41000Y221498D02*
Y223498D01*
X33001Y196499D02*
X32002Y197499D01*
X30002D01*
X29002Y196499D01*
Y192501D01*
X30002Y191501D01*
X32002D01*
X33001Y192501D01*
X35001Y191501D02*
X37000D01*
X36000D01*
Y197499D01*
X35001Y196499D01*
X39999Y197499D02*
X43998D01*
Y196499D01*
X39999Y192501D01*
Y191501D01*
X33699Y244298D02*
X32699Y245298D01*
X30700D01*
X29700Y244298D01*
Y240300D01*
X30700Y239300D01*
X32699D01*
X33699Y240300D01*
X35698Y239300D02*
X37697D01*
X36698D01*
Y245298D01*
X35698Y244298D01*
X44695Y245298D02*
X42696Y244298D01*
X40696Y242299D01*
Y240300D01*
X41696Y239300D01*
X43696D01*
X44695Y240300D01*
Y241299D01*
X43696Y242299D01*
X40696D01*
X139799Y260098D02*
X138799Y261098D01*
X136800D01*
X135800Y260098D01*
Y256100D01*
X136800Y255100D01*
X138799D01*
X139799Y256100D01*
X141798Y255100D02*
X143797D01*
X142798D01*
Y261098D01*
X141798Y260098D01*
X150795Y261098D02*
X146796D01*
Y258099D01*
X148796Y259099D01*
X149795D01*
X150795Y258099D01*
Y256100D01*
X149795Y255100D01*
X147796D01*
X146796Y256100D01*
X119399Y256298D02*
X118399Y257298D01*
X116400D01*
X115400Y256298D01*
Y252300D01*
X116400Y251300D01*
X118399D01*
X119399Y252300D01*
X121398Y251300D02*
X123397D01*
X122398D01*
Y257298D01*
X121398Y256298D01*
X129395Y251300D02*
Y257298D01*
X126396Y254299D01*
X130395D01*
X91399Y255798D02*
X90399Y256798D01*
X88400D01*
X87400Y255798D01*
Y251800D01*
X88400Y250800D01*
X90399D01*
X91399Y251800D01*
X93398Y250800D02*
X95397D01*
X94398D01*
Y256798D01*
X93398Y255798D01*
X98396D02*
X99396Y256798D01*
X101395D01*
X102395Y255798D01*
Y254799D01*
X101395Y253799D01*
X100396D01*
X101395D01*
X102395Y252799D01*
Y251800D01*
X101395Y250800D01*
X99396D01*
X98396Y251800D01*
X200501Y207499D02*
X199502Y208499D01*
X197502D01*
X196502Y207499D01*
Y203501D01*
X197502Y202501D01*
X199502D01*
X200501Y203501D01*
X202501Y202501D02*
X204500D01*
X203500D01*
Y208499D01*
X202501Y207499D01*
X211498Y202501D02*
X207499D01*
X211498Y206500D01*
Y207499D01*
X210498Y208499D01*
X208499D01*
X207499Y207499D01*
X193001Y227001D02*
X192001Y226001D01*
Y224002D01*
X193001Y223002D01*
X196999D01*
X197999Y224002D01*
Y226001D01*
X196999Y227001D01*
X197999Y229000D02*
Y230999D01*
Y230000D01*
X192001D01*
X193001Y229000D01*
X197999Y233998D02*
Y235998D01*
Y234998D01*
X192001D01*
X193001Y233998D01*
X177501Y244001D02*
X176501Y243002D01*
Y241002D01*
X177501Y240002D01*
X181499D01*
X182499Y241002D01*
Y243002D01*
X181499Y244001D01*
X182499Y246001D02*
Y248000D01*
Y247000D01*
X176501D01*
X177501Y246001D01*
Y250999D02*
X176501Y251998D01*
Y253998D01*
X177501Y254998D01*
X181499D01*
X182499Y253998D01*
Y251998D01*
X181499Y250999D01*
X177501D01*
X84002Y31499D02*
Y26501D01*
X85001Y25501D01*
X87001D01*
X88000Y26501D01*
Y31499D01*
X90000Y30499D02*
X90999Y31499D01*
X92999D01*
X93998Y30499D01*
Y29500D01*
X92999Y28500D01*
X91999D01*
X92999D01*
X93998Y27500D01*
Y26501D01*
X92999Y25501D01*
X90999D01*
X90000Y26501D01*
X33002Y38499D02*
Y33501D01*
X34001Y32501D01*
X36001D01*
X37000Y33501D01*
Y38499D01*
X42998Y32501D02*
X39000D01*
X42998Y36500D01*
Y37499D01*
X41999Y38499D01*
X39999D01*
X39000Y37499D01*
X180800Y115100D02*
Y121098D01*
X183799D01*
X184799Y120098D01*
Y118099D01*
X183799Y117099D01*
X180800D01*
X182799D02*
X184799Y115100D01*
X186798D02*
X188797D01*
X187798D01*
Y121098D01*
X186798Y120098D01*
X13299Y271598D02*
X11299D01*
X12299D01*
Y266600D01*
X11299Y265600D01*
X10300D01*
X9300Y266600D01*
X19297Y271598D02*
X15298D01*
Y268599D01*
X17297Y269599D01*
X18297D01*
X19297Y268599D01*
Y266600D01*
X18297Y265600D01*
X16298D01*
X15298Y266600D01*
X157400Y120398D02*
Y114400D01*
X160399D01*
X161399Y115400D01*
Y119398D01*
X160399Y120398D01*
X157400D01*
X167397Y119398D02*
X166397Y120398D01*
X164398D01*
X163398Y119398D01*
Y118399D01*
X164398Y117399D01*
X166397D01*
X167397Y116399D01*
Y115400D01*
X166397Y114400D01*
X164398D01*
X163398Y115400D01*
X169396Y114400D02*
X171396D01*
X170396D01*
Y120398D01*
X169396Y119398D01*
X246300Y132598D02*
Y126600D01*
X249299D01*
X250299Y127600D01*
Y131598D01*
X249299Y132598D01*
X246300D01*
X255297Y126600D02*
Y132598D01*
X252298Y129599D01*
X256297D01*
X246300Y194098D02*
Y188100D01*
X249299D01*
X250299Y189100D01*
Y193098D01*
X249299Y194098D01*
X246300D01*
X252298Y193098D02*
X253298Y194098D01*
X255297D01*
X256297Y193098D01*
Y192099D01*
X255297Y191099D01*
X254297D01*
X255297D01*
X256297Y190099D01*
Y189100D01*
X255297Y188100D01*
X253298D01*
X252298Y189100D01*
X206300Y132098D02*
Y126100D01*
X209299D01*
X210299Y127100D01*
Y131098D01*
X209299Y132098D01*
X206300D01*
X216297Y126100D02*
X212298D01*
X216297Y130099D01*
Y131098D01*
X215297Y132098D01*
X213298D01*
X212298Y131098D01*
X206300Y193598D02*
Y187600D01*
X209299D01*
X210299Y188600D01*
Y192598D01*
X209299Y193598D01*
X206300D01*
X212298Y187600D02*
X214297D01*
X213298D01*
Y193598D01*
X212298Y192598D01*
X94599Y187898D02*
X93599Y188898D01*
X91600D01*
X90600Y187898D01*
Y183900D01*
X91600Y182900D01*
X93599D01*
X94599Y183900D01*
X96598D02*
X97598Y182900D01*
X99597D01*
X100597Y183900D01*
Y187898D01*
X99597Y188898D01*
X97598D01*
X96598Y187898D01*
Y186899D01*
X97598Y185899D01*
X100597D01*
X96843Y93499D02*
X95844Y94499D01*
X93844D01*
X92845Y93499D01*
Y89501D01*
X93844Y88501D01*
X95844D01*
X96843Y89501D01*
X98843Y93499D02*
X99842Y94499D01*
X101842D01*
X102841Y93499D01*
Y92500D01*
X101842Y91500D01*
X102841Y90500D01*
Y89501D01*
X101842Y88501D01*
X99842D01*
X98843Y89501D01*
Y90500D01*
X99842Y91500D01*
X98843Y92500D01*
Y93499D01*
X99842Y91500D02*
X101842D01*
X122000Y82999D02*
X121001Y83999D01*
X119001D01*
X118002Y82999D01*
Y79001D01*
X119001Y78001D01*
X121001D01*
X122000Y79001D01*
X124000Y83999D02*
X127998D01*
Y82999D01*
X124000Y79001D01*
Y78001D01*
X44099Y92398D02*
X43099Y93398D01*
X41100D01*
X40100Y92398D01*
Y88400D01*
X41100Y87400D01*
X43099D01*
X44099Y88400D01*
X50097Y87400D02*
X46098D01*
X50097Y91399D01*
Y92398D01*
X49097Y93398D01*
X47098D01*
X46098Y92398D01*
X64099D02*
X63099Y93398D01*
X61100D01*
X60100Y92398D01*
Y88400D01*
X61100Y87400D01*
X63099D01*
X64099Y88400D01*
X66098Y87400D02*
X68097D01*
X67098D01*
Y93398D01*
X66098Y92398D01*
D17*
X191968Y50862D02*
X191574Y51255D01*
X190787D01*
X190394Y50862D01*
Y49287D01*
X190787Y48894D01*
X191574D01*
X191968Y49287D01*
X192755Y51255D02*
Y48894D01*
X194329D01*
X195117Y51255D02*
Y48894D01*
Y49681D01*
X196691Y51255D01*
X195510Y50074D01*
X196691Y48894D01*
X182394Y51255D02*
X183181D01*
X182787D01*
Y48894D01*
X182394D01*
X183181D01*
X185542Y51255D02*
X184755D01*
X184362Y50862D01*
Y49287D01*
X184755Y48894D01*
X185542D01*
X185936Y49287D01*
Y50862D01*
X185542Y51255D01*
X172468Y50862D02*
X172074Y51255D01*
X171287D01*
X170894Y50862D01*
Y49287D01*
X171287Y48894D01*
X172074D01*
X172468Y49287D01*
Y50074D01*
X171681D01*
X173255Y48894D02*
Y51255D01*
X174829Y48894D01*
Y51255D01*
X175617D02*
Y48894D01*
X176797D01*
X177191Y49287D01*
Y50862D01*
X176797Y51255D01*
X175617D01*
X160894Y50862D02*
X161287Y51255D01*
X162074D01*
X162468Y50862D01*
Y50468D01*
X162074Y50074D01*
X161681D01*
X162074D01*
X162468Y49681D01*
Y49287D01*
X162074Y48894D01*
X161287D01*
X160894Y49287D01*
X163255Y51255D02*
Y49681D01*
X164042Y48894D01*
X164829Y49681D01*
Y51255D01*
X165617Y50862D02*
X166010Y51255D01*
X166797D01*
X167191Y50862D01*
Y50468D01*
X166797Y50074D01*
X166404D01*
X166797D01*
X167191Y49681D01*
Y49287D01*
X166797Y48894D01*
X166010D01*
X165617Y49287D01*
D18*
X185468Y272468D02*
X193340D01*
X153469Y279404D02*
X161340D01*
X157404Y283340D02*
Y275468D01*
X162031Y290468D02*
X156033D01*
X159032Y287469D01*
Y291467D01*
X157033Y293467D02*
X156033Y294466D01*
Y296466D01*
X157033Y297465D01*
X161032D01*
X162031Y296466D01*
Y294466D01*
X161032Y293467D01*
X157033D01*
Y299465D02*
X156033Y300464D01*
Y302464D01*
X157033Y303463D01*
X161032D01*
X162031Y302464D01*
Y300464D01*
X161032Y299465D01*
X157033D01*
X156033Y305463D02*
X160032D01*
X162031Y307462D01*
X160032Y309461D01*
X156033D01*
Y317459D02*
X162031D01*
Y320458D01*
X161032Y321458D01*
X157033D01*
X156033Y320458D01*
Y317459D01*
X157033Y327456D02*
X156033Y326456D01*
Y324457D01*
X157033Y323457D01*
X161032D01*
X162031Y324457D01*
Y326456D01*
X161032Y327456D01*
M02*
